<?xml version="1.0" encoding="UTF-8"?>
<svg width="120px" height="120px" viewBox="0 0 120 120" version="1.1" xmlns="http://www.w3.org/2000/svg" xmlns:xlink="http://www.w3.org/1999/xlink" style="background: #FFFFFF;">
    <!-- Generator: Sketch 49.3 (51167) - http://www.bohemiancoding.com/sketch -->
    <title>01</title>
    <desc>Created with Sketch.</desc>
    <defs></defs>
    <g id="Page-1" stroke="none" stroke-width="1" fill="none" fill-rule="evenodd">
        <g id="68747470733a2f2f63646e2e7261776769742e636f6d2f686172646d6172752f736b657463682d726e6e2f6d61737465722f6578616d706c652f747261696e696e672e737667" transform="translate(-22.000000, -20.000000)" fill-rule="nonzero">
            <rect id="Rectangle-path" fill="#FFFFFF" x="0" y="0" width="800" height="640"></rect>
            <path d="M48.62,38.125 L55.3635,42.295" id="Shape" stroke="#1F84C4" stroke-width="2" fill="#1F84C4"></path>
            <path d="M55.364,42.295 L59.8705,47.125" id="Shape" stroke="#1F84C4" stroke-width="2" fill="#1F84C4"></path>
            <path d="M41.62,53.385 L48.3635,56.39" id="Shape" stroke="#9862BF" stroke-width="2" fill="#9862BF"></path>
            <path d="M48.364,56.39 L52.8705,59.875" id="Shape" stroke="#9862BF" stroke-width="2" fill="#9862BF"></path>
            <path d="M41.87,77.835 L45.6205,77.715" id="Shape" stroke="#2113CA" stroke-width="2" fill="#2113CA"></path>
            <path d="M45.62,77.715 L50.8915,72.73" id="Shape" stroke="#2113CA" stroke-width="2" fill="#2113CA"></path>
            <path d="M50.892,72.73 L58.5555,65.274" id="Shape" stroke="#2113CA" stroke-width="2" fill="#2113CA"></path>
            <path d="M58.556,65.274 L63.6795,59.875" id="Shape" stroke="#2113CA" stroke-width="2" fill="#2113CA"></path>
            <path d="M73.4,41.725 L77.2895,42.425" id="Shape" stroke="#347DBC" stroke-width="2" fill="#347DBC"></path>
            <path d="M77.29,42.425 L86.7345,41.32" id="Shape" stroke="#347DBC" stroke-width="2" fill="#347DBC"></path>
            <path d="M86.734,41.32 L97.0215,40.4" id="Shape" stroke="#347DBC" stroke-width="2" fill="#347DBC"></path>
            <path d="M97.022,40.4 L104.1795,39.775" id="Shape" stroke="#347DBC" stroke-width="2" fill="#347DBC"></path>
            <path d="M104.18,39.775 L108.0595,42.435" id="Shape" stroke="#347DBC" stroke-width="2" fill="#347DBC"></path>
            <path d="M108.059,42.435 L106.5705,50.264" id="Shape" stroke="#347DBC" stroke-width="2" fill="#347DBC"></path>
            <path d="M106.57,50.264 L103.2285,60.933" id="Shape" stroke="#347DBC" stroke-width="2" fill="#347DBC"></path>
            <path d="M103.228,60.933 L98.5795,70.095" id="Shape" stroke="#347DBC" stroke-width="2" fill="#347DBC"></path>
            <path d="M98.579,70.095 L92.1495,70.255" id="Shape" stroke="#347DBC" stroke-width="2" fill="#347DBC"></path>
            <path d="M90.119,44.375 L89.9995,47.025" id="Shape" stroke="#93D70F" stroke-width="2" fill="#93D70F"></path>
            <path d="M89.999,47.025 L87.1795,56.425" id="Shape" stroke="#93D70F" stroke-width="2" fill="#93D70F"></path>
            <path d="M87.179,56.425 L81.3165,65.625" id="Shape" stroke="#93D70F" stroke-width="2" fill="#93D70F"></path>
            <path d="M81.316,65.625 L70.6095,74.025" id="Shape" stroke="#93D70F" stroke-width="2" fill="#93D70F"></path>
            <path d="M77.37,52.625 L74.5885,58.161" id="Shape" stroke="#D3DAC7" stroke-width="2" fill="#D3DAC7"></path>
            <path d="M74.588,58.161 L70.1195,62.895" id="Shape" stroke="#D3DAC7" stroke-width="2" fill="#D3DAC7"></path>
            <path d="M111.37,56.545 L116.3115,61.768" id="Shape" stroke="#BDACA2" stroke-width="2" fill="#BDACA2"></path>
            <path d="M116.311,61.768 L119.6195,67.815" id="Shape" stroke="#BDACA2" stroke-width="2" fill="#BDACA2"></path>
            <path d="M56.619,81.125 L62.0625,85.065" id="Shape" stroke="#9F8211" stroke-width="2" fill="#9F8211"></path>
            <path d="M62.062,85.065 L65.6595,89.665" id="Shape" stroke="#9F8211" stroke-width="2" fill="#9F8211"></path>
            <path d="M101.859,78.875 L101.8195,80.085" id="Shape" stroke="#7D9D51" stroke-width="2" fill="#7D9D51"></path>
            <path d="M101.819,80.085 L99.4075,85.525" id="Shape" stroke="#7D9D51" stroke-width="2" fill="#7D9D51"></path>
            <path d="M99.407,85.525 L94.3705,91.625" id="Shape" stroke="#7D9D51" stroke-width="2" fill="#7D9D51"></path>
            <path d="M42.27,96.565 L48.4705,96.975" id="Shape" stroke="#BF816E" stroke-width="2" fill="#BF816E"></path>
            <path d="M48.47,96.975 L65.7065,96.241" id="Shape" stroke="#BF816E" stroke-width="2" fill="#BF816E"></path>
            <path d="M65.706,96.241 L92.3715,94.773" id="Shape" stroke="#BF816E" stroke-width="2" fill="#BF816E"></path>
            <path d="M92.371,94.773 L112.4405,94.125" id="Shape" stroke="#BF816E" stroke-width="2" fill="#BF816E"></path>
            <path d="M112.44,94.125 L118.3305,94.635" id="Shape" stroke="#BF816E" stroke-width="2" fill="#BF816E"></path>
            <path d="M78.04,77.875 L79.5105,80.245" id="Shape" stroke="#55D77F" stroke-width="2" fill="#55D77F"></path>
            <path d="M79.51,80.245 L79.5515,90.04" id="Shape" stroke="#55D77F" stroke-width="2" fill="#55D77F"></path>
            <path d="M79.551,90.04 L79.3965,108.317" id="Shape" stroke="#55D77F" stroke-width="2" fill="#55D77F"></path>
            <path d="M79.396,108.317 L79.2905,120.125" id="Shape" stroke="#55D77F" stroke-width="2" fill="#55D77F"></path>
            <path d="M79.29,120.125 L71.8705,121.875" id="Shape" stroke="#55D77F" stroke-width="2" fill="#55D77F"></path>
            <path d="M76.61,95.765 L67.5705,104.697" id="Shape" stroke="#6C290D" stroke-width="2" fill="#6C290D"></path>
            <path d="M67.57,104.697 L54.7335,113.596" id="Shape" stroke="#6C290D" stroke-width="2" fill="#6C290D"></path>
            <path d="M54.733,113.596 L40.3805,120.215" id="Shape" stroke="#6C290D" stroke-width="2" fill="#6C290D"></path>
            <path d="M80.97,96.485 L89.7565,102.87" id="Shape" stroke="#DC769D" stroke-width="2" fill="#DC769D"></path>
            <path d="M89.756,102.87 L102.1475,111.93" id="Shape" stroke="#DC769D" stroke-width="2" fill="#DC769D"></path>
            <path d="M102.147,111.93 L111.2005,118.275" id="Shape" stroke="#DC769D" stroke-width="2" fill="#DC769D"></path>
            <path d="M111.2,118.275 L116.1205,120.135" id="Shape" stroke="#DC769D" stroke-width="2" fill="#DC769D"></path>
        </g>
    </g>
</svg>