<?xml version="1.0" encoding="UTF-8"?>
<svg width="120px" height="120px" viewBox="0 0 120 120" version="1.1" xmlns="http://www.w3.org/2000/svg" xmlns:xlink="http://www.w3.org/1999/xlink" style="background: #FFFFFF;">
    <!-- Generator: Sketch 49.3 (51167) - http://www.bohemiancoding.com/sketch -->
    <title>02</title>
    <desc>Created with Sketch.</desc>
    <defs></defs>
    <g id="Page-1" stroke="none" stroke-width="1" fill="none" fill-rule="evenodd">
        <g id="68747470733a2f2f63646e2e7261776769742e636f6d2f686172646d6172752f736b657463682d726e6e2f6d61737465722f6578616d706c652f747261696e696e672e737667" transform="translate(-182.000000, -20.000000)" fill-rule="nonzero">
            <rect id="Rectangle-path" fill="#FFFFFF" x="0" y="0" width="800" height="640"></rect>
            <path d="M219.861,41.38 L219.741,45.3095" id="Shape" stroke="#DC769D" stroke-width="2" fill="#DC769D"></path>
            <path d="M219.741,45.309 L215.632,56.3285" id="Shape" stroke="#DC769D" stroke-width="2" fill="#DC769D"></path>
            <path d="M215.632,56.328 L208.356,69.8585" id="Shape" stroke="#DC769D" stroke-width="2" fill="#DC769D"></path>
            <path d="M208.356,69.858 L198.92,82.9505" id="Shape" stroke="#DC769D" stroke-width="2" fill="#DC769D"></path>
            <path d="M213.39,66.49 L214.15,69.7205" id="Shape" stroke="#B01C57" stroke-width="2" fill="#B01C57"></path>
            <path d="M214.15,69.721 L214.075,86.2405" id="Shape" stroke="#B01C57" stroke-width="2" fill="#B01C57"></path>
            <path d="M214.075,86.24 L213.935,104.9475" id="Shape" stroke="#B01C57" stroke-width="2" fill="#B01C57"></path>
            <path d="M213.935,104.947 L213.86,118.6205" id="Shape" stroke="#B01C57" stroke-width="2" fill="#B01C57"></path>
            <path d="M229.86,52.08 L231.42,56.1805" id="Shape" stroke="#C0ACB8" stroke-width="2" fill="#C0ACB8"></path>
            <path d="M231.42,56.18 L231.99,72.5655" id="Shape" stroke="#C0ACB8" stroke-width="2" fill="#C0ACB8"></path>
            <path d="M231.99,72.565 L232.424,93.1455" id="Shape" stroke="#C0ACB8" stroke-width="2" fill="#C0ACB8"></path>
            <path d="M232.424,93.145 L232.88,114.9905" id="Shape" stroke="#C0ACB8" stroke-width="2" fill="#C0ACB8"></path>
            <path d="M231.54,54.08 L246.587,52.6815" id="Shape" stroke="#1FCA81" stroke-width="2" fill="#1FCA81"></path>
            <path d="M246.587,52.681 L263.14,51.1115" id="Shape" stroke="#1FCA81" stroke-width="2" fill="#1FCA81"></path>
            <path d="M263.14,51.111 L276.06,49.7395" id="Shape" stroke="#1FCA81" stroke-width="2" fill="#1FCA81"></path>
            <path d="M276.06,49.739 L281.08,55.8895" id="Shape" stroke="#1FCA81" stroke-width="2" fill="#1FCA81"></path>
            <path d="M281.08,55.889 L279.847,72.1825" id="Shape" stroke="#1FCA81" stroke-width="2" fill="#1FCA81"></path>
            <path d="M279.847,72.182 L278.146,93.7705" id="Shape" stroke="#1FCA81" stroke-width="2" fill="#1FCA81"></path>
            <path d="M278.146,93.77 L276.9,114.4295" id="Shape" stroke="#1FCA81" stroke-width="2" fill="#1FCA81"></path>
            <path d="M254.29,54.419 L255.25,58.6195" id="Shape" stroke="#46D8D8" stroke-width="2" fill="#46D8D8"></path>
            <path d="M255.25,58.619 L255.285,76.7555" id="Shape" stroke="#46D8D8" stroke-width="2" fill="#46D8D8"></path>
            <path d="M255.285,76.755 L255.402,98.1565" id="Shape" stroke="#46D8D8" stroke-width="2" fill="#46D8D8"></path>
            <path d="M255.402,98.156 L255.47,110.9595" id="Shape" stroke="#46D8D8" stroke-width="2" fill="#46D8D8"></path>
            <path d="M232.8,81.999 L243.161,80.9785" id="Shape" stroke="#937A1E" stroke-width="2" fill="#937A1E"></path>
            <path d="M243.161,80.978 L253.575,80.3045" id="Shape" stroke="#937A1E" stroke-width="2" fill="#937A1E"></path>
            <path d="M253.575,80.304 L263.969,79.6905" id="Shape" stroke="#937A1E" stroke-width="2" fill="#937A1E"></path>
            <path d="M263.969,79.69 L267.599,79.4505" id="Shape" stroke="#937A1E" stroke-width="2" fill="#937A1E"></path>
            <path d="M233.039,112.18 L245.625,111.8015" id="Shape" stroke="#B59A28" stroke-width="2" fill="#B59A28"></path>
            <path d="M245.625,111.801 L261.857,111.0425" id="Shape" stroke="#B59A28" stroke-width="2" fill="#B59A28"></path>
            <path d="M261.857,111.042 L276.749,110.4705" id="Shape" stroke="#B59A28" stroke-width="2" fill="#B59A28"></path>
        </g>
    </g>
</svg>