<?xml version="1.0" encoding="UTF-8"?>
<svg width="120px" height="120px" viewBox="0 0 120 120" version="1.1" xmlns="http://www.w3.org/2000/svg" xmlns:xlink="http://www.w3.org/1999/xlink" style="background: #FFFFFF;">
    <!-- Generator: Sketch 49.3 (51167) - http://www.bohemiancoding.com/sketch -->
    <title>03</title>
    <desc>Created with Sketch.</desc>
    <defs></defs>
    <g id="Page-1" stroke="none" stroke-width="1" fill="none" fill-rule="evenodd">
        <g id="68747470733a2f2f63646e2e7261776769742e636f6d2f686172646d6172752f736b657463682d726e6e2f6d61737465722f6578616d706c652f747261696e696e672e737667" transform="translate(-342.000000, -20.000000)" fill-rule="nonzero">
            <rect id="Rectangle-path" fill="#FFFFFF" x="0" y="0" width="800" height="640"></rect>
            <path d="M364.879,43.83 L372.143,47.579" id="Shape" stroke="#B59A28" stroke-width="2" fill="#B59A28"></path>
            <path d="M372.143,47.579 L376.999,51.92" id="Shape" stroke="#B59A28" stroke-width="2" fill="#B59A28"></path>
            <path d="M359.749,69.33 L367.089,72.571" id="Shape" stroke="#2800AE" stroke-width="2" fill="#2800AE"></path>
            <path d="M367.089,72.571 L371.999,76.33" id="Shape" stroke="#2800AE" stroke-width="2" fill="#2800AE"></path>
            <path d="M361.999,115.94 L365.669,114.16" id="Shape" stroke="#54164C" stroke-width="2" fill="#54164C"></path>
            <path d="M365.669,114.16 L368.52,108.51" id="Shape" stroke="#54164C" stroke-width="2" fill="#54164C"></path>
            <path d="M368.52,108.51 L371.315,102.177" id="Shape" stroke="#54164C" stroke-width="2" fill="#54164C"></path>
            <path d="M371.315,102.177 L373.999,95.58" id="Shape" stroke="#54164C" stroke-width="2" fill="#54164C"></path>
            <path d="M419.309,42.22 L417.799,44.67" id="Shape" stroke="#C9173D" stroke-width="2" fill="#C9173D"></path>
            <path d="M417.799,44.67 L409.338,48.694" id="Shape" stroke="#C9173D" stroke-width="2" fill="#C9173D"></path>
            <path d="M409.338,48.694 L400.348,52.009" id="Shape" stroke="#C9173D" stroke-width="2" fill="#C9173D"></path>
            <path d="M400.348,52.009 L389.02,55.1" id="Shape" stroke="#C9173D" stroke-width="2" fill="#C9173D"></path>
            <path d="M382.85,66.78 L390.51,66.77" id="Shape" stroke="#7D48AA" stroke-width="2" fill="#7D48AA"></path>
            <path d="M390.51,66.77 L402.514,65.313" id="Shape" stroke="#7D48AA" stroke-width="2" fill="#7D48AA"></path>
            <path d="M402.514,65.313 L416.08,63.563" id="Shape" stroke="#7D48AA" stroke-width="2" fill="#7D48AA"></path>
            <path d="M416.08,63.563 L429.01,62.12" id="Shape" stroke="#7D48AA" stroke-width="2" fill="#7D48AA"></path>
            <path d="M429.01,62.12 L437.35,62.36" id="Shape" stroke="#7D48AA" stroke-width="2" fill="#7D48AA"></path>
            <path d="M406.92,53.27 L406.84,56.47" id="Shape" stroke="#69ACB4" stroke-width="2" fill="#69ACB4"></path>
            <path d="M406.84,56.47 L400.459,72.241" id="Shape" stroke="#69ACB4" stroke-width="2" fill="#69ACB4"></path>
            <path d="M400.459,72.241 L392.422,84.672" id="Shape" stroke="#69ACB4" stroke-width="2" fill="#69ACB4"></path>
            <path d="M392.422,84.672 L381.001,95.83" id="Shape" stroke="#69ACB4" stroke-width="2" fill="#69ACB4"></path>
            <path d="M409.041,64.85 L416.688,72.526" id="Shape" stroke="#2D0176" stroke-width="2" fill="#2D0176"></path>
            <path d="M416.688,72.526 L425.988,81.748" id="Shape" stroke="#2D0176" stroke-width="2" fill="#2D0176"></path>
            <path d="M425.988,81.748 L434.601,89.51" id="Shape" stroke="#2D0176" stroke-width="2" fill="#2D0176"></path>
            <path d="M434.601,89.51 L440.251,93.41" id="Shape" stroke="#2D0176" stroke-width="2" fill="#2D0176"></path>
            <path d="M404.211,86.41 L405.271,90.16" id="Shape" stroke="#72420A" stroke-width="2" fill="#72420A"></path>
            <path d="M405.271,90.16 L405.287,102.077" id="Shape" stroke="#72420A" stroke-width="2" fill="#72420A"></path>
            <path d="M405.287,102.077 L405.316,111.383" id="Shape" stroke="#72420A" stroke-width="2" fill="#72420A"></path>
            <path d="M405.316,111.383 L405.332,117.56" id="Shape" stroke="#72420A" stroke-width="2" fill="#72420A"></path>
            <path d="M405.332,117.56 L398.842,117.78" id="Shape" stroke="#72420A" stroke-width="2" fill="#72420A"></path>
            <path d="M390.252,103.08 L387.629,111.064" id="Shape" stroke="#42D70E" stroke-width="2" fill="#42D70E"></path>
            <path d="M387.629,111.064 L384.002,116.46" id="Shape" stroke="#42D70E" stroke-width="2" fill="#42D70E"></path>
            <path d="M416.252,102.33 L420.412,108.107" id="Shape" stroke="#47A236" stroke-width="2" fill="#47A236"></path>
            <path d="M420.412,108.107 L423.192,114.8" id="Shape" stroke="#47A236" stroke-width="2" fill="#47A236"></path>
            <path d="M432.392,101.16 L436.623,106.316" id="Shape" stroke="#8BC6A8" stroke-width="2" fill="#8BC6A8"></path>
            <path d="M436.623,106.316 L439.452,112.29" id="Shape" stroke="#8BC6A8" stroke-width="2" fill="#8BC6A8"></path>
        </g>
    </g>
</svg>