<?xml version="1.0" encoding="UTF-8"?>
<svg width="120px" height="120px" viewBox="0 0 120 120" version="1.1" xmlns="http://www.w3.org/2000/svg" xmlns:xlink="http://www.w3.org/1999/xlink" style="background: #FFFFFF;">
    <!-- Generator: Sketch 49.3 (51167) - http://www.bohemiancoding.com/sketch -->
    <title>04</title>
    <desc>Created with Sketch.</desc>
    <defs></defs>
    <g id="Page-1" stroke="none" stroke-width="1" fill="none" fill-rule="evenodd">
        <g id="68747470733a2f2f63646e2e7261776769742e636f6d2f686172646d6172752f736b657463682d726e6e2f6d61737465722f6578616d706c652f747261696e696e672e737667" transform="translate(-497.000000, -20.000000)" fill-rule="nonzero">
            <rect id="Rectangle-path" fill="#FFFFFF" x="0" y="0" width="800" height="640"></rect>
            <path d="M537.156,45.634 L540.336,45.954" id="Shape" stroke="#8BC6A8" stroke-width="2" fill="#8BC6A8"></path>
            <path d="M540.336,45.954 L552.712,45.378" id="Shape" stroke="#8BC6A8" stroke-width="2" fill="#8BC6A8"></path>
            <path d="M552.712,45.378 L566.783,44.107" id="Shape" stroke="#8BC6A8" stroke-width="2" fill="#8BC6A8"></path>
            <path d="M566.783,44.107 L579.346,43.244" id="Shape" stroke="#8BC6A8" stroke-width="2" fill="#8BC6A8"></path>
            <path d="M579.346,43.244 L582.246,43.554" id="Shape" stroke="#8BC6A8" stroke-width="2" fill="#8BC6A8"></path>
            <path d="M558.786,34.724 L560.206,37.434" id="Shape" stroke="#08723D" stroke-width="2" fill="#08723D"></path>
            <path d="M560.206,37.434 L560.061,44.14" id="Shape" stroke="#08723D" stroke-width="2" fill="#08723D"></path>
            <path d="M560.061,44.14 L559.916,54.814" id="Shape" stroke="#08723D" stroke-width="2" fill="#08723D"></path>
            <path d="M528.656,56.694 L533.316,57.124" id="Shape" stroke="#676D40" stroke-width="2" fill="#676D40"></path>
            <path d="M533.316,57.124 L551.758,55.629" id="Shape" stroke="#676D40" stroke-width="2" fill="#676D40"></path>
            <path d="M551.758,55.629 L572.814,54.012" id="Shape" stroke="#676D40" stroke-width="2" fill="#676D40"></path>
            <path d="M572.814,54.012 L590.196,52.944" id="Shape" stroke="#676D40" stroke-width="2" fill="#676D40"></path>
            <path d="M590.196,52.944 L594.446,53.364" id="Shape" stroke="#676D40" stroke-width="2" fill="#676D40"></path>
            <path d="M524.546,71.244 L527.546,71.604" id="Shape" stroke="#A50394" stroke-width="2" fill="#A50394"></path>
            <path d="M527.546,71.604 L535.061,70.851" id="Shape" stroke="#A50394" stroke-width="2" fill="#A50394"></path>
            <path d="M535.061,70.851 L544.798,69.598" id="Shape" stroke="#A50394" stroke-width="2" fill="#A50394"></path>
            <path d="M544.798,69.598 L552.546,68.605" id="Shape" stroke="#A50394" stroke-width="2" fill="#A50394"></path>
            <path d="M552.546,68.605 L555.796,68.615" id="Shape" stroke="#A50394" stroke-width="2" fill="#A50394"></path>
            <path d="M539.416,62.105 L541.376,65.355" id="Shape" stroke="#754BD9" stroke-width="2" fill="#754BD9"></path>
            <path d="M541.376,65.355 L541.391,72.293" id="Shape" stroke="#754BD9" stroke-width="2" fill="#754BD9"></path>
            <path d="M541.391,72.293 L541.406,81.856" id="Shape" stroke="#754BD9" stroke-width="2" fill="#754BD9"></path>
            <path d="M526.046,85.296 L530.666,85.916" id="Shape" stroke="#A20612" stroke-width="2" fill="#A20612"></path>
            <path d="M530.666,85.916 L538.413,83.304" id="Shape" stroke="#A20612" stroke-width="2" fill="#A20612"></path>
            <path d="M538.413,83.304 L547.298,80.218" id="Shape" stroke="#A20612" stroke-width="2" fill="#A20612"></path>
            <path d="M547.298,80.218 L555.045,77.606" id="Shape" stroke="#A20612" stroke-width="2" fill="#A20612"></path>
            <path d="M562.155,68.136 L565.335,68.456" id="Shape" stroke="#212497" stroke-width="2" fill="#212497"></path>
            <path d="M565.335,68.456 L573.827,67.986" id="Shape" stroke="#212497" stroke-width="2" fill="#212497"></path>
            <path d="M573.827,67.986 L582.959,67.209" id="Shape" stroke="#212497" stroke-width="2" fill="#212497"></path>
            <path d="M582.959,67.209 L591.345,66.746" id="Shape" stroke="#212497" stroke-width="2" fill="#212497"></path>
            <path d="M591.345,66.746 L594.245,67.056" id="Shape" stroke="#212497" stroke-width="2" fill="#212497"></path>
            <path d="M575.285,58.726 L576.705,61.436" id="Shape" stroke="#219E6C" stroke-width="2" fill="#219E6C"></path>
            <path d="M576.705,61.436 L576.56,68.892" id="Shape" stroke="#219E6C" stroke-width="2" fill="#219E6C"></path>
            <path d="M576.56,68.892 L576.415,80.316" id="Shape" stroke="#219E6C" stroke-width="2" fill="#219E6C"></path>
            <path d="M559.755,81.836 L563.945,82.136" id="Shape" stroke="#368A14" stroke-width="2" fill="#368A14"></path>
            <path d="M563.945,82.136 L574.335,81.359" id="Shape" stroke="#368A14" stroke-width="2" fill="#368A14"></path>
            <path d="M574.335,81.359 L586.265,80.393" id="Shape" stroke="#368A14" stroke-width="2" fill="#368A14"></path>
            <path d="M586.265,80.393 L596.675,79.696" id="Shape" stroke="#368A14" stroke-width="2" fill="#368A14"></path>
            <path d="M596.675,79.696 L600.045,79.996" id="Shape" stroke="#368A14" stroke-width="2" fill="#368A14"></path>
            <path d="M528.045,95.006 L533.685,95.376" id="Shape" stroke="#AC7B90" stroke-width="2" fill="#AC7B90"></path>
            <path d="M533.685,95.376 L549.836,94.022" id="Shape" stroke="#AC7B90" stroke-width="2" fill="#AC7B90"></path>
            <path d="M549.836,94.022 L571.75,91.79" id="Shape" stroke="#AC7B90" stroke-width="2" fill="#AC7B90"></path>
            <path d="M571.75,91.79 L590.395,90.616" id="Shape" stroke="#AC7B90" stroke-width="2" fill="#AC7B90"></path>
            <path d="M590.395,90.616 L595.545,90.976" id="Shape" stroke="#AC7B90" stroke-width="2" fill="#AC7B90"></path>
            <path d="M550.025,97.106 L549.855,99.776" id="Shape" stroke="#AAC1C0" stroke-width="2" fill="#AAC1C0"></path>
            <path d="M549.855,99.776 L544.981,107.445" id="Shape" stroke="#AAC1C0" stroke-width="2" fill="#AAC1C0"></path>
            <path d="M544.981,107.445 L534.829,117.034" id="Shape" stroke="#AAC1C0" stroke-width="2" fill="#AAC1C0"></path>
            <path d="M534.829,117.034 L519.955,125.276" id="Shape" stroke="#AAC1C0" stroke-width="2" fill="#AAC1C0"></path>
            <path d="M566.035,94.976 L567.415,99.406" id="Shape" stroke="#824C96" stroke-width="2" fill="#824C96"></path>
            <path d="M567.415,99.406 L567.4,104.09" id="Shape" stroke="#824C96" stroke-width="2" fill="#824C96"></path>
            <path d="M567.4,104.09 L567.385,111.106" id="Shape" stroke="#824C96" stroke-width="2" fill="#824C96"></path>
            <path d="M567.385,111.106 L568.762,118.429" id="Shape" stroke="#824C96" stroke-width="2" fill="#824C96"></path>
            <path d="M568.762,118.429 L573.844,121.814" id="Shape" stroke="#824C96" stroke-width="2" fill="#824C96"></path>
            <path d="M573.844,121.814 L584.055,122.637" id="Shape" stroke="#824C96" stroke-width="2" fill="#824C96"></path>
            <path d="M584.055,122.637 L596.719,120.517" id="Shape" stroke="#824C96" stroke-width="2" fill="#824C96"></path>
            <path d="M596.719,120.517 L599.445,112.517" id="Shape" stroke="#824C96" stroke-width="2" fill="#824C96"></path>
        </g>
    </g>
</svg>