<?xml version="1.0" encoding="UTF-8"?>
<svg width="120px" height="120px" viewBox="0 0 120 120" version="1.1" xmlns="http://www.w3.org/2000/svg" xmlns:xlink="http://www.w3.org/1999/xlink" style="background: #FFFFFF;">
    <!-- Generator: Sketch 49.3 (51167) - http://www.bohemiancoding.com/sketch -->
    <title>06</title>
    <desc>Created with Sketch.</desc>
    <defs></defs>
    <g id="Page-1" stroke="none" stroke-width="1" fill="none" fill-rule="evenodd">
        <g id="68747470733a2f2f63646e2e7261776769742e636f6d2f686172646d6172752f736b657463682d726e6e2f6d61737465722f6578616d706c652f747261696e696e672e737667" transform="translate(-22.000000, -180.000000)" fill-rule="nonzero">
            <rect id="Rectangle-path" fill="#FFFFFF" x="0" y="0" width="800" height="640"></rect>
            <path d="M38.535,224.304 L41.845,224.614" id="Shape" stroke="#D66119" stroke-width="2" fill="#D66119"></path>
            <path d="M41.845,224.614 L48.01,223.944" id="Shape" stroke="#D66119" stroke-width="2" fill="#D66119"></path>
            <path d="M48.01,223.944 L56.537,222.901" id="Shape" stroke="#D66119" stroke-width="2" fill="#D66119"></path>
            <path d="M56.537,222.901 L64.295,221.704" id="Shape" stroke="#D66119" stroke-width="2" fill="#D66119"></path>
            <path d="M64.295,221.704 L67.025,221.704" id="Shape" stroke="#D66119" stroke-width="2" fill="#D66119"></path>
            <path d="M52.615,200.584 L55.155,205.004" id="Shape" stroke="#1F708F" stroke-width="2" fill="#1F708F"></path>
            <path d="M55.155,205.004 L55.077,222.3" id="Shape" stroke="#1F708F" stroke-width="2" fill="#1F708F"></path>
            <path d="M55.077,222.3 L54.933,254.536" id="Shape" stroke="#1F708F" stroke-width="2" fill="#1F708F"></path>
            <path d="M54.933,254.536 L54.855,275.085" id="Shape" stroke="#1F708F" stroke-width="2" fill="#1F708F"></path>
            <path d="M54.855,275.085 L47.505,276.835" id="Shape" stroke="#1F708F" stroke-width="2" fill="#1F708F"></path>
            <path d="M54.695,225.365 L50.078,238.085" id="Shape" stroke="#4DCF8F" stroke-width="2" fill="#4DCF8F"></path>
            <path d="M50.078,238.085 L45.343,248.458" id="Shape" stroke="#4DCF8F" stroke-width="2" fill="#4DCF8F"></path>
            <path d="M45.343,248.458 L38.866,259.925" id="Shape" stroke="#4DCF8F" stroke-width="2" fill="#4DCF8F"></path>
            <path d="M57.726,232.485 L62.005,236.847" id="Shape" stroke="#390683" stroke-width="2" fill="#390683"></path>
            <path d="M62.005,236.847 L66.006,242.334" id="Shape" stroke="#390683" stroke-width="2" fill="#390683"></path>
            <path d="M72.306,203.624 L73.226,205.574" id="Shape" stroke="#0A9A4D" stroke-width="2" fill="#0A9A4D"></path>
            <path d="M73.226,205.574 L74.071,212.681" id="Shape" stroke="#0A9A4D" stroke-width="2" fill="#0A9A4D"></path>
            <path d="M74.071,212.681 L75.641,225.004" id="Shape" stroke="#0A9A4D" stroke-width="2" fill="#0A9A4D"></path>
            <path d="M75.641,225.004 L76.486,231.804" id="Shape" stroke="#0A9A4D" stroke-width="2" fill="#0A9A4D"></path>
            <path d="M72.846,204.754 L83.399,203.843" id="Shape" stroke="#76329E" stroke-width="2" fill="#76329E"></path>
            <path d="M83.399,203.843 L100.726,202.249" id="Shape" stroke="#76329E" stroke-width="2" fill="#76329E"></path>
            <path d="M100.726,202.249 L111.126,201.324" id="Shape" stroke="#76329E" stroke-width="2" fill="#76329E"></path>
            <path d="M111.126,201.324 L114.216,204.794" id="Shape" stroke="#76329E" stroke-width="2" fill="#76329E"></path>
            <path d="M114.216,204.794 L113.552,209.593" id="Shape" stroke="#76329E" stroke-width="2" fill="#76329E"></path>
            <path d="M113.552,209.593 L112.057,218.899" id="Shape" stroke="#76329E" stroke-width="2" fill="#76329E"></path>
            <path d="M112.057,218.899 L110.146,229.365" id="Shape" stroke="#76329E" stroke-width="2" fill="#76329E"></path>
            <path d="M75.346,216.695 L84.442,215.825" id="Shape" stroke="#18A97D" stroke-width="2" fill="#18A97D"></path>
            <path d="M84.442,215.825 L94.707,214.818" id="Shape" stroke="#18A97D" stroke-width="2" fill="#18A97D"></path>
            <path d="M94.707,214.818 L101.756,214.335" id="Shape" stroke="#18A97D" stroke-width="2" fill="#18A97D"></path>
            <path d="M76.836,229.065 L86.399,228.362" id="Shape" stroke="#0BA9BD" stroke-width="2" fill="#0BA9BD"></path>
            <path d="M86.399,228.362 L98.349,227.491" id="Shape" stroke="#0BA9BD" stroke-width="2" fill="#0BA9BD"></path>
            <path d="M98.349,227.491 L109.086,226.835" id="Shape" stroke="#0BA9BD" stroke-width="2" fill="#0BA9BD"></path>
            <path d="M75.756,252.835 L83.162,251.741" id="Shape" stroke="#288B70" stroke-width="2" fill="#288B70"></path>
            <path d="M83.162,251.741 L88.506,250.835" id="Shape" stroke="#288B70" stroke-width="2" fill="#288B70"></path>
            <path d="M88.506,250.835 L91.506,250.835" id="Shape" stroke="#288B70" stroke-width="2" fill="#288B70"></path>
            <path d="M73.976,238.285 L75.096,240.245" id="Shape" stroke="#0B1EB5" stroke-width="2" fill="#0B1EB5"></path>
            <path d="M75.096,240.245 L75.222,248.87" id="Shape" stroke="#0B1EB5" stroke-width="2" fill="#0B1EB5"></path>
            <path d="M75.222,248.87 L75.119,264.504" id="Shape" stroke="#0B1EB5" stroke-width="2" fill="#0B1EB5"></path>
            <path d="M75.119,264.504 L74.845,274.395" id="Shape" stroke="#0B1EB5" stroke-width="2" fill="#0B1EB5"></path>
            <path d="M74.845,274.395 L78.085,276.225" id="Shape" stroke="#0B1EB5" stroke-width="2" fill="#0B1EB5"></path>
            <path d="M78.085,276.225 L84.051,272.071" id="Shape" stroke="#0B1EB5" stroke-width="2" fill="#0B1EB5"></path>
            <path d="M84.051,272.071 L90.985,267.775" id="Shape" stroke="#0B1EB5" stroke-width="2" fill="#0B1EB5"></path>
            <path d="M99.005,252.715 L108.29,251.485" id="Shape" stroke="#CD1D17" stroke-width="2" fill="#CD1D17"></path>
            <path d="M108.29,251.485 L114.995,250.465" id="Shape" stroke="#CD1D17" stroke-width="2" fill="#CD1D17"></path>
            <path d="M114.995,250.465 L118.755,250.465" id="Shape" stroke="#CD1D17" stroke-width="2" fill="#CD1D17"></path>
            <path d="M96.635,235.835 L98.315,239.715" id="Shape" stroke="#2A4910" stroke-width="2" fill="#2A4910"></path>
            <path d="M98.315,239.715 L98.204,248.962" id="Shape" stroke="#2A4910" stroke-width="2" fill="#2A4910"></path>
            <path d="M98.204,248.962 L98.113,261.909" id="Shape" stroke="#2A4910" stroke-width="2" fill="#2A4910"></path>
            <path d="M98.113,261.909 L98.075,269.776" id="Shape" stroke="#2A4910" stroke-width="2" fill="#2A4910"></path>
            <path d="M98.075,269.776 L102.203,278.792" id="Shape" stroke="#2A4910" stroke-width="2" fill="#2A4910"></path>
            <path d="M102.203,278.792 L110.905,279.416" id="Shape" stroke="#2A4910" stroke-width="2" fill="#2A4910"></path>
            <path d="M110.905,279.416 L117.291,279.041" id="Shape" stroke="#2A4910" stroke-width="2" fill="#2A4910"></path>
            <path d="M117.291,279.041 L121.465,277.376" id="Shape" stroke="#2A4910" stroke-width="2" fill="#2A4910"></path>
        </g>
    </g>
</svg>