<?xml version="1.0" encoding="UTF-8"?>
<svg width="120px" height="120px" viewBox="0 0 120 120" version="1.1" xmlns="http://www.w3.org/2000/svg" xmlns:xlink="http://www.w3.org/1999/xlink" style="background: #FFFFFF;">
    <!-- Generator: Sketch 49.3 (51167) - http://www.bohemiancoding.com/sketch -->
    <title>09</title>
    <desc>Created with Sketch.</desc>
    <defs></defs>
    <g id="Page-1" stroke="none" stroke-width="1" fill="none" fill-rule="evenodd">
        <g id="68747470733a2f2f63646e2e7261776769742e636f6d2f686172646d6172752f736b657463682d726e6e2f6d61737465722f6578616d706c652f747261696e696e672e737667" transform="translate(-497.000000, -180.000000)" fill-rule="nonzero">
            <rect id="Rectangle-path" fill="#FFFFFF" x="0" y="0" width="800" height="640"></rect>
            <path d="M519.439,222.05 L520.699,225.6005" id="Shape" stroke="#892D5E" stroke-width="2" fill="#892D5E"></path>
            <path d="M520.699,225.601 L522.057,234.1795" id="Shape" stroke="#892D5E" stroke-width="2" fill="#892D5E"></path>
            <path d="M522.057,234.18 L523.49,244.1305" id="Shape" stroke="#892D5E" stroke-width="2" fill="#892D5E"></path>
            <path d="M523.49,244.131 L524.34,250.6205" id="Shape" stroke="#892D5E" stroke-width="2" fill="#892D5E"></path>
            <path d="M521.76,224.511 L531.03,222.8885" id="Shape" stroke="#4BB007" stroke-width="2" fill="#4BB007"></path>
            <path d="M531.03,222.889 L539.94,221.2805" id="Shape" stroke="#4BB007" stroke-width="2" fill="#4BB007"></path>
            <path d="M539.94,221.281 L543.55,224.8805" id="Shape" stroke="#4BB007" stroke-width="2" fill="#4BB007"></path>
            <path d="M543.55,224.881 L542.168,232.3285" id="Shape" stroke="#4BB007" stroke-width="2" fill="#4BB007"></path>
            <path d="M542.168,232.329 L540.26,242.7905" id="Shape" stroke="#4BB007" stroke-width="2" fill="#4BB007"></path>
            <path d="M524.85,246.02 L531.538,245.1545" id="Shape" stroke="#C25D66" stroke-width="2" fill="#C25D66"></path>
            <path d="M531.538,245.154 L539.08,244.1605" id="Shape" stroke="#C25D66" stroke-width="2" fill="#C25D66"></path>
            <path d="M539.08,244.16 L543.22,243.6605" id="Shape" stroke="#C25D66" stroke-width="2" fill="#C25D66"></path>
            <path d="M566.51,197.62 L565.59,202.5105" id="Shape" stroke="#B8956E" stroke-width="2" fill="#B8956E"></path>
            <path d="M565.59,202.51 L561.231,212.8925" id="Shape" stroke="#B8956E" stroke-width="2" fill="#B8956E"></path>
            <path d="M561.231,212.892 L555.516,223.5345" id="Shape" stroke="#B8956E" stroke-width="2" fill="#B8956E"></path>
            <path d="M555.516,223.534 L547.79,235.4505" id="Shape" stroke="#B8956E" stroke-width="2" fill="#B8956E"></path>
            <path d="M558.77,223.92 L560.2,227.8605" id="Shape" stroke="#4E5A24" stroke-width="2" fill="#4E5A24"></path>
            <path d="M560.2,227.86 L560.196,240.3885" id="Shape" stroke="#4E5A24" stroke-width="2" fill="#4E5A24"></path>
            <path d="M560.196,240.388 L560.192,257.5985" id="Shape" stroke="#4E5A24" stroke-width="2" fill="#4E5A24"></path>
            <path d="M560.192,257.598 L560.201,273.4995" id="Shape" stroke="#4E5A24" stroke-width="2" fill="#4E5A24"></path>
            <path d="M560.201,273.499 L560.251,282.3795" id="Shape" stroke="#4E5A24" stroke-width="2" fill="#4E5A24"></path>
            <path d="M583.911,205.869 L583.671,208.5695" id="Shape" stroke="#833B11" stroke-width="2" fill="#833B11"></path>
            <path d="M583.671,208.569 L581.237,214.4535" id="Shape" stroke="#833B11" stroke-width="2" fill="#833B11"></path>
            <path d="M581.237,214.453 L577.821,220.9895" id="Shape" stroke="#833B11" stroke-width="2" fill="#833B11"></path>
            <path d="M561.021,225.659 L568.727,224.5305" id="Shape" stroke="#5E1A56" stroke-width="2" fill="#5E1A56"></path>
            <path d="M568.727,224.53 L579.318,223.0125" id="Shape" stroke="#5E1A56" stroke-width="2" fill="#5E1A56"></path>
            <path d="M579.318,223.012 L589.691,221.5695" id="Shape" stroke="#5E1A56" stroke-width="2" fill="#5E1A56"></path>
            <path d="M589.691,221.569 L597.181,220.5195" id="Shape" stroke="#5E1A56" stroke-width="2" fill="#5E1A56"></path>
            <path d="M577.681,226.389 L578.821,229.8995" id="Shape" stroke="#8C9A73" stroke-width="2" fill="#8C9A73"></path>
            <path d="M578.821,229.899 L578.839,241.5735" id="Shape" stroke="#8C9A73" stroke-width="2" fill="#8C9A73"></path>
            <path d="M578.839,241.573 L578.873,257.6565" id="Shape" stroke="#8C9A73" stroke-width="2" fill="#8C9A73"></path>
            <path d="M578.873,257.656 L578.891,272.3905" id="Shape" stroke="#8C9A73" stroke-width="2" fill="#8C9A73"></path>
            <path d="M561.251,241.23 L568.305,240.3125" id="Shape" stroke="#B00356" stroke-width="2" fill="#B00356"></path>
            <path d="M568.305,240.312 L577.797,239.0745" id="Shape" stroke="#B00356" stroke-width="2" fill="#B00356"></path>
            <path d="M577.797,239.074 L586.951,237.8705" id="Shape" stroke="#B00356" stroke-width="2" fill="#B00356"></path>
            <path d="M586.951,237.87 L593.641,236.9405" id="Shape" stroke="#B00356" stroke-width="2" fill="#B00356"></path>
            <path d="M561.161,256.32 L568.466,255.3715" id="Shape" stroke="#78C228" stroke-width="2" fill="#78C228"></path>
            <path d="M568.466,255.371 L578.08,253.9495" id="Shape" stroke="#78C228" stroke-width="2" fill="#78C228"></path>
            <path d="M578.08,253.949 L587.331,252.5405" id="Shape" stroke="#78C228" stroke-width="2" fill="#78C228"></path>
            <path d="M587.331,252.54 L593.861,251.5805" id="Shape" stroke="#78C228" stroke-width="2" fill="#78C228"></path>
            <path d="M561.161,274.67 L570.317,273.8195" id="Shape" stroke="#D62ADD" stroke-width="2" fill="#D62ADD"></path>
            <path d="M570.317,273.819 L582.282,272.6905" id="Shape" stroke="#D62ADD" stroke-width="2" fill="#D62ADD"></path>
            <path d="M582.282,272.69 L593.571,271.6195" id="Shape" stroke="#D62ADD" stroke-width="2" fill="#D62ADD"></path>
            <path d="M593.571,271.619 L600.561,270.8795" id="Shape" stroke="#D62ADD" stroke-width="2" fill="#D62ADD"></path>
        </g>
    </g>
</svg>