<?xml version="1.0" encoding="UTF-8"?>
<svg width="120px" height="120px" viewBox="0 0 120 120" version="1.1" xmlns="http://www.w3.org/2000/svg" xmlns:xlink="http://www.w3.org/1999/xlink" style="background: #FFFFFF;">
    <!-- Generator: Sketch 49.3 (51167) - http://www.bohemiancoding.com/sketch -->
    <title>13</title>
    <desc>Created with Sketch.</desc>
    <defs></defs>
    <g id="Page-1" stroke="none" stroke-width="1" fill="none" fill-rule="evenodd">
        <g id="68747470733a2f2f63646e2e7261776769742e636f6d2f686172646d6172752f736b657463682d726e6e2f6d61737465722f6578616d706c652f747261696e696e672e737667" transform="translate(-342.000000, -340.000000)" fill-rule="nonzero">
            <rect id="Rectangle-path" fill="#FFFFFF" x="0" y="0" width="800" height="640"></rect>
            <path d="M373.305,381.655 L374.705,387.015" id="Shape" stroke="#739A19" stroke-width="2" fill="#739A19"></path>
            <path d="M374.705,387.015 L372.595,407.597" id="Shape" stroke="#739A19" stroke-width="2" fill="#739A19"></path>
            <path d="M372.595,407.597 L367.069,427.839" id="Shape" stroke="#739A19" stroke-width="2" fill="#739A19"></path>
            <path d="M367.069,427.839 L358.105,441.735" id="Shape" stroke="#739A19" stroke-width="2" fill="#739A19"></path>
            <path d="M370.045,380.465 L375.865,381.005" id="Shape" stroke="#71CD0B" stroke-width="2" fill="#71CD0B"></path>
            <path d="M375.865,381.005 L391.023,379.63" id="Shape" stroke="#71CD0B" stroke-width="2" fill="#71CD0B"></path>
            <path d="M391.023,379.63 L410.43,377.966" id="Shape" stroke="#71CD0B" stroke-width="2" fill="#71CD0B"></path>
            <path d="M410.43,377.966 L428.915,376.825" id="Shape" stroke="#71CD0B" stroke-width="2" fill="#71CD0B"></path>
            <path d="M428.915,376.825 L435.795,377.305" id="Shape" stroke="#71CD0B" stroke-width="2" fill="#71CD0B"></path>
            <path d="M380.045,407.145 L384.595,407.615" id="Shape" stroke="#050AAA" stroke-width="2" fill="#050AAA"></path>
            <path d="M384.595,407.615 L391.94,406.493" id="Shape" stroke="#050AAA" stroke-width="2" fill="#050AAA"></path>
            <path d="M391.94,406.493 L399.135,405.416" id="Shape" stroke="#050AAA" stroke-width="2" fill="#050AAA"></path>
            <path d="M399.135,405.416 L403.795,405.266" id="Shape" stroke="#050AAA" stroke-width="2" fill="#050AAA"></path>
            <path d="M401.795,358.516 L403.835,365.556" id="Shape" stroke="#A3C896" stroke-width="2" fill="#A3C896"></path>
            <path d="M403.835,365.556 L408.927,396.157" id="Shape" stroke="#A3C896" stroke-width="2" fill="#A3C896"></path>
            <path d="M408.927,396.157 L419.926,422.887" id="Shape" stroke="#A3C896" stroke-width="2" fill="#A3C896"></path>
            <path d="M419.926,422.887 L437.045,441.015" id="Shape" stroke="#A3C896" stroke-width="2" fill="#A3C896"></path>
            <path d="M437.045,441.015 L441.895,434.345" id="Shape" stroke="#A3C896" stroke-width="2" fill="#A3C896"></path>
            <path d="M431.005,390.155 L430.195,395.815" id="Shape" stroke="#5597CD" stroke-width="2" fill="#5597CD"></path>
            <path d="M430.195,395.815 L423.034,408.612" id="Shape" stroke="#5597CD" stroke-width="2" fill="#5597CD"></path>
            <path d="M423.034,408.612 L410.73,423.898" id="Shape" stroke="#5597CD" stroke-width="2" fill="#5597CD"></path>
            <path d="M410.73,423.898 L393.855,437.975" id="Shape" stroke="#5597CD" stroke-width="2" fill="#5597CD"></path>
            <path d="M420.545,358.265 L426.905,362.171" id="Shape" stroke="#234863" stroke-width="2" fill="#234863"></path>
            <path d="M426.905,362.171 L431.795,367.015" id="Shape" stroke="#234863" stroke-width="2" fill="#234863"></path>
        </g>
    </g>
</svg>