<?xml version="1.0" encoding="UTF-8"?>
<svg width="120px" height="120px" viewBox="0 0 120 120" version="1.1" xmlns="http://www.w3.org/2000/svg" xmlns:xlink="http://www.w3.org/1999/xlink" style="background: #FFFFFF;">
    <!-- Generator: Sketch 49.3 (51167) - http://www.bohemiancoding.com/sketch -->
    <title>17</title>
    <desc>Created with Sketch.</desc>
    <defs></defs>
    <g id="Page-1" stroke="none" stroke-width="1" fill="none" fill-rule="evenodd">
        <g id="68747470733a2f2f63646e2e7261776769742e636f6d2f686172646d6172752f736b657463682d726e6e2f6d61737465722f6578616d706c652f747261696e696e672e737667" transform="translate(-182.000000, -500.000000)" fill-rule="nonzero">
            <rect id="Rectangle-path" fill="#FFFFFF" x="0" y="0" width="800" height="640"></rect>
            <path d="M210.691,523.605 L211.581,527.845" id="Shape" stroke="#7E4824" stroke-width="2" fill="#7E4824"></path>
            <path d="M211.581,527.845 L209.083,539.655" id="Shape" stroke="#7E4824" stroke-width="2" fill="#7E4824"></path>
            <path d="M209.083,539.655 L204.659,555.492" id="Shape" stroke="#7E4824" stroke-width="2" fill="#7E4824"></path>
            <path d="M204.659,555.492 L199.941,568.135" id="Shape" stroke="#7E4824" stroke-width="2" fill="#7E4824"></path>
            <path d="M199.941,568.135 L200.831,570.765" id="Shape" stroke="#7E4824" stroke-width="2" fill="#7E4824"></path>
            <path d="M200.831,570.765 L209.7,574.845" id="Shape" stroke="#7E4824" stroke-width="2" fill="#7E4824"></path>
            <path d="M209.7,574.845 L217.345,580.501" id="Shape" stroke="#7E4824" stroke-width="2" fill="#7E4824"></path>
            <path d="M217.345,580.501 L223.461,587.515" id="Shape" stroke="#7E4824" stroke-width="2" fill="#7E4824"></path>
            <path d="M219.221,543.625 L219.081,549.545" id="Shape" stroke="#1FC95C" stroke-width="2" fill="#1FC95C"></path>
            <path d="M219.081,549.545 L215.408,565.161" id="Shape" stroke="#1FC95C" stroke-width="2" fill="#1FC95C"></path>
            <path d="M215.408,565.161 L207.913,581.29" id="Shape" stroke="#1FC95C" stroke-width="2" fill="#1FC95C"></path>
            <path d="M207.913,581.29 L195.46,594.486" id="Shape" stroke="#1FC95C" stroke-width="2" fill="#1FC95C"></path>
            <path d="M194.21,551.296 L197.49,552.846" id="Shape" stroke="#44864D" stroke-width="2" fill="#44864D"></path>
            <path d="M197.49,552.846 L202.466,551.739" id="Shape" stroke="#44864D" stroke-width="2" fill="#44864D"></path>
            <path d="M202.466,551.739 L212.071,549.372" id="Shape" stroke="#44864D" stroke-width="2" fill="#44864D"></path>
            <path d="M212.071,549.372 L223.96,546.365" id="Shape" stroke="#44864D" stroke-width="2" fill="#44864D"></path>
            <path d="M235.76,523.475 L235.87,524.975" id="Shape" stroke="#8ADB36" stroke-width="2" fill="#8ADB36"></path>
            <path d="M235.87,524.975 L234.311,534.266" id="Shape" stroke="#8ADB36" stroke-width="2" fill="#8ADB36"></path>
            <path d="M234.311,534.266 L229.43,543.115" id="Shape" stroke="#8ADB36" stroke-width="2" fill="#8ADB36"></path>
            <path d="M235.67,534.305 L240.71,540.385" id="Shape" stroke="#D1424F" stroke-width="2" fill="#D1424F"></path>
            <path d="M250.26,522.475 L250.37,523.975" id="Shape" stroke="#AABACE" stroke-width="2" fill="#AABACE"></path>
            <path d="M250.37,523.975 L248.81,533.266" id="Shape" stroke="#AABACE" stroke-width="2" fill="#AABACE"></path>
            <path d="M248.81,533.266 L243.92,542.115" id="Shape" stroke="#AABACE" stroke-width="2" fill="#AABACE"></path>
            <path d="M250.17,533.305 L254.181,536.5" id="Shape" stroke="#622959" stroke-width="2" fill="#622959"></path>
            <path d="M254.181,536.5 L257.21,541.135" id="Shape" stroke="#622959" stroke-width="2" fill="#622959"></path>
            <path d="M226.71,550.435 L231.07,550.975" id="Shape" stroke="#079DA9" stroke-width="2" fill="#079DA9"></path>
            <path d="M231.07,550.975 L244.395,549.195" id="Shape" stroke="#079DA9" stroke-width="2" fill="#079DA9"></path>
            <path d="M244.395,549.195 L261.782,546.524" id="Shape" stroke="#079DA9" stroke-width="2" fill="#079DA9"></path>
            <path d="M261.782,546.524 L276.02,544.744" id="Shape" stroke="#079DA9" stroke-width="2" fill="#079DA9"></path>
            <path d="M276.02,544.744 L280.01,545.274" id="Shape" stroke="#079DA9" stroke-width="2" fill="#079DA9"></path>
            <path d="M237.3,555.394 L238.19,557.274" id="Shape" stroke="#E17C87" stroke-width="2" fill="#E17C87"></path>
            <path d="M238.19,557.274 L238.231,566.045" id="Shape" stroke="#E17C87" stroke-width="2" fill="#E17C87"></path>
            <path d="M238.231,566.045 L238.183,582.414" id="Shape" stroke="#E17C87" stroke-width="2" fill="#E17C87"></path>
            <path d="M238.183,582.414 L238.09,593.205" id="Shape" stroke="#E17C87" stroke-width="2" fill="#E17C87"></path>
            <path d="M245.35,554.235 L246.24,556.115" id="Shape" stroke="#4C1A7A" stroke-width="2" fill="#4C1A7A"></path>
            <path d="M246.24,556.115 L246.281,564.388" id="Shape" stroke="#4C1A7A" stroke-width="2" fill="#4C1A7A"></path>
            <path d="M246.281,564.388 L246.233,579.832" id="Shape" stroke="#4C1A7A" stroke-width="2" fill="#4C1A7A"></path>
            <path d="M246.233,579.832 L246.14,590.125" id="Shape" stroke="#4C1A7A" stroke-width="2" fill="#4C1A7A"></path>
            <path d="M224.31,563.975 L225.94,564.195" id="Shape" stroke="#B97C75" stroke-width="2" fill="#B97C75"></path>
            <path d="M225.94,564.195 L231.416,563.975" id="Shape" stroke="#B97C75" stroke-width="2" fill="#B97C75"></path>
            <path d="M231.416,563.975 L236.66,563.605" id="Shape" stroke="#B97C75" stroke-width="2" fill="#B97C75"></path>
            <path d="M236.66,563.605 L238.15,563.525" id="Shape" stroke="#B97C75" stroke-width="2" fill="#B97C75"></path>
            <path d="M224.92,573.465 L226.55,573.685" id="Shape" stroke="#A3A397" stroke-width="2" fill="#A3A397"></path>
            <path d="M226.55,573.685 L231.661,573.32" id="Shape" stroke="#A3A397" stroke-width="2" fill="#A3A397"></path>
            <path d="M231.661,573.32 L236.54,572.805" id="Shape" stroke="#A3A397" stroke-width="2" fill="#A3A397"></path>
            <path d="M236.54,572.805 L238.03,572.725" id="Shape" stroke="#A3A397" stroke-width="2" fill="#A3A397"></path>
            <path d="M224.24,582.945 L225.87,583.165" id="Shape" stroke="#27DBB4" stroke-width="2" fill="#27DBB4"></path>
            <path d="M225.87,583.165 L231.235,582.727" id="Shape" stroke="#27DBB4" stroke-width="2" fill="#27DBB4"></path>
            <path d="M231.235,582.727 L236.54,581.705" id="Shape" stroke="#27DBB4" stroke-width="2" fill="#27DBB4"></path>
            <path d="M236.54,581.705 L238.03,581.625" id="Shape" stroke="#27DBB4" stroke-width="2" fill="#27DBB4"></path>
            <path d="M246.43,561.885 L247.38,561.815" id="Shape" stroke="#CFC36F" stroke-width="2" fill="#CFC36F"></path>
            <path d="M247.38,561.815 L256.28,560.435" id="Shape" stroke="#CFC36F" stroke-width="2" fill="#CFC36F"></path>
            <path d="M256.28,560.435 L257.77,560.645" id="Shape" stroke="#CFC36F" stroke-width="2" fill="#CFC36F"></path>
            <path d="M246.32,570.505 L247.27,570.435" id="Shape" stroke="#1D4E09" stroke-width="2" fill="#1D4E09"></path>
            <path d="M247.27,570.435 L256.39,569.055" id="Shape" stroke="#1D4E09" stroke-width="2" fill="#1D4E09"></path>
            <path d="M256.39,569.055 L257.88,569.265" id="Shape" stroke="#1D4E09" stroke-width="2" fill="#1D4E09"></path>
            <path d="M246.43,578.485 L247.38,578.415" id="Shape" stroke="#16D55E" stroke-width="2" fill="#16D55E"></path>
            <path d="M247.38,578.415 L256.96,577.035" id="Shape" stroke="#16D55E" stroke-width="2" fill="#16D55E"></path>
            <path d="M256.96,577.035 L258.45,577.245" id="Shape" stroke="#16D55E" stroke-width="2" fill="#16D55E"></path>
            <path d="M225.29,597.165 L229.17,597.515" id="Shape" stroke="#95AF5F" stroke-width="2" fill="#95AF5F"></path>
            <path d="M229.17,597.515 L238.854,593.402" id="Shape" stroke="#95AF5F" stroke-width="2" fill="#95AF5F"></path>
            <path d="M238.854,593.402 L248.123,589.702" id="Shape" stroke="#95AF5F" stroke-width="2" fill="#95AF5F"></path>
            <path d="M248.123,589.702 L257.42,585.815" id="Shape" stroke="#95AF5F" stroke-width="2" fill="#95AF5F"></path>
            <path d="M259.71,520.735 L261.17,526.625" id="Shape" stroke="#02A937" stroke-width="2" fill="#02A937"></path>
            <path d="M261.17,526.625 L264.705,556.638" id="Shape" stroke="#02A937" stroke-width="2" fill="#02A937"></path>
            <path d="M264.705,556.638 L271.802,582.179" id="Shape" stroke="#02A937" stroke-width="2" fill="#02A937"></path>
            <path d="M271.802,582.179 L282.75,599.265" id="Shape" stroke="#02A937" stroke-width="2" fill="#02A937"></path>
            <path d="M282.75,599.265 L285.79,592.395" id="Shape" stroke="#02A937" stroke-width="2" fill="#02A937"></path>
            <path d="M278.05,554.625 L277.92,558.705" id="Shape" stroke="#D6DFB3" stroke-width="2" fill="#D6DFB3"></path>
            <path d="M277.92,558.705 L273.991,570.328" id="Shape" stroke="#D6DFB3" stroke-width="2" fill="#D6DFB3"></path>
            <path d="M273.991,570.328 L265.98,585.105" id="Shape" stroke="#D6DFB3" stroke-width="2" fill="#D6DFB3"></path>
            <path d="M265.98,585.105 L254.811,598.695" id="Shape" stroke="#D6DFB3" stroke-width="2" fill="#D6DFB3"></path>
            <path d="M271.201,525.735 L275.332,530.199" id="Shape" stroke="#3825A9" stroke-width="2" fill="#3825A9"></path>
            <path d="M275.332,530.199 L278.511,535.735" id="Shape" stroke="#3825A9" stroke-width="2" fill="#3825A9"></path>
        </g>
    </g>
</svg>