<?xml version="1.0" encoding="UTF-8"?>
<svg width="120px" height="120px" viewBox="0 0 120 120" version="1.1" xmlns="http://www.w3.org/2000/svg" xmlns:xlink="http://www.w3.org/1999/xlink" style="background: #FFFFFF;">
    <!-- Generator: Sketch 49.3 (51167) - http://www.bohemiancoding.com/sketch -->
    <title>18</title>
    <desc>Created with Sketch.</desc>
    <defs></defs>
    <g id="Page-1" stroke="none" stroke-width="1" fill="none" fill-rule="evenodd">
        <g id="68747470733a2f2f63646e2e7261776769742e636f6d2f686172646d6172752f736b657463682d726e6e2f6d61737465722f6578616d706c652f747261696e696e672e737667" transform="translate(-342.000000, -500.000000)" fill-rule="nonzero">
            <rect id="Rectangle-path" fill="#FFFFFF" x="0" y="0" width="800" height="640"></rect>
            <path d="M356.497,541.125 L359.807,541.4355" id="Shape" stroke="#3825A9" stroke-width="2" fill="#3825A9"></path>
            <path d="M359.807,541.435 L366.101,541.0245" id="Shape" stroke="#3825A9" stroke-width="2" fill="#3825A9"></path>
            <path d="M366.101,541.024 L374.869,540.4625" id="Shape" stroke="#3825A9" stroke-width="2" fill="#3825A9"></path>
            <path d="M374.869,540.462 L382.757,539.5255" id="Shape" stroke="#3825A9" stroke-width="2" fill="#3825A9"></path>
            <path d="M382.757,539.525 L385.487,539.5255" id="Shape" stroke="#3825A9" stroke-width="2" fill="#3825A9"></path>
            <path d="M372.077,519.405 L374.117,523.8255" id="Shape" stroke="#0E9E47" stroke-width="2" fill="#0E9E47"></path>
            <path d="M374.117,523.825 L374.039,543.3945" id="Shape" stroke="#0E9E47" stroke-width="2" fill="#0E9E47"></path>
            <path d="M374.039,543.394 L373.895,578.9035" id="Shape" stroke="#0E9E47" stroke-width="2" fill="#0E9E47"></path>
            <path d="M373.895,578.903 L373.817,598.4055" id="Shape" stroke="#0E9E47" stroke-width="2" fill="#0E9E47"></path>
            <path d="M373.817,598.405 L367.967,599.6555" id="Shape" stroke="#0E9E47" stroke-width="2" fill="#0E9E47"></path>
            <path d="M373.657,544.685 L368.387,558.3245" id="Shape" stroke="#5E8BBC" stroke-width="2" fill="#5E8BBC"></path>
            <path d="M368.387,558.324 L362.98,569.4455" id="Shape" stroke="#5E8BBC" stroke-width="2" fill="#5E8BBC"></path>
            <path d="M362.98,569.445 L355.577,581.7445" id="Shape" stroke="#5E8BBC" stroke-width="2" fill="#5E8BBC"></path>
            <path d="M376.187,550.054 L379.966,554.2465" id="Shape" stroke="#09571D" stroke-width="2" fill="#09571D"></path>
            <path d="M379.966,554.246 L383.467,559.6545" id="Shape" stroke="#09571D" stroke-width="2" fill="#09571D"></path>
            <path d="M393.797,523.624 L396.977,523.8145" id="Shape" stroke="#0B7940" stroke-width="2" fill="#0B7940"></path>
            <path d="M396.977,523.814 L402.211,523.0345" id="Shape" stroke="#0B7940" stroke-width="2" fill="#0B7940"></path>
            <path d="M402.211,523.034 L407.677,522.1045" id="Shape" stroke="#0B7940" stroke-width="2" fill="#0B7940"></path>
            <path d="M407.677,522.104 L410.167,525.7345" id="Shape" stroke="#0B7940" stroke-width="2" fill="#0B7940"></path>
            <path d="M410.167,525.734 L406.246,535.5315" id="Shape" stroke="#0B7940" stroke-width="2" fill="#0B7940"></path>
            <path d="M406.246,535.531 L398.801,548.3615" id="Shape" stroke="#0B7940" stroke-width="2" fill="#0B7940"></path>
            <path d="M398.801,548.361 L387.947,561.4645" id="Shape" stroke="#0B7940" stroke-width="2" fill="#0B7940"></path>
            <path d="M389.487,534.944 L394.779,538.5335" id="Shape" stroke="#79CB96" stroke-width="2" fill="#79CB96"></path>
            <path d="M394.779,538.534 L398.316,542.6845" id="Shape" stroke="#79CB96" stroke-width="2" fill="#79CB96"></path>
            <path d="M428.286,522.534 L428.246,523.3245" id="Shape" stroke="#1177B5" stroke-width="2" fill="#1177B5"></path>
            <path d="M428.246,523.324 L421.386,530.3945" id="Shape" stroke="#1177B5" stroke-width="2" fill="#1177B5"></path>
            <path d="M412.606,525.764 L420.495,534.2465" id="Shape" stroke="#528E61" stroke-width="2" fill="#528E61"></path>
            <path d="M420.495,534.246 L430.866,546.8755" id="Shape" stroke="#528E61" stroke-width="2" fill="#528E61"></path>
            <path d="M430.866,546.875 L438.355,555.7645" id="Shape" stroke="#528E61" stroke-width="2" fill="#528E61"></path>
            <path d="M438.355,555.764 L442.485,558.3245" id="Shape" stroke="#528E61" stroke-width="2" fill="#528E61"></path>
            <path d="M437.625,532.994 L437.585,533.8145" id="Shape" stroke="#332A96" stroke-width="2" fill="#332A96"></path>
            <path d="M437.585,533.814 L434.96,537.3285" id="Shape" stroke="#332A96" stroke-width="2" fill="#332A96"></path>
            <path d="M434.96,537.328 L429.485,541.2845" id="Shape" stroke="#332A96" stroke-width="2" fill="#332A96"></path>
            <path d="M400.975,552.434 L403.655,552.6445" id="Shape" stroke="#54BAC3" stroke-width="2" fill="#54BAC3"></path>
            <path d="M403.655,552.644 L413.759,551.7295" id="Shape" stroke="#54BAC3" stroke-width="2" fill="#54BAC3"></path>
            <path d="M413.759,551.73 L422.625,551.1445" id="Shape" stroke="#54BAC3" stroke-width="2" fill="#54BAC3"></path>
            <path d="M422.625,551.144 L425.075,551.3445" id="Shape" stroke="#54BAC3" stroke-width="2" fill="#54BAC3"></path>
            <path d="M395.945,562.475 L396.975,563.5545" id="Shape" stroke="#AA5647" stroke-width="2" fill="#AA5647"></path>
            <path d="M396.975,563.555 L398.356,571.2255" id="Shape" stroke="#AA5647" stroke-width="2" fill="#AA5647"></path>
            <path d="M398.356,571.226 L399.955,581.0345" id="Shape" stroke="#AA5647" stroke-width="2" fill="#AA5647"></path>
            <path d="M397.045,563.565 L406.62,562.5655" id="Shape" stroke="#530B20" stroke-width="2" fill="#530B20"></path>
            <path d="M406.62,562.566 L418.566,561.3935" id="Shape" stroke="#530B20" stroke-width="2" fill="#530B20"></path>
            <path d="M418.566,561.394 L426.795,560.7745" id="Shape" stroke="#530B20" stroke-width="2" fill="#530B20"></path>
            <path d="M426.795,560.774 L429.395,564.6345" id="Shape" stroke="#530B20" stroke-width="2" fill="#530B20"></path>
            <path d="M429.395,564.635 L427.932,570.9535" id="Shape" stroke="#530B20" stroke-width="2" fill="#530B20"></path>
            <path d="M427.932,570.953 L426.094,578.0745" id="Shape" stroke="#530B20" stroke-width="2" fill="#530B20"></path>
            <path d="M400.704,579.804 L409.568,579.1325" id="Shape" stroke="#6C433D" stroke-width="2" fill="#6C433D"></path>
            <path d="M409.568,579.132 L420.174,578.5165" id="Shape" stroke="#6C433D" stroke-width="2" fill="#6C433D"></path>
            <path d="M420.174,578.516 L428.164,578.1045" id="Shape" stroke="#6C433D" stroke-width="2" fill="#6C433D"></path>
            <path d="M399.544,586.334 L402.273,590.6885" id="Shape" stroke="#B2AB2D" stroke-width="2" fill="#B2AB2D"></path>
            <path d="M402.273,590.688 L404.094,595.8145" id="Shape" stroke="#B2AB2D" stroke-width="2" fill="#B2AB2D"></path>
            <path d="M426.194,583.974 L426.154,585.0845" id="Shape" stroke="#A89B29" stroke-width="2" fill="#A89B29"></path>
            <path d="M426.154,585.084 L424.048,590.1095" id="Shape" stroke="#A89B29" stroke-width="2" fill="#A89B29"></path>
            <path d="M424.048,590.109 L419.654,595.7345" id="Shape" stroke="#A89B29" stroke-width="2" fill="#A89B29"></path>
            <path d="M387.244,599.974 L393.224,600.5945" id="Shape" stroke="#CEDFAF" stroke-width="2" fill="#CEDFAF"></path>
            <path d="M393.224,600.594 L407.24,598.6915" id="Shape" stroke="#CEDFAF" stroke-width="2" fill="#CEDFAF"></path>
            <path d="M407.24,598.691 L422.427,597.1065" id="Shape" stroke="#CEDFAF" stroke-width="2" fill="#CEDFAF"></path>
            <path d="M422.427,597.106 L438.963,596.2035" id="Shape" stroke="#CEDFAF" stroke-width="2" fill="#CEDFAF"></path>
            <path d="M438.963,596.203 L444.423,596.8135" id="Shape" stroke="#CEDFAF" stroke-width="2" fill="#CEDFAF"></path>
        </g>
    </g>
</svg>