<?xml version="1.0" encoding="UTF-8"?>
<svg width="120px" height="120px" viewBox="0 0 120 120" version="1.1" xmlns="http://www.w3.org/2000/svg" xmlns:xlink="http://www.w3.org/1999/xlink" style="background: #FFFFFF;">
    <!-- Generator: Sketch 49.3 (51167) - http://www.bohemiancoding.com/sketch -->
    <title>19</title>
    <desc>Created with Sketch.</desc>
    <defs></defs>
    <g id="Page-1" stroke="none" stroke-width="1" fill="none" fill-rule="evenodd">
        <g id="68747470733a2f2f63646e2e7261776769742e636f6d2f686172646d6172752f736b657463682d726e6e2f6d61737465722f6578616d706c652f747261696e696e672e737667" transform="translate(-497.000000, -500.000000)" fill-rule="nonzero">
            <rect id="Rectangle-path" fill="#FFFFFF" x="0" y="0" width="800" height="640"></rect>
            <path d="M527.165,523.101 L528.3655,525.0205" id="Shape" stroke="#CEDFAF" stroke-width="2" fill="#CEDFAF"></path>
            <path d="M528.365,525.02 L529.2985,532.6435" id="Shape" stroke="#CEDFAF" stroke-width="2" fill="#CEDFAF"></path>
            <path d="M529.298,532.644 L531.0315,545.9335" id="Shape" stroke="#CEDFAF" stroke-width="2" fill="#CEDFAF"></path>
            <path d="M531.031,545.933 L531.9645,553.2505" id="Shape" stroke="#CEDFAF" stroke-width="2" fill="#CEDFAF"></path>
            <path d="M527.864,524.211 L541.4475,523.3165" id="Shape" stroke="#18A7A7" stroke-width="2" fill="#18A7A7"></path>
            <path d="M541.447,523.317 L563.7085,521.7475" id="Shape" stroke="#18A7A7" stroke-width="2" fill="#18A7A7"></path>
            <path d="M563.708,521.748 L577.0845,520.8405" id="Shape" stroke="#18A7A7" stroke-width="2" fill="#18A7A7"></path>
            <path d="M577.084,520.841 L581.1145,524.2505" id="Shape" stroke="#18A7A7" stroke-width="2" fill="#18A7A7"></path>
            <path d="M581.114,524.25 L580.2475,529.6075" id="Shape" stroke="#18A7A7" stroke-width="2" fill="#18A7A7"></path>
            <path d="M580.247,529.607 L578.3025,539.9375" id="Shape" stroke="#18A7A7" stroke-width="2" fill="#18A7A7"></path>
            <path d="M578.302,539.938 L575.8155,550.8605" id="Shape" stroke="#18A7A7" stroke-width="2" fill="#18A7A7"></path>
            <path d="M530.455,537.42 L542.4825,536.5795" id="Shape" stroke="#4A2940" stroke-width="2" fill="#4A2940"></path>
            <path d="M542.482,536.579 L556.2015,535.5385" id="Shape" stroke="#4A2940" stroke-width="2" fill="#4A2940"></path>
            <path d="M556.201,535.538 L564.0755,534.9305" id="Shape" stroke="#4A2940" stroke-width="2" fill="#4A2940"></path>
            <path d="M531.745,550.07 L544.3725,549.3805" id="Shape" stroke="#757684" stroke-width="2" fill="#757684"></path>
            <path d="M544.372,549.38 L560.2525,548.5235" id="Shape" stroke="#757684" stroke-width="2" fill="#757684"></path>
            <path d="M560.252,548.523 L574.4055,547.8805" id="Shape" stroke="#757684" stroke-width="2" fill="#757684"></path>
            <path d="M528.645,574.85 L538.1765,573.3815" id="Shape" stroke="#C2DD16" stroke-width="2" fill="#C2DD16"></path>
            <path d="M538.176,573.381 L547.1455,572.1005" id="Shape" stroke="#C2DD16" stroke-width="2" fill="#C2DD16"></path>
            <path d="M547.145,572.1 L551.1455,572.1005" id="Shape" stroke="#C2DD16" stroke-width="2" fill="#C2DD16"></path>
            <path d="M526.145,558.89 L527.6055,562.3805" id="Shape" stroke="#AE64A8" stroke-width="2" fill="#AE64A8"></path>
            <path d="M527.605,562.38 L527.8935,573.0485" id="Shape" stroke="#AE64A8" stroke-width="2" fill="#AE64A8"></path>
            <path d="M527.893,573.048 L527.9145,587.1185" id="Shape" stroke="#AE64A8" stroke-width="2" fill="#AE64A8"></path>
            <path d="M527.914,587.118 L527.2755,595.5995" id="Shape" stroke="#AE64A8" stroke-width="2" fill="#AE64A8"></path>
            <path d="M527.275,595.599 L531.4655,597.4595" id="Shape" stroke="#AE64A8" stroke-width="2" fill="#AE64A8"></path>
            <path d="M531.465,597.459 L539.8795,593.1395" id="Shape" stroke="#AE64A8" stroke-width="2" fill="#AE64A8"></path>
            <path d="M539.879,593.139 L548.1955,589.0595" id="Shape" stroke="#AE64A8" stroke-width="2" fill="#AE64A8"></path>
            <path d="M561.395,574.989 L568.4825,573.5935" id="Shape" stroke="#16AD85" stroke-width="2" fill="#16AD85"></path>
            <path d="M568.482,573.593 L576.6855,571.9025" id="Shape" stroke="#16AD85" stroke-width="2" fill="#16AD85"></path>
            <path d="M576.685,571.902 L583.1855,570.7195" id="Shape" stroke="#16AD85" stroke-width="2" fill="#16AD85"></path>
            <path d="M583.185,570.719 L588.3955,570.8795" id="Shape" stroke="#16AD85" stroke-width="2" fill="#16AD85"></path>
            <path d="M558.535,555.849 L560.7955,560.2595" id="Shape" stroke="#7A9955" stroke-width="2" fill="#7A9955"></path>
            <path d="M560.795,560.259 L560.6455,569.1585" id="Shape" stroke="#7A9955" stroke-width="2" fill="#7A9955"></path>
            <path d="M560.645,569.158 L560.5245,580.8705" id="Shape" stroke="#7A9955" stroke-width="2" fill="#7A9955"></path>
            <path d="M560.524,580.87 L560.4745,588.1895" id="Shape" stroke="#7A9955" stroke-width="2" fill="#7A9955"></path>
            <path d="M560.475,588.189 L563.1185,596.6915" id="Shape" stroke="#7A9955" stroke-width="2" fill="#7A9955"></path>
            <path d="M563.119,596.691 L569.5875,599.1445" id="Shape" stroke="#7A9955" stroke-width="2" fill="#7A9955"></path>
            <path d="M569.588,599.144 L577.6845,599.1595" id="Shape" stroke="#7A9955" stroke-width="2" fill="#7A9955"></path>
            <path d="M577.685,599.159 L587.2475,598.4845" id="Shape" stroke="#7A9955" stroke-width="2" fill="#7A9955"></path>
            <path d="M587.248,598.484 L593.8545,596.3395" id="Shape" stroke="#7A9955" stroke-width="2" fill="#7A9955"></path>
        </g>
    </g>
</svg>