<?xml version="1.0" encoding="UTF-8"?>
<svg width="120px" height="120px" viewBox="0 0 120 120" version="1.1" xmlns="http://www.w3.org/2000/svg" xmlns:xlink="http://www.w3.org/1999/xlink" style="background: #FFFFFF;">
    <!-- Generator: Sketch 49.3 (51167) - http://www.bohemiancoding.com/sketch -->
    <title>20</title>
    <desc>Created with Sketch.</desc>
    <defs></defs>
    <g id="Page-1" stroke="none" stroke-width="1" fill="none" fill-rule="evenodd">
        <g id="68747470733a2f2f63646e2e7261776769742e636f6d2f686172646d6172752f736b657463682d726e6e2f6d61737465722f6578616d706c652f747261696e696e672e737667" transform="translate(-667.000000, -500.000000)" fill-rule="nonzero">
            <rect id="Rectangle-path" fill="#FFFFFF" x="0" y="0" width="800" height="640"></rect>
            <path d="M682.314,524.881 L684.6045,525.241" id="Shape" stroke="#7A9955" stroke-width="2" fill="#7A9955"></path>
            <path d="M684.604,525.241 L693.9795,524.659" id="Shape" stroke="#7A9955" stroke-width="2" fill="#7A9955"></path>
            <path d="M693.979,524.659 L706.1165,523.319" id="Shape" stroke="#7A9955" stroke-width="2" fill="#7A9955"></path>
            <path d="M706.116,523.319 L716.2045,522.43" id="Shape" stroke="#7A9955" stroke-width="2" fill="#7A9955"></path>
            <path d="M716.204,522.43 L718.7445,522.78" id="Shape" stroke="#7A9955" stroke-width="2" fill="#7A9955"></path>
            <path d="M693.444,517.13 L694.7345,518.79" id="Shape" stroke="#909347" stroke-width="2" fill="#909347"></path>
            <path d="M694.734,518.79 L695.3275,525.048" id="Shape" stroke="#909347" stroke-width="2" fill="#909347"></path>
            <path d="M695.327,525.048 L695.6645,530.51" id="Shape" stroke="#909347" stroke-width="2" fill="#909347"></path>
            <path d="M709.074,515.57 L709.2745,517.44" id="Shape" stroke="#877190" stroke-width="2" fill="#877190"></path>
            <path d="M709.274,517.44 L707.8235,523.811" id="Shape" stroke="#877190" stroke-width="2" fill="#877190"></path>
            <path d="M707.823,523.811 L706.3045,529.98" id="Shape" stroke="#877190" stroke-width="2" fill="#877190"></path>
            <path d="M689.994,531.43 L689.9345,533.02" id="Shape" stroke="#9C59AA" stroke-width="2" fill="#9C59AA"></path>
            <path d="M689.934,533.02 L686.7155,540.434" id="Shape" stroke="#9C59AA" stroke-width="2" fill="#9C59AA"></path>
            <path d="M686.715,540.434 L679.9945,548.71" id="Shape" stroke="#9C59AA" stroke-width="2" fill="#9C59AA"></path>
            <path d="M688.934,537.88 L692.1045,538.09" id="Shape" stroke="#ADCF3F" stroke-width="2" fill="#ADCF3F"></path>
            <path d="M692.104,538.09 L701.7645,536.945" id="Shape" stroke="#ADCF3F" stroke-width="2" fill="#ADCF3F"></path>
            <path d="M701.764,536.945 L710.4645,535.89" id="Shape" stroke="#ADCF3F" stroke-width="2" fill="#ADCF3F"></path>
            <path d="M710.464,535.89 L714.7445,539.73" id="Shape" stroke="#ADCF3F" stroke-width="2" fill="#ADCF3F"></path>
            <path d="M714.744,539.73 L713.7725,546.614" id="Shape" stroke="#ADCF3F" stroke-width="2" fill="#ADCF3F"></path>
            <path d="M713.772,546.614 L712.1335,553.58" id="Shape" stroke="#ADCF3F" stroke-width="2" fill="#ADCF3F"></path>
            <path d="M712.133,553.58 L709.4945,561.67" id="Shape" stroke="#ADCF3F" stroke-width="2" fill="#ADCF3F"></path>
            <path d="M709.494,561.67 L703.1945,562.44" id="Shape" stroke="#ADCF3F" stroke-width="2" fill="#ADCF3F"></path>
            <path d="M688.924,545.59 L689.3945,546.15" id="Shape" stroke="#503853" stroke-width="2" fill="#503853"></path>
            <path d="M689.394,546.15 L690.5985,550.867" id="Shape" stroke="#503853" stroke-width="2" fill="#503853"></path>
            <path d="M690.598,550.867 L691.4945,558.15" id="Shape" stroke="#503853" stroke-width="2" fill="#503853"></path>
            <path d="M690.154,547.03 L697.1335,545.599" id="Shape" stroke="#091592" stroke-width="2" fill="#091592"></path>
            <path d="M697.133,545.599 L702.4245,544.73" id="Shape" stroke="#091592" stroke-width="2" fill="#091592"></path>
            <path d="M702.424,544.73 L703.8245,546.13" id="Shape" stroke="#091592" stroke-width="2" fill="#091592"></path>
            <path d="M703.824,546.13 L701.9845,554.77" id="Shape" stroke="#091592" stroke-width="2" fill="#091592"></path>
            <path d="M691.614,556.44 L696.9645,555.85" id="Shape" stroke="#74AA53" stroke-width="2" fill="#74AA53"></path>
            <path d="M696.964,555.85 L703.1845,555.14" id="Shape" stroke="#74AA53" stroke-width="2" fill="#74AA53"></path>
            <path d="M731.934,515.57 L731.8745,517.96" id="Shape" stroke="#636698" stroke-width="2" fill="#636698"></path>
            <path d="M731.874,517.96 L729.6835,524.62" id="Shape" stroke="#636698" stroke-width="2" fill="#636698"></path>
            <path d="M729.683,524.62 L726.2165,532.864" id="Shape" stroke="#636698" stroke-width="2" fill="#636698"></path>
            <path d="M726.216,532.864 L721.4855,540.87" id="Shape" stroke="#636698" stroke-width="2" fill="#636698"></path>
            <path d="M731.325,529.3 L733.3455,529.58" id="Shape" stroke="#1CA7C8" stroke-width="2" fill="#1CA7C8"></path>
            <path d="M733.345,529.58 L739.6055,529.014" id="Shape" stroke="#1CA7C8" stroke-width="2" fill="#1CA7C8"></path>
            <path d="M739.605,529.014 L746.7525,528.03" id="Shape" stroke="#1CA7C8" stroke-width="2" fill="#1CA7C8"></path>
            <path d="M746.752,528.03 L753.7455,526.71" id="Shape" stroke="#1CA7C8" stroke-width="2" fill="#1CA7C8"></path>
            <path d="M753.745,526.71 L756.5955,526.76" id="Shape" stroke="#1CA7C8" stroke-width="2" fill="#1CA7C8"></path>
            <path d="M745.525,533.21 L745.6855,535.4" id="Shape" stroke="#6E4B94" stroke-width="2" fill="#6E4B94"></path>
            <path d="M745.685,535.4 L741.2305,543.829" id="Shape" stroke="#6E4B94" stroke-width="2" fill="#6E4B94"></path>
            <path d="M741.23,543.829 L735.2665,551.355" id="Shape" stroke="#6E4B94" stroke-width="2" fill="#6E4B94"></path>
            <path d="M735.266,551.355 L726.3255,558.43" id="Shape" stroke="#6E4B94" stroke-width="2" fill="#6E4B94"></path>
            <path d="M726.395,537.89 L734.6385,544.15" id="Shape" stroke="#B700A8" stroke-width="2" fill="#B700A8"></path>
            <path d="M734.638,544.15 L745.6195,553.763" id="Shape" stroke="#B700A8" stroke-width="2" fill="#B700A8"></path>
            <path d="M745.619,553.763 L755.8755,561.47" id="Shape" stroke="#B700A8" stroke-width="2" fill="#B700A8"></path>
            <path d="M755.875,561.47 L760.0055,562.69" id="Shape" stroke="#B700A8" stroke-width="2" fill="#B700A8"></path>
            <path d="M685.495,573.75 L691.7655,574.14" id="Shape" stroke="#D32A27" stroke-width="2" fill="#D32A27"></path>
            <path d="M691.765,574.14 L708.6625,573.101" id="Shape" stroke="#D32A27" stroke-width="2" fill="#D32A27"></path>
            <path d="M708.662,573.101 L731.5595,571.689" id="Shape" stroke="#D32A27" stroke-width="2" fill="#D32A27"></path>
            <path d="M731.559,571.689 L752.2765,570.57" id="Shape" stroke="#D32A27" stroke-width="2" fill="#D32A27"></path>
            <path d="M752.276,570.57 L757.9965,570.91" id="Shape" stroke="#D32A27" stroke-width="2" fill="#D32A27"></path>
            <path d="M719.496,560.18 L721.7465,563.43" id="Shape" stroke="#8E4774" stroke-width="2" fill="#8E4774"></path>
            <path d="M721.746,563.43 L721.7375,577.337" id="Shape" stroke="#8E4774" stroke-width="2" fill="#8E4774"></path>
            <path d="M721.737,577.337 L721.6725,593.356" id="Shape" stroke="#8E4774" stroke-width="2" fill="#8E4774"></path>
            <path d="M721.672,593.356 L721.4965,604.43" id="Shape" stroke="#8E4774" stroke-width="2" fill="#8E4774"></path>
            <path d="M718.496,572.68 L709.2745,582.369" id="Shape" stroke="#342BA7" stroke-width="2" fill="#342BA7"></path>
            <path d="M709.274,582.369 L696.2185,592.242" id="Shape" stroke="#342BA7" stroke-width="2" fill="#342BA7"></path>
            <path d="M696.218,592.242 L682.4965,599.431" id="Shape" stroke="#342BA7" stroke-width="2" fill="#342BA7"></path>
            <path d="M722.746,572.931 L731.4165,580.907" id="Shape" stroke="#55180B" stroke-width="2" fill="#55180B"></path>
            <path d="M731.416,580.907 L743.4425,589.736" id="Shape" stroke="#55180B" stroke-width="2" fill="#55180B"></path>
            <path d="M743.442,589.736 L754.3465,596.272" id="Shape" stroke="#55180B" stroke-width="2" fill="#55180B"></path>
            <path d="M754.346,596.272 L759.2465,598.182" id="Shape" stroke="#55180B" stroke-width="2" fill="#55180B"></path>
        </g>
    </g>
</svg>