<?xml version="1.0" encoding="UTF-8"?>
<svg width="120px" height="120px" viewBox="0 0 120 120" version="1.1" xmlns="http://www.w3.org/2000/svg" xmlns:xlink="http://www.w3.org/1999/xlink" style="background: #FFFFFF;">
    <!-- Generator: Sketch 49.3 (51167) - http://www.bohemiancoding.com/sketch -->
    <title>03</title>
    <desc>Created with Sketch.</desc>
    <defs></defs>
    <g id="Page-1" stroke="none" stroke-width="1" fill="none" fill-rule="evenodd">
        <g id="68747470733a2f2f63646e2e7261776769742e636f6d2f686172646d6172752f736b657463682d726e6e2f6d61737465722f6578616d706c652f6f75747075742e737667" transform="translate(-340.000000, -21.000000)" fill-rule="nonzero">
            <rect id="Rectangle-path" fill="#FFFFFF" x="0" y="0" width="800" height="640"></rect>
            <path d="M378.037,79.007 L382.324,78.0375" id="Shape" stroke="#A7AFDF" stroke-width="2" fill="#A7AFDF"></path>
            <path d="M382.324,78.038 L387.034,77.3145" id="Shape" stroke="#A7AFDF" stroke-width="2" fill="#A7AFDF"></path>
            <path d="M387.034,77.315 L391.161,77.0365" id="Shape" stroke="#A7AFDF" stroke-width="2" fill="#A7AFDF"></path>
            <path d="M379.147,68.763 L380.357,71.5865" id="Shape" stroke="#AB8D37" stroke-width="2" fill="#AB8D37"></path>
            <path d="M380.357,71.587 L380.359,77.6475" id="Shape" stroke="#AB8D37" stroke-width="2" fill="#AB8D37"></path>
            <path d="M380.359,77.648 L380.298,86.7245" id="Shape" stroke="#AB8D37" stroke-width="2" fill="#AB8D37"></path>
            <path d="M363.696,88.053 L368.002,88.4145" id="Shape" stroke="#1E9F5A" stroke-width="2" fill="#1E9F5A"></path>
            <path d="M368.002,88.415 L375.702,87.4995" id="Shape" stroke="#1E9F5A" stroke-width="2" fill="#1E9F5A"></path>
            <path d="M375.702,87.499 L384.901,86.8515" id="Shape" stroke="#1E9F5A" stroke-width="2" fill="#1E9F5A"></path>
            <path d="M384.901,86.852 L393.942,86.2825" id="Shape" stroke="#1E9F5A" stroke-width="2" fill="#1E9F5A"></path>
            <path d="M393.942,86.282 L398.627,86.3275" id="Shape" stroke="#1E9F5A" stroke-width="2" fill="#1E9F5A"></path>
            <path d="M375.771,93.127 L375.655,95.4285" id="Shape" stroke="#DF1446" stroke-width="2" fill="#DF1446"></path>
            <path d="M375.655,95.429 L371.865,101.4205" id="Shape" stroke="#DF1446" stroke-width="2" fill="#DF1446"></path>
            <path d="M371.865,101.421 L365.986,107.0005" id="Shape" stroke="#DF1446" stroke-width="2" fill="#DF1446"></path>
            <path d="M386.076,89.772 L392.289,95.3465" id="Shape" stroke="#2E8B97" stroke-width="2" fill="#2E8B97"></path>
            <path d="M392.289,95.347 L397.032,100.9805" id="Shape" stroke="#2E8B97" stroke-width="2" fill="#2E8B97"></path>
            <path d="M421.397,42.955 L421.168,44.0935" id="Shape" stroke="#44135B" stroke-width="2" fill="#44135B"></path>
            <path d="M421.168,44.094 L417.731,49.7505" id="Shape" stroke="#44135B" stroke-width="2" fill="#44135B"></path>
            <path d="M417.731,49.751 L411.604,55.4005" id="Shape" stroke="#44135B" stroke-width="2" fill="#44135B"></path>
            <path d="M411.512,54.666 L411.872,56.7495" id="Shape" stroke="#242992" stroke-width="2" fill="#242992"></path>
            <path d="M411.872,56.75 L411.832,65.4865" id="Shape" stroke="#242992" stroke-width="2" fill="#242992"></path>
            <path d="M411.832,65.487 L411.944,76.6145" id="Shape" stroke="#242992" stroke-width="2" fill="#242992"></path>
            <path d="M411.944,76.615 L411.905,85.7835" id="Shape" stroke="#242992" stroke-width="2" fill="#242992"></path>
            <path d="M412.396,59.843 L418.811,58.8325" id="Shape" stroke="#404A5A" stroke-width="2" fill="#404A5A"></path>
            <path d="M418.811,58.833 L424.51,58.0155" id="Shape" stroke="#404A5A" stroke-width="2" fill="#404A5A"></path>
            <path d="M424.51,58.016 L427.361,57.7075" id="Shape" stroke="#404A5A" stroke-width="2" fill="#404A5A"></path>
            <path d="M409.919,67.239 L416.468,66.2755" id="Shape" stroke="#7829A0" stroke-width="2" fill="#7829A0"></path>
            <path d="M416.468,66.276 L422.878,65.1635" id="Shape" stroke="#7829A0" stroke-width="2" fill="#7829A0"></path>
            <path d="M422.878,65.164 L426.901,64.7575" id="Shape" stroke="#7829A0" stroke-width="2" fill="#7829A0"></path>
            <path d="M412.187,74.641 L419.17,74.1415" id="Shape" stroke="#8176A9" stroke-width="2" fill="#8176A9"></path>
            <path d="M419.17,74.142 L427.203,73.2335" id="Shape" stroke="#8176A9" stroke-width="2" fill="#8176A9"></path>
            <path d="M427.203,73.234 L430.105,73.2985" id="Shape" stroke="#8176A9" stroke-width="2" fill="#8176A9"></path>
            <path d="M390.718,92.244 L396.585,92.4505" id="Shape" stroke="#3948DF" stroke-width="2" fill="#3948DF"></path>
            <path d="M396.585,92.451 L408.399,91.4285" id="Shape" stroke="#3948DF" stroke-width="2" fill="#3948DF"></path>
            <path d="M408.399,91.428 L420.179,90.7015" id="Shape" stroke="#3948DF" stroke-width="2" fill="#3948DF"></path>
            <path d="M420.179,90.701 L431.437,90.3955" id="Shape" stroke="#3948DF" stroke-width="2" fill="#3948DF"></path>
            <path d="M431.437,90.395 L436.304,91.0415" id="Shape" stroke="#3948DF" stroke-width="2" fill="#3948DF"></path>
            <path d="M407.784,76.454 L408.777,79.3725" id="Shape" stroke="#8951C7" stroke-width="2" fill="#8951C7"></path>
            <path d="M408.777,79.373 L408.731,91.2795" id="Shape" stroke="#8951C7" stroke-width="2" fill="#8951C7"></path>
            <path d="M408.731,91.279 L408.634,105.8595" id="Shape" stroke="#8951C7" stroke-width="2" fill="#8951C7"></path>
            <path d="M408.634,105.859 L408.492,116.2495" id="Shape" stroke="#8951C7" stroke-width="2" fill="#8951C7"></path>
            <path d="M394.55,97.29 L394.92,99.7795" id="Shape" stroke="#43BFBF" stroke-width="2" fill="#43BFBF"></path>
            <path d="M394.92,99.779 L393.532,107.7035" id="Shape" stroke="#43BFBF" stroke-width="2" fill="#43BFBF"></path>
            <path d="M393.532,107.704 L391.864,115.8485" id="Shape" stroke="#43BFBF" stroke-width="2" fill="#43BFBF"></path>
            <path d="M391.864,115.849 L393.498,117.0455" id="Shape" stroke="#43BFBF" stroke-width="2" fill="#43BFBF"></path>
            <path d="M393.498,117.046 L402.238,115.9925" id="Shape" stroke="#43BFBF" stroke-width="2" fill="#43BFBF"></path>
            <path d="M402.238,115.993 L412.498,114.9985" id="Shape" stroke="#43BFBF" stroke-width="2" fill="#43BFBF"></path>
            <path d="M412.498,114.999 L417.955,114.3415" id="Shape" stroke="#43BFBF" stroke-width="2" fill="#43BFBF"></path>
            <path d="M416.895,93.11 L417.848,95.8795" id="Shape" stroke="#97D26E" stroke-width="2" fill="#97D26E"></path>
            <path d="M417.848,95.88 L417.792,104.3475" id="Shape" stroke="#97D26E" stroke-width="2" fill="#97D26E"></path>
        </g>
    </g>
</svg>