<?xml version="1.0" encoding="UTF-8"?>
<svg width="120px" height="120px" viewBox="0 0 120 120" version="1.1" xmlns="http://www.w3.org/2000/svg" xmlns:xlink="http://www.w3.org/1999/xlink" style="background: #FFFFFF;">
    <!-- Generator: Sketch 49.3 (51167) - http://www.bohemiancoding.com/sketch -->
    <title>04</title>
    <desc>Created with Sketch.</desc>
    <defs></defs>
    <g id="Page-1" stroke="none" stroke-width="1" fill="none" fill-rule="evenodd">
        <g id="68747470733a2f2f63646e2e7261776769742e636f6d2f686172646d6172752f736b657463682d726e6e2f6d61737465722f6578616d706c652f6f75747075742e737667" transform="translate(-495.000000, -21.000000)" fill-rule="nonzero">
            <rect id="Rectangle-path" fill="#FFFFFF" x="0" y="0" width="800" height="640"></rect>
            <path d="M523.352,61.164 L535.252,60.13" id="Shape" stroke="#97D26E" stroke-width="2" fill="#97D26E"></path>
            <path d="M535.252,60.13 L557.043,57.91" id="Shape" stroke="#97D26E" stroke-width="2" fill="#97D26E"></path>
            <path d="M557.043,57.91 L571.495,56.551" id="Shape" stroke="#97D26E" stroke-width="2" fill="#97D26E"></path>
            <path d="M571.495,56.551 L575.53,56.705" id="Shape" stroke="#97D26E" stroke-width="2" fill="#97D26E"></path>
            <path d="M533.184,49.981 L534.716,52.483" id="Shape" stroke="#965921" stroke-width="2" fill="#965921"></path>
            <path d="M534.716,52.483 L535.522,63.269" id="Shape" stroke="#965921" stroke-width="2" fill="#965921"></path>
            <path d="M535.522,63.269 L536.064,72.27" id="Shape" stroke="#965921" stroke-width="2" fill="#965921"></path>
            <path d="M555.529,51.286 L556.433,54.49" id="Shape" stroke="#14D9DC" stroke-width="2" fill="#14D9DC"></path>
            <path d="M556.433,54.49 L554.868,63.407" id="Shape" stroke="#14D9DC" stroke-width="2" fill="#14D9DC"></path>
            <path d="M554.868,63.407 L553.074,72.247" id="Shape" stroke="#14D9DC" stroke-width="2" fill="#14D9DC"></path>
            <path d="M534.777,74.338 L540.634,73.902" id="Shape" stroke="#5239AF" stroke-width="2" fill="#5239AF"></path>
            <path d="M540.634,73.902 L546.462,73.57" id="Shape" stroke="#5239AF" stroke-width="2" fill="#5239AF"></path>
            <path d="M546.462,73.57 L551.798,73.278" id="Shape" stroke="#5239AF" stroke-width="2" fill="#5239AF"></path>
            <path d="M526.301,82.059 L527.541,84.318" id="Shape" stroke="#250142" stroke-width="2" fill="#250142"></path>
            <path d="M527.541,84.318 L528.708,91.386" id="Shape" stroke="#250142" stroke-width="2" fill="#250142"></path>
            <path d="M528.708,91.386 L529.999,99.929" id="Shape" stroke="#250142" stroke-width="2" fill="#250142"></path>
            <path d="M528.011,83.909 L537.033,82.655" id="Shape" stroke="#DD33BC" stroke-width="2" fill="#DD33BC"></path>
            <path d="M537.033,82.655 L546.441,81.322" id="Shape" stroke="#DD33BC" stroke-width="2" fill="#DD33BC"></path>
            <path d="M546.441,81.322 L552.733,80.637" id="Shape" stroke="#DD33BC" stroke-width="2" fill="#DD33BC"></path>
            <path d="M552.733,80.637 L555.059,83.775" id="Shape" stroke="#DD33BC" stroke-width="2" fill="#DD33BC"></path>
            <path d="M555.059,83.775 L553.76,89.528" id="Shape" stroke="#DD33BC" stroke-width="2" fill="#DD33BC"></path>
            <path d="M553.76,89.528 L552.336,96.844" id="Shape" stroke="#DD33BC" stroke-width="2" fill="#DD33BC"></path>
            <path d="M533.891,88.761 L534.263,91.836" id="Shape" stroke="#C7DA45" stroke-width="2" fill="#C7DA45"></path>
            <path d="M534.263,91.836 L535.039,97.923" id="Shape" stroke="#C7DA45" stroke-width="2" fill="#C7DA45"></path>
            <path d="M535.039,97.923 L535.811,107.56" id="Shape" stroke="#C7DA45" stroke-width="2" fill="#C7DA45"></path>
            <path d="M543.475,87.539 L544.065,89.85" id="Shape" stroke="#3A4C02" stroke-width="2" fill="#3A4C02"></path>
            <path d="M544.065,89.85 L544.149,95.808" id="Shape" stroke="#3A4C02" stroke-width="2" fill="#3A4C02"></path>
            <path d="M544.149,95.808 L544.168,104.121" id="Shape" stroke="#3A4C02" stroke-width="2" fill="#3A4C02"></path>
            <path d="M525.383,109.884 L528.969,109.458" id="Shape" stroke="#888DC7" stroke-width="2" fill="#888DC7"></path>
            <path d="M528.969,109.458 L538.493,106.284" id="Shape" stroke="#888DC7" stroke-width="2" fill="#888DC7"></path>
            <path d="M538.493,106.284 L546.534,103.762" id="Shape" stroke="#888DC7" stroke-width="2" fill="#888DC7"></path>
            <path d="M546.534,103.762 L553.873,101.161" id="Shape" stroke="#888DC7" stroke-width="2" fill="#888DC7"></path>
            <path d="M559.64,79.658 L564.893,80.078" id="Shape" stroke="#C77CDA" stroke-width="2" fill="#C77CDA"></path>
            <path d="M564.893,80.078 L574.079,79.207" id="Shape" stroke="#C77CDA" stroke-width="2" fill="#C77CDA"></path>
            <path d="M574.079,79.207 L584.869,78.013" id="Shape" stroke="#C77CDA" stroke-width="2" fill="#C77CDA"></path>
            <path d="M584.869,78.013 L592.089,77.174" id="Shape" stroke="#C77CDA" stroke-width="2" fill="#C77CDA"></path>
            <path d="M592.089,77.174 L596.648,77.077" id="Shape" stroke="#C77CDA" stroke-width="2" fill="#C77CDA"></path>
            <path d="M583.262,51.182 L584.604,54.364" id="Shape" stroke="#993117" stroke-width="2" fill="#993117"></path>
            <path d="M584.604,54.364 L584.706,67.78" id="Shape" stroke="#993117" stroke-width="2" fill="#993117"></path>
            <path d="M584.706,67.78 L584.618,90.665" id="Shape" stroke="#993117" stroke-width="2" fill="#993117"></path>
            <path d="M584.618,90.665 L584.476,110.019" id="Shape" stroke="#993117" stroke-width="2" fill="#993117"></path>
        </g>
    </g>
</svg>