<?xml version="1.0" encoding="UTF-8"?>
<svg width="120px" height="120px" viewBox="0 0 120 120" version="1.1" xmlns="http://www.w3.org/2000/svg" xmlns:xlink="http://www.w3.org/1999/xlink" style="background: #FFFFFF;">
    <!-- Generator: Sketch 49.3 (51167) - http://www.bohemiancoding.com/sketch -->
    <title>09</title>
    <desc>Created with Sketch.</desc>
    <defs></defs>
    <g id="Page-1" stroke="none" stroke-width="1" fill="none" fill-rule="evenodd">
        <g id="68747470733a2f2f63646e2e7261776769742e636f6d2f686172646d6172752f736b657463682d726e6e2f6d61737465722f6578616d706c652f6f75747075742e737667" transform="translate(-495.000000, -181.000000)" fill-rule="nonzero">
            <rect id="Rectangle-path" fill="#FFFFFF" x="0" y="0" width="800" height="640"></rect>
            <path d="M543.592,205.185 L541.4385,206.3485" id="Shape" stroke="#2E18C1" stroke-width="2" fill="#2E18C1"></path>
            <path d="M541.438,206.349 L538.3455,208.5265" id="Shape" stroke="#2E18C1" stroke-width="2" fill="#2E18C1"></path>
            <path d="M538.346,208.526 L533.8115,211.0465" id="Shape" stroke="#2E18C1" stroke-width="2" fill="#2E18C1"></path>
            <path d="M526.159,211.316 L527.0165,212.8955" id="Shape" stroke="#45E030" stroke-width="2" fill="#45E030"></path>
            <path d="M527.016,212.896 L528.3335,216.5755" id="Shape" stroke="#45E030" stroke-width="2" fill="#45E030"></path>
            <path d="M528.333,216.576 L529.7405,222.5345" id="Shape" stroke="#45E030" stroke-width="2" fill="#45E030"></path>
            <path d="M529.74,222.535 L530.8965,228.3445" id="Shape" stroke="#45E030" stroke-width="2" fill="#45E030"></path>
            <path d="M528.065,214.908 L537.7445,214.1135" id="Shape" stroke="#8C0201" stroke-width="2" fill="#8C0201"></path>
            <path d="M537.744,214.114 L545.8395,213.6705" id="Shape" stroke="#8C0201" stroke-width="2" fill="#8C0201"></path>
            <path d="M545.839,213.671 L550.6345,213.4585" id="Shape" stroke="#8C0201" stroke-width="2" fill="#8C0201"></path>
            <path d="M550.634,213.459 L553.0325,215.1435" id="Shape" stroke="#8C0201" stroke-width="2" fill="#8C0201"></path>
            <path d="M553.032,215.144 L551.8215,221.5865" id="Shape" stroke="#8C0201" stroke-width="2" fill="#8C0201"></path>
            <path d="M551.821,221.587 L549.9545,229.0715" id="Shape" stroke="#8C0201" stroke-width="2" fill="#8C0201"></path>
            <path d="M530.238,231.166 L536.8885,230.5915" id="Shape" stroke="#38908B" stroke-width="2" fill="#38908B"></path>
            <path d="M536.888,230.592 L545.5515,229.9935" id="Shape" stroke="#38908B" stroke-width="2" fill="#38908B"></path>
            <path d="M545.551,229.994 L553.5785,229.4715" id="Shape" stroke="#38908B" stroke-width="2" fill="#38908B"></path>
            <path d="M539.404,203.572 L541.0635,206.4695" id="Shape" stroke="#2F5BA4" stroke-width="2" fill="#2F5BA4"></path>
            <path d="M541.063,206.47 L541.1015,215.9645" id="Shape" stroke="#2F5BA4" stroke-width="2" fill="#2F5BA4"></path>
            <path d="M541.101,215.965 L541.0495,233.5645" id="Shape" stroke="#2F5BA4" stroke-width="2" fill="#2F5BA4"></path>
            <path d="M541.049,233.565 L540.9615,246.5685" id="Shape" stroke="#2F5BA4" stroke-width="2" fill="#2F5BA4"></path>
            <path d="M526.802,251.609 L528.7505,252.5665" id="Shape" stroke="#CA0F91" stroke-width="2" fill="#CA0F91"></path>
            <path d="M528.75,252.566 L533.9815,249.9625" id="Shape" stroke="#CA0F91" stroke-width="2" fill="#CA0F91"></path>
            <path d="M533.981,249.962 L543.8525,244.9245" id="Shape" stroke="#CA0F91" stroke-width="2" fill="#CA0F91"></path>
            <path d="M543.852,244.924 L551.3615,240.7575" id="Shape" stroke="#CA0F91" stroke-width="2" fill="#CA0F91"></path>
            <path d="M547.41,236.477 L551.4595,241.8855" id="Shape" stroke="#28A80C" stroke-width="2" fill="#28A80C"></path>
            <path d="M551.459,241.885 L553.9295,247.8725" id="Shape" stroke="#28A80C" stroke-width="2" fill="#28A80C"></path>
            <path d="M572.612,209.022 L572.4495,210.6865" id="Shape" stroke="#B88AC5" stroke-width="2" fill="#B88AC5"></path>
            <path d="M572.449,210.686 L569.2875,215.4965" id="Shape" stroke="#B88AC5" stroke-width="2" fill="#B88AC5"></path>
            <path d="M569.287,215.496 L563.9645,221.0405" id="Shape" stroke="#B88AC5" stroke-width="2" fill="#B88AC5"></path>
            <path d="M558.938,220.586 L559.6735,222.6255" id="Shape" stroke="#D954A7" stroke-width="2" fill="#D954A7"></path>
            <path d="M559.673,222.625 L559.6305,232.1655" id="Shape" stroke="#D954A7" stroke-width="2" fill="#D954A7"></path>
            <path d="M559.63,232.165 L559.5475,249.5115" id="Shape" stroke="#D954A7" stroke-width="2" fill="#D954A7"></path>
            <path d="M559.548,249.511 L559.4765,261.3805" id="Shape" stroke="#D954A7" stroke-width="2" fill="#D954A7"></path>
            <path d="M559.938,223.476 L567.6595,222.4165" id="Shape" stroke="#C55603" stroke-width="2" fill="#C55603"></path>
            <path d="M567.659,222.416 L578.7885,221.2065" id="Shape" stroke="#C55603" stroke-width="2" fill="#C55603"></path>
            <path d="M578.788,221.206 L585.4735,220.4785" id="Shape" stroke="#C55603" stroke-width="2" fill="#C55603"></path>
            <path d="M585.473,220.478 L587.9545,223.6225" id="Shape" stroke="#C55603" stroke-width="2" fill="#C55603"></path>
            <path d="M587.954,223.622 L587.4505,229.7325" id="Shape" stroke="#C55603" stroke-width="2" fill="#C55603"></path>
            <path d="M587.45,229.732 L585.8685,239.6235" id="Shape" stroke="#C55603" stroke-width="2" fill="#C55603"></path>
            <path d="M560.517,230.157 L566.2175,229.5695" id="Shape" stroke="#131123" stroke-width="2" fill="#131123"></path>
            <path d="M566.217,229.569 L575.0445,228.7525" id="Shape" stroke="#131123" stroke-width="2" fill="#131123"></path>
            <path d="M575.044,228.752 L580.9215,228.3215" id="Shape" stroke="#131123" stroke-width="2" fill="#131123"></path>
            <path d="M559.828,238.613 L566.4065,238.0225" id="Shape" stroke="#A38034" stroke-width="2" fill="#A38034"></path>
            <path d="M566.406,238.022 L575.2495,237.0835" id="Shape" stroke="#A38034" stroke-width="2" fill="#A38034"></path>
            <path d="M575.249,237.083 L582.0905,236.5565" id="Shape" stroke="#A38034" stroke-width="2" fill="#A38034"></path>
            <path d="M560.278,246.431 L570.1405,245.4205" id="Shape" stroke="#6BAD6D" stroke-width="2" fill="#6BAD6D"></path>
            <path d="M570.14,245.42 L581.5095,244.2745" id="Shape" stroke="#6BAD6D" stroke-width="2" fill="#6BAD6D"></path>
            <path d="M581.509,244.274 L589.3365,243.5065" id="Shape" stroke="#6BAD6D" stroke-width="2" fill="#6BAD6D"></path>
            <path d="M589.336,243.506 L593.8405,243.3505" id="Shape" stroke="#6BAD6D" stroke-width="2" fill="#6BAD6D"></path>
            <path d="M559.043,256.098 L569.9255,255.0445" id="Shape" stroke="#7D680C" stroke-width="2" fill="#7D680C"></path>
            <path d="M569.925,255.044 L580.9185,254.1515" id="Shape" stroke="#7D680C" stroke-width="2" fill="#7D680C"></path>
            <path d="M580.918,254.151 L588.9385,253.4355" id="Shape" stroke="#7D680C" stroke-width="2" fill="#7D680C"></path>
            <path d="M588.938,253.435 L593.5735,257.3855" id="Shape" stroke="#7D680C" stroke-width="2" fill="#7D680C"></path>
            <path d="M593.573,257.385 L592.2065,264.5035" id="Shape" stroke="#7D680C" stroke-width="2" fill="#7D680C"></path>
            <path d="M592.206,264.503 L590.2075,270.9195" id="Shape" stroke="#7D680C" stroke-width="2" fill="#7D680C"></path>
            <path d="M590.207,270.919 L587.0715,276.4285" id="Shape" stroke="#7D680C" stroke-width="2" fill="#7D680C"></path>
            <path d="M587.071,276.428 L580.4685,275.6985" id="Shape" stroke="#7D680C" stroke-width="2" fill="#7D680C"></path>
            <path d="M555.162,264.025 L553.8255,270.4835" id="Shape" stroke="#63488C" stroke-width="2" fill="#63488C"></path>
            <path d="M553.825,270.483 L551.1635,275.3045" id="Shape" stroke="#63488C" stroke-width="2" fill="#63488C"></path>
            <path d="M561.901,263.328 L564.0145,267.0355" id="Shape" stroke="#586F21" stroke-width="2" fill="#586F21"></path>
            <path d="M564.014,267.035 L565.4825,271.1975" id="Shape" stroke="#586F21" stroke-width="2" fill="#586F21"></path>
            <path d="M570.449,261.085 L573.5265,264.2005" id="Shape" stroke="#B9B1C2" stroke-width="2" fill="#B9B1C2"></path>
            <path d="M573.526,264.2 L575.8115,267.8755" id="Shape" stroke="#B9B1C2" stroke-width="2" fill="#B9B1C2"></path>
        </g>
    </g>
</svg>