<?xml version="1.0" encoding="UTF-8"?>
<svg width="120px" height="120px" viewBox="0 0 120 120" version="1.1" xmlns="http://www.w3.org/2000/svg" xmlns:xlink="http://www.w3.org/1999/xlink" style="background: #FFFFFF;">
    <!-- Generator: Sketch 49.3 (51167) - http://www.bohemiancoding.com/sketch -->
    <title>11</title>
    <desc>Created with Sketch.</desc>
    <defs></defs>
    <g id="Page-1" stroke="none" stroke-width="1" fill="none" fill-rule="evenodd">
        <g id="68747470733a2f2f63646e2e7261776769742e636f6d2f686172646d6172752f736b657463682d726e6e2f6d61737465722f6578616d706c652f6f75747075742e737667" transform="translate(-20.000000, -341.000000)" fill-rule="nonzero">
            <rect id="Rectangle-path" fill="#FFFFFF" x="0" y="0" width="800" height="640"></rect>
            <path d="M64.175,349.591 L61.8835,351.7835" id="Shape" stroke="#71056F" stroke-width="2" fill="#71056F"></path>
            <path d="M61.883,351.784 L58.9025,358.2705" id="Shape" stroke="#71056F" stroke-width="2" fill="#71056F"></path>
            <path d="M49.45,359.56 L50.6485,360.9475" id="Shape" stroke="#59DBD9" stroke-width="2" fill="#59DBD9"></path>
            <path d="M50.648,360.947 L51.4885,365.4625" id="Shape" stroke="#59DBD9" stroke-width="2" fill="#59DBD9"></path>
            <path d="M51.489,365.462 L52.5845,372.7855" id="Shape" stroke="#59DBD9" stroke-width="2" fill="#59DBD9"></path>
            <path d="M51.328,361.49 L58.3995,361.2825" id="Shape" stroke="#741F51" stroke-width="2" fill="#741F51"></path>
            <path d="M58.4,361.282 L68.5585,360.7075" id="Shape" stroke="#741F51" stroke-width="2" fill="#741F51"></path>
            <path d="M68.559,360.707 L76.3935,360.1255" id="Shape" stroke="#741F51" stroke-width="2" fill="#741F51"></path>
            <path d="M76.394,360.125 L77.6655,361.9665" id="Shape" stroke="#741F51" stroke-width="2" fill="#741F51"></path>
            <path d="M77.666,361.966 L76.5875,366.4445" id="Shape" stroke="#741F51" stroke-width="2" fill="#741F51"></path>
            <path d="M76.588,366.444 L75.2205,372.1375" id="Shape" stroke="#741F51" stroke-width="2" fill="#741F51"></path>
            <path d="M58.133,363.217 L58.8775,364.2585" id="Shape" stroke="#46A1B7" stroke-width="2" fill="#46A1B7"></path>
            <path d="M58.877,364.258 L59.6365,369.9855" id="Shape" stroke="#46A1B7" stroke-width="2" fill="#46A1B7"></path>
            <path d="M59.636,369.985 L60.1685,375.8455" id="Shape" stroke="#46A1B7" stroke-width="2" fill="#46A1B7"></path>
            <path d="M69.126,359.64 L69.4995,361.5235" id="Shape" stroke="#446596" stroke-width="2" fill="#446596"></path>
            <path d="M69.499,361.523 L68.8865,368.2145" id="Shape" stroke="#446596" stroke-width="2" fill="#446596"></path>
            <path d="M68.886,368.214 L68.1985,374.9305" id="Shape" stroke="#446596" stroke-width="2" fill="#446596"></path>
            <path d="M48.569,378.553 L50.8905,378.6865" id="Shape" stroke="#652003" stroke-width="2" fill="#652003"></path>
            <path d="M50.891,378.686 L59.4875,377.7805" id="Shape" stroke="#652003" stroke-width="2" fill="#652003"></path>
            <path d="M59.488,377.78 L70.9905,376.4855" id="Shape" stroke="#652003" stroke-width="2" fill="#652003"></path>
            <path d="M70.99,376.485 L80.4005,375.6605" id="Shape" stroke="#652003" stroke-width="2" fill="#652003"></path>
            <path d="M80.4,375.66 L82.8195,376.0015" id="Shape" stroke="#652003" stroke-width="2" fill="#652003"></path>
            <path d="M58.726,376.939 L59.5535,378.9795" id="Shape" stroke="#8A70CF" stroke-width="2" fill="#8A70CF"></path>
            <path d="M59.553,378.979 L59.5205,386.3745" id="Shape" stroke="#8A70CF" stroke-width="2" fill="#8A70CF"></path>
            <path d="M59.52,386.374 L59.4145,393.9085" id="Shape" stroke="#8A70CF" stroke-width="2" fill="#8A70CF"></path>
            <path d="M49.117,396.131 L52.3705,396.1845" id="Shape" stroke="#638D98" stroke-width="2" fill="#638D98"></path>
            <path d="M52.37,396.184 L59.0335,395.1635" id="Shape" stroke="#638D98" stroke-width="2" fill="#638D98"></path>
            <path d="M85.188,382.029 L84.8815,383.3715" id="Shape" stroke="#4C2A4C" stroke-width="2" fill="#4C2A4C"></path>
            <path d="M84.881,383.371 L82.5185,387.5585" id="Shape" stroke="#4C2A4C" stroke-width="2" fill="#4C2A4C"></path>
            <path d="M82.518,387.558 L78.9125,391.4625" id="Shape" stroke="#4C2A4C" stroke-width="2" fill="#4C2A4C"></path>
            <path d="M66.829,385.272 L67.4695,387.4935" id="Shape" stroke="#1F00BD" stroke-width="2" fill="#1F00BD"></path>
            <path d="M67.469,387.493 L67.3725,394.2505" id="Shape" stroke="#1F00BD" stroke-width="2" fill="#1F00BD"></path>
            <path d="M67.372,394.25 L68.6455,397.6865" id="Shape" stroke="#1F00BD" stroke-width="2" fill="#1F00BD"></path>
            <path d="M68.645,397.686 L72.9695,398.4475" id="Shape" stroke="#1F00BD" stroke-width="2" fill="#1F00BD"></path>
            <path d="M52.534,394.991 L57.0945,398.7005" id="Shape" stroke="#94BA2D" stroke-width="2" fill="#94BA2D"></path>
            <path d="M57.094,398.7 L60.0045,402.5795" id="Shape" stroke="#94BA2D" stroke-width="2" fill="#94BA2D"></path>
            <path d="M48.338,415.976 L54.5025,419.1095" id="Shape" stroke="#81DB4C" stroke-width="2" fill="#81DB4C"></path>
            <path d="M54.502,419.109 L58.7265,422.6225" id="Shape" stroke="#81DB4C" stroke-width="2" fill="#81DB4C"></path>
            <path d="M51.376,450.409 L56.3335,449.0695" id="Shape" stroke="#804B1A" stroke-width="2" fill="#804B1A"></path>
            <path d="M56.333,449.069 L61.3885,441.8505" id="Shape" stroke="#804B1A" stroke-width="2" fill="#804B1A"></path>
            <path d="M61.388,441.85 L66.1505,433.7255" id="Shape" stroke="#804B1A" stroke-width="2" fill="#804B1A"></path>
            <path d="M75.652,396.283 L78.0585,396.5595" id="Shape" stroke="#BF9B7D" stroke-width="2" fill="#BF9B7D"></path>
            <path d="M78.058,396.559 L86.5245,395.4045" id="Shape" stroke="#BF9B7D" stroke-width="2" fill="#BF9B7D"></path>
            <path d="M86.524,395.404 L96.1625,394.1155" id="Shape" stroke="#BF9B7D" stroke-width="2" fill="#BF9B7D"></path>
            <path d="M96.162,394.115 L100.3905,393.9775" id="Shape" stroke="#BF9B7D" stroke-width="2" fill="#BF9B7D"></path>
            <path d="M84.71,399.998 L85.3805,402.5875" id="Shape" stroke="#3AB75C" stroke-width="2" fill="#3AB75C"></path>
            <path d="M85.38,402.587 L82.8175,410.4835" id="Shape" stroke="#3AB75C" stroke-width="2" fill="#3AB75C"></path>
            <path d="M82.817,410.483 L79.1815,418.8715" id="Shape" stroke="#3AB75C" stroke-width="2" fill="#3AB75C"></path>
            <path d="M79.181,418.871 L74.1405,427.7145" id="Shape" stroke="#3AB75C" stroke-width="2" fill="#3AB75C"></path>
            <path d="M74.14,427.714 L74.6715,430.4755" id="Shape" stroke="#3AB75C" stroke-width="2" fill="#3AB75C"></path>
            <path d="M74.671,430.475 L84.7895,432.3305" id="Shape" stroke="#3AB75C" stroke-width="2" fill="#3AB75C"></path>
            <path d="M84.789,432.33 L95.3625,435.5045" id="Shape" stroke="#3AB75C" stroke-width="2" fill="#3AB75C"></path>
            <path d="M95.362,435.504 L105.3205,439.7575" id="Shape" stroke="#3AB75C" stroke-width="2" fill="#3AB75C"></path>
            <path d="M105.32,439.757 L111.6615,444.2775" id="Shape" stroke="#3AB75C" stroke-width="2" fill="#3AB75C"></path>
            <path d="M98.121,404.518 L98.6825,409.0085" id="Shape" stroke="#736578" stroke-width="2" fill="#736578"></path>
            <path d="M98.682,409.008 L92.7545,422.2685" id="Shape" stroke="#736578" stroke-width="2" fill="#736578"></path>
            <path d="M92.754,422.268 L81.6145,435.8055" id="Shape" stroke="#736578" stroke-width="2" fill="#736578"></path>
            <path d="M81.614,435.805 L60.2165,447.4415" id="Shape" stroke="#736578" stroke-width="2" fill="#736578"></path>
            <path d="M56.331,410.365 L61.1345,411.0885" id="Shape" stroke="#4CA186" stroke-width="2" fill="#4CA186"></path>
            <path d="M61.134,411.088 L72.7475,410.5425" id="Shape" stroke="#4CA186" stroke-width="2" fill="#4CA186"></path>
            <path d="M72.747,410.542 L90.9485,409.0725" id="Shape" stroke="#4CA186" stroke-width="2" fill="#4CA186"></path>
            <path d="M90.948,409.072 L107.8165,407.7465" id="Shape" stroke="#4CA186" stroke-width="2" fill="#4CA186"></path>
        </g>
    </g>
</svg>