<?xml version="1.0" encoding="UTF-8"?>
<svg width="120px" height="120px" viewBox="0 0 120 120" version="1.1" xmlns="http://www.w3.org/2000/svg" xmlns:xlink="http://www.w3.org/1999/xlink" style="background: #FFFFFF;">
    <!-- Generator: Sketch 49.3 (51167) - http://www.bohemiancoding.com/sketch -->
    <title>12</title>
    <desc>Created with Sketch.</desc>
    <defs></defs>
    <g id="Page-1" stroke="none" stroke-width="1" fill="none" fill-rule="evenodd">
        <g id="68747470733a2f2f63646e2e7261776769742e636f6d2f686172646d6172752f736b657463682d726e6e2f6d61737465722f6578616d706c652f6f75747075742e737667" transform="translate(-180.000000, -341.000000)" fill-rule="nonzero">
            <rect id="Rectangle-path" fill="#FFFFFF" x="0" y="0" width="800" height="640"></rect>
            <path d="M241.575,391.443 L242.5765,391.419" id="Shape" stroke="#4CA186" stroke-width="2" fill="#4CA186"></path>
            <path d="M242.577,391.419 L248.5975,390.992" id="Shape" stroke="#4CA186" stroke-width="2" fill="#4CA186"></path>
            <path d="M219.901,396.693 L226.0025,396.985" id="Shape" stroke="#27A076" stroke-width="2" fill="#27A076"></path>
            <path d="M226.002,396.985 L236.6145,396.043" id="Shape" stroke="#27A076" stroke-width="2" fill="#27A076"></path>
            <path d="M236.614,396.043 L248.7725,394.967" id="Shape" stroke="#27A076" stroke-width="2" fill="#27A076"></path>
            <path d="M248.772,394.967 L259.2465,394.114" id="Shape" stroke="#27A076" stroke-width="2" fill="#27A076"></path>
            <path d="M259.246,394.114 L265.0435,394.618" id="Shape" stroke="#27A076" stroke-width="2" fill="#27A076"></path>
            <path d="M233.096,393.468 L233.6155,395.483" id="Shape" stroke="#44C158" stroke-width="2" fill="#44C158"></path>
            <path d="M233.615,395.483 L232.3525,408.922" id="Shape" stroke="#44C158" stroke-width="2" fill="#44C158"></path>
            <path d="M232.352,408.922 L229.7705,420.908" id="Shape" stroke="#44C158" stroke-width="2" fill="#44C158"></path>
            <path d="M229.77,420.908 L224.9085,430.233" id="Shape" stroke="#44C158" stroke-width="2" fill="#44C158"></path>
            <path d="M244.69,398.63 L245.2085,401.292" id="Shape" stroke="#657428" stroke-width="2" fill="#657428"></path>
            <path d="M245.209,401.292 L245.1895,409.635" id="Shape" stroke="#657428" stroke-width="2" fill="#657428"></path>
            <path d="M245.19,409.635 L245.2025,419.978" id="Shape" stroke="#657428" stroke-width="2" fill="#657428"></path>
            <path d="M245.203,419.978 L245.1465,426.972" id="Shape" stroke="#657428" stroke-width="2" fill="#657428"></path>
            <path d="M246.34,385.696 L247.1805,388.825" id="Shape" stroke="#E01A87" stroke-width="2" fill="#E01A87"></path>
            <path d="M247.181,388.825 L247.2335,397.122" id="Shape" stroke="#E01A87" stroke-width="2" fill="#E01A87"></path>
            <path d="M247.234,397.122 L247.2435,412.876" id="Shape" stroke="#E01A87" stroke-width="2" fill="#E01A87"></path>
            <path d="M247.244,412.876 L247.1665,424.006" id="Shape" stroke="#E01A87" stroke-width="2" fill="#E01A87"></path>
            <path d="M214.957,383.161 L217.4135,383.766" id="Shape" stroke="#C57A92" stroke-width="2" fill="#C57A92"></path>
            <path d="M217.413,383.766 L221.2475,383.543" id="Shape" stroke="#C57A92" stroke-width="2" fill="#C57A92"></path>
            <path d="M221.248,383.543 L226.1165,383.18" id="Shape" stroke="#C57A92" stroke-width="2" fill="#C57A92"></path>
            <path d="M226.117,383.18 L230.7405,382.828" id="Shape" stroke="#C57A92" stroke-width="2" fill="#C57A92"></path>
            <path d="M219.499,391.699 L221.7925,391.556" id="Shape" stroke="#9041B3" stroke-width="2" fill="#9041B3"></path>
            <path d="M221.793,391.556 L224.6485,390.915" id="Shape" stroke="#9041B3" stroke-width="2" fill="#9041B3"></path>
            <path d="M224.649,390.915 L227.6675,390.131" id="Shape" stroke="#9041B3" stroke-width="2" fill="#9041B3"></path>
            <path d="M221.611,396.859 L227.0795,396.136" id="Shape" stroke="#83380A" stroke-width="2" fill="#83380A"></path>
            <path d="M227.08,396.136 L230.3845,396.051" id="Shape" stroke="#83380A" stroke-width="2" fill="#83380A"></path>
            <path d="M244.636,371.045 L247.3525,371.071" id="Shape" stroke="#7BAAE0" stroke-width="2" fill="#7BAAE0"></path>
            <path d="M247.353,371.071 L250.9175,370.39" id="Shape" stroke="#7BAAE0" stroke-width="2" fill="#7BAAE0"></path>
            <path d="M250.918,370.39 L255.1435,369.767" id="Shape" stroke="#7BAAE0" stroke-width="2" fill="#7BAAE0"></path>
            <path d="M255.144,369.767 L257.3125,369.838" id="Shape" stroke="#7BAAE0" stroke-width="2" fill="#7BAAE0"></path>
            <path d="M243.109,380.388 L246.8745,379.809" id="Shape" stroke="#7F3CCB" stroke-width="2" fill="#7F3CCB"></path>
            <path d="M246.875,379.809 L250.9145,379.055" id="Shape" stroke="#7F3CCB" stroke-width="2" fill="#7F3CCB"></path>
            <path d="M250.915,379.055 L254.7515,378.722" id="Shape" stroke="#7F3CCB" stroke-width="2" fill="#7F3CCB"></path>
            <path d="M254.752,378.722 L257.8035,378.729" id="Shape" stroke="#7F3CCB" stroke-width="2" fill="#7F3CCB"></path>
            <path d="M241.969,386.983 L245.8625,386.51" id="Shape" stroke="#B4C572" stroke-width="2" fill="#B4C572"></path>
            <path d="M245.863,386.51 L252.5355,385.588" id="Shape" stroke="#B4C572" stroke-width="2" fill="#B4C572"></path>
            <path d="M252.536,385.588 L257.6675,385.158" id="Shape" stroke="#B4C572" stroke-width="2" fill="#B4C572"></path>
        </g>
    </g>
</svg>