<?xml version="1.0" encoding="UTF-8"?>
<svg width="120px" height="120px" viewBox="0 0 120 120" version="1.1" xmlns="http://www.w3.org/2000/svg" xmlns:xlink="http://www.w3.org/1999/xlink" style="background: #FFFFFF;">
    <!-- Generator: Sketch 49.3 (51167) - http://www.bohemiancoding.com/sketch -->
    <title>14</title>
    <desc>Created with Sketch.</desc>
    <defs></defs>
    <g id="Page-1" stroke="none" stroke-width="1" fill="none" fill-rule="evenodd">
        <g id="68747470733a2f2f63646e2e7261776769742e636f6d2f686172646d6172752f736b657463682d726e6e2f6d61737465722f6578616d706c652f6f75747075742e737667" transform="translate(-495.000000, -341.000000)" fill-rule="nonzero">
            <rect id="Rectangle-path" fill="#FFFFFF" x="0" y="0" width="800" height="640"></rect>
            <path d="M529.361,393.911 L533.657,393.5505" id="Shape" stroke="#392057" stroke-width="2" fill="#392057"></path>
            <path d="M533.657,393.55 L541.227,392.6105" id="Shape" stroke="#392057" stroke-width="2" fill="#392057"></path>
            <path d="M541.227,392.611 L548.064,391.6455" id="Shape" stroke="#392057" stroke-width="2" fill="#392057"></path>
            <path d="M535.828,377.296 L536.883,381.5435" id="Shape" stroke="#3DD884" stroke-width="2" fill="#3DD884"></path>
            <path d="M536.883,381.543 L536.945,397.8095" id="Shape" stroke="#3DD884" stroke-width="2" fill="#3DD884"></path>
            <path d="M536.945,397.81 L536.954,415.4665" id="Shape" stroke="#3DD884" stroke-width="2" fill="#3DD884"></path>
            <path d="M536.954,415.466 L536.933,425.4845" id="Shape" stroke="#3DD884" stroke-width="2" fill="#3DD884"></path>
            <path d="M536.933,425.485 L531.649,427.9065" id="Shape" stroke="#3DD884" stroke-width="2" fill="#3DD884"></path>
            <path d="M526.85,409.239 L531.039,409.1245" id="Shape" stroke="#075225" stroke-width="2" fill="#075225"></path>
            <path d="M531.039,409.125 L536.913,406.0555" id="Shape" stroke="#075225" stroke-width="2" fill="#075225"></path>
            <path d="M536.913,406.056 L545.494,402.0595" id="Shape" stroke="#075225" stroke-width="2" fill="#075225"></path>
            <path d="M571.926,372.094 L570.843,373.9645" id="Shape" stroke="#9426B9" stroke-width="2" fill="#9426B9"></path>
            <path d="M570.843,373.965 L566.224,377.2315" id="Shape" stroke="#9426B9" stroke-width="2" fill="#9426B9"></path>
            <path d="M566.224,377.232 L561.399,380.2575" id="Shape" stroke="#9426B9" stroke-width="2" fill="#9426B9"></path>
            <path d="M561.399,380.258 L555.095,384.3975" id="Shape" stroke="#9426B9" stroke-width="2" fill="#9426B9"></path>
            <path d="M555.204,382.309 L556.372,385.1345" id="Shape" stroke="#38BD1E" stroke-width="2" fill="#38BD1E"></path>
            <path d="M556.372,385.135 L555.655,393.3245" id="Shape" stroke="#38BD1E" stroke-width="2" fill="#38BD1E"></path>
            <path d="M555.655,393.325 L554.275,399.0875" id="Shape" stroke="#38BD1E" stroke-width="2" fill="#38BD1E"></path>
            <path d="M554.275,399.088 L555.394,400.8375" id="Shape" stroke="#38BD1E" stroke-width="2" fill="#38BD1E"></path>
            <path d="M555.394,400.838 L560.12,397.3235" id="Shape" stroke="#38BD1E" stroke-width="2" fill="#38BD1E"></path>
            <path d="M560.12,397.324 L566.378,393.0725" id="Shape" stroke="#38BD1E" stroke-width="2" fill="#38BD1E"></path>
            <path d="M563.257,387.272 L566.25,392.3495" id="Shape" stroke="#3C7C6D" stroke-width="2" fill="#3C7C6D"></path>
            <path d="M566.25,392.35 L567.991,398.0945" id="Shape" stroke="#3C7C6D" stroke-width="2" fill="#3C7C6D"></path>
            <path d="M571.445,377.863 L573.651,377.9125" id="Shape" stroke="#26009A" stroke-width="2" fill="#26009A"></path>
            <path d="M573.651,377.913 L584.552,376.3525" id="Shape" stroke="#26009A" stroke-width="2" fill="#26009A"></path>
            <path d="M584.552,376.353 L591.945,375.1435" id="Shape" stroke="#26009A" stroke-width="2" fill="#26009A"></path>
            <path d="M591.945,375.144 L593.15,377.0205" id="Shape" stroke="#26009A" stroke-width="2" fill="#26009A"></path>
            <path d="M593.15,377.021 L591.772,385.5945" id="Shape" stroke="#26009A" stroke-width="2" fill="#26009A"></path>
            <path d="M591.772,385.595 L589.07,394.0985" id="Shape" stroke="#26009A" stroke-width="2" fill="#26009A"></path>
            <path d="M589.07,394.099 L583.985,394.1585" id="Shape" stroke="#26009A" stroke-width="2" fill="#26009A"></path>
            <path d="M583.985,394.159 L581.397,391.9235" id="Shape" stroke="#26009A" stroke-width="2" fill="#26009A"></path>
            <path d="M579.229,376.103 L579.512,378.4125" id="Shape" stroke="#050B33" stroke-width="2" fill="#050B33"></path>
            <path d="M579.512,378.413 L579.087,386.2215" id="Shape" stroke="#050B33" stroke-width="2" fill="#050B33"></path>
            <path d="M579.087,386.222 L577.56,392.7075" id="Shape" stroke="#050B33" stroke-width="2" fill="#050B33"></path>
            <path d="M577.56,392.708 L574.819,399.7605" id="Shape" stroke="#050B33" stroke-width="2" fill="#050B33"></path>
            <path d="M547.699,404.7 L548.29,407.7105" id="Shape" stroke="#1B1398" stroke-width="2" fill="#1B1398"></path>
            <path d="M548.29,407.711 L549.209,414.0505" id="Shape" stroke="#1B1398" stroke-width="2" fill="#1B1398"></path>
            <path d="M549.209,414.051 L550.334,422.7975" id="Shape" stroke="#1B1398" stroke-width="2" fill="#1B1398"></path>
            <path d="M550.309,407.654 L560.152,406.3905" id="Shape" stroke="#3FC377" stroke-width="2" fill="#3FC377"></path>
            <path d="M560.152,406.391 L572.539,404.9435" id="Shape" stroke="#3FC377" stroke-width="2" fill="#3FC377"></path>
            <path d="M572.539,404.944 L581.685,404.1875" id="Shape" stroke="#3FC377" stroke-width="2" fill="#3FC377"></path>
            <path d="M581.685,404.188 L583.844,407.1055" id="Shape" stroke="#3FC377" stroke-width="2" fill="#3FC377"></path>
            <path d="M583.844,407.106 L582.252,415.9025" id="Shape" stroke="#3FC377" stroke-width="2" fill="#3FC377"></path>
            <path d="M582.252,415.903 L580.526,423.4695" id="Shape" stroke="#3FC377" stroke-width="2" fill="#3FC377"></path>
            <path d="M560.104,407.451 L560.886,409.4605" id="Shape" stroke="#403252" stroke-width="2" fill="#403252"></path>
            <path d="M560.886,409.461 L561.031,416.4445" id="Shape" stroke="#403252" stroke-width="2" fill="#403252"></path>
            <path d="M561.031,416.445 L561.131,422.2305" id="Shape" stroke="#403252" stroke-width="2" fill="#403252"></path>
            <path d="M568.125,404.915 L568.837,406.9175" id="Shape" stroke="#99D1BD" stroke-width="2" fill="#99D1BD"></path>
            <path d="M568.837,406.918 L568.729,413.7575" id="Shape" stroke="#99D1BD" stroke-width="2" fill="#99D1BD"></path>
            <path d="M568.729,413.758 L568.609,418.8455" id="Shape" stroke="#99D1BD" stroke-width="2" fill="#99D1BD"></path>
            <path d="M540.262,421.463 L545.874,421.7105" id="Shape" stroke="#ADB9BE" stroke-width="2" fill="#ADB9BE"></path>
            <path d="M545.874,421.711 L558.294,420.6975" id="Shape" stroke="#ADB9BE" stroke-width="2" fill="#ADB9BE"></path>
            <path d="M558.294,420.698 L570.972,419.6415" id="Shape" stroke="#ADB9BE" stroke-width="2" fill="#ADB9BE"></path>
            <path d="M570.972,419.642 L584.53,419.0455" id="Shape" stroke="#ADB9BE" stroke-width="2" fill="#ADB9BE"></path>
        </g>
    </g>
</svg>