<?xml version="1.0" encoding="UTF-8"?>
<svg width="120px" height="120px" viewBox="0 0 120 120" version="1.1" xmlns="http://www.w3.org/2000/svg" xmlns:xlink="http://www.w3.org/1999/xlink" style="background: #FFFFFF;">
    <!-- Generator: Sketch 49.3 (51167) - http://www.bohemiancoding.com/sketch -->
    <title>15</title>
    <desc>Created with Sketch.</desc>
    <defs></defs>
    <g id="Page-1" stroke="none" stroke-width="1" fill="none" fill-rule="evenodd">
        <g id="68747470733a2f2f63646e2e7261776769742e636f6d2f686172646d6172752f736b657463682d726e6e2f6d61737465722f6578616d706c652f6f75747075742e737667" transform="translate(-665.000000, -341.000000)" fill-rule="nonzero">
            <rect id="Rectangle-path" fill="#FFFFFF" x="0" y="0" width="800" height="640"></rect>
            <path d="M698.415,390.853 L703.996,390.2305" id="Shape" stroke="#ADB9BE" stroke-width="2" fill="#ADB9BE"></path>
            <path d="M703.996,390.231 L708.628,389.8605" id="Shape" stroke="#ADB9BE" stroke-width="2" fill="#ADB9BE"></path>
            <path d="M708.628,389.861 L713.305,389.3525" id="Shape" stroke="#ADB9BE" stroke-width="2" fill="#ADB9BE"></path>
            <path d="M702.511,374.778 L703.683,377.7265" id="Shape" stroke="#6FD3CE" stroke-width="2" fill="#6FD3CE"></path>
            <path d="M703.683,377.727 L703.807,388.7395" id="Shape" stroke="#6FD3CE" stroke-width="2" fill="#6FD3CE"></path>
            <path d="M703.807,388.74 L703.809,408.6085" id="Shape" stroke="#6FD3CE" stroke-width="2" fill="#6FD3CE"></path>
            <path d="M703.809,408.609 L703.776,424.1305" id="Shape" stroke="#6FD3CE" stroke-width="2" fill="#6FD3CE"></path>
            <path d="M703.194,396.013 L699.104,404.4005" id="Shape" stroke="#43B396" stroke-width="2" fill="#43B396"></path>
            <path d="M699.104,404.401 L693.376,411.8465" id="Shape" stroke="#43B396" stroke-width="2" fill="#43B396"></path>
            <path d="M693.376,411.847 L686.609,418.0255" id="Shape" stroke="#43B396" stroke-width="2" fill="#43B396"></path>
            <path d="M705.199,400.752 L709.117,404.7295" id="Shape" stroke="#2FBFD2" stroke-width="2" fill="#2FBFD2"></path>
            <path d="M709.117,404.73 L712.111,408.9325" id="Shape" stroke="#2FBFD2" stroke-width="2" fill="#2FBFD2"></path>
            <path d="M727.367,374.991 L727.385,376.9575" id="Shape" stroke="#40C9D4" stroke-width="2" fill="#40C9D4"></path>
            <path d="M727.385,376.957 L726.265,382.2085" id="Shape" stroke="#40C9D4" stroke-width="2" fill="#40C9D4"></path>
            <path d="M726.265,382.208 L723.308,388.8935" id="Shape" stroke="#40C9D4" stroke-width="2" fill="#40C9D4"></path>
            <path d="M723.308,388.893 L719.241,394.7075" id="Shape" stroke="#40C9D4" stroke-width="2" fill="#40C9D4"></path>
            <path d="M726.505,386.431 L730.178,386.3705" id="Shape" stroke="#23D7DF" stroke-width="2" fill="#23D7DF"></path>
            <path d="M730.178,386.37 L735.374,385.0645" id="Shape" stroke="#23D7DF" stroke-width="2" fill="#23D7DF"></path>
            <path d="M735.374,385.065 L742.342,383.5975" id="Shape" stroke="#23D7DF" stroke-width="2" fill="#23D7DF"></path>
            <path d="M742.342,383.598 L750.145,382.2825" id="Shape" stroke="#23D7DF" stroke-width="2" fill="#23D7DF"></path>
            <path d="M750.145,382.283 L753.391,382.2245" id="Shape" stroke="#23D7DF" stroke-width="2" fill="#23D7DF"></path>
            <path d="M736.352,387.33 L736.896,390.5075" id="Shape" stroke="#947112" stroke-width="2" fill="#947112"></path>
            <path d="M736.896,390.508 L732.557,403.7815" id="Shape" stroke="#947112" stroke-width="2" fill="#947112"></path>
            <path d="M732.557,403.782 L726.002,415.3145" id="Shape" stroke="#947112" stroke-width="2" fill="#947112"></path>
            <path d="M726.002,415.315 L715.743,425.2225" id="Shape" stroke="#947112" stroke-width="2" fill="#947112"></path>
            <path d="M720.741,395.904 L726.817,401.3005" id="Shape" stroke="#C4B47E" stroke-width="2" fill="#C4B47E"></path>
            <path d="M726.817,401.301 L736.625,411.5045" id="Shape" stroke="#C4B47E" stroke-width="2" fill="#C4B47E"></path>
            <path d="M736.625,411.505 L746.847,421.4145" id="Shape" stroke="#C4B47E" stroke-width="2" fill="#C4B47E"></path>
        </g>
    </g>
</svg>