<?xml version="1.0" encoding="UTF-8"?>
<svg width="120px" height="120px" viewBox="0 0 120 120" version="1.1" xmlns="http://www.w3.org/2000/svg" xmlns:xlink="http://www.w3.org/1999/xlink" style="background: #FFFFFF;">
    <!-- Generator: Sketch 49.3 (51167) - http://www.bohemiancoding.com/sketch -->
    <title>17</title>
    <desc>Created with Sketch.</desc>
    <defs></defs>
    <g id="Page-1" stroke="none" stroke-width="1" fill="none" fill-rule="evenodd">
        <g id="68747470733a2f2f63646e2e7261776769742e636f6d2f686172646d6172752f736b657463682d726e6e2f6d61737465722f6578616d706c652f6f75747075742e737667" transform="translate(-180.000000, -501.000000)" fill-rule="nonzero">
            <rect id="Rectangle-path" fill="#FFFFFF" x="0" y="0" width="800" height="640"></rect>
            <path d="M243.296,544.081 L247.752,543.7945" id="Shape" stroke="#93BD89" stroke-width="2" fill="#93BD89"></path>
            <path d="M247.752,543.795 L250.119,542.7565" id="Shape" stroke="#93BD89" stroke-width="2" fill="#93BD89"></path>
            <path d="M250.119,542.757 L254.095,541.9715" id="Shape" stroke="#93BD89" stroke-width="2" fill="#93BD89"></path>
            <path d="M245.606,523.602 L247.07,525.4925" id="Shape" stroke="#BED91F" stroke-width="2" fill="#BED91F"></path>
            <path d="M247.07,525.493 L247.155,535.4635" id="Shape" stroke="#BED91F" stroke-width="2" fill="#BED91F"></path>
            <path d="M247.155,535.464 L247.11,552.4585" id="Shape" stroke="#BED91F" stroke-width="2" fill="#BED91F"></path>
            <path d="M247.11,552.459 L247.072,565.0995" id="Shape" stroke="#BED91F" stroke-width="2" fill="#BED91F"></path>
            <path d="M237.515,572.548 L239.98,572.8035" id="Shape" stroke="#A4D22A" stroke-width="2" fill="#A4D22A"></path>
            <path d="M239.98,572.803 L245.127,569.1205" id="Shape" stroke="#A4D22A" stroke-width="2" fill="#A4D22A"></path>
            <path d="M245.127,569.12 L252.073,564.4685" id="Shape" stroke="#A4D22A" stroke-width="2" fill="#A4D22A"></path>
            <path d="M252.073,564.468 L257.51,560.6495" id="Shape" stroke="#A4D22A" stroke-width="2" fill="#A4D22A"></path>
            <path d="M258.037,533.326 L258.785,535.1715" id="Shape" stroke="#405D18" stroke-width="2" fill="#405D18"></path>
            <path d="M258.785,535.172 L258.816,543.4565" id="Shape" stroke="#405D18" stroke-width="2" fill="#405D18"></path>
            <path d="M258.816,543.457 L258.826,562.0865" id="Shape" stroke="#405D18" stroke-width="2" fill="#405D18"></path>
            <path d="M258.826,562.087 L258.831,573.5495" id="Shape" stroke="#405D18" stroke-width="2" fill="#405D18"></path>
            <path d="M259.047,534.776 L267.645,533.4525" id="Shape" stroke="#DA408C" stroke-width="2" fill="#DA408C"></path>
            <path d="M267.645,533.452 L274.522,532.4335" id="Shape" stroke="#DA408C" stroke-width="2" fill="#DA408C"></path>
            <path d="M274.522,532.433 L276.547,533.8925" id="Shape" stroke="#DA408C" stroke-width="2" fill="#DA408C"></path>
            <path d="M276.547,533.892 L276.262,543.3745" id="Shape" stroke="#DA408C" stroke-width="2" fill="#DA408C"></path>
            <path d="M276.262,543.374 L275.881,561.0885" id="Shape" stroke="#DA408C" stroke-width="2" fill="#DA408C"></path>
            <path d="M275.881,561.088 L275.679,571.3615" id="Shape" stroke="#DA408C" stroke-width="2" fill="#DA408C"></path>
            <path d="M258.351,547.273 L264.136,546.7685" id="Shape" stroke="#DC8A3B" stroke-width="2" fill="#DC8A3B"></path>
            <path d="M264.136,546.768 L272.546,546.0455" id="Shape" stroke="#DC8A3B" stroke-width="2" fill="#DC8A3B"></path>
            <path d="M272.546,546.045 L279.629,545.5535" id="Shape" stroke="#DC8A3B" stroke-width="2" fill="#DC8A3B"></path>
            <path d="M259.165,557.464 L265.938,557.0295" id="Shape" stroke="#BBC48A" stroke-width="2" fill="#BBC48A"></path>
            <path d="M265.938,557.029 L275.073,556.4695" id="Shape" stroke="#BBC48A" stroke-width="2" fill="#BBC48A"></path>
            <path d="M275.073,556.47 L281.249,556.2725" id="Shape" stroke="#BBC48A" stroke-width="2" fill="#BBC48A"></path>
            <path d="M259.268,568.498 L266.886,567.9805" id="Shape" stroke="#717189" stroke-width="2" fill="#717189"></path>
            <path d="M266.886,567.981 L275.1,567.5675" id="Shape" stroke="#717189" stroke-width="2" fill="#717189"></path>
            <path d="M275.1,567.567 L281.384,567.3685" id="Shape" stroke="#717189" stroke-width="2" fill="#717189"></path>
            <path d="M235.922,541.649 L236.537,543.9955" id="Shape" stroke="#133497" stroke-width="2" fill="#133497"></path>
            <path d="M236.537,543.995 L236.682,556.7045" id="Shape" stroke="#133497" stroke-width="2" fill="#133497"></path>
            <path d="M236.682,556.704 L236.429,576.9825" id="Shape" stroke="#133497" stroke-width="2" fill="#133497"></path>
            <path d="M236.429,576.982 L236.204,587.9155" id="Shape" stroke="#133497" stroke-width="2" fill="#133497"></path>
            <path d="M198.616,595.463 L202.528,596.3985" id="Shape" stroke="#BF70D6" stroke-width="2" fill="#BF70D6"></path>
            <path d="M202.528,596.398 L220.903,595.1245" id="Shape" stroke="#BF70D6" stroke-width="2" fill="#BF70D6"></path>
            <path d="M220.903,595.124 L246.89,592.5515" id="Shape" stroke="#BF70D6" stroke-width="2" fill="#BF70D6"></path>
            <path d="M246.89,592.551 L264.522,590.8245" id="Shape" stroke="#BF70D6" stroke-width="2" fill="#BF70D6"></path>
        </g>
    </g>
</svg>