<?xml version="1.0" encoding="UTF-8"?>
<svg width="120px" height="120px" viewBox="0 0 120 120" version="1.1" xmlns="http://www.w3.org/2000/svg" xmlns:xlink="http://www.w3.org/1999/xlink" style="background: #FFFFFF;">
    <!-- Generator: Sketch 49.3 (51167) - http://www.bohemiancoding.com/sketch -->
    <title>18</title>
    <desc>Created with Sketch.</desc>
    <defs></defs>
    <g id="Page-1" stroke="none" stroke-width="1" fill="none" fill-rule="evenodd">
        <g id="68747470733a2f2f63646e2e7261776769742e636f6d2f686172646d6172752f736b657463682d726e6e2f6d61737465722f6578616d706c652f6f75747075742e737667" transform="translate(-340.000000, -501.000000)" fill-rule="nonzero">
            <rect id="Rectangle-path" fill="#FFFFFF" x="0" y="0" width="800" height="640"></rect>
            <path d="M381.352,518.769 L384.47,518.1905" id="Shape" stroke="#BF70D6" stroke-width="2" fill="#BF70D6"></path>
            <path d="M384.47,518.191 L389.076,518.0095" id="Shape" stroke="#BF70D6" stroke-width="2" fill="#BF70D6"></path>
            <path d="M389.076,518.01 L393.822,517.4775" id="Shape" stroke="#BF70D6" stroke-width="2" fill="#BF70D6"></path>
            <path d="M393.822,517.477 L395.268,517.5275" id="Shape" stroke="#BF70D6" stroke-width="2" fill="#BF70D6"></path>
            <path d="M379.477,524.39 L380.62,526.7095" id="Shape" stroke="#26442E" stroke-width="2" fill="#26442E"></path>
            <path d="M380.62,526.709 L381.341,533.8615" id="Shape" stroke="#26442E" stroke-width="2" fill="#26442E"></path>
            <path d="M381.341,533.861 L382.049,542.6005" id="Shape" stroke="#26442E" stroke-width="2" fill="#26442E"></path>
            <path d="M381.058,525.731 L384.922,525.5195" id="Shape" stroke="#550632" stroke-width="2" fill="#550632"></path>
            <path d="M384.922,525.519 L391.968,524.7535" id="Shape" stroke="#550632" stroke-width="2" fill="#550632"></path>
            <path d="M391.968,524.754 L397.476,524.1285" id="Shape" stroke="#550632" stroke-width="2" fill="#550632"></path>
            <path d="M397.476,524.129 L399.161,525.4965" id="Shape" stroke="#550632" stroke-width="2" fill="#550632"></path>
            <path d="M399.161,525.497 L398.753,532.8095" id="Shape" stroke="#550632" stroke-width="2" fill="#550632"></path>
            <path d="M398.753,532.81 L397.57,543.1615" id="Shape" stroke="#550632" stroke-width="2" fill="#550632"></path>
            <path d="M383.416,534.422 L389.639,533.4965" id="Shape" stroke="#754B48" stroke-width="2" fill="#754B48"></path>
            <path d="M389.639,533.497 L396.867,532.6305" id="Shape" stroke="#754B48" stroke-width="2" fill="#754B48"></path>
            <path d="M382.725,541.652 L389.262,540.7465" id="Shape" stroke="#910F59" stroke-width="2" fill="#910F59"></path>
            <path d="M389.262,540.747 L395.954,540.2095" id="Shape" stroke="#910F59" stroke-width="2" fill="#910F59"></path>
            <path d="M386.418,544.689 L386.61,546.1805" id="Shape" stroke="#5E6BA0" stroke-width="2" fill="#5E6BA0"></path>
            <path d="M386.61,546.181 L384.721,549.8055" id="Shape" stroke="#5E6BA0" stroke-width="2" fill="#5E6BA0"></path>
            <path d="M384.721,549.806 L381.147,554.4275" id="Shape" stroke="#5E6BA0" stroke-width="2" fill="#5E6BA0"></path>
            <path d="M381.147,554.428 L375.858,559.3165" id="Shape" stroke="#5E6BA0" stroke-width="2" fill="#5E6BA0"></path>
            <path d="M390.735,548.88 L391.595,549.3785" id="Shape" stroke="#4C7C08" stroke-width="2" fill="#4C7C08"></path>
            <path d="M391.595,549.379 L398.039,548.1105" id="Shape" stroke="#4C7C08" stroke-width="2" fill="#4C7C08"></path>
            <path d="M398.039,548.111 L404.606,547.0925" id="Shape" stroke="#4C7C08" stroke-width="2" fill="#4C7C08"></path>
            <path d="M404.606,547.092 L406.591,548.8385" id="Shape" stroke="#4C7C08" stroke-width="2" fill="#4C7C08"></path>
            <path d="M406.591,548.838 L400.644,556.8725" id="Shape" stroke="#4C7C08" stroke-width="2" fill="#4C7C08"></path>
            <path d="M400.644,556.872 L391.402,565.5935" id="Shape" stroke="#4C7C08" stroke-width="2" fill="#4C7C08"></path>
            <path d="M391.402,565.593 L378.126,572.8925" id="Shape" stroke="#4C7C08" stroke-width="2" fill="#4C7C08"></path>
            <path d="M385.107,553.954 L392.296,558.6425" id="Shape" stroke="#00CC68" stroke-width="2" fill="#00CC68"></path>
            <path d="M392.296,558.642 L404.097,565.2425" id="Shape" stroke="#00CC68" stroke-width="2" fill="#00CC68"></path>
            <path d="M404.097,565.242 L413.52,569.9175" id="Shape" stroke="#00CC68" stroke-width="2" fill="#00CC68"></path>
            <path d="M413.52,569.917 L417.036,571.0805" id="Shape" stroke="#00CC68" stroke-width="2" fill="#00CC68"></path>
            <path d="M381.286,572.102 L385.258,576.4245" id="Shape" stroke="#7F0A18" stroke-width="2" fill="#7F0A18"></path>
            <path d="M385.258,576.424 L387.595,581.0365" id="Shape" stroke="#7F0A18" stroke-width="2" fill="#7F0A18"></path>
            <path d="M416.215,568.955 L416.259,570.1445" id="Shape" stroke="#AC04CB" stroke-width="2" fill="#AC04CB"></path>
            <path d="M416.259,570.144 L412.752,575.4785" id="Shape" stroke="#AC04CB" stroke-width="2" fill="#AC04CB"></path>
            <path d="M412.752,575.478 L406.494,581.0595" id="Shape" stroke="#AC04CB" stroke-width="2" fill="#AC04CB"></path>
            <path d="M373.722,585.439 L377.597,585.7835" id="Shape" stroke="#1B1100" stroke-width="2" fill="#1B1100"></path>
            <path d="M377.597,585.783 L390.293,584.5385" id="Shape" stroke="#1B1100" stroke-width="2" fill="#1B1100"></path>
            <path d="M390.293,584.538 L409.405,582.1555" id="Shape" stroke="#1B1100" stroke-width="2" fill="#1B1100"></path>
            <path d="M409.405,582.155 L421.784,581.1875" id="Shape" stroke="#1B1100" stroke-width="2" fill="#1B1100"></path>
            <path d="M421.784,581.187 L425.265,581.3365" id="Shape" stroke="#1B1100" stroke-width="2" fill="#1B1100"></path>
            <path d="M398.68,567.078 L400.834,570.6695" id="Shape" stroke="#921DDB" stroke-width="2" fill="#921DDB"></path>
            <path d="M400.834,570.669 L400.871,579.0095" id="Shape" stroke="#921DDB" stroke-width="2" fill="#921DDB"></path>
            <path d="M400.871,579.009 L400.722,591.1055" id="Shape" stroke="#921DDB" stroke-width="2" fill="#921DDB"></path>
            <path d="M400.722,591.105 L400.646,599.2045" id="Shape" stroke="#921DDB" stroke-width="2" fill="#921DDB"></path>
            <path d="M401.242,581.752 L394.396,589.0225" id="Shape" stroke="#73C126" stroke-width="2" fill="#73C126"></path>
            <path d="M394.396,589.022 L384.794,596.5815" id="Shape" stroke="#73C126" stroke-width="2" fill="#73C126"></path>
            <path d="M384.794,596.581 L373.063,602.5225" id="Shape" stroke="#73C126" stroke-width="2" fill="#73C126"></path>
            <path d="M401.205,584.68 L408.837,588.5645" id="Shape" stroke="#CE033E" stroke-width="2" fill="#CE033E"></path>
            <path d="M408.837,588.564 L419.389,595.9405" id="Shape" stroke="#CE033E" stroke-width="2" fill="#CE033E"></path>
            <path d="M419.389,595.94 L426.937,601.0375" id="Shape" stroke="#CE033E" stroke-width="2" fill="#CE033E"></path>
        </g>
    </g>
</svg>