<?xml version="1.0" encoding="utf-8" ?>
<svg baseProfile="full" height="109" version="1.1" width="109" xmlns="http://www.w3.org/2000/svg" xmlns:ev="http://www.w3.org/2001/xml-events" xmlns:xlink="http://www.w3.org/1999/xlink"><defs /><rect fill="white" height="109" width="109" x="0" y="0" /><path d="M26.4312485121,8.83109382764 m1,6 l1,11 m-2,-19 l3,0 5,0 l6,-1 2,2 l0,8 0,11 m-10,-9 l1,0 3,0 m-15,1 l0,3 0,5 l0,4 m-8,-1 l0,1 -3,4 l-7,4 m0,0 l0,3 0,7 l0,13 0,10 m0,-27 l3,0 1,0 l2,0 m-6,10 l4,0 2,0 m9,-22 l1,0 5,0 l4,0 1,1 l-1,7 -2,7 l-4,0 m0,-15 l0,0 -1,4 l-2,5 m-9,3 l3,0 6,0 l7,0 m-16,-2 l0,2 0,5 l0,6 0,5 m-8,0 l2,0 7,0 l7,-1 3,0 m-18,10 l1,0 4,0 l5,0 3,0 m15,-49 l0,2 -1,8 l-4,10 -7,9 m12,-21 l3,0 5,-1 l4,0 2,2 l-5,10 -8,10 l-9,9 m1,-20 l3,4 4,5 m6,-3 l4,0 3,0 l7,-1 9,-1 m-12,-6 l1,4 0,14 l0,11 0,8 l-4,1 m-11,-16 l5,0 6,-2 l6,-3 7,-3 m8,-30 l1,4 2,17 l5,16 7,10 l2,-3 m-4,-25 l0,3 -4,10 l-7,12 -11,11 m20,-61 l3,3 " fill="none" stroke="black" stroke-width="2.0" /></svg>