<?xml version="1.0" encoding="utf-8" ?>
<svg baseProfile="full" height="109" version="1.1" width="109" xmlns="http://www.w3.org/2000/svg" xmlns:ev="http://www.w3.org/2001/xml-events" xmlns:xlink="http://www.w3.org/1999/xlink"><defs /><rect fill="white" height="109" width="109" x="0" y="0" /><path d="M69.3307352662,5.0 m-3,1 l-20,1 -23,2 m-16,10 l10,0 18,-1 l25,-2 19,-1 l6,0 m-60,16 l1,3 1,14 l1,16 m-3,-29 l18,-2 18,-1 l12,-1 4,4 l-1,12 -2,13 m-44,-13 l13,-1 m27,-11 l0,1 -6,11 m-29,9 l13,-1 18,-1 l14,0 m-27,-33 l2,4 0,17 l0,27 0,21 m-28,-25 l9,0 14,-1 l13,-1 10,-1 l7,0 m-56,24 l9,1 17,-1 l17,-1 20,-1 " fill="none" stroke="black" stroke-width="2.0" /></svg>