<?xml version="1.0" encoding="utf-8" ?>
<svg baseProfile="full" height="109" version="1.1" width="109" xmlns="http://www.w3.org/2000/svg" xmlns:ev="http://www.w3.org/2001/xml-events" xmlns:xlink="http://www.w3.org/1999/xlink"><defs /><rect fill="white" height="109" width="109" x="0" y="0" /><path d="M7.48374128342,28.9837096703 m7,0 l13,0 12,-1 l5,0 m-18,-21 l3,5 0,21 l0,37 0,20 m0,-59 l-7,14 -8,12 l-9,11 m26,-25 l5,5 4,6 m18,-48 l0,3 -3,10 l-5,12 -7,11 m12,-12 l4,0 9,-1 l11,-1 8,-1 l5,7 -1,18 l-5,22 -6,18 l-8,-2 m-15,-48 l3,3 " fill="none" stroke="black" stroke-width="2.0" /></svg>