<?xml version="1.0" encoding="utf-8" ?>
<svg baseProfile="full" height="109" version="1.1" width="109" xmlns="http://www.w3.org/2000/svg" xmlns:ev="http://www.w3.org/2001/xml-events" xmlns:xlink="http://www.w3.org/1999/xlink"><defs /><rect fill="white" height="109" width="109" x="0" y="0" /><path d="M38.4759731926,21.4456765099 m8,0 l13,-2 m-20,-13 l2,3 0,9 l0,11 m-29,3 l2,1 2,9 l2,11 m-2,-20 l12,-1 16,-2 l11,-1 2,2 l-2,8 -3,10 m-35,4 l10,-1 15,-1 l12,-1 m-42,20 l2,0 10,-1 l14,-2 10,-1 l1,0 m-20,5 l0,2 -4,6 l-9,7 -13,8 m30,-16 l10,9 7,10 " fill="none" stroke="black" stroke-width="2.0" /></svg>