<?xml version="1.0" encoding="utf-8" ?>
<svg baseProfile="full" height="109" version="1.1" width="109" xmlns="http://www.w3.org/2000/svg" xmlns:ev="http://www.w3.org/2001/xml-events" xmlns:xlink="http://www.w3.org/1999/xlink"><defs /><rect fill="white" height="109" width="109" x="0" y="0" /><path d="M5.0,9.42944550854 m8,0 l11,-1 10,-1 l3,0 m-30,14 l0,2 1,7 l1,9 m-1,-17 l7,-1 9,-1 l6,0 2,3 l0,6 -1,7 m-20,-8 l6,0 m18,-9 l0,1 -2,7 m-17,5 l11,-1 12,-1 l7,0 m-19,-25 l1,3 0,13 l0,18 0,9 m-13,-6 l2,0 6,0 l6,-1 6,0 l1,0 m-26,11 l1,0 1,7 l0,6 m-1,-14 l5,-1 7,-1 l6,0 1,2 l-1,6 -1,6 m-17,3 l5,0 5,0 l5,0 m2,-30 l4,0 9,-1 l11,-1 7,0 l3,2 m-13,-13 l1,4 -4,13 l-6,12 -7,8 m18,-21 l6,6 6,7 m-36,8 l7,0 9,-1 l12,-1 9,-1 l6,0 m-27,9 l10,3 m-30,8 l5,0 14,0 l16,-1 15,0 l5,0 m-37,9 l0,1 -6,5 l-11,6 m40,-12 l6,4 4,5 m-80,-46 l0,6 0,14 l0,17 3,5 l21,0 31,-1 l23,0 m-1,-46 l1,4 0,6 l0,12 0,16 " fill="none" stroke="black" stroke-width="2.0" /></svg>