<?xml version="1.0" encoding="utf-8" ?>
<svg baseProfile="full" height="109" version="1.1" width="109" xmlns="http://www.w3.org/2000/svg" xmlns:ev="http://www.w3.org/2001/xml-events" xmlns:xlink="http://www.w3.org/1999/xlink"><defs /><rect fill="white" height="109" width="109" x="0" y="0" /><path d="M6.87078905775,23.401564859 m1,0 l6,0 8,-1 l6,0 m-12,-15 l1,4 0,17 l0,20 0,12 l-6,2 m-7,-17 l3,0 5,-2 l7,-4 6,-3 m0,-26 l0,1 1,6 l0,6 0,4 m-1,-18 l5,0 6,0 l5,0 2,2 l0,6 0,6 l0,4 m-16,-9 l7,0 5,0 m-13,10 l6,0 7,0 m-24,13 l2,0 6,-1 l5,-1 2,1 l0,7 0,9 l0,8 -5,0 m-10,-19 l0,1 -3,5 l-4,6 -6,6 m43,-24 l5,4 5,5 m-28,18 l3,0 7,-1 l8,-1 4,0 m-17,-10 l1,3 0,8 l0,12 0,9 m-14,4 l2,0 5,-2 l6,-2 6,-2 m6,-12 l2,0 7,-1 l6,0 6,0 m-12,-13 l1,3 0,15 l0,15 0,8 l-5,1 m-7,-18 " fill="none" stroke="black" stroke-width="2.0" /></svg>