<?xml version="1.0" encoding="utf-8" ?>
<svg baseProfile="full" height="109" version="1.1" width="109" xmlns="http://www.w3.org/2000/svg" xmlns:ev="http://www.w3.org/2001/xml-events" xmlns:xlink="http://www.w3.org/1999/xlink"><defs /><rect fill="white" height="109" width="109" x="0" y="0" /><path d="M49.2711489698,12.8914704246 m-4,7 m-20,2 l2,0 10,-1 l11,0 6,0 m-25,12 l2,0 5,-1 l6,-1 m0,-9 l1,2 0,7 l0,6 m-10,1 l6,0 6,0 l3,0 m9,-32 l1,2 0,10 l0,13 0,8 m0,-33 l7,0 6,-1 l3,2 0,7 l0,8 0,8 l-3,1 m-13,-20 l7,0 9,-1 m-14,11 l6,0 7,0 m-22,1 l0,4 0,8 m-25,6 l7,0 15,-1 l18,-1 14,0 l4,0 m-47,7 l0,4 -4,8 l-6,9 -9,10 m15,-18 l7,4 m24,-13 l0,2 -5,5 l-7,6 m12,-5 l6,5 5,6 m-77,-33 l1,5 0,9 l0,16 0,10 l2,2 21,-1 l31,-2 26,-2 m6,-35 l1,4 -1,9 l0,13 " fill="none" stroke="black" stroke-width="2.0" /></svg>