<?xml version="1.0" encoding="utf-8" ?>
<svg baseProfile="full" height="109" version="1.1" width="109" xmlns="http://www.w3.org/2000/svg" xmlns:ev="http://www.w3.org/2001/xml-events" xmlns:xlink="http://www.w3.org/1999/xlink"><defs /><rect fill="white" height="109" width="109" x="0" y="0" /><path d="M8.831751559,37.8627015515 m7,0 l9,-1 10,-1 m-14,-25 l1,6 0,25 l0,35 0,22 l-8,2 m-10,-31 l5,0 6,-3 l13,-8 9,-4 m3,-46 l6,0 14,-1 l13,-1 14,-1 l5,0 m-38,10 l0,3 -1,9 l-4,9 m-19,1 l1,2 1,12 l1,18 1,18 m-2,-50 l21,-2 21,-2 l12,-1 5,6 l-1,13 -2,19 l-2,18 m-25,-57 l1,4 0,20 l0,19 0,13 m-26,-21 l14,-1 24,-1 l14,-1 m-49,33 l13,0 16,-1 " fill="none" stroke="black" stroke-width="2.0" /></svg>