<?xml version="1.0" encoding="utf-8" ?>
<svg baseProfile="full" height="109" version="1.1" width="109" xmlns="http://www.w3.org/2000/svg" xmlns:ev="http://www.w3.org/2001/xml-events" xmlns:xlink="http://www.w3.org/1999/xlink"><defs /><rect fill="white" height="109" width="109" x="0" y="0" /><path d="M26.3108814835,15.6669469444 m6,-1 l7,0 m-15,-8 l1,4 0,7 l0,8 m-11,0 l0,3 0,38 l-3,19 -6,15 m16,-63 l3,0 8,-1 l9,-1 8,0 l4,0 m-27,7 l0,3 -2,4 l-3,3 m26,-12 l6,3 4,5 m-39,8 l6,0 8,-1 l8,-1 7,0 l4,0 m-24,-8 l1,3 0,8 l0,11 0,7 m11,-25 l1,2 0,7 l0,7 0,8 m-29,3 l5,0 10,-1 l11,-1 12,-1 l4,0 m-30,8 l0,1 -3,3 l-5,4 -7,4 m31,-13 l5,3 4,4 " fill="none" stroke="black" stroke-width="2.0" /></svg>