<?xml version="1.0" encoding="utf-8" ?>
<svg baseProfile="full" height="109" version="1.1" width="109" xmlns="http://www.w3.org/2000/svg" xmlns:ev="http://www.w3.org/2001/xml-events" xmlns:xlink="http://www.w3.org/1999/xlink"><defs /><rect fill="white" height="109" width="109" x="0" y="0" /><path d="M5.0,35.89208178 m17,-16 l10,-7 m14,-6 l0,2 -4,5 l-9,6 m-11,4 l1,1 1,7 l1,9 1,8 m-3,-25 l9,-1 10,-1 l7,-1 3,3 l0,7 -1,9 l-1,7 m-21,-16 l4,5 m10,-9 l0,1 -2,6 m-16,9 l7,0 8,-1 l9,-1 m-12,-18 l0,2 0,10 l0,14 0,9 m-14,-9 l2,0 8,0 l9,-1 6,0 l2,0 m-29,16 l3,0 8,-3 l8,-3 8,-2 m-24,12 l-1,7 -1,4 m7,-15 l1,5 1,6 m5,-15 l3,5 1,5 m0,-13 l3,3 2,4 m16,-45 l3,6 2,6 m20,-19 l0,1 -2,7 l-6,8 m-18,5 l3,0 7,0 l8,0 6,0 l3,0 m-31,20 l2,0 8,-1 l10,-1 9,0 l2,0 m-20,-29 l1,5 0,18 l0,24 " fill="none" stroke="black" stroke-width="2.0" /></svg>