<?xml version="1.0" encoding="utf-8" ?>
<svg baseProfile="full" height="109" version="1.1" width="109" xmlns="http://www.w3.org/2000/svg" xmlns:ev="http://www.w3.org/2001/xml-events" xmlns:xlink="http://www.w3.org/1999/xlink"><defs /><rect fill="white" height="109" width="109" x="0" y="0" /><path d="M12.1821752667,26.6296554464 m7,-1 l7,-1 6,0 l2,0 m-28,15 l0,1 0,5 l0,7 0,7 m-1,-20 l8,-1 9,-1 l6,0 2,2 l0,4 0,5 l-1,6 m-21,-8 l7,0 7,0 l3,0 m-17,10 l6,0 6,0 l7,0 m-26,11 l4,0 7,0 l7,-1 6,0 l5,0 m-20,-59 l1,2 0,16 l0,29 0,18 m19,-55 l3,0 6,0 l9,-1 7,0 l3,0 m-24,9 l0,1 -2,5 l-3,5 1,3 l6,-1 11,-1 l10,-1 m-27,-19 l5,0 10,0 l7,0 2,2 l-2,8 -2,10 m-32,2 l5,0 12,-1 l13,-1 16,0 l5,0 m-50,9 l1,1 1,6 l1,6 m-1,-12 l9,0 9,-1 l7,0 3,2 l-2,8 m-23,3 l8,0 10,-1 l7,0 m-36,10 l1,4 0,8 l0,13 0,11 m-1,-34 l14,-1 17,-1 l11,0 5,2 l0,10 0,13 l-1,8 -6,1 m-12,-54 l0,2 -2,14 l-5,12 -8,8 m18,-20 l4,4 4,5 " fill="none" stroke="black" stroke-width="2.0" /></svg>