<?xml version="1.0" encoding="utf-8" ?>
<svg baseProfile="full" height="109" version="1.1" width="109" xmlns="http://www.w3.org/2000/svg" xmlns:ev="http://www.w3.org/2001/xml-events" xmlns:xlink="http://www.w3.org/1999/xlink"><defs /><rect fill="white" height="109" width="109" x="0" y="0" /><path d="M33.0723934002,5.0 m-1,6 l-3,12 m-23,0 l1,2 1,6 l1,9 0,8 m-2,-25 l14,-1 19,-1 l14,-1 3,4 l-1,7 -1,9 l-1,7 m-25,-24 l0,3 0,7 l0,8 0,5 m-19,-9 l12,0 17,-1 l11,0 m-41,16 l12,-1 12,-1 l13,-1 m-40,14 l2,3 0,6 l1,11 1,11 m-2,-32 l8,-1 14,-1 l9,-1 5,3 l0,9 -1,14 l-1,12 m-29,-17 l8,0 8,0 l6,0 m-22,20 l8,0 10,0 " fill="none" stroke="black" stroke-width="2.0" /></svg>