<?xml version="1.0" encoding="utf-8" ?>
<svg baseProfile="full" height="109" version="1.1" width="109" xmlns="http://www.w3.org/2000/svg" xmlns:ev="http://www.w3.org/2001/xml-events" xmlns:xlink="http://www.w3.org/1999/xlink"><defs /><rect fill="white" height="109" width="109" x="0" y="0" /><path d="M5.0,32.8548465873 m8,-2 l7,-2 8,-1 m-8,-21 l1,5 0,15 l0,26 0,26 l0,6 m0,-54 l-1,6 -4,11 l-5,9 -6,11 m20,-25 l3,3 3,5 l3,6 m14,-45 l0,3 0,12 l0,17 0,11 m1,-43 l13,-1 12,-1 l8,0 3,0 m-21,3 l0,0 0,9 l0,17 m-20,-18 l13,-1 14,-1 l8,0 3,0 m-35,9 l12,-1 14,-1 l9,0 3,0 m-41,14 l13,-1 16,-1 l11,0 4,4 l-1,9 -2,7 l-5,0 m-42,-12 l-2,6 m19,-12 l0,5 m-3,-18 l4,6 2,5 m7,-8 l0,2 " fill="none" stroke="black" stroke-width="2.0" /></svg>