<?xml version="1.0" encoding="utf-8" ?>
<svg baseProfile="full" height="109" version="1.1" width="109" xmlns="http://www.w3.org/2000/svg" xmlns:ev="http://www.w3.org/2001/xml-events" xmlns:xlink="http://www.w3.org/1999/xlink"><defs /><rect fill="white" height="109" width="109" x="0" y="0" /><path d="M51.8639607665,32.1045519216 m5,0 l7,-1 6,0 m-11,-20 l2,4 0,21 l0,27 0,17 l-6,2 m-8,-23 l7,0 3,-2 l6,-4 6,-4 m13,-40 l0,1 m-14,5 l1,0 7,-1 l9,-1 3,0 m-22,8 l2,5 m15,-11 l0,1 -1,4 m-22,4 l2,0 8,-1 l9,-1 8,0 l3,0 m-28,10 l3,0 6,0 l7,0 7,0 l2,0 m-15,-7 l1,2 0,10 l0,7 m-46,9 l7,0 13,-1 l11,0 12,-1 l7,0 m-24,-4 l0,3 0,10 l0,9 m-55,10 l7,0 22,-1 l32,-2 25,-1 l6,0 m-38,-17 l1,3 0,16 l0,14 0,10 l-4,0 m-22,-17 l5,4 " fill="none" stroke="black" stroke-width="2.0" /></svg>