<?xml version="1.0" encoding="utf-8" ?>
<svg baseProfile="full" height="109" version="1.1" width="109" xmlns="http://www.w3.org/2000/svg" xmlns:ev="http://www.w3.org/2001/xml-events" xmlns:xlink="http://www.w3.org/1999/xlink"><defs /><rect fill="white" height="109" width="109" x="0" y="0" /><path d="M9.84169457047,24.0761164832 m5,0 l6,-1 6,-1 l2,0 m-13,-14 l1,2 0,11 l0,16 0,11 m-13,5 l3,0 6,-3 l7,-4 7,-3 m-4,-23 l0,2 0,11 l0,18 0,13 m-1,-34 l7,0 7,0 l7,0 3,2 l0,9 -1,12 l-1,9 m-10,-32 l1,2 0,7 l0,11 0,7 m-10,-13 l7,0 6,0 l1,0 m-15,17 l8,0 8,0 m35,-55 l0,2 -3,9 l-6,8 m-12,2 l5,0 9,-1 l7,0 2,3 l-1,6 m-21,2 l5,0 7,0 l8,-1 5,0 m-24,-6 l1,3 0,23 l-4,15 -8,14 m15,-53 l1,3 0,8 l0,17 0,12 m26,-53 l0,3 0,11 l0,19 0,11 m-43,-35 l5,6 4,6 m39,-20 l0,2 -2,6 l-5,7 -6,7 m-35,7 l4,0 10,0 l19,-1 17,0 " fill="none" stroke="black" stroke-width="2.0" /></svg>