<?xml version="1.0" encoding="utf-8" ?>
<svg baseProfile="full" height="109" version="1.1" width="109" xmlns="http://www.w3.org/2000/svg" xmlns:ev="http://www.w3.org/2001/xml-events" xmlns:xlink="http://www.w3.org/1999/xlink"><defs /><rect fill="white" height="109" width="109" x="0" y="0" /><path d="M6.6269400005,34.9328111696 m7,-2 l8,-2 6,-1 m-8,-23 l1,5 0,21 l0,32 0,20 l-8,1 m-8,-26 l5,0 4,-2 l6,-3 7,-4 m13,-20 l4,0 8,0 l9,-1 9,0 l3,0 m-17,-13 l2,4 0,10 l0,5 0,9 m-29,3 l6,0 18,-1 l18,-1 19,-1 l6,0 m-61,-18 l1,4 -2,25 l-7,22 -15,19 m42,-51 l1,4 0,11 l0,14 0,14 " fill="none" stroke="black" stroke-width="2.0" /></svg>