<?xml version="1.0" encoding="utf-8" ?>
<svg baseProfile="full" height="109" version="1.1" width="109" xmlns="http://www.w3.org/2000/svg" xmlns:ev="http://www.w3.org/2001/xml-events" xmlns:xlink="http://www.w3.org/1999/xlink"><defs /><rect fill="white" height="109" width="109" x="0" y="0" /><path d="M19.9197178724,23.1516133943 m1,0 l6,0 7,-1 l7,-1 1,0 m-13,-15 l2,2 0,10 l0,17 0,13 m0,-25 l-5,8 -5,7 l-6,5 m18,-15 l4,4 4,5 m7,-22 l2,0 8,-1 l10,-1 6,0 l3,1 -1,7 l-4,10 -6,8 m-22,-15 l6,6 6,8 m-38,13 l6,1 12,-1 l21,-1 22,-2 l5,0 m-32,0 l1,6 0,14 l0,12 0,8 m-41,-17 l9,0 20,-2 l18,-1 13,0 m-76,31 l13,0 12,0 l9,0 14,0 l13,0 18,0 " fill="none" stroke="black" stroke-width="2.0" /></svg>