<?xml version="1.0" encoding="utf-8" ?>
<svg baseProfile="full" height="109" version="1.1" width="109" xmlns="http://www.w3.org/2000/svg" xmlns:ev="http://www.w3.org/2001/xml-events" xmlns:xlink="http://www.w3.org/1999/xlink"><defs /><rect fill="white" height="109" width="109" x="0" y="0" /><path d="M11.9228854191,39.3146696963 m1,-1 l7,-1 9,-1 l8,0 m-17,-29 l2,5 0,22 l0,32 0,21 l-8,2 m-10,-20 l5,0 3,-2 l5,-3 6,-5 m39,-50 l5,7 m-31,7 l5,0 14,-1 l16,-1 15,-1 l5,0 m-51,7 l1,2 1,9 l0,6 m-1,-17 l10,-1 10,0 l9,0 5,4 l-2,8 m-29,3 l6,0 9,0 l10,0 6,0 m-37,8 l1,4 0,7 l0,15 0,15 l0,9 m0,-50 l12,0 16,-1 l10,0 5,3 l0,8 0,14 l0,15 -8,2 m-36,-27 l14,-1 17,-1 l13,-1 m-46,16 l12,0 18,-1 " fill="none" stroke="black" stroke-width="2.0" /></svg>