<?xml version="1.0" encoding="utf-8" ?>
<svg baseProfile="full" height="109" version="1.1" width="109" xmlns="http://www.w3.org/2000/svg" xmlns:ev="http://www.w3.org/2001/xml-events" xmlns:xlink="http://www.w3.org/1999/xlink"><defs /><rect fill="white" height="109" width="109" x="0" y="0" /><path d="M10.6455833496,29.2765020462 m6,0 l6,0 6,0 m-13,-17 l1,3 0,15 l0,23 0,16 l-5,3 m-7,-21 l5,0 3,-2 l4,-2 7,-5 m21,-34 l0,2 m-13,4 l3,0 6,0 l9,-1 7,0 m-17,3 l2,3 m10,-8 l0,1 -3,4 m-13,2 l0,1 -2,5 l-4,5 m6,-6 l1,0 5,-1 l6,-1 3,0 m-13,5 l4,4 3,5 m20,-17 l0,2 -4,7 m10,-7 l6,0 7,0 m-18,1 l0,2 0,5 l0,4 m-23,2 l5,0 11,-1 l12,-1 15,-1 l7,0 m-51,10 l1,1 1,5 l1,8 1,7 m-2,-22 l11,-1 12,-1 l9,0 4,3 l0,6 -1,8 l-1,8 m-33,-13 l8,0 10,0 l10,0 m-28,12 l8,0 11,0 l11,0 m-18,-35 l1,3 0,16 l0,23 0,14 m-18,-9 l1,0 9,0 l11,0 9,0 l1,0 m-35,12 l3,0 8,0 l9,0 10,0 " fill="none" stroke="black" stroke-width="2.0" /></svg>