<?xml version="1.0" encoding="utf-8" ?>
<svg baseProfile="full" height="109" version="1.1" width="109" xmlns="http://www.w3.org/2000/svg" xmlns:ev="http://www.w3.org/2001/xml-events" xmlns:xlink="http://www.w3.org/1999/xlink"><defs /><rect fill="white" height="109" width="109" x="0" y="0" /><path d="M16.7710344649,12.234673645 m0,7 l0,9 m0,-11 l6,0 4,0 l2,0 m-12,9 l4,0 6,0 l3,0 m-23,6 l2,0 6,0 l8,-1 8,0 l2,0 m-15,3 l0,1 -3,4 l-2,3 1,1 l5,-1 5,-1 l5,-1 m-3,-4 l3,3 2,4 m32,-37 l0,0 -3,2 l-5,3 -8,3 m18,0 l0,1 -3,2 l-6,3 -8,3 m19,2 l0,0 -3,2 l-8,3 m-24,6 l0,2 0,7 l0,10 0,5 m1,-22 l10,0 14,-1 l8,0 2,2 l0,5 0,11 l0,9 m-36,-18 l9,0 11,0 l7,0 m-27,9 l8,0 9,0 l7,0 m-25,9 l10,0 12,0 l9,0 m-21,3 l-1,2 -4,3 l-6,4 m23,-11 l8,4 5,3 m-50,7 l0,2 0,5 l1,7 m-1,-13 l13,-1 15,-1 l11,-1 2,2 l0,5 -1,6 m-28,-11 l0,2 0,6 l0,5 m13,-16 l0,2 -1,6 l0,5 m-42,2 l7,0 16,-1 l18,-1 18,-1 " fill="none" stroke="black" stroke-width="2.0" /></svg>