<?xml version="1.0" encoding="utf-8" ?>
<svg baseProfile="full" height="109" version="1.1" width="109" xmlns="http://www.w3.org/2000/svg" xmlns:ev="http://www.w3.org/2001/xml-events" xmlns:xlink="http://www.w3.org/1999/xlink"><defs /><rect fill="white" height="109" width="109" x="0" y="0" /><path d="M38.0474185038,5.0 m-3,2 l-3,1 m-8,0 l1,1 1,5 l1,6 m-1,-12 l9,0 9,0 l7,0 2,1 l-1,6 -1,6 m-22,-7 l6,0 11,0 l8,0 m-28,7 l7,0 8,0 l8,0 m-43,12 l5,0 16,-1 l16,0 16,0 l6,0 m-36,-5 l0,2 0,6 l0,6 0,5 m-15,0 l0,1 -2,4 l-5,5 -6,3 m40,-17 l5,3 4,3 l3,3 m-49,2 l4,0 8,0 l9,0 6,0 l5,0 m-37,13 l6,0 10,-1 l10,-1 8,0 l4,0 m-23,-6 l1,2 0,4 l0,5 0,4 m-7,1 l0,2 0,4 l0,7 0,6 l0,4 m1,-28 l5,0 5,0 l2,1 0,4 l0,7 0,9 l0,4 m-12,-16 l6,0 6,0 m-12,10 l6,0 6,0 m-13,12 l5,0 6,0 m-25,-29 l0,2 0,6 l0,8 0,7 l2,3 6,0 l8,0 8,0 l5,0 m0,-33 l0,2 0,7 l0,14 " fill="none" stroke="black" stroke-width="2.0" /></svg>