<?xml version="1.0" encoding="utf-8" ?>
<svg baseProfile="full" height="109" version="1.1" width="109" xmlns="http://www.w3.org/2000/svg" xmlns:ev="http://www.w3.org/2001/xml-events" xmlns:xlink="http://www.w3.org/1999/xlink"><defs /><rect fill="white" height="109" width="109" x="0" y="0" /><path d="M10.7349628967,33.3118326478 m3,0 l8,0 8,-1 l4,0 m-14,-20 l2,3 0,12 l0,22 0,13 m0,-36 l-4,10 -6,9 l-7,9 m21,-21 l5,4 4,6 m18,-25 l3,0 9,0 l13,-1 10,0 l3,0 m-25,-12 l2,3 0,10 l0,16 0,12 m-14,-21 l0,3 -2,8 l-3,9 3,3 l13,-2 12,-2 l11,-1 3,6 l-3,10 -5,10 " fill="none" stroke="black" stroke-width="2.0" /></svg>