<?xml version="1.0" encoding="utf-8" ?>
<svg baseProfile="full" height="109" version="1.1" width="109" xmlns="http://www.w3.org/2000/svg" xmlns:ev="http://www.w3.org/2001/xml-events" xmlns:xlink="http://www.w3.org/1999/xlink"><defs /><rect fill="white" height="109" width="109" x="0" y="0" /><path d="M10.5135498762,26.9375947808 m2,0 l6,0 6,0 l6,0 m-11,-17 l1,4 0,16 l0,20 0,15 l-6,1 m-11,-11 l4,0 5,-3 l7,-4 9,-5 m17,-32 l0,1 -3,6 l-5,5 m-6,3 l1,3 0,11 l0,15 0,12 m0,-39 l9,-1 11,-1 l7,0 3,3 l0,6 -1,9 m-29,-8 l13,-1 8,0 m-24,11 l9,-1 13,-1 l11,0 m-37,15 l14,-1 15,-2 l9,-1 5,0 m-47,21 l17,-2 17,-2 l13,-1 8,7 l-2,11 -3,9 l-4,8 -10,0 m-52,-15 l-2,9 -4,7 m17,-18 l3,5 2,7 m8,-15 l4,5 m8,-13 " fill="none" stroke="black" stroke-width="2.0" /></svg>