<?xml version="1.0" encoding="utf-8" ?>
<svg baseProfile="full" height="109" version="1.1" width="109" xmlns="http://www.w3.org/2000/svg" xmlns:ev="http://www.w3.org/2001/xml-events" xmlns:xlink="http://www.w3.org/1999/xlink"><defs /><rect fill="white" height="109" width="109" x="0" y="0" /><path d="M5.0,55.5003984696 m1,0 l6,0 7,-1 l6,0 m-9,-17 l1,4 0,18 l0,22 0,16 l-5,1 m-7,-22 l4,0 2,-1 l4,-3 5,-4 m7,-18 l2,0 5,0 l6,0 6,0 l1,0 m-10,-12 l1,3 0,4 l0,6 0,8 m-14,1 l2,0 7,0 l8,0 6,0 l2,0 m-23,11 l0,1 1,4 l0,6 0,8 m-2,-19 l7,-1 7,0 l6,0 2,2 l0,7 0,8 m-19,2 l7,0 9,-1 l6,0 m7,-65 l4,0 6,0 l9,-1 8,-1 l5,0 m-36,22 l1,0 6,0 l7,-1 6,0 l2,0 m-29,18 l3,0 7,0 l8,-1 8,0 l2,0 m-16,-46 l1,4 0,16 l0,27 " fill="none" stroke="black" stroke-width="2.0" /></svg>