<?xml version="1.0" encoding="utf-8" ?>
<svg baseProfile="full" height="109" version="1.1" width="109" xmlns="http://www.w3.org/2000/svg" xmlns:ev="http://www.w3.org/2001/xml-events" xmlns:xlink="http://www.w3.org/1999/xlink"><defs /><rect fill="white" height="109" width="109" x="0" y="0" /><path d="M12.6964851955,26.9549003746 m2,0 l7,-1 5,-1 l3,2 m-12,-15 l1,4 0,9 l0,11 0,10 m-16,6 l5,0 5,-3 l7,-4 7,-4 m10,-32 l6,0 11,0 l11,-1 9,0 l4,4 -1,7 l-2,11 m-37,-11 l6,0 12,-1 l11,0 10,0 l4,0 m-39,11 l4,0 7,0 l9,0 9,0 m-33,12 l6,0 12,-1 l12,-1 11,0 l7,0 m-28,-22 l0,3 -5,15 l-9,16 -14,15 m32,-35 l7,9 8,9 l7,8 5,4 m-45,-11 l1,4 0,10 l0,18 0,11 m0,-42 l6,0 9,-1 l6,0 1,1 l0,10 0,17 l0,12 m-25,-22 l9,0 8,0 l7,0 m-23,24 l8,0 8,0 " fill="none" stroke="black" stroke-width="2.0" /></svg>