<?xml version="1.0" encoding="utf-8" ?>
<svg baseProfile="full" height="109" version="1.1" width="109" xmlns="http://www.w3.org/2000/svg" xmlns:ev="http://www.w3.org/2001/xml-events" xmlns:xlink="http://www.w3.org/1999/xlink"><defs /><rect fill="white" height="109" width="109" x="0" y="0" /><path d="M5.0,22.6952305734 m2,0 l6,0 6,-1 l3,0 m-8,-14 l1,3 0,15 l0,19 0,12 l-4,0 m-5,-18 l3,0 3,-2 l4,-3 5,-3 m15,-10 l0,1 -2,4 l-4,4 m-3,2 l0,2 0,7 l0,7 0,5 l0,4 m13,-38 l4,0 6,0 l6,0 6,0 m-16,-3 l0,3 0,7 l0,0 m-13,1 l5,0 8,0 l8,0 8,0 l4,0 m-33,10 l3,0 7,0 l8,0 10,0 l3,0 m-33,6 l1,2 1,7 l0,5 m-2,-14 l8,0 10,-1 l9,0 3,3 l-1,5 -1,6 m-32,-4 l8,0 9,0 l8,0 m-27,8 l8,0 10,0 l10,0 m-18,-19 l0,3 0,8 l0,8 0,5 m-29,3 l7,0 15,-1 l18,-1 13,0 l6,0 m-50,6 l0,1 -3,6 l-4,6 -5,5 m14,-14 l2,0 6,0 l7,-1 6,0 l1,0 m-16,4 l0,1 0,5 l0,9 0,5 m0,-13 l5,0 6,-1 l2,0 m-22,1 l0,2 -3,5 l-4,5 -6,6 m11,-13 l6,3 12,3 l8,3 " fill="none" stroke="black" stroke-width="2.0" /></svg>