<?xml version="1.0" encoding="utf-8" ?>
<svg baseProfile="full" height="109" version="1.1" width="109" xmlns="http://www.w3.org/2000/svg" xmlns:ev="http://www.w3.org/2001/xml-events" xmlns:xlink="http://www.w3.org/1999/xlink"><defs /><rect fill="white" height="109" width="109" x="0" y="0" /><path d="M11.959598044,33.2163381697 m0,-1 l6,-1 7,0 l10,-1 m-14,-16 l2,6 0,22 l0,20 0,13 l-5,1 m-14,-24 l7,0 7,-3 l9,-4 9,-4 m3,-29 l7,0 10,-1 l11,-1 15,-1 l6,0 m-24,2 l1,5 0,15 l0,17 0,11 m-30,5 l7,0 18,-1 l17,-1 15,-1 " fill="none" stroke="black" stroke-width="2.0" /></svg>