<?xml version="1.0" encoding="utf-8" ?>
<svg baseProfile="full" height="109" version="1.1" width="109" xmlns="http://www.w3.org/2000/svg" xmlns:ev="http://www.w3.org/2001/xml-events" xmlns:xlink="http://www.w3.org/1999/xlink"><defs /><rect fill="white" height="109" width="109" x="0" y="0" /><path d="M20.134485862,5.0 m-1,2 l-4,3 -6,2 m-2,1 l1,3 0,10 l0,16 0,13 m0,-37 l12,-2 13,-2 l10,-1 4,0 m-24,9 l9,0 13,-1 l8,0 m-35,13 l17,-1 18,-1 l13,0 3,4 m-53,9 l5,0 15,-1 l19,-2 12,0 l4,0 m-62,9 l1,3 0,4 l1,7 m-2,-16 l17,-2 28,-2 l19,-1 5,2 l-1,7 -2,7 m-34,-17 l1,3 0,6 l0,5 m17,-18 l0,2 -1,9 l0,6 m-39,0 l11,0 24,-1 l21,-1 m-58,14 l0,1 1,7 l1,9 1,10 m-3,-29 l20,-1 20,-1 l15,0 4,4 l-1,9 -2,10 l-2,9 m-27,-28 l0,2 0,10 l0,9 0,5 m-25,-10 l11,0 10,0 l10,0 4,0 m-37,18 l15,0 18,0 " fill="none" stroke="black" stroke-width="2.0" /></svg>