<?xml version="1.0" encoding="utf-8" ?>
<svg baseProfile="full" height="109" version="1.1" width="109" xmlns="http://www.w3.org/2000/svg" xmlns:ev="http://www.w3.org/2001/xml-events" xmlns:xlink="http://www.w3.org/1999/xlink"><defs /><rect fill="white" height="109" width="109" x="0" y="0" /><path d="M41.5848943016,5.0 m0,3 l-4,8 -7,10 m13,-12 l8,0 8,-1 l3,0 m-20,10 l4,7 m21,-19 l0,3 -4,8 l-6,9 m10,-11 l6,0 10,-1 l9,-1 m-14,3 l0,1 -3,3 l-6,4 m-51,12 l5,0 10,-1 l10,-1 9,0 m-12,-2 l1,3 0,9 l0,6 m-25,-6 l5,0 11,-1 l12,-1 11,0 l5,0 m-49,9 l7,0 10,0 l12,-1 11,0 l6,0 m-38,3 l0,2 -4,6 l-7,7 -8,5 m24,-12 l4,0 7,-1 l12,-1 5,0 l2,4 -1,7 l-4,12 -7,13 l-6,1 m-4,-33 l0,2 -5,7 l-8,8 -11,8 m39,-25 l0,3 -4,8 l-9,11 " fill="none" stroke="black" stroke-width="2.0" /></svg>