<?xml version="1.0" encoding="utf-8" ?>
<svg baseProfile="full" height="109" version="1.1" width="109" xmlns="http://www.w3.org/2000/svg" xmlns:ev="http://www.w3.org/2001/xml-events" xmlns:xlink="http://www.w3.org/1999/xlink"><defs /><rect fill="white" height="109" width="109" x="0" y="0" /><path d="M8.14376053275,29.368737486 m5,0 l8,-1 7,0 m-11,-18 l1,5 0,19 l0,27 0,19 l-7,2 m-7,-30 l4,0 4,-2 l8,-4 7,-3 m3,-24 l0,0 1,5 l1,8 m-1,-14 l12,-1 12,-1 l8,0 2,2 l-1,4 -1,6 m-34,1 l10,0 13,0 l12,0 m-20,-22 l1,2 0,10 l0,15 0,9 m-21,2 l2,0 10,-1 l13,-2 13,-1 l2,0 m-39,12 l0,2 0,5 l0,8 0,6 m-1,-20 l11,-1 13,-2 l8,0 3,3 l-1,5 -1,6 l-1,6 m-23,-15 l0,1 m11,-6 l0,1 -2,7 m-16,4 l8,0 11,-1 l8,0 m-15,-27 l1,2 0,10 l0,18 0,12 l-3,1 m1,-17 l-3,6 -6,6 l-6,5 m24,-15 l4,5 3,6 m2,-44 l4,0 9,-1 l10,-1 10,0 l4,0 m-39,14 l1,2 0,7 l0,8 0,2 m-2,-20 l8,-1 14,-1 l9,-1 3,3 l-1,6 -1,9 m-30,4 l7,0 9,-1 l9,0 5,0 m-21,-43 l1,3 -2,27 l-8,19 -17,14 m23,-21 l9,7 10,8 " fill="none" stroke="black" stroke-width="2.0" /></svg>