<?xml version="1.0" encoding="utf-8" ?>
<svg baseProfile="full" height="109" version="1.1" width="109" xmlns="http://www.w3.org/2000/svg" xmlns:ev="http://www.w3.org/2001/xml-events" xmlns:xlink="http://www.w3.org/1999/xlink"><defs /><rect fill="white" height="109" width="109" x="0" y="0" /><path d="M8.55388235071,36.8762789871 m5,-1 l5,0 8,-1 l3,0 m-13,-13 l1,2 0,14 l0,29 0,22 m0,-58 l-4,12 -4,9 l-5,9 m18,-25 l3,4 3,4 m2,-37 l3,0 9,-1 l10,-1 10,0 l2,0 m-23,3 l0,3 0,9 l0,11 0,9 m1,-21 l6,-1 6,0 l2,0 m-17,10 l8,-1 5,0 l1,0 m-26,15 l3,0 8,-3 l13,-5 9,-3 m6,-27 l0,1 0,10 l0,17 0,10 m0,-35 l9,-1 8,-1 l3,3 0,10 l0,13 0,9 m-23,-17 l6,0 5,0 l4,0 m-16,15 l9,0 " fill="none" stroke="black" stroke-width="2.0" /></svg>