<?xml version="1.0" encoding="utf-8" ?>
<svg baseProfile="full" height="109" version="1.1" width="109" xmlns="http://www.w3.org/2000/svg" xmlns:ev="http://www.w3.org/2001/xml-events" xmlns:xlink="http://www.w3.org/1999/xlink"><defs /><rect fill="white" height="109" width="109" x="0" y="0" /><path d="M5.53606307847,24.7661312724 m9,-1 l12,-1 8,0 l3,0 m-31,24 l3,0 8,-1 l10,-1 8,0 l4,0 m-36,25 l4,0 8,-2 l9,-2 10,-3 m-16,-42 l1,4 0,13 l0,21 0,17 m46,-66 l0,1 -3,6 l-5,6 m-12,3 l0,1 1,9 l1,11 m-2,-19 l13,-1 14,-1 l8,0 2,3 l-2,8 -2,10 m-38,-7 l10,-1 14,-1 l9,0 m-32,14 l11,0 11,0 l10,0 m-48,18 l3,0 13,-1 l16,-1 13,-1 l3,0 m-62,17 l6,0 18,-1 l22,-2 21,-1 l5,0 m-38,-53 l1,3 0,15 l0,25 " fill="none" stroke="black" stroke-width="2.0" /></svg>