<?xml version="1.0" encoding="utf-8" ?>
<svg baseProfile="full" height="109" version="1.1" width="109" xmlns="http://www.w3.org/2000/svg" xmlns:ev="http://www.w3.org/2001/xml-events" xmlns:xlink="http://www.w3.org/1999/xlink"><defs /><rect fill="white" height="109" width="109" x="0" y="0" /><path d="M10.8516861225,55.1578656761 m3,0 l9,-1 7,-1 l2,0 m-11,-16 l1,4 0,17 l0,25 0,17 l-6,1 m0,-40 l-2,9 -2,7 m10,-17 l3,4 m3,-8 l4,5 2,6 m-30,-63 l1,3 0,21 l0,40 0,24 m18,-77 l2,2 0,15 l0,23 " fill="none" stroke="black" stroke-width="2.0" /></svg>