<?xml version="1.0" encoding="utf-8" ?>
<svg baseProfile="full" height="109" version="1.1" width="109" xmlns="http://www.w3.org/2000/svg" xmlns:ev="http://www.w3.org/2001/xml-events" xmlns:xlink="http://www.w3.org/1999/xlink"><defs /><rect fill="white" height="109" width="109" x="0" y="0" /><path d="M5.69237056381,31.5416970235 m3,0 l7,0 9,-1 m-10,-24 l1,5 0,21 l0,31 0,19 l-6,1 m-6,-27 l4,0 4,-3 l8,-4 7,-3 m8,-33 l0,1 1,7 l2,10 1,10 m-4,-28 l13,-1 15,-2 l11,-1 3,3 l-1,7 -2,10 l-2,10 m-31,-15 l6,0 9,-1 l8,0 m-23,14 l9,-1 10,0 l9,0 m-31,13 l3,0 10,-1 l10,-1 8,0 l3,0 m-49,19 l5,0 18,-1 l21,0 20,0 l4,0 m-42,-18 l0,3 -3,13 l-9,14 " fill="none" stroke="black" stroke-width="2.0" /></svg>