<?xml version="1.0" encoding="utf-8" ?>
<svg baseProfile="full" height="109" version="1.1" width="109" xmlns="http://www.w3.org/2000/svg" xmlns:ev="http://www.w3.org/2001/xml-events" xmlns:xlink="http://www.w3.org/1999/xlink"><defs /><rect fill="white" height="109" width="109" x="0" y="0" /><path d="M9.34021088499,24.7253450927 m8,0 l9,-1 11,-1 l3,0 m-20,3 l1,4 0,15 l0,21 0,13 m-16,-30 l6,0 8,-1 l9,-1 4,0 m-29,34 l4,0 7,-3 l9,-4 10,-5 m22,-62 l0,3 -3,11 l-6,12 m-7,2 l0,3 0,14 l0,27 0,18 m0,-62 l12,-1 14,-2 l8,-1 4,5 l0,12 -1,17 l-1,17 m-34,-22 l10,-1 11,-1 l8,0 m-30,33 l10,-1 12,-1 " fill="none" stroke="black" stroke-width="2.0" /></svg>