<?xml version="1.0" encoding="utf-8" ?>
<svg baseProfile="full" height="109" version="1.1" width="109" xmlns="http://www.w3.org/2000/svg" xmlns:ev="http://www.w3.org/2001/xml-events" xmlns:xlink="http://www.w3.org/1999/xlink"><defs /><rect fill="white" height="109" width="109" x="0" y="0" /><path d="M27.3280409631,10.5013182506 m-1,3 l-4,8 -5,7 m12,-14 l5,0 8,0 l5,0 m-10,2 l4,6 m17,-16 l0,1 -2,5 l-3,5 -4,5 m9,-9 l7,0 10,-1 l7,0 m-14,4 l0,0 -3,3 l-6,4 m-52,11 l3,0 12,-1 l16,-1 14,-1 l3,0 m-38,5 l0,2 -3,8 l-6,11 -7,8 m17,-16 l4,0 7,-1 l9,-1 5,0 l3,3 -1,10 l-3,15 -5,16 l-6,-1 m-11,-35 l0,2 -1,5 l-1,6 -1,7 m16,-19 l4,3 2,4 m-10,-18 l1,3 0,10 l0,18 0,19 " fill="none" stroke="black" stroke-width="2.0" /></svg>