<?xml version="1.0" encoding="utf-8" ?>
<svg baseProfile="full" height="109" version="1.1" width="109" xmlns="http://www.w3.org/2000/svg" xmlns:ev="http://www.w3.org/2001/xml-events" xmlns:xlink="http://www.w3.org/1999/xlink"><defs /><rect fill="white" height="109" width="109" x="0" y="0" /><path d="M5.0,30.6291894456 m4,0 l9,-1 7,-1 l4,0 m-12,-22 l2,4 0,16 l0,32 0,23 m0,-50 l-4,12 -5,11 l-5,10 m18,-29 l4,4 3,6 m15,-36 l0,3 -2,9 l-4,11 -6,11 m12,-17 l3,0 9,-1 l13,-2 9,-1 l2,4 -8,11 m-28,3 l1,5 -1,13 l-4,15 -6,11 m16,-34 l4,7 4,8 m34,-24 l0,2 -4,7 m-10,-19 l1,4 0,14 l0,20 0,12 " fill="none" stroke="black" stroke-width="2.0" /></svg>