<?xml version="1.0" encoding="utf-8" ?>
<svg baseProfile="full" height="109" version="1.1" width="109" xmlns="http://www.w3.org/2000/svg" xmlns:ev="http://www.w3.org/2001/xml-events" xmlns:xlink="http://www.w3.org/1999/xlink"><defs /><rect fill="white" height="109" width="109" x="0" y="0" /><path d="M27.3449695751,12.3383523944 m-6,4 l-9,3 m-6,0 l2,4 0,9 l1,14 1,10 m-1,-26 l14,-1 9,0 m-25,12 l14,-1 7,0 m21,-33 l5,0 7,0 l6,-1 4,2 l-1,14 -1,15 l0,11 m-17,-25 l3,0 5,0 l1,0 m-10,14 l5,0 5,0 m-19,12 l-1,2 -6,6 m-5,0 l1,4 0,11 l0,12 0,8 m0,-32 l3,0 7,0 l5,0 m-16,13 l4,0 7,0 l4,0 m20,-17 l4,0 6,-1 l2,0 2,1 l-1,10 -3,11 l-6,11 m1,-29 l6,7 6,10 l5,7 " fill="none" stroke="black" stroke-width="2.0" /></svg>