<?xml version="1.0" encoding="utf-8" ?>
<svg baseProfile="full" height="109" version="1.1" width="109" xmlns="http://www.w3.org/2000/svg" xmlns:ev="http://www.w3.org/2001/xml-events" xmlns:xlink="http://www.w3.org/1999/xlink"><defs /><rect fill="white" height="109" width="109" x="0" y="0" /><path d="M8.72125061218,26.4579647064 m3,0 l8,0 7,-1 l4,0 m-13,-18 l1,4 0,16 l0,26 0,16 l-5,1 m-1,-28 l-2,7 -2,6 l-3,7 m15,-14 l3,4 2,5 m10,-47 l0,2 -2,8 l-5,12 -7,10 m11,-16 l3,0 4,0 l8,-1 6,-1 l1,2 -4,7 l-7,9 -9,8 m-3,0 l0,3 0,8 l0,13 0,9 m0,-33 l9,-1 6,-1 l1,2 0,9 l0,14 0,12 m-16,-21 l8,-1 13,-1 m-20,18 l9,0 9,0 m-20,13 l3,0 6,0 l8,-1 6,0 m8,-36 l0,2 -2,4 l-3,5 -4,5 m7,-5 l0,2 0,7 l0,12 0,8 l0,5 m17,-56 l0,1 -2,4 l-4,5 m-10,3 l6,0 8,-1 l7,0 5,0 m-14,4 l0,1 0,8 l0,13 0,11 m-12,-26 l6,0 7,0 l5,0 2,0 m-23,16 l5,0 6,0 l6,0 3,0 m-22,18 l6,0 9,0 l7,0 " fill="none" stroke="black" stroke-width="2.0" /></svg>