<?xml version="1.0" encoding="utf-8" ?>
<svg baseProfile="full" height="109" version="1.1" width="109" xmlns="http://www.w3.org/2000/svg" xmlns:ev="http://www.w3.org/2001/xml-events" xmlns:xlink="http://www.w3.org/1999/xlink"><defs /><rect fill="white" height="109" width="109" x="0" y="0" /><path d="M5.92523597572,31.3390421006 m2,0 l6,0 6,0 l6,0 m-10,-23 l1,4 0,20 l0,28 0,20 l-8,1 m-6,-20 l5,0 4,-3 l5,-5 7,-6 m12,-27 l0,3 0,17 l-4,15 -7,10 m8,-44 l11,-1 10,-1 l3,3 0,10 m-48,4 l5,0 17,-2 l34,-3 19,-1 l5,0 m-56,4 l3,4 3,4 m32,-12 l0,3 -6,8 m-48,6 l6,0 17,-1 l18,-2 14,-1 l5,0 m-60,14 l5,0 17,-1 l17,-1 14,-1 l5,0 m-34,-13 l0,2 -4,13 l-9,10 m14,-24 l6,6 6,8 l5,7 4,2 m-38,5 l1,2 1,7 l0,10 0,8 m-2,-27 l10,-1 11,-1 l7,0 3,2 l0,6 -1,9 l0,9 m-27,-13 l6,0 7,0 l5,0 m-19,15 l7,0 8,0 " fill="none" stroke="black" stroke-width="2.0" /></svg>