<?xml version="1.0" encoding="utf-8" ?>
<svg baseProfile="full" height="109" version="1.1" width="109" xmlns="http://www.w3.org/2000/svg" xmlns:ev="http://www.w3.org/2001/xml-events" xmlns:xlink="http://www.w3.org/1999/xlink"><defs /><rect fill="white" height="109" width="109" x="0" y="0" /><path d="M5.0,43.6112862323 m9,0 l10,-1 9,-1 m-14,-20 l1,5 0,25 l0,33 0,15 l-7,2 m-8,-32 l8,-1 6,-2 m25,-24 l2,5 m-21,17 l4,0 9,-1 l7,-1 m4,-33 l0,3 0,18 l-3,18 -10,15 m10,-74 l7,0 10,-2 l4,-1 2,3 l0,11 0,23 l0,22 -6,0 m-15,-43 l7,-1 8,-1 l2,0 m-18,25 l6,0 6,-1 " fill="none" stroke="black" stroke-width="2.0" /></svg>