<?xml version="1.0" encoding="utf-8" ?>
<svg baseProfile="full" height="109" version="1.1" width="109" xmlns="http://www.w3.org/2000/svg" xmlns:ev="http://www.w3.org/2001/xml-events" xmlns:xlink="http://www.w3.org/1999/xlink"><defs /><rect fill="white" height="109" width="109" x="0" y="0" /><path d="M7.51287559937,34.2833120835 m6,-1 l10,-1 9,-1 m-11,-24 l2,6 0,24 l0,31 0,20 l-7,2 m-12,-22 l7,0 4,-3 l7,-5 9,-7 m23,-36 l0,2 -3,9 l-5,10 -7,9 m14,-14 l4,0 10,-1 l14,-1 8,-1 l4,5 -2,22 l-3,22 -4,22 l-8,0 m-26,-55 l1,2 0,7 l0,8 0,5 m-1,-22 l10,-1 7,-1 l3,3 0,6 l0,8 m-14,1 l5,0 5,0 " fill="none" stroke="black" stroke-width="2.0" /></svg>