<?xml version="1.0" encoding="utf-8" ?>
<svg baseProfile="full" height="109" version="1.1" width="109" xmlns="http://www.w3.org/2000/svg" xmlns:ev="http://www.w3.org/2001/xml-events" xmlns:xlink="http://www.w3.org/1999/xlink"><defs /><rect fill="white" height="109" width="109" x="0" y="0" /><path d="M56.6539533855,29.3408689944 m5,0 l9,-1 5,0 m-13,-21 l1,4 0,20 l0,28 0,18 l-7,1 m-4,-27 l5,0 3,-1 l6,-3 7,-4 m0,-29 l3,0 8,-1 l7,-1 2,0 m-23,8 l1,0 9,0 l8,0 3,0 m-24,10 l2,0 7,0 l7,-1 8,0 l1,0 m-16,-20 l1,3 0,10 l0,15 m-73,15 l7,0 16,-1 l19,-1 23,-1 l6,0 m-39,-7 l2,3 0,9 l0,15 0,10 l-7,0 m5,-31 l-10,10 -14,11 l-17,9 m48,-31 l10,8 13,11 l10,8 " fill="none" stroke="black" stroke-width="2.0" /></svg>