<?xml version="1.0" encoding="utf-8" ?>
<svg baseProfile="full" height="109" version="1.1" width="109" xmlns="http://www.w3.org/2000/svg" xmlns:ev="http://www.w3.org/2001/xml-events" xmlns:xlink="http://www.w3.org/1999/xlink"><defs /><rect fill="white" height="109" width="109" x="0" y="0" /><path d="M40.1677655701,5.0 m3,2 l0,5 m-35,3 l8,0 21,-1 l17,-1 17,0 l7,0 m-59,1 l0,4 0,27 l-4,26 -11,22 m5,-63 l4,6 3,7 m-11,17 l3,0 6,-3 l5,-4 m15,-24 l0,2 m-9,6 l1,0 5,0 l7,0 7,0 m-11,-18 l1,4 0,18 l0,32 0,18 m0,-48 l-4,11 -4,10 l-6,10 m16,-25 l4,4 3,5 m4,-32 l3,0 10,0 l12,0 13,0 l3,0 m-29,-11 l1,2 1,8 l0,10 m13,-17 l0,1 0,7 l0,9 m-23,1 l2,0 5,0 l7,0 9,0 l4,0 m-40,16 l6,0 12,-1 l13,-1 11,0 l5,0 m-28,-14 l1,3 0,8 l0,12 " fill="none" stroke="black" stroke-width="2.0" /></svg>