<?xml version="1.0" encoding="utf-8" ?>
<svg baseProfile="full" height="109" version="1.1" width="109" xmlns="http://www.w3.org/2000/svg" xmlns:ev="http://www.w3.org/2001/xml-events" xmlns:xlink="http://www.w3.org/1999/xlink"><defs /><rect fill="white" height="109" width="109" x="0" y="0" /><path d="M6.31187002121,41.4589333721 m7,0 l11,-1 11,-1 l2,0 m-19,-28 l2,4 0,20 l0,37 0,24 l-7,1 m8,-61 l-4,14 -6,12 l-6,11 m21,-28 l5,5 4,6 m12,-51 l7,7 4,8 m18,-18 l0,2 -3,8 l-6,10 m-24,7 l5,0 10,-1 l10,-1 10,-1 l4,0 m-42,27 l6,0 11,-1 l10,-1 11,0 l5,0 m-25,-14 l2,4 0,17 l0,22 0,15 l-7,0 m0,-42 l-7,12 -7,9 l-9,7 m24,-24 l5,5 6,7 l6,7 " fill="none" stroke="black" stroke-width="2.0" /></svg>