<?xml version="1.0" encoding="utf-8" ?>
<svg baseProfile="full" height="109" version="1.1" width="109" xmlns="http://www.w3.org/2000/svg" xmlns:ev="http://www.w3.org/2001/xml-events" xmlns:xlink="http://www.w3.org/1999/xlink"><defs /><rect fill="white" height="109" width="109" x="0" y="0" /><path d="M33.1781031217,5.0 m0,7 l0,10 m-2,-8 l5,-1 5,0 l5,0 m-32,-3 l1,2 0,5 l0,6 m-12,0 l3,0 10,0 l14,-1 11,0 l3,0 m-26,6 l0,2 -2,8 l-4,8 m5,-7 l5,6 m10,-15 l0,3 -3,7 l-4,6 m7,-9 l5,7 m-26,7 l8,0 13,-1 l8,0 m-21,6 l0,2 -2,9 l-4,9 m5,-10 l4,4 m7,-11 l0,2 -2,6 l-3,7 -4,6 m9,-12 l3,3 2,5 m-21,-40 l0,5 0,15 l0,20 0,13 l1,3 7,-4 l7,-3 7,-4 m4,-54 l0,0 -4,5 l-8,4 m36,-10 l0,2 -4,5 l-6,4 m-12,2 l2,0 8,-1 l8,-1 6,-1 l2,0 m-28,10 l2,0 8,-1 l11,-2 7,-1 l2,0 m-32,11 l2,0 8,-1 l11,-2 6,-1 l7,-1 m-22,-23 l0,3 -2,20 l-6,16 -11,10 m21,-25 l5,7 6,7 l6,6 " fill="none" stroke="black" stroke-width="2.0" /></svg>