<?xml version="1.0" encoding="utf-8" ?>
<svg baseProfile="full" height="109" version="1.1" width="109" xmlns="http://www.w3.org/2000/svg" xmlns:ev="http://www.w3.org/2001/xml-events" xmlns:xlink="http://www.w3.org/1999/xlink"><defs /><rect fill="white" height="109" width="109" x="0" y="0" /><path d="M28.7628988039,7.14947844896 m6,0 l4,-1 4,3 m-36,3 l-1,7 -2,6 m4,-12 l11,-1 16,-1 l15,0 0,9 m-34,1 l4,0 6,0 l7,0 6,0 l4,0 m-24,5 l0,0 m-8,4 l4,0 6,0 l5,0 2,2 l-1,6 m-25,2 l7,-1 9,-1 l8,0 4,0 m-20,-1 l0,3 0,7 l0,7 -1,1 m18,-27 l1,3 0,5 l0,7 0,9 m-23,4 l6,0 8,0 l7,0 6,0 l4,0 m-16,-19 l1,4 0,11 l0,15 0,11 m-17,4 l7,0 5,-2 l7,-3 8,-3 m20,-57 l0,3 -2,10 l-4,11 -6,9 m12,-14 l2,0 9,-1 l11,-1 10,0 l3,0 m-19,7 l0,4 -3,20 l-7,19 -13,15 m-1,-38 l7,4 11,12 l12,16 8,7 " fill="none" stroke="black" stroke-width="2.0" /></svg>