<?xml version="1.0" encoding="utf-8" ?>
<svg baseProfile="full" height="109" version="1.1" width="109" xmlns="http://www.w3.org/2000/svg" xmlns:ev="http://www.w3.org/2001/xml-events" xmlns:xlink="http://www.w3.org/1999/xlink"><defs /><rect fill="white" height="109" width="109" x="0" y="0" /><path d="M13.6911675129,31.5277657486 m2,-1 l4,0 5,0 l2,0 m-13,-18 l1,3 0,15 l0,26 0,17 m0,-37 l-3,7 -3,8 l-4,7 m15,-20 l3,4 2,5 m20,-43 l0,2 -3,9 l-5,10 -7,11 m13,-17 l2,0 4,0 l8,-1 5,0 l2,3 0,5 l0,8 m-27,1 l5,0 10,0 l9,-1 9,0 m-28,-11 l1,5 0,10 l0,5 2,9 l9,4 17,1 l16,0 7,-2 " fill="none" stroke="black" stroke-width="2.0" /></svg>