<?xml version="1.0" encoding="utf-8" ?>
<svg baseProfile="full" height="109" version="1.1" width="109" xmlns="http://www.w3.org/2000/svg" xmlns:ev="http://www.w3.org/2001/xml-events" xmlns:xlink="http://www.w3.org/1999/xlink"><defs /><rect fill="white" height="109" width="109" x="0" y="0" /><path d="M22.3730825652,5.0 m0,6 l0,15 0,19 m1,-23 l7,0 10,-1 l7,0 2,0 m-46,18 l8,0 12,-2 l13,-1 10,-1 m-43,11 l9,0 12,-1 l12,-2 5,0 m-30,4 l0,4 -4,9 l4,3 10,-2 l10,-2 11,-2 l4,5 m-32,14 l2,4 2,11 l1,2 m-4,-18 l11,-2 10,-2 l3,3 -3,11 m-18,4 l12,-1 10,-1 m11,-42 l1,4 1,10 l1,7 0,8 l1,8 m-2,-29 l14,-2 11,-1 l5,5 -1,7 l-1,9 -1,9 m-24,2 l9,0 10,0 " fill="none" stroke="black" stroke-width="2.0" /></svg>