<?xml version="1.0" encoding="utf-8" ?>
<svg baseProfile="full" height="109" version="1.1" width="109" xmlns="http://www.w3.org/2000/svg" xmlns:ev="http://www.w3.org/2001/xml-events" xmlns:xlink="http://www.w3.org/1999/xlink"><defs /><rect fill="white" height="109" width="109" x="0" y="0" /><path d="M5.50548304502,37.301610777 m9,-1 l10,-1 12,-1 m-15,-27 l2,6 0,25 l0,31 0,19 l-8,2 m-10,-27 l7,0 5,-3 l7,-5 10,-6 m11,-37 l6,0 13,-1 l15,-1 12,-1 l5,0 m-34,4 l2,4 0,14 m-32,2 l6,0 14,-1 l18,-1 16,0 l6,0 m-55,18 l1,3 1,8 l1,10 1,8 m-3,-28 l13,-1 16,-1 l10,-1 3,3 l-1,6 -1,7 l-2,9 m-30,2 l10,0 11,0 " fill="none" stroke="black" stroke-width="2.0" /></svg>