<?xml version="1.0" encoding="utf-8" ?>
<svg baseProfile="full" height="109" version="1.1" width="109" xmlns="http://www.w3.org/2000/svg" xmlns:ev="http://www.w3.org/2001/xml-events" xmlns:xlink="http://www.w3.org/1999/xlink"><defs /><rect fill="white" height="109" width="109" x="0" y="0" /><path d="M5.46355048765,37.0236999026 m3,0 l7,0 9,0 l6,0 m-12,-19 l1,5 0,22 l0,35 0,19 m0,-58 l-5,14 -5,12 l-7,15 m21,-33 l3,3 3,5 m17,-44 l0,5 -1,12 l-3,12 -4,10 m14,-45 l9,-1 10,-1 l4,4 0,11 l0,15 0,14 l0,5 3,2 l8,-2 5,-2 m-49,32 l3,0 14,-1 l18,-3 13,-2 l3,0 m-28,-22 l1,5 0,17 l0,21 " fill="none" stroke="black" stroke-width="2.0" /></svg>