<?xml version="1.0" encoding="utf-8" ?>
<svg baseProfile="full" height="109" version="1.1" width="109" xmlns="http://www.w3.org/2000/svg" xmlns:ev="http://www.w3.org/2001/xml-events" xmlns:xlink="http://www.w3.org/1999/xlink"><defs /><rect fill="white" height="109" width="109" x="0" y="0" /><path d="M59.1483383126,5.54107256447 m-6,0 l-14,3 -26,4 m-5,10 l4,0 9,0 l19,-1 21,-1 l13,0 9,0 l9,0 m-81,13 l11,0 18,-1 l19,-1 16,0 l10,0 7,1 m-60,8 l1,3 0,7 l0,12 m0,-19 l17,-1 20,-1 l14,-1 5,2 l-1,10 m-53,8 l17,-1 25,-2 l17,-1 m-38,-25 l1,3 0,16 l0,28 0,22 m-43,-22 l7,0 21,-1 l23,-1 20,0 l7,0 m-68,17 l6,0 14,0 l16,0 17,0 " fill="none" stroke="black" stroke-width="2.0" /></svg>