<?xml version="1.0" encoding="utf-8" ?>
<svg baseProfile="full" height="109" version="1.1" width="109" xmlns="http://www.w3.org/2000/svg" xmlns:ev="http://www.w3.org/2001/xml-events" xmlns:xlink="http://www.w3.org/1999/xlink"><defs /><rect fill="white" height="109" width="109" x="0" y="0" /><path d="M8.18541527193,26.4312948855 m0,5 l0,9 0,9 m0,-23 l9,-1 10,-1 l7,0 2,3 l-1,8 -2,10 m-24,1 l5,0 7,0 l8,0 m-13,-23 l1,3 0,10 l0,17 0,13 m-15,5 l2,0 7,-3 l11,-5 9,-4 m-4,-8 l4,6 3,7 m9,-54 l2,0 7,0 l4,0 3,0 l4,0 m-31,16 l3,0 9,0 l10,-1 8,0 l3,0 m-17,-21 l0,2 -2,15 l-5,12 -8,10 m14,-14 l1,2 0,9 l0,9 0,4 l0,0 m18,-37 l0,2 -2,4 l-3,5 m-10,2 l5,4 6,7 l4,5 m-53,13 l-2,9 -5,11 m15,-26 l13,15 19,11 l31,4 2,-8 m-33,-18 l7,3 m25,-9 l6,3 " fill="none" stroke="black" stroke-width="2.0" /></svg>