<?xml version="1.0" encoding="utf-8" ?>
<svg baseProfile="full" height="109" version="1.1" width="109" xmlns="http://www.w3.org/2000/svg" xmlns:ev="http://www.w3.org/2001/xml-events" xmlns:xlink="http://www.w3.org/1999/xlink"><defs /><rect fill="white" height="109" width="109" x="0" y="0" /><path d="M16.9657029957,7.29574747749 m0,7 l0,11 m-2,-19 l6,0 8,0 l6,0 2,2 l0,8 -1,10 m-21,-9 l5,0 7,0 l5,0 m-19,11 l6,0 6,0 l7,0 m-31,18 l4,0 7,-1 l11,-1 9,-1 l3,0 m-33,17 l5,0 7,-1 l8,-1 7,-1 m-15,-22 l1,2 0,11 l0,16 0,9 m-16,13 l3,0 8,-5 l10,-6 8,-4 m0,-7 l4,6 2,9 m-4,-22 l0,3 0,14 l0,21 0,12 m23,-63 l0,3 -3,8 l-5,9 -8,11 m15,-17 l3,0 7,-1 l10,-1 7,0 l4,4 m-35,14 l0,3 0,6 l0,5 0,6 l0,3 m-1,-23 l6,-1 9,-1 l6,-1 2,2 l0,5 -1,6 l-1,7 m-16,1 l5,0 5,0 l4,0 " fill="none" stroke="black" stroke-width="2.0" /></svg>