<?xml version="1.0" encoding="utf-8" ?>
<svg baseProfile="full" height="109" version="1.1" width="109" xmlns="http://www.w3.org/2000/svg" xmlns:ev="http://www.w3.org/2001/xml-events" xmlns:xlink="http://www.w3.org/1999/xlink"><defs /><rect fill="white" height="109" width="109" x="0" y="0" /><path d="M46.3419351092,5.0 m3,2 l2,3 m-31,2 l-1,7 -2,6 m5,-12 l22,-2 27,-1 l17,-1 0,10 m-39,0 l0,2 -5,4 l-8,5 m33,-9 l0,2 -5,6 l-8,7 -11,8 m-35,17 l6,1 20,-2 l29,-3 22,-3 l6,0 m-47,-15 l1,3 -4,28 l-15,16 -20,10 m39,-33 l13,11 15,12 l9,8 " fill="none" stroke="black" stroke-width="2.0" /></svg>