<?xml version="1.0" encoding="utf-8" ?>
<svg baseProfile="full" height="109" version="1.1" width="109" xmlns="http://www.w3.org/2000/svg" xmlns:ev="http://www.w3.org/2001/xml-events" xmlns:xlink="http://www.w3.org/1999/xlink"><defs /><rect fill="white" height="109" width="109" x="0" y="0" /><path d="M29.5358371721,5.0 m0,3 l1,7 m-25,5 l3,0 10,-1 l12,-1 12,-1 l2,0 m-23,5 l0,2 -4,5 l-6,6 0,3 l6,3 m14,-16 l0,4 -7,8 l-6,6 -6,7 l1,1 8,-2 l9,-2 m0,-8 l4,6 2,7 m-9,-29 l1,4 0,15 l0,17 0,12 m7,-46 l0,3 0,12 l0,26 0,22 m28,-68 l0,0 -5,4 l-8,3 m1,2 l3,4 3,5 m22,-16 l0,1 -2,5 l-4,6 m-22,1 l4,0 9,0 l10,0 8,0 l4,0 m-32,9 l2,0 7,0 l7,0 7,0 l1,0 m-32,9 l4,0 10,0 l12,0 10,0 l3,0 m-21,-20 l0,2 0,5 l0,8 m-35,25 l5,0 10,0 l11,0 9,0 l4,0 m-20,-12 l0,2 0,10 l0,11 0,8 l-5,0 m-1,-20 l-6,6 -10,7 l-10,5 m31,-21 l5,4 7,6 l7,4 " fill="none" stroke="black" stroke-width="2.0" /></svg>