<?xml version="1.0" encoding="utf-8" ?>
<svg baseProfile="full" height="109" version="1.1" width="109" xmlns="http://www.w3.org/2000/svg" xmlns:ev="http://www.w3.org/2001/xml-events" xmlns:xlink="http://www.w3.org/1999/xlink"><defs /><rect fill="white" height="109" width="109" x="0" y="0" /><path d="M64.2087671024,5.0 m-14,3 l-8,1 -10,1 m-4,13 l4,0 12,-1 l14,-1 11,0 l4,0 m-38,9 l0,1 -4,5 l-8,6 m31,-18 l9,5 5,7 m-55,13 l2,0 15,-1 l20,-1 14,0 l2,0 m-31,-9 l2,3 0,9 l0,16 0,10 m-26,-15 l1,1 0,8 l0,9 0,9 m-2,-29 l10,0 16,-1 l10,0 3,2 l-1,7 -1,13 l-1,12 m-37,-21 l10,0 10,0 l6,0 m-24,12 l10,0 11,0 l6,0 m-38,12 l6,0 17,-1 l16,-1 " fill="none" stroke="black" stroke-width="2.0" /></svg>