<?xml version="1.0" encoding="utf-8" ?>
<svg baseProfile="full" height="109" version="1.1" width="109" xmlns="http://www.w3.org/2000/svg" xmlns:ev="http://www.w3.org/2001/xml-events" xmlns:xlink="http://www.w3.org/1999/xlink"><defs /><rect fill="white" height="109" width="109" x="0" y="0" /><path d="M34.7752864568,12.5221326861 m-9,3 l-16,4 m-3,-3 l1,5 0,13 l0,19 m15,-48 l3,0 11,-1 l11,-1 4,2 l-1,8 -1,11 m-29,2 l6,0 9,-1 l9,-1 5,0 m-34,26 l3,1 11,-1 l7,-1 4,3 l-5,16 -10,16 l-11,10 m3,-38 l7,6 11,12 l10,13 " fill="none" stroke="black" stroke-width="2.0" /></svg>