<?xml version="1.0" encoding="utf-8" ?>
<svg baseProfile="full" height="109" version="1.1" width="109" xmlns="http://www.w3.org/2000/svg" xmlns:ev="http://www.w3.org/2001/xml-events" xmlns:xlink="http://www.w3.org/1999/xlink"><defs /><rect fill="white" height="109" width="109" x="0" y="0" /><path d="M15.5894203279,10.2916448601 m4,3 l4,4 m-19,10 l5,0 8,0 l8,-1 7,0 l4,0 m-26,16 l3,0 7,0 l6,-1 3,0 m-20,15 l3,0 7,-1 l7,-1 3,0 m-21,15 l1,1 1,9 l1,11 m-2,-21 l7,0 8,-1 l7,-1 2,2 l-1,7 -1,10 m-18,3 l9,0 11,-1 m32,-84 l1,3 m-16,5 l2,0 8,-1 l10,-1 8,0 l2,0 m-31,4 l4,5 1,5 m21,-13 l0,2 -2,6 l-2,5 m-34,1 l4,0 13,-1 l16,-1 15,0 l5,0 m-45,8 l1,2 1,6 l1,7 0,3 m-2,-18 l8,-1 12,-1 l8,-1 3,3 l-1,4 -2,6 l-1,3 m-27,-8 l7,0 8,0 l5,0 m-20,10 l7,0 8,0 l7,0 m-41,16 l5,0 17,-2 l18,-1 15,-1 l4,0 m-32,-9 l0,3 -2,14 l-7,12 -14,9 m26,-23 l9,5 9,6 " fill="none" stroke="black" stroke-width="2.0" /></svg>