<?xml version="1.0" encoding="utf-8" ?>
<svg baseProfile="full" height="109" version="1.1" width="109" xmlns="http://www.w3.org/2000/svg" xmlns:ev="http://www.w3.org/2001/xml-events" xmlns:xlink="http://www.w3.org/1999/xlink"><defs /><rect fill="white" height="109" width="109" x="0" y="0" /><path d="M37.0937677546,25.4214846395 m5,0 l6,0 4,0 l1,0 m-9,-12 l1,1 0,6 l0,14 0,11 m0,-22 l-3,5 -4,5 l-5,4 m17,-12 l3,3 2,3 m19,-18 l0,1 -2,2 l-5,4 -6,3 m2,-12 l4,2 4,3 m-6,3 l0,0 -3,4 l-7,5 m2,-5 l5,3 4,5 m-2,-25 l2,0 6,-1 l5,0 2,2 l0,5 0,6 l0,5 m-15,-10 l3,0 5,0 l3,0 m-12,10 l5,0 5,0 m-15,-12 l0,2 0,8 l0,12 0,7 l1,1 4,-2 l4,-2 m8,-10 l0,1 -2,2 l-3,2 m-4,-6 l5,4 6,7 l4,4 m-50,-42 l4,2 3,3 m-13,6 l5,1 3,2 m-7,10 l3,0 4,-1 l4,-1 2,1 l-5,7 0,4 l3,3 0,2 m-16,4 l3,0 8,-1 l10,-1 7,0 l3,0 m-34,12 l3,0 10,-1 l10,-1 7,0 l2,2 m-45,15 l4,0 15,-1 l15,-1 15,0 l4,0 m-29,-18 l0,3 -5,18 l-11,15 -18,9 m40,-27 l8,7 10,9 " fill="none" stroke="black" stroke-width="2.0" /></svg>