<?xml version="1.0" encoding="utf-8" ?>
<svg baseProfile="full" height="109" version="1.1" width="109" xmlns="http://www.w3.org/2000/svg" xmlns:ev="http://www.w3.org/2001/xml-events" xmlns:xlink="http://www.w3.org/1999/xlink"><defs /><rect fill="white" height="109" width="109" x="0" y="0" /><path d="M41.7815131211,5.88473384721 m7,0 m-33,1 l-1,5 -2,5 m4,-7 l8,0 17,0 l12,0 0,6 m-33,3 l3,0 9,0 l12,-1 9,0 l3,0 m-27,0 l0,1 0,3 m-12,-2 l1,2 0,4 l0,5 0,4 m0,-15 l9,0 15,-1 l9,0 1,1 l0,4 0,5 m-30,-6 l6,0 6,0 l5,0 m-20,8 l8,0 12,-1 l10,0 m-27,6 l0,1 -2,2 l-3,3 -4,3 m14,-6 l3,0 7,-1 l7,0 2,2 l-5,5 -8,5 m-30,-1 l1,2 1,5 l1,6 m-2,-12 l18,-1 21,-1 l15,-1 2,2 l-2,4 m-47,6 l12,0 18,-1 l14,-1 m-25,-17 l2,3 0,6 l0,8 0,6 m-33,4 l5,0 16,-1 l24,-2 20,-1 m-34,7 l0,1 -6,3 l-12,5 -16,5 m45,-10 l6,7 5,10 l0,8 " fill="none" stroke="black" stroke-width="2.0" /></svg>