<?xml version="1.0" encoding="utf-8" ?>
<svg baseProfile="full" height="109" version="1.1" width="109" xmlns="http://www.w3.org/2000/svg" xmlns:ev="http://www.w3.org/2001/xml-events" xmlns:xlink="http://www.w3.org/1999/xlink"><defs /><rect fill="white" height="109" width="109" x="0" y="0" /><path d="M21.2063745851,9.56023432852 m4,0 l19,-1 22,-1 l24,-1 4,0 m-68,6 l1,3 0,6 m-24,7 l7,0 12,-1 l12,-1 11,-2 l5,0 m-23,6 l1,2 0,10 l0,17 0,11 m1,-18 l8,-1 9,-1 l5,0 m-35,-16 l0,4 -1,12 l-4,14 -9,14 m11,-27 l9,9 14,11 l10,8 " fill="none" stroke="black" stroke-width="2.0" /></svg>