<?xml version="1.0" encoding="utf-8" ?>
<svg baseProfile="full" height="109" version="1.1" width="109" xmlns="http://www.w3.org/2000/svg" xmlns:ev="http://www.w3.org/2001/xml-events" xmlns:xlink="http://www.w3.org/1999/xlink"><defs /><rect fill="white" height="109" width="109" x="0" y="0" /><path d="M32.0957748476,9.80392745928 m13,-2 l6,0 10,-1 m-54,9 l10,0 16,-1 l19,-1 18,0 l9,0 m-63,9 l2,4 1,17 l3,29 1,18 m-5,-55 l13,-1 11,0 l11,0 m-35,17 l18,-2 16,-1 l6,0 m-60,28 l7,0 18,-4 l24,-6 18,-4 m6,-49 l2,4 0,13 l0,30 0,26 " fill="none" stroke="black" stroke-width="2.0" /></svg>