<?xml version="1.0" encoding="utf-8" ?>
<svg baseProfile="full" height="109" version="1.1" width="109" xmlns="http://www.w3.org/2000/svg" xmlns:ev="http://www.w3.org/2001/xml-events" xmlns:xlink="http://www.w3.org/1999/xlink"><defs /><rect fill="white" height="109" width="109" x="0" y="0" /><path d="M28.5665252411,5.0 m-4,6 l-11,6 m-3,0 l1,5 0,17 l0,21 0,17 m1,-39 l5,-2 5,-1 l1,0 m19,-25 l3,0 9,-1 l8,-1 4,3 l-3,15 -3,17 l-2,11 m-20,-27 l1,1 10,-1 l11,-1 m-50,2 l7,0 14,-1 l11,-1 m-38,12 l0,2 0,7 l0,10 0,7 m0,-24 l10,-1 16,-2 l8,0 3,3 l0,9 0,7 l-3,2 m-30,-10 l9,0 9,-1 l4,0 m-23,11 l9,0 10,-1 l7,0 m-34,11 l1,1 1,5 l0,8 0,8 m-1,-20 l10,-1 11,-1 l9,0 4,4 l-2,11 -2,9 m-29,-13 l9,0 9,0 l7,0 m-24,14 l6,0 8,-1 " fill="none" stroke="black" stroke-width="2.0" /></svg>