<?xml version="1.0" encoding="utf-8" ?>
<svg baseProfile="full" height="109" version="1.1" width="109" xmlns="http://www.w3.org/2000/svg" xmlns:ev="http://www.w3.org/2001/xml-events" xmlns:xlink="http://www.w3.org/1999/xlink"><defs /><rect fill="white" height="109" width="109" x="0" y="0" /><path d="M13.4757563246,29.5361017988 m5,0 l9,-1 8,-1 m-12,-21 l1,5 0,25 l0,34 0,23 l-11,1 m-10,-33 l5,0 6,-3 l10,-5 10,-6 m16,-35 l0,2 -2,6 l-5,8 -6,7 m14,-15 l4,0 8,-1 l10,-1 9,-1 l4,0 m-25,4 l1,4 0,8 l0,9 m-29,2 l5,0 16,-1 l19,-2 20,-1 l5,0 m-47,9 l0,2 -5,6 l-7,6 -11,6 m50,-23 l9,7 10,9 " fill="none" stroke="black" stroke-width="2.0" /></svg>