<?xml version="1.0" encoding="utf-8" ?>
<svg baseProfile="full" height="109" version="1.1" width="109" xmlns="http://www.w3.org/2000/svg" xmlns:ev="http://www.w3.org/2001/xml-events" xmlns:xlink="http://www.w3.org/1999/xlink"><defs /><rect fill="white" height="109" width="109" x="0" y="0" /><path d="M12.9745282454,30.3464374299 m6,-1 l8,-1 10,-1 m-15,-20 l2,5 0,21 l0,26 0,19 l-10,1 m-9,-25 l3,0 6,-3 l10,-5 8,-4 m3,-34 l6,0 13,-1 l15,-1 18,0 l7,0 m-61,13 l1,2 0,7 l0,6 0,5 m-2,-21 l12,-1 15,-1 l9,0 3,3 l-1,6 -1,8 m-37,4 l12,0 13,0 l11,0 6,0 m-26,-28 l2,5 0,12 l0,29 0,24 " fill="none" stroke="black" stroke-width="2.0" /></svg>