<?xml version="1.0" encoding="utf-8" ?>
<svg baseProfile="full" height="109" version="1.1" width="109" xmlns="http://www.w3.org/2000/svg" xmlns:ev="http://www.w3.org/2001/xml-events" xmlns:xlink="http://www.w3.org/1999/xlink"><defs /><rect fill="white" height="109" width="109" x="0" y="0" /><path d="M8.59079320709,6.76799793159 m3,0 l12,0 16,-1 m-21,6 l6,8 m-19,6 l4,0 7,0 l8,-1 7,-1 l4,0 m-24,12 l3,5 1,6 m16,-19 l0,3 -2,7 l-2,6 m-20,7 l3,0 8,-1 l9,-1 7,0 m-30,23 l3,0 9,-4 l9,-3 9,-3 m-11,-31 l1,3 0,29 l-5,21 -17,15 m62,-83 l0,3 -2,6 l-3,9 -4,9 m7,-9 l3,0 9,-1 l13,-2 7,-1 l3,8 0,21 l-2,28 -2,15 m-25,-58 l1,2 0,12 l0,17 m-2,-32 l6,0 7,0 l4,0 3,2 l-1,7 -1,9 m-39,2 l13,0 23,-1 " fill="none" stroke="black" stroke-width="2.0" /></svg>