<?xml version="1.0" encoding="utf-8" ?>
<svg baseProfile="full" height="109" version="1.1" width="109" xmlns="http://www.w3.org/2000/svg" xmlns:ev="http://www.w3.org/2001/xml-events" xmlns:xlink="http://www.w3.org/1999/xlink"><defs /><rect fill="white" height="109" width="109" x="0" y="0" /><path d="M7.12831252209,36.394442492 m7,-1 l10,-2 9,-1 m-12,-20 l2,6 0,25 l0,29 0,19 l-8,1 m-12,-28 l8,-2 5,-4 l9,-7 10,-7 m15,-39 l0,4 -3,9 l-6,11 -7,10 m13,-16 l5,0 8,-1 l11,-2 8,-1 l6,8 -1,12 l-3,15 -5,14 l-8,0 m-36,-30 l3,0 13,-1 l13,-1 2,3 l-1,6 -2,10 m-27,2 l8,0 7,0 l8,-1 m-25,-4 l2,6 0,10 l0,8 1,11 l4,4 14,2 l20,-1 9,-5 " fill="none" stroke="black" stroke-width="2.0" /></svg>