<?xml version="1.0" encoding="utf-8" ?>
<svg baseProfile="full" height="109" version="1.1" width="109" xmlns="http://www.w3.org/2000/svg" xmlns:ev="http://www.w3.org/2001/xml-events" xmlns:xlink="http://www.w3.org/1999/xlink"><defs /><rect fill="white" height="109" width="109" x="0" y="0" /><path d="M5.47196791588,24.0997198768 m4,0 l7,-1 5,0 m-10,-15 l1,3 0,13 l0,18 0,11 l-3,1 m-5,-17 l3,0 2,-1 l5,-3 5,-3 m2,-17 l4,0 7,0 l7,0 7,0 m-20,-4 l0,1 0,5 m-13,1 l4,0 7,0 l6,0 5,0 l5,0 m-35,10 l4,0 7,0 l7,-1 7,0 m-16,-3 l1,3 0,6 l0,9 m-17,3 l6,0 7,-1 l8,-1 8,-1 l6,0 m-17,-11 l0,2 0,2 l0,5 0,5 l0,4 m0,-14 l6,0 5,0 l3,0 3,3 l1,2 0,1 l2,7 1,5 m-3,-14 l15,-1 21,-1 l14,-1 3,3 l-2,7 -2,7 m-45,-12 l0,5 0,5 m19,-13 l0,6 0,5 m-27,2 l14,-1 20,-1 l16,0 m-43,13 l5,0 7,0 l9,-1 9,-1 l5,0 m-28,-11 l1,4 0,4 l0,9 0,6 m-26,4 l3,0 5,-1 l5,-1 4,0 m-9,-2 l1,1 0,4 " fill="none" stroke="black" stroke-width="2.0" /></svg>