<?xml version="1.0" encoding="utf-8" ?>
<svg baseProfile="full" height="109" version="1.1" width="109" xmlns="http://www.w3.org/2000/svg" xmlns:ev="http://www.w3.org/2001/xml-events" xmlns:xlink="http://www.w3.org/1999/xlink"><defs /><rect fill="white" height="109" width="109" x="0" y="0" /><path d="M19.9659696578,21.1908425527 m7,0 l8,-1 7,0 m-14,-13 l2,4 0,17 l0,17 0,12 l-5,2 m-7,-20 l0,3 -2,6 l-3,8 -5,8 m13,-23 l5,4 4,5 m-15,4 l3,0 5,0 l4,0 2,0 m-19,13 l4,0 5,0 l5,0 3,0 m-9,-5 l0,2 0,6 l0,11 m-12,3 l6,0 5,-2 l6,-4 7,-4 m12,-34 l1,3 0,16 l0,21 0,12 m0,-45 l8,-1 8,-1 l4,0 m-12,3 l1,3 0,11 l0,20 0,18 m-11,-28 l9,-1 8,-1 l4,0 m-19,24 l7,0 7,-1 " fill="none" stroke="black" stroke-width="2.0" /></svg>