<?xml version="1.0" encoding="utf-8" ?>
<svg baseProfile="full" height="109" version="1.1" width="109" xmlns="http://www.w3.org/2000/svg" xmlns:ev="http://www.w3.org/2001/xml-events" xmlns:xlink="http://www.w3.org/1999/xlink"><defs /><rect fill="white" height="109" width="109" x="0" y="0" /><path d="M10.1613091238,51.3541985374 m8,-1 l11,-1 8,-1 m-15,-19 l2,4 0,23 l0,24 0,17 l-6,3 m-14,-21 l6,0 4,-3 l8,-6 11,-7 m11,-40 l6,0 7,0 l8,0 10,-1 m-23,-13 l1,5 0,9 l0,7 0,5 m-30,2 l8,0 9,0 l13,-1 12,-1 l11,0 m-43,6 l0,3 -3,9 l-7,9 m28,-30 l0,4 0,9 l4,7 16,0 m-43,11 l3,1 7,0 l7,0 8,-1 m-26,-15 l1,3 0,4 l0,7 0,8 m-19,2 l0,3 0,5 l0,7 0,7 m-1,-20 l12,-1 14,-1 l10,0 4,4 l-1,6 -1,7 m-37,3 l10,0 12,-1 l13,-1 " fill="none" stroke="black" stroke-width="2.0" /></svg>