<?xml version="1.0" encoding="utf-8" ?>
<svg baseProfile="full" height="109" version="1.1" width="109" xmlns="http://www.w3.org/2000/svg" xmlns:ev="http://www.w3.org/2001/xml-events" xmlns:xlink="http://www.w3.org/1999/xlink"><defs /><rect fill="white" height="109" width="109" x="0" y="0" /><path d="M8.82537184137,10.8029049908 m7,0 l12,-1 10,0 l3,0 m-19,4 l0,3 -3,8 l-6,11 -7,10 m14,-16 l0,1 1,7 l0,8 m-2,-16 l7,0 7,-1 l5,0 3,2 l-1,6 -1,8 m-16,1 l6,0 6,0 m-18,-33 l1,2 0,10 l0,19 0,14 m-15,3 l3,0 6,-2 l11,-3 8,-3 m-4,-4 l4,7 3,8 m17,-55 l0,1 -5,5 l-7,4 m-2,1 l1,2 0,11 l0,17 0,13 m0,-40 l7,-1 8,-1 l5,0 m-23,18 l5,-1 6,0 l6,0 m-22,20 l9,0 7,0 m11,-28 l4,0 9,-1 l11,-1 10,0 m-18,-23 l2,8 0,26 l0,30 0,21 l-11,1 m-19,-30 l10,0 6,-5 " fill="none" stroke="black" stroke-width="2.0" /></svg>