<?xml version="1.0" encoding="utf-8" ?>
<svg baseProfile="full" height="109" version="1.1" width="109" xmlns="http://www.w3.org/2000/svg" xmlns:ev="http://www.w3.org/2001/xml-events" xmlns:xlink="http://www.w3.org/1999/xlink"><defs /><rect fill="white" height="109" width="109" x="0" y="0" /><path d="M60.4850864043,5.0 m-9,1 l-9,1 -12,1 m-7,12 l2,0 11,-1 l21,-2 14,-1 l2,0 m-21,-12 l0,1 0,6 l0,13 0,6 m0,-14 l-4,8 -7,7 m15,-8 l6,4 m-57,16 l7,0 22,-1 l29,-1 21,0 l6,0 m-64,7 l1,2 0,8 l0,16 0,7 m1,-34 l9,0 12,-1 l8,0 3,2 m-27,2 l0,2 0,9 l0,11 m-18,-15 l13,-1 17,-1 l10,0 3,3 m-45,9 l15,0 20,0 l12,0 6,0 m-54,14 l21,-1 14,0 l9,0 4,5 l-1,5 -2,4 l-7,0 m-41,-7 l-2,6 -3,5 m15,-12 l2,5 1,6 m6,-12 l4,5 2,5 m6,-12 l3,4 " fill="none" stroke="black" stroke-width="2.0" /></svg>