<?xml version="1.0" encoding="utf-8" ?>
<svg baseProfile="full" height="109" version="1.1" width="109" xmlns="http://www.w3.org/2000/svg" xmlns:ev="http://www.w3.org/2001/xml-events" xmlns:xlink="http://www.w3.org/1999/xlink"><defs /><rect fill="white" height="109" width="109" x="0" y="0" /><path d="M11.2403920948,38.460996683 m7,-1 l9,-1 10,-1 m-14,-14 l1,5 0,18 l0,22 0,12 l-8,0 m-12,-17 l7,0 5,-3 l6,-5 8,-6 m19,-42 l-1,3 -4,5 l-5,4 m-5,3 l1,4 0,14 l0,13 0,11 l0,7 0,4 m15,-65 l7,0 8,-1 l8,-1 8,0 l5,0 m-29,16 l0,2 -2,4 l-4,4 -6,5 m30,-17 l7,5 5,6 m-40,12 l0,3 0,14 l0,21 0,12 m0,-51 l8,-1 12,-1 l8,-1 5,6 l0,11 0,17 l0,13 -7,1 m-23,-32 l9,-1 9,-1 l7,0 m-29,17 l9,-1 10,-1 " fill="none" stroke="black" stroke-width="2.0" /></svg>