<?xml version="1.0" encoding="utf-8" ?>
<svg baseProfile="full" height="109" version="1.1" width="109" xmlns="http://www.w3.org/2000/svg" xmlns:ev="http://www.w3.org/2001/xml-events" xmlns:xlink="http://www.w3.org/1999/xlink"><defs /><rect fill="white" height="109" width="109" x="0" y="0" /><path d="M9.58123690655,28.8707337944 m9,0 l12,-1 8,-1 m-15,-20 l1,5 0,15 l0,23 0,21 l0,7 m0,-42 l0,3 -5,11 l-6,10 -7,9 m23,-27 l6,5 4,5 m23,-48 l0,3 -3,7 l-6,8 -8,8 m17,-17 l6,0 7,-1 l6,-1 1,2 l-4,6 -4,7 m-23,4 l5,0 9,-1 l11,-1 9,-1 l4,5 0,8 l-1,9 0,8 m-31,-15 l7,0 8,-1 l6,0 m-23,16 l9,0 9,0 l10,0 m-34,-21 l1,3 0,14 l0,24 0,15 l3,3 8,-7 l8,-6 m21,-24 l0,3 -5,5 l-6,5 m-19,-9 l10,7 12,9 l11,8 5,2 " fill="none" stroke="black" stroke-width="2.0" /></svg>