<?xml version="1.0" encoding="utf-8" ?>
<svg baseProfile="full" height="109" version="1.1" width="109" xmlns="http://www.w3.org/2000/svg" xmlns:ev="http://www.w3.org/2001/xml-events" xmlns:xlink="http://www.w3.org/1999/xlink"><defs /><rect fill="white" height="109" width="109" x="0" y="0" /><path d="M40.9401814711,10.1184932901 m-4,6 l-9,8 m-7,0 l2,5 0,9 l0,11 m0,-25 l13,-1 7,0 l0,3 m-4,7 l0,3 m15,-22 l4,6 m-7,-16 l1,4 0,6 m-16,6 l19,-3 m15,-12 l0,2 -5,10 l-6,10 m7,-8 l7,0 9,0 l6,0 m-21,4 l8,9 4,9 m-76,27 l11,0 18,-2 l24,-3 21,-2 l10,0 m-38,-12 l1,4 0,14 l0,12 0,12 l-12,2 m-14,-21 l8,5 " fill="none" stroke="black" stroke-width="2.0" /></svg>