<?xml version="1.0" encoding="utf-8" ?>
<svg baseProfile="full" height="109" version="1.1" width="109" xmlns="http://www.w3.org/2000/svg" xmlns:ev="http://www.w3.org/2001/xml-events" xmlns:xlink="http://www.w3.org/1999/xlink"><defs /><rect fill="white" height="109" width="109" x="0" y="0" /><path d="M41.121352485,5.0 m-3,4 l-12,9 -13,7 m-4,15 l6,0 8,-1 l9,-1 7,-1 m-18,-22 l2,4 0,15 l0,27 0,24 m0,-43 l-2,10 -6,12 l-8,12 m21,-26 l7,5 4,6 m24,-53 l0,2 -5,8 l-9,9 -11,8 m20,-19 l7,0 9,-2 l6,-1 2,4 l-8,7 -10,7 m-28,3 l1,0 15,-1 l21,-1 16,-1 l3,0 m-33,-13 l2,2 0,10 l0,11 m11,-25 l0,2 0,8 l0,7 m-26,8 l5,0 8,0 l9,-1 9,0 l5,0 m-33,17 l4,0 10,-1 l8,0 3,0 m-28,19 l2,0 10,0 l12,-1 4,0 m-18,-21 l1,3 0,9 l0,13 " fill="none" stroke="black" stroke-width="2.0" /></svg>