<?xml version="1.0" encoding="utf-8" ?>
<svg baseProfile="full" height="109" version="1.1" width="109" xmlns="http://www.w3.org/2000/svg" xmlns:ev="http://www.w3.org/2001/xml-events" xmlns:xlink="http://www.w3.org/1999/xlink"><defs /><rect fill="white" height="109" width="109" x="0" y="0" /><path d="M42.5014654679,5.0 m-6,3 l-6,1 -8,2 m-6,6 l5,0 8,-1 l8,0 5,0 l3,0 m-26,10 l0,2 -2,6 l-5,7 -5,5 m10,-10 l3,0 8,0 l11,0 8,0 l3,0 m-26,13 l1,1 0,6 l0,7 0,10 m0,-19 l4,0 7,-1 l5,-1 3,2 l-1,5 -1,10 m-17,2 l6,0 6,0 l5,0 m-15,-28 l1,3 0,12 l0,17 0,11 m-14,5 l2,0 6,-3 l9,-4 7,-4 m-4,-5 l5,9 3,10 m0,-81 l2,0 12,-1 l10,-1 3,0 m-26,10 l0,1 0,5 l0,8 m0,-16 l8,0 7,0 l1,1 0,7 l0,6 m-16,2 l5,0 7,-1 m-20,9 l1,0 9,0 l10,0 9,0 l1,0 m-20,3 l0,3 0,9 l0,11 0,8 m0,-19 l6,0 6,-1 l2,0 m-27,0 l0,2 -4,6 l-7,7 -10,8 m19,-15 l13,6 17,9 l11,4 " fill="none" stroke="black" stroke-width="2.0" /></svg>