<?xml version="1.0" encoding="utf-8" ?>
<svg baseProfile="full" height="109" version="1.1" width="109" xmlns="http://www.w3.org/2000/svg" xmlns:ev="http://www.w3.org/2001/xml-events" xmlns:xlink="http://www.w3.org/1999/xlink"><defs /><rect fill="white" height="109" width="109" x="0" y="0" /><path d="M50.4423103985,5.0 m1,5 m-35,8 l6,0 14,-1 l16,-1 11,0 l5,0 m-47,1 l0,5 -1,18 l-4,21 -8,15 m24,-51 l4,0 10,-1 l10,-1 8,-1 l3,3 -1,7 l-1,9 m-41,-6 l5,0 15,-1 l18,-2 14,-1 l5,0 m-54,16 l4,0 11,-1 l11,-1 10,-1 l4,0 m-22,-37 l1,3 0,21 l0,36 0,25 m-34,-53 l0,4 -1,9 l-5,12 -7,9 m13,-20 l7,0 14,0 l18,-1 6,0 m-37,7 l1,2 0,7 m-1,-7 l10,-1 11,-1 l7,0 0,1 l-2,5 m-29,0 l7,0 12,0 l10,0 m-25,7 l0,2 0,5 l0,11 0,6 m0,-28 l9,0 11,0 l6,0 3,2 l0,6 0,8 l0,6 -5,0 m-24,-13 l7,0 6,0 l4,0 m-18,9 l6,0 7,0 " fill="none" stroke="black" stroke-width="2.0" /></svg>