<?xml version="1.0" encoding="utf-8" ?>
<svg baseProfile="full" height="109" version="1.1" width="109" xmlns="http://www.w3.org/2000/svg" xmlns:ev="http://www.w3.org/2001/xml-events" xmlns:xlink="http://www.w3.org/1999/xlink"><defs /><rect fill="white" height="109" width="109" x="0" y="0" /><path d="M8.73661991204,34.9320979681 m9,-1 l13,-2 8,0 m-15,-25 l2,5 0,26 l0,41 0,19 l-8,0 m-2,-43 l-4,9 -6,9 m25,-20 l3,5 3,6 m4,-50 l7,0 11,-1 l14,-1 12,-1 l7,0 m-50,25 l1,5 1,11 l0,8 0,8 m0,-31 l8,-1 11,-2 l10,-1 5,8 l-1,11 -1,11 m-29,3 l8,-1 11,-1 l9,0 " fill="none" stroke="black" stroke-width="2.0" /></svg>