<?xml version="1.0" encoding="utf-8" ?>
<svg baseProfile="full" height="109" version="1.1" width="109" xmlns="http://www.w3.org/2000/svg" xmlns:ev="http://www.w3.org/2001/xml-events" xmlns:xlink="http://www.w3.org/1999/xlink"><defs /><rect fill="white" height="109" width="109" x="0" y="0" /><path d="M13.6681458589,17.7802414706 m7,-1 l5,0 5,0 l3,0 m-25,11 l0,2 0,6 l0,7 0,7 m0,-22 l6,0 8,-1 l6,0 3,3 l0,5 0,6 l-1,6 m-23,-10 l6,0 7,0 l8,0 m-22,12 l6,0 6,0 l6,0 m-25,11 l4,0 7,0 l8,0 7,0 l4,0 m-16,-36 l1,3 0,11 l0,22 0,17 m14,-65 l2,0 7,0 l5,0 2,2 l0,3 0,5 l0,4 m-8,-10 l0,1 0,4 l0,3 m-9,1 l3,0 7,0 l7,0 m-15,-19 l0,2 0,4 l0,7 0,8 l0,5 1,7 l3,2 3,-1 m-15,14 l3,0 8,-3 l5,-2 2,2 l-6,8 -6,10 l-7,8 m12,-14 l1,2 0,10 l0,10 0,7 m5,-31 l0,1 -3,7 l-5,7 m7,-7 l4,4 3,5 m10,-37 l0,2 0,9 l0,17 0,10 m0,-37 l5,0 7,-1 l4,0 2,2 l0,11 0,19 l0,12 m-20,-33 l5,0 4,0 l2,0 m-13,12 l4,0 4,0 l2,0 m-12,13 l5,0 6,0 l5,0 m-14,6 l0,2 -2,3 l-3,4 -4,3 m21,-15 l4,4 3,5 " fill="none" stroke="black" stroke-width="2.0" /></svg>