<?xml version="1.0" encoding="utf-8" ?>
<svg baseProfile="full" height="109" version="1.1" width="109" xmlns="http://www.w3.org/2000/svg" xmlns:ev="http://www.w3.org/2001/xml-events" xmlns:xlink="http://www.w3.org/1999/xlink"><defs /><rect fill="white" height="109" width="109" x="0" y="0" /><path d="M8.48316204589,7.64080463442 m6,0 l10,-1 12,-1 l6,0 m-32,10 l1,1 2,10 l1,12 m-2,-21 l11,-1 9,-1 l2,1 -1,6 l-2,9 m-20,3 l10,-1 12,-1 m-26,17 l4,0 9,-1 l11,-1 4,0 m-15,-31 l2,4 0,21 l0,32 0,22 m0,-47 l-5,14 -8,14 l-9,12 m24,-29 l6,5 4,7 m10,-66 l0,1 1,8 l1,11 m-2,-19 l11,0 14,-1 l9,0 2,2 l-2,7 -2,8 m-32,3 l9,-1 13,-1 l12,-1 m-40,15 l1,3 0,8 l0,15 0,13 m1,-39 l10,0 17,-1 l9,0 3,2 l0,11 0,17 l0,10 m-42,-20 l9,0 10,0 l7,0 4,0 m-30,19 l11,-1 13,0 l12,0 m-23,-38 l1,4 0,15 l0,18 0,12 " fill="none" stroke="black" stroke-width="2.0" /></svg>