<?xml version="1.0" encoding="utf-8" ?>
<svg baseProfile="full" height="109" version="1.1" width="109" xmlns="http://www.w3.org/2000/svg" xmlns:ev="http://www.w3.org/2001/xml-events" xmlns:xlink="http://www.w3.org/1999/xlink"><defs /><rect fill="white" height="109" width="109" x="0" y="0" /><path d="M5.0,22.2737858096 m7,0 l9,-1 11,0 l0,0 m-13,3 l1,4 0,14 l0,19 0,12 m-13,-25 l4,0 9,-1 l10,-1 3,0 m-27,37 l4,1 6,-3 l8,-4 8,-4 m23,-66 l0,4 -4,12 l-7,15 -9,14 m20,-26 l5,0 10,-1 l15,-2 8,-1 l3,6 -1,18 l-3,27 -6,26 l-8,0 m-21,-55 l1,3 m-12,9 l3,0 8,-1 l4,0 m-27,16 l4,0 10,-1 l9,-1 " fill="none" stroke="black" stroke-width="2.0" /></svg>