<?xml version="1.0" encoding="utf-8" ?>
<svg baseProfile="full" height="109" version="1.1" width="109" xmlns="http://www.w3.org/2000/svg" xmlns:ev="http://www.w3.org/2001/xml-events" xmlns:xlink="http://www.w3.org/1999/xlink"><defs /><rect fill="white" height="109" width="109" x="0" y="0" /><path d="M5.0,30.6892153547 m2,0 l10,-1 13,-2 l11,-1 m-18,-20 l2,6 0,22 l0,26 0,21 l-10,1 m-11,-20 l6,0 5,-3 l6,-3 11,-6 m8,-32 l9,0 11,-1 l11,-1 11,-1 l6,0 m-19,3 l0,5 0,11 l0,11 0,12 m-29,2 l5,0 14,-1 l17,-1 17,0 " fill="none" stroke="black" stroke-width="2.0" /></svg>