<?xml version="1.0" encoding="utf-8" ?>
<svg baseProfile="full" height="109" version="1.1" width="109" xmlns="http://www.w3.org/2000/svg" xmlns:ev="http://www.w3.org/2001/xml-events" xmlns:xlink="http://www.w3.org/1999/xlink"><defs /><rect fill="white" height="109" width="109" x="0" y="0" /><path d="M10.0407577445,30.1707295491 m4,0 l9,0 11,0 l9,0 4,0 m-19,-22 l1,4 0,19 l0,30 0,19 m-1,-45 l-6,13 -8,12 l-9,10 m30,-27 l6,6 4,7 m23,-26 l0,2 -1,7 l-4,9 -4,8 m12,-39 l5,6 6,8 l6,7 6,4 m-35,10 l3,0 9,-1 l9,-1 5,0 l3,4 -1,13 l-2,16 -4,12 l-7,0 m0,-56 l0,4 -4,18 l-9,21 " fill="none" stroke="black" stroke-width="2.0" /></svg>