<?xml version="1.0" encoding="utf-8" ?>
<svg baseProfile="full" height="109" version="1.1" width="109" xmlns="http://www.w3.org/2000/svg" xmlns:ev="http://www.w3.org/2001/xml-events" xmlns:xlink="http://www.w3.org/1999/xlink"><defs /><rect fill="white" height="109" width="109" x="0" y="0" /><path d="M32.6582803626,5.0 m-2,3 l-4,3 -6,3 m0,5 l1,3 m-8,10 l3,5 2,4 m-13,28 l3,0 4,-5 l4,-6 m14,-39 l5,0 3,0 l4,0 4,0 l5,0 m-22,6 l0,3 0,6 l0,10 m0,-18 l8,-1 12,-1 l7,0 2,3 l0,6 0,6 m-28,-8 l3,5 2,4 m16,-11 l0,1 -1,4 m-22,3 l9,0 9,0 l10,0 m-19,-20 l1,3 0,13 l0,13 0,8 m-15,-4 l3,0 7,-1 l8,-1 6,0 l2,0 m-37,16 l5,0 12,-1 l11,-1 11,-1 l4,0 m-28,0 l0,3 -2,7 l-5,8 -8,8 m17,-17 l4,0 6,-1 l6,0 1,2 l-7,9 -12,9 l-15,7 m14,-28 l6,4 8,7 l8,7 5,4 " fill="none" stroke="black" stroke-width="2.0" /></svg>