<?xml version="1.0" encoding="utf-8" ?>
<svg baseProfile="full" height="109" version="1.1" width="109" xmlns="http://www.w3.org/2000/svg" xmlns:ev="http://www.w3.org/2001/xml-events" xmlns:xlink="http://www.w3.org/1999/xlink"><defs /><rect fill="white" height="109" width="109" x="0" y="0" /><path d="M12.2507388522,46.4936371205 m7,0 l11,-1 10,-1 m-18,-21 l2,6 0,21 l0,26 0,21 l-9,1 m-11,-29 l4,1 5,-2 l11,-6 9,-5 m37,-52 l0,3 m-21,6 l2,0 8,0 l12,-1 10,-1 l3,0 m-30,8 l3,6 2,5 m19,-17 l0,2 -3,7 l-3,7 m-25,3 l4,0 10,-1 l12,-1 10,-1 l3,0 m-40,21 l5,0 11,-1 l11,-1 12,-1 l4,0 m-26,-14 l2,5 0,14 l0,18 " fill="none" stroke="black" stroke-width="2.0" /></svg>