<?xml version="1.0" encoding="utf-8" ?>
<svg baseProfile="full" height="109" version="1.1" width="109" xmlns="http://www.w3.org/2000/svg" xmlns:ev="http://www.w3.org/2001/xml-events" xmlns:xlink="http://www.w3.org/1999/xlink"><defs /><rect fill="white" height="109" width="109" x="0" y="0" /><path d="M7.87328473023,55.3007833384 m0,0 l5,0 7,-1 l7,-1 m-10,-20 l1,5 0,21 l0,23 0,18 l-5,2 m-9,-21 l5,0 4,-2 l7,-4 8,-4 m7,-35 l0,0 1,4 l1,5 m-2,-9 l7,0 7,0 l4,0 1,1 l-2,6 m-16,2 l5,0 6,0 l6,0 m-14,5 l0,1 -1,5 l-3,6 -5,5 m18,-19 l0,2 0,6 l0,5 2,4 l10,1 9,-1 l3,-2 m-61,-58 l5,4 3,4 m-14,11 l5,3 4,3 m-10,12 l3,0 7,-3 l2,1 -4,6 l0,4 2,3 l-1,3 -4,3 l-4,4 m-3,1 l6,-1 7,0 l10,1 13,2 l9,2 10,2 l10,1 " fill="none" stroke="black" stroke-width="2.0" /></svg>