<?xml version="1.0" encoding="utf-8" ?>
<svg baseProfile="full" height="109" version="1.1" width="109" xmlns="http://www.w3.org/2000/svg" xmlns:ev="http://www.w3.org/2001/xml-events" xmlns:xlink="http://www.w3.org/1999/xlink"><defs /><rect fill="white" height="109" width="109" x="0" y="0" /><path d="M14.1997142312,26.307337822 m5,0 l9,-1 11,-1 m-16,-17 l1,6 0,25 l0,30 0,18 l-7,2 m-14,-25 l9,0 5,-2 l9,-5 9,-5 m13,-36 l8,0 10,-1 l11,-1 10,-1 l7,0 m-45,15 l2,6 0,16 m-22,1 l5,0 17,-1 l20,-1 20,-1 " fill="none" stroke="black" stroke-width="2.0" /></svg>