<?xml version="1.0" encoding="utf-8" ?>
<svg baseProfile="full" height="109" version="1.1" width="109" xmlns="http://www.w3.org/2000/svg" xmlns:ev="http://www.w3.org/2001/xml-events" xmlns:xlink="http://www.w3.org/1999/xlink"><defs /><rect fill="white" height="109" width="109" x="0" y="0" /><path d="M20.596768505,22.2790338666 m-4,3 l-9,5 m-1,0 l1,3 0,4 l0,8 0,9 m0,-18 l6,0 5,0 m-13,14 l3,0 6,-1 l5,0 m20,-35 l3,0 4,-1 l4,0 m-9,-7 l1,2 0,9 l0,7 m-11,3 l4,0 8,-1 l6,-1 m31,-13 l0,1 -4,2 l-5,2 m-7,-11 l0,1 0,13 l-4,9 -6,6 m14,-11 l6,4 4,4 m-67,16 l0,7 -2,8 m3,-13 l21,-1 29,-2 l22,-1 -1,10 m-61,7 l4,0 12,0 l16,-1 15,-1 l3,0 m-23,1 l0,4 0,6 l0,7 m-15,0 l3,0 8,0 l8,0 10,0 m-16,1 l0,3 0,6 l0,6 0,1 m-22,3 l4,0 13,-1 l17,0 15,0 " fill="none" stroke="black" stroke-width="2.0" /></svg>