<?xml version="1.0" encoding="utf-8" ?>
<svg baseProfile="full" height="109" version="1.1" width="109" xmlns="http://www.w3.org/2000/svg" xmlns:ev="http://www.w3.org/2001/xml-events" xmlns:xlink="http://www.w3.org/1999/xlink"><defs /><rect fill="white" height="109" width="109" x="0" y="0" /><path d="M16.6240867694,30.9383829811 m5,0 l7,0 10,-1 l4,0 m-31,12 l1,2 1,6 l1,9 1,10 m-3,-28 l9,-1 9,0 l7,0 3,3 l0,7 -1,8 l-1,8 m-24,-14 l12,-1 13,-1 m-24,14 l7,0 7,0 m-25,14 l4,0 8,-1 l9,-1 7,-1 l3,0 m-17,-68 l2,3 0,18 l0,39 0,29 m26,-82 l4,5 m-13,6 l3,0 7,0 l8,-1 4,0 m-19,9 l0,2 -2,5 l-4,6 m7,-7 l5,4 m9,-12 l0,1 -3,9 l-6,9 m6,-10 l6,7 m3,-13 l0,0 0,6 l0,9 m0,-13 l4,3 2,4 m-27,-3 l6,5 4,6 m-21,28 l2,0 8,-6 l10,-9 m28,-25 l0,1 -3,4 l-6,4 m1,4 l8,4 10,8 " fill="none" stroke="black" stroke-width="2.0" /></svg>