<?xml version="1.0" encoding="utf-8" ?>
<svg baseProfile="full" height="109" version="1.1" width="109" xmlns="http://www.w3.org/2000/svg" xmlns:ev="http://www.w3.org/2001/xml-events" xmlns:xlink="http://www.w3.org/1999/xlink"><defs /><rect fill="white" height="109" width="109" x="0" y="0" /><path d="M5.0,11.1055650235 m0,0 l5,0 4,0 l16,-2 m3,-3 l2,4 0,5 m-27,5 l4,0 9,-1 l12,-1 11,0 l5,0 m-29,5 l0,3 -2,5 l-3,5 -3,4 l2,3 m6,-10 l6,0 4,0 l4,0 m-15,6 l2,2 1,3 m18,-13 l0,1 -1,3 l-3,4 m-19,6 l2,0 8,-1 l9,-1 9,0 l2,0 m-36,13 l4,0 9,-1 l10,-1 8,-1 l4,0 m-43,16 l4,0 14,-2 l19,-2 14,-1 l4,0 m-41,-19 l1,4 0,19 l-5,16 -14,12 m58,-59 l2,3 0,8 l0,15 " fill="none" stroke="black" stroke-width="2.0" /></svg>