<?xml version="1.0" encoding="utf-8" ?>
<svg baseProfile="full" height="109" version="1.1" width="109" xmlns="http://www.w3.org/2000/svg" xmlns:ev="http://www.w3.org/2001/xml-events" xmlns:xlink="http://www.w3.org/1999/xlink"><defs /><rect fill="white" height="109" width="109" x="0" y="0" /><path d="M5.0,25.164879698 m2,0 l6,0 6,0 l3,0 m-9,-17 l1,3 0,15 l0,23 0,15 l-5,1 m-2,-26 l0,6 0,10 m27,-20 l3,5 2,6 m-15,-35 l1,2 0,20 l0,40 0,25 m18,-84 l5,0 10,-1 l11,-2 7,0 l2,4 -2,6 l-3,8 -4,8 m-16,0 l8,-1 9,-1 l8,0 m-26,0 l0,4 0,10 l0,12 0,9 l2,11 8,1 l8,-1 1,-7 m-19,-20 l5,0 7,0 l6,0 m-22,13 l7,0 9,-1 l3,0 m-19,12 l9,-1 8,-1 " fill="none" stroke="black" stroke-width="2.0" /></svg>