<?xml version="1.0" encoding="utf-8" ?>
<svg baseProfile="full" height="109" version="1.1" width="109" xmlns="http://www.w3.org/2000/svg" xmlns:ev="http://www.w3.org/2001/xml-events" xmlns:xlink="http://www.w3.org/1999/xlink"><defs /><rect fill="white" height="109" width="109" x="0" y="0" /><path d="M85.673611231,26.7437554642 m-28,-21 l-11,1 -12,1 l-14,1 -7,3 l-5,10 0,8 m10,-16 l4,0 12,-1 l15,-1 9,0 l2,3 m-33,6 l0,1 m16,-7 l0,4 -7,9 m-15,2 l2,0 7,-1 l10,-2 9,-1 l2,0 m-36,14 l2,0 9,-1 l13,-2 12,-1 l2,0 m-22,-8 l1,3 0,6 l0,9 0,8 m-27,9 l5,0 14,-2 l12,-2 11,-2 m-14,-19 l3,6 0,12 l0,19 0,14 l0,4 m11,-60 l9,0 10,-1 l10,-1 5,0 m-22,-18 l1,2 0,13 l0,20 0,13 m-16,-16 l1,2 1,9 l0,7 0,5 m-2,-19 l12,-1 15,-1 l12,-1 4,1 l0,6 -1,7 l-1,5 m-32,-15 l1,3 0,5 l0,4 m12,-15 l0,1 0,5 l0,5 m-20,2 l9,-1 12,-1 l9,-1 m-30,13 l0,2 0,6 l0,9 0,9 m-1,-26 l7,0 9,-1 l6,-1 2,2 l0,6 0,9 l0,9 m-23,-15 l8,-1 7,0 l3,0 m-17,17 l6,0 6,0 " fill="none" stroke="black" stroke-width="2.0" /></svg>