<?xml version="1.0" encoding="utf-8" ?>
<svg baseProfile="full" height="109" version="1.1" width="109" xmlns="http://www.w3.org/2000/svg" xmlns:ev="http://www.w3.org/2001/xml-events" xmlns:xlink="http://www.w3.org/1999/xlink"><defs /><rect fill="white" height="109" width="109" x="0" y="0" /><path d="M8.6447514674,44.999332154 m5,0 l10,-1 7,0 m-10,-19 l1,4 0,20 l0,25 0,14 l-6,1 m-11,-19 l7,0 4,-3 l5,-4 6,-5 m18,-39 l0,3 -3,7 l-5,8 -6,8 m13,-12 l0,3 0,19 l0,29 0,19 m15,-93 l0,2 -1,6 l-2,7 m-10,2 l6,0 8,-1 l4,0 m-11,2 l0,3 0,13 l0,15 0,13 m-11,-27 l6,0 9,-1 l7,0 m-24,20 l7,0 8,-1 l5,0 m-19,14 l8,-1 10,-1 l4,0 m0,-68 l1,2 1,7 l1,8 m-2,-18 l8,-1 8,-1 l6,0 1,3 l-1,6 -2,8 m-20,1 l5,0 8,0 l8,0 m-19,4 l0,2 m-6,2 l1,1 0,6 l0,9 0,6 m0,-22 l5,0 8,0 l5,0 2,2 l0,5 0,9 l0,8 m-19,-14 l4,0 3,0 l2,0 m-9,8 l4,0 5,0 l2,0 m-25,9 l3,0 11,0 l13,0 10,0 " fill="none" stroke="black" stroke-width="2.0" /></svg>