<?xml version="1.0" encoding="utf-8" ?>
<svg baseProfile="full" height="109" version="1.1" width="109" xmlns="http://www.w3.org/2000/svg" xmlns:ev="http://www.w3.org/2001/xml-events" xmlns:xlink="http://www.w3.org/1999/xlink"><defs /><rect fill="white" height="109" width="109" x="0" y="0" /><path d="M28.5941023789,12.4535026612 m0,0 l-5,3 -13,3 m-3,6 l1,0 8,0 l12,-1 8,-1 l1,0 m-17,-17 l1,2 0,13 l0,25 0,13 m0,-35 l-4,8 -5,7 l-6,6 m18,-18 l7,4 4,5 m26,-24 l0,1 -1,4 l-4,5 -7,6 m0,-13 l7,4 6,5 m-3,6 l0,1 -2,4 l-6,5 -8,5 m3,-12 l8,4 7,5 m6,-23 l1,0 5,0 l7,0 7,0 l2,0 m-16,-3 l0,2 0,9 l0,9 0,4 m0,-18 l0,2 -3,5 l-3,4 -4,5 m14,-13 l6,4 6,5 m-17,6 l0,3 -7,8 l-7,7 0,2 l12,2 10,5 l7,8 m0,-24 l0,3 -6,10 l-12,10 -19,8 m-1,-42 l2,0 14,-1 l16,-1 15,0 " fill="none" stroke="black" stroke-width="2.0" /></svg>