<?xml version="1.0" encoding="utf-8" ?>
<svg baseProfile="full" height="109" version="1.1" width="109" xmlns="http://www.w3.org/2000/svg" xmlns:ev="http://www.w3.org/2001/xml-events" xmlns:xlink="http://www.w3.org/1999/xlink"><defs /><rect fill="white" height="109" width="109" x="0" y="0" /><path d="M6.05344138126,36.4610860153 m10,-1 l11,-1 11,0 m-17,-21 l1,6 0,21 l0,24 0,18 l-6,1 m-11,-20 l6,0 3,-2 l6,-3 8,-5 m26,-46 l5,2 m-24,7 l3,0 11,-1 l13,-1 12,-1 l3,0 m-46,12 l1,0 1,6 l0,7 m-1,-14 l13,-2 15,-2 l9,-1 2,3 l-1,6 -2,6 m-31,-7 l8,0 9,-1 m-23,7 l10,-1 14,-1 l13,-1 m-38,12 l14,-1 13,-1 l11,0 m-42,13 l5,0 14,-1 l11,0 10,0 l2,3 0,9 l-1,9 -8,0 m-18,-15 l0,2 m-5,11 l0,1 m-17,9 l2,0 4,-1 l8,-4 7,-3 l2,2 -5,8 l-8,8 -11,7 m4,-15 l6,2 7,4 l7,4 5,3 " fill="none" stroke="black" stroke-width="2.0" /></svg>