<?xml version="1.0" encoding="utf-8" ?>
<svg baseProfile="full" height="109" version="1.1" width="109" xmlns="http://www.w3.org/2000/svg" xmlns:ev="http://www.w3.org/2001/xml-events" xmlns:xlink="http://www.w3.org/1999/xlink"><defs /><rect fill="white" height="109" width="109" x="0" y="0" /><path d="M46.1390277569,5.0 m-2,5 l-4,8 m-13,0 l1,2 0,6 l1,8 1,11 m-2,-27 l14,-1 16,-2 l13,-1 3,3 l0,8 -1,11 l-1,10 m-25,-23 l0,2 0,6 l0,7 m-19,-9 l12,-1 20,-1 l11,0 m-43,16 l12,-1 15,-1 l12,0 m-30,4 l0,3 -5,14 l-11,15 -17,11 m46,-46 l1,4 0,11 l0,9 0,7 l4,10 9,3 l10,0 11,0 l9,0 2,-4 m-18,-31 l0,2 -4,8 l-6,7 0,1 l8,-1 7,-2 l4,-1 m-3,-7 l2,5 " fill="none" stroke="black" stroke-width="2.0" /></svg>