<?xml version="1.0" encoding="UTF-8"?>
<svg width="120px" height="120px" viewBox="0 0 120 120" version="1.1" xmlns="http://www.w3.org/2000/svg" xmlns:xlink="http://www.w3.org/1999/xlink" style="background: #FFFFFF;">
    <!-- Generator: Sketch 49.3 (51167) - http://www.bohemiancoding.com/sketch -->
    <title>01</title>
    <desc>Created with Sketch.</desc>
    <defs></defs>
    <g id="Page-1" stroke="none" stroke-width="1" fill="none" fill-rule="evenodd">
        <g id="68747470733a2f2f63646e2e7261776769742e636f6d2f686172646d6172752f736b657463682d726e6e2f6d61737465722f6578616d706c652f6f75747075742e737667" transform="translate(-20.000000, -21.000000)" fill-rule="nonzero">
            <rect id="Rectangle-path" fill="#FFFFFF" x="0" y="0" width="800" height="640"></rect>
            <path d="M58.441,49.264 L69.3245,49.0265" id="Shape" stroke="#3DDC43" stroke-width="2" fill="#3DDC43"></path>
            <path d="M69.325,49.026 L88.1765,47.8375" id="Shape" stroke="#3DDC43" stroke-width="2" fill="#3DDC43"></path>
            <path d="M88.177,47.837 L104.5495,46.7045" id="Shape" stroke="#3DDC43" stroke-width="2" fill="#3DDC43"></path>
            <path d="M104.55,46.704 L107.1475,46.8655" id="Shape" stroke="#3DDC43" stroke-width="2" fill="#3DDC43"></path>
            <path d="M69.084,38.484 L71.3025,40.6735" id="Shape" stroke="#9CB131" stroke-width="2" fill="#9CB131"></path>
            <path d="M71.303,40.673 L71.6935,50.1145" id="Shape" stroke="#9CB131" stroke-width="2" fill="#9CB131"></path>
            <path d="M71.694,50.114 L71.6675,67.0785" id="Shape" stroke="#9CB131" stroke-width="2" fill="#9CB131"></path>
            <path d="M90.94,35.621 L92.1435,37.7535" id="Shape" stroke="#15B687" stroke-width="2" fill="#15B687"></path>
            <path d="M92.144,37.753 L91.8445,46.2605" id="Shape" stroke="#15B687" stroke-width="2" fill="#15B687"></path>
            <path d="M91.844,46.26 L90.9485,57.5185" id="Shape" stroke="#15B687" stroke-width="2" fill="#15B687"></path>
            <path d="M90.948,57.518 L89.5235,69.4065" id="Shape" stroke="#15B687" stroke-width="2" fill="#15B687"></path>
            <path d="M67.392,56.712 L73.2325,56.4595" id="Shape" stroke="#366BC7" stroke-width="2" fill="#366BC7"></path>
            <path d="M73.233,56.459 L79.6875,55.9345" id="Shape" stroke="#366BC7" stroke-width="2" fill="#366BC7"></path>
            <path d="M79.688,55.934 L83.5655,55.6535" id="Shape" stroke="#366BC7" stroke-width="2" fill="#366BC7"></path>
            <path d="M66.987,66.356 L72.6955,65.8595" id="Shape" stroke="#13098A" stroke-width="2" fill="#13098A"></path>
            <path d="M72.695,65.859 L78.9125,65.2135" id="Shape" stroke="#13098A" stroke-width="2" fill="#13098A"></path>
            <path d="M78.912,65.213 L82.5155,64.8975" id="Shape" stroke="#13098A" stroke-width="2" fill="#13098A"></path>
            <path d="M47.452,74.707 L52.4275,74.9145" id="Shape" stroke="#B8B48C" stroke-width="2" fill="#B8B48C"></path>
            <path d="M52.427,74.914 L68.9375,73.7385" id="Shape" stroke="#B8B48C" stroke-width="2" fill="#B8B48C"></path>
            <path d="M68.937,73.738 L87.0335,72.4115" id="Shape" stroke="#B8B48C" stroke-width="2" fill="#B8B48C"></path>
            <path d="M87.033,72.411 L104.8735,71.5845" id="Shape" stroke="#B8B48C" stroke-width="2" fill="#B8B48C"></path>
            <path d="M104.873,71.584 L109.0565,71.8955" id="Shape" stroke="#B8B48C" stroke-width="2" fill="#B8B48C"></path>
            <path d="M56.389,81.79 L57.5695,83.3865" id="Shape" stroke="#A0DA0F" stroke-width="2" fill="#A0DA0F"></path>
            <path d="M57.569,83.386 L59.0625,89.1815" id="Shape" stroke="#A0DA0F" stroke-width="2" fill="#A0DA0F"></path>
            <path d="M59.063,89.181 L60.6745,96.6835" id="Shape" stroke="#A0DA0F" stroke-width="2" fill="#A0DA0F"></path>
            <path d="M60.675,96.683 L61.8595,104.0355" id="Shape" stroke="#A0DA0F" stroke-width="2" fill="#A0DA0F"></path>
            <path d="M58.095,82.936 L72.6215,81.7155" id="Shape" stroke="#B28989" stroke-width="2" fill="#B28989"></path>
            <path d="M72.621,81.715 L88.6255,80.5505" id="Shape" stroke="#B28989" stroke-width="2" fill="#B28989"></path>
            <path d="M88.626,80.55 L100.0395,79.5855" id="Shape" stroke="#B28989" stroke-width="2" fill="#B28989"></path>
            <path d="M100.04,79.585 L103.8945,82.3265" id="Shape" stroke="#B28989" stroke-width="2" fill="#B28989"></path>
            <path d="M103.895,82.326 L102.3595,87.5695" id="Shape" stroke="#B28989" stroke-width="2" fill="#B28989"></path>
            <path d="M102.36,87.569 L100.3055,94.9575" id="Shape" stroke="#B28989" stroke-width="2" fill="#B28989"></path>
            <path d="M100.306,94.957 L98.2665,101.7345" id="Shape" stroke="#B28989" stroke-width="2" fill="#B28989"></path>
            <path d="M82.72,73.871 L83.8745,75.5455" id="Shape" stroke="#1CBA96" stroke-width="2" fill="#1CBA96"></path>
            <path d="M83.875,75.545 L83.9095,85.1115" id="Shape" stroke="#1CBA96" stroke-width="2" fill="#1CBA96"></path>
            <path d="M83.91,85.111 L83.9555,95.6045" id="Shape" stroke="#1CBA96" stroke-width="2" fill="#1CBA96"></path>
            <path d="M83.956,95.604 L83.9645,101.6915" id="Shape" stroke="#1CBA96" stroke-width="2" fill="#1CBA96"></path>
            <path d="M65.581,94.105 L75.5925,93.2465" id="Shape" stroke="#B450B2" stroke-width="2" fill="#B450B2"></path>
            <path d="M75.593,93.246 L86.8655,92.2795" id="Shape" stroke="#B450B2" stroke-width="2" fill="#B450B2"></path>
            <path d="M86.866,92.279 L95.0805,91.6115" id="Shape" stroke="#B450B2" stroke-width="2" fill="#B450B2"></path>
            <path d="M63.577,106.248 L72.7705,105.3745" id="Shape" stroke="#4AAE88" stroke-width="2" fill="#4AAE88"></path>
            <path d="M72.771,105.374 L82.8475,104.4365" id="Shape" stroke="#4AAE88" stroke-width="2" fill="#4AAE88"></path>
            <path d="M82.848,104.436 L93.0395,103.8075" id="Shape" stroke="#4AAE88" stroke-width="2" fill="#4AAE88"></path>
            <path d="M62.428,113.005 L60.1665,119.3505" id="Shape" stroke="#932F0A" stroke-width="2" fill="#932F0A"></path>
            <path d="M60.166,119.35 L55.7805,124.3785" id="Shape" stroke="#932F0A" stroke-width="2" fill="#932F0A"></path>
            <path d="M75.784,112.085 L78.8265,117.4525" id="Shape" stroke="#B3964F" stroke-width="2" fill="#B3964F"></path>
            <path d="M78.827,117.453 L81.0175,122.4305" id="Shape" stroke="#B3964F" stroke-width="2" fill="#B3964F"></path>
            <path d="M91.151,110.037 L95.4275,115.4755" id="Shape" stroke="#0D4536" stroke-width="2" fill="#0D4536"></path>
            <path d="M95.428,115.475 L97.9605,121.7775" id="Shape" stroke="#0D4536" stroke-width="2" fill="#0D4536"></path>
            <path d="M107.582,108.327 L112.5475,113.7115" id="Shape" stroke="#7CA046" stroke-width="2" fill="#7CA046"></path>
        </g>
    </g>
</svg>