<?xml version="1.0" encoding="UTF-8"?>
<svg width="120px" height="120px" viewBox="0 0 120 120" version="1.1" xmlns="http://www.w3.org/2000/svg" xmlns:xlink="http://www.w3.org/1999/xlink" style="background: #FFFFFF;">
    <!-- Generator: Sketch 49.3 (51167) - http://www.bohemiancoding.com/sketch -->
    <title>02</title>
    <desc>Created with Sketch.</desc>
    <defs></defs>
    <g id="Page-1" stroke="none" stroke-width="1" fill="none" fill-rule="evenodd">
        <g id="68747470733a2f2f63646e2e7261776769742e636f6d2f686172646d6172752f736b657463682d726e6e2f6d61737465722f6578616d706c652f6f75747075742e737667" transform="translate(-180.000000, -21.000000)" fill-rule="nonzero">
            <rect id="Rectangle-path" fill="#FFFFFF" x="0" y="0" width="800" height="640"></rect>
            <path d="M190.339,55.225 L198.155,54.0555" id="Shape" stroke="#7CA046" stroke-width="2" fill="#7CA046"></path>
            <path d="M198.155,54.056 L204.302,53.6635" id="Shape" stroke="#7CA046" stroke-width="2" fill="#7CA046"></path>
            <path d="M204.302,53.664 L210.863,52.9855" id="Shape" stroke="#7CA046" stroke-width="2" fill="#7CA046"></path>
            <path d="M198.879,34.268 L200.172,38.1695" id="Shape" stroke="#694F50" stroke-width="2" fill="#694F50"></path>
            <path d="M200.172,38.17 L200.267,53.5415" id="Shape" stroke="#694F50" stroke-width="2" fill="#694F50"></path>
            <path d="M200.267,53.542 L200.325,70.1465" id="Shape" stroke="#694F50" stroke-width="2" fill="#694F50"></path>
            <path d="M200.325,70.147 L200.305,83.5485" id="Shape" stroke="#694F50" stroke-width="2" fill="#694F50"></path>
            <path d="M184.164,93.754 L187.382,93.1295" id="Shape" stroke="#E1A362" stroke-width="2" fill="#E1A362"></path>
            <path d="M187.382,93.13 L194.751,87.8865" id="Shape" stroke="#E1A362" stroke-width="2" fill="#E1A362"></path>
            <path d="M194.751,87.887 L201.466,82.5505" id="Shape" stroke="#E1A362" stroke-width="2" fill="#E1A362"></path>
            <path d="M201.466,82.551 L208.503,77.2675" id="Shape" stroke="#E1A362" stroke-width="2" fill="#E1A362"></path>
            <path d="M220.49,27.164 L220.495,29.3565" id="Shape" stroke="#8AAC29" stroke-width="2" fill="#8AAC29"></path>
            <path d="M220.495,29.357 L217.938,35.8865" id="Shape" stroke="#8AAC29" stroke-width="2" fill="#8AAC29"></path>
            <path d="M217.938,35.887 L213.12,43.4655" id="Shape" stroke="#8AAC29" stroke-width="2" fill="#8AAC29"></path>
            <path d="M213.12,43.466 L206.466,50.8535" id="Shape" stroke="#8AAC29" stroke-width="2" fill="#8AAC29"></path>
            <path d="M220.163,35.833 L225.545,35.6775" id="Shape" stroke="#53591E" stroke-width="2" fill="#53591E"></path>
            <path d="M225.545,35.678 L232.451,34.7825" id="Shape" stroke="#53591E" stroke-width="2" fill="#53591E"></path>
            <path d="M232.451,34.783 L237.673,34.0615" id="Shape" stroke="#53591E" stroke-width="2" fill="#53591E"></path>
            <path d="M237.673,34.062 L239.742,36.8105" id="Shape" stroke="#53591E" stroke-width="2" fill="#53591E"></path>
            <path d="M239.742,36.811 L237,41.3275" id="Shape" stroke="#53591E" stroke-width="2" fill="#53591E"></path>
            <path d="M237,41.328 L233.924,47.3005" id="Shape" stroke="#53591E" stroke-width="2" fill="#53591E"></path>
            <path d="M233.924,47.301 L230.506,53.3955" id="Shape" stroke="#53591E" stroke-width="2" fill="#53591E"></path>
            <path d="M214.518,52.327 L216.422,56.9515" id="Shape" stroke="#0BBC3D" stroke-width="2" fill="#0BBC3D"></path>
            <path d="M216.422,56.952 L216.323,64.5545" id="Shape" stroke="#0BBC3D" stroke-width="2" fill="#0BBC3D"></path>
            <path d="M216.323,64.555 L215.988,68.8525" id="Shape" stroke="#0BBC3D" stroke-width="2" fill="#0BBC3D"></path>
            <path d="M215.988,68.853 L215.028,77.7915" id="Shape" stroke="#0BBC3D" stroke-width="2" fill="#0BBC3D"></path>
            <path d="M215.028,77.792 L211.778,88.0315" id="Shape" stroke="#0BBC3D" stroke-width="2" fill="#0BBC3D"></path>
            <path d="M211.778,88.032 L206.741,96.8655" id="Shape" stroke="#0BBC3D" stroke-width="2" fill="#0BBC3D"></path>
            <path d="M218.288,54.206 L223.44,53.6175" id="Shape" stroke="#3EB107" stroke-width="2" fill="#3EB107"></path>
            <path d="M223.44,53.618 L232.464,52.6035" id="Shape" stroke="#3EB107" stroke-width="2" fill="#3EB107"></path>
            <path d="M232.464,52.604 L238.804,51.8505" id="Shape" stroke="#3EB107" stroke-width="2" fill="#3EB107"></path>
            <path d="M238.804,51.851 L241.869,54.8165" id="Shape" stroke="#3EB107" stroke-width="2" fill="#3EB107"></path>
            <path d="M241.869,54.817 L241.75,61.4455" id="Shape" stroke="#3EB107" stroke-width="2" fill="#3EB107"></path>
            <path d="M241.75,61.446 L241.63,75.3205" id="Shape" stroke="#3EB107" stroke-width="2" fill="#3EB107"></path>
            <path d="M241.63,75.321 L241.515,88.5095" id="Shape" stroke="#3EB107" stroke-width="2" fill="#3EB107"></path>
            <path d="M241.515,88.51 L238.234,90.6155" id="Shape" stroke="#3EB107" stroke-width="2" fill="#3EB107"></path>
            <path d="M233.25,44.043 L234.173,46.2205" id="Shape" stroke="#3EB9D5" stroke-width="2" fill="#3EB9D5"></path>
            <path d="M234.173,46.22 L234.326,56.3075" id="Shape" stroke="#3EB9D5" stroke-width="2" fill="#3EB9D5"></path>
            <path d="M234.326,56.307 L234.294,73.0745" id="Shape" stroke="#3EB9D5" stroke-width="2" fill="#3EB9D5"></path>
            <path d="M234.294,73.074 L234.246,85.4175" id="Shape" stroke="#3EB9D5" stroke-width="2" fill="#3EB9D5"></path>
            <path d="M224.035,68.02 L230.245,67.2155" id="Shape" stroke="#1F166B" stroke-width="2" fill="#1F166B"></path>
            <path d="M230.245,67.215 L237.523,66.6225" id="Shape" stroke="#1F166B" stroke-width="2" fill="#1F166B"></path>
            <path d="M237.523,66.622 L240.716,66.4165" id="Shape" stroke="#1F166B" stroke-width="2" fill="#1F166B"></path>
            <path d="M225.495,81.599 L230.751,81.2325" id="Shape" stroke="#D1AE91" stroke-width="2" fill="#D1AE91"></path>
            <path d="M230.751,81.232 L237.207,80.7605" id="Shape" stroke="#D1AE91" stroke-width="2" fill="#D1AE91"></path>
            <path d="M237.207,80.76 L243.568,80.4045" id="Shape" stroke="#D1AE91" stroke-width="2" fill="#D1AE91"></path>
            <path d="M272.935,27.039 L273.161,29.3385" id="Shape" stroke="#C92DC3" stroke-width="2" fill="#C92DC3"></path>
            <path d="M273.161,29.338 L271.221,35.3215" id="Shape" stroke="#C92DC3" stroke-width="2" fill="#C92DC3"></path>
            <path d="M271.221,35.321 L267.639,43.1565" id="Shape" stroke="#C92DC3" stroke-width="2" fill="#C92DC3"></path>
            <path d="M258.012,43.416 L258.535,45.9395" id="Shape" stroke="#8B3408" stroke-width="2" fill="#8B3408"></path>
            <path d="M258.535,45.939 L258.546,57.0825" id="Shape" stroke="#8B3408" stroke-width="2" fill="#8B3408"></path>
            <path d="M258.546,57.082 L258.653,77.6725" id="Shape" stroke="#8B3408" stroke-width="2" fill="#8B3408"></path>
            <path d="M258.653,77.672 L258.692,93.2135" id="Shape" stroke="#8B3408" stroke-width="2" fill="#8B3408"></path>
            <path d="M258.84,44.708 L266.743,43.8175" id="Shape" stroke="#47A0C2" stroke-width="2" fill="#47A0C2"></path>
            <path d="M266.743,43.817 L279.232,42.3645" id="Shape" stroke="#47A0C2" stroke-width="2" fill="#47A0C2"></path>
            <path d="M279.232,42.364 L286.959,41.5195" id="Shape" stroke="#47A0C2" stroke-width="2" fill="#47A0C2"></path>
            <path d="M286.959,41.519 L290.558,45.7625" id="Shape" stroke="#47A0C2" stroke-width="2" fill="#47A0C2"></path>
            <path d="M290.558,45.762 L290.161,51.2555" id="Shape" stroke="#47A0C2" stroke-width="2" fill="#47A0C2"></path>
            <path d="M290.161,51.255 L289.229,62.1475" id="Shape" stroke="#47A0C2" stroke-width="2" fill="#47A0C2"></path>
            <path d="M289.229,62.147 L287.973,74.5695" id="Shape" stroke="#47A0C2" stroke-width="2" fill="#47A0C2"></path>
            <path d="M259.894,59.938 L267.121,59.4415" id="Shape" stroke="#C50EB4" stroke-width="2" fill="#C50EB4"></path>
            <path d="M267.121,59.441 L274.981,58.5075" id="Shape" stroke="#C50EB4" stroke-width="2" fill="#C50EB4"></path>
            <path d="M274.981,58.507 L279.51,58.1265" id="Shape" stroke="#C50EB4" stroke-width="2" fill="#C50EB4"></path>
            <path d="M259.566,75.361 L267.793,74.7615" id="Shape" stroke="#7A484A" stroke-width="2" fill="#7A484A"></path>
            <path d="M267.793,74.761 L277.945,73.7225" id="Shape" stroke="#7A484A" stroke-width="2" fill="#7A484A"></path>
            <path d="M277.945,73.722 L286.363,73.0735" id="Shape" stroke="#7A484A" stroke-width="2" fill="#7A484A"></path>
            <path d="M259.086,87.256 L270.219,86.4315" id="Shape" stroke="#064BAA" stroke-width="2" fill="#064BAA"></path>
            <path d="M270.219,86.431 L282.186,85.3145" id="Shape" stroke="#064BAA" stroke-width="2" fill="#064BAA"></path>
            <path d="M282.186,85.314 L289.961,84.5915" id="Shape" stroke="#064BAA" stroke-width="2" fill="#064BAA"></path>
            <path d="M289.961,84.591 L295.072,84.5375" id="Shape" stroke="#064BAA" stroke-width="2" fill="#064BAA"></path>
            <path d="M255.314,101.172 L267.616,99.4985" id="Shape" stroke="#440550" stroke-width="2" fill="#440550"></path>
            <path d="M267.616,99.498 L281.121,98.1535" id="Shape" stroke="#440550" stroke-width="2" fill="#440550"></path>
            <path d="M281.121,98.153 L290.761,97.2715" id="Shape" stroke="#440550" stroke-width="2" fill="#440550"></path>
            <path d="M290.761,97.271 L295.836,102.9375" id="Shape" stroke="#440550" stroke-width="2" fill="#440550"></path>
            <path d="M295.836,102.937 L294.085,114.1095" id="Shape" stroke="#440550" stroke-width="2" fill="#440550"></path>
            <path d="M294.085,114.109 L291.648,124.7465" id="Shape" stroke="#440550" stroke-width="2" fill="#440550"></path>
            <path d="M291.648,124.746 L288.683,132.9605" id="Shape" stroke="#440550" stroke-width="2" fill="#440550"></path>
            <path d="M288.683,132.96 L280.152,132.4265" id="Shape" stroke="#440550" stroke-width="2" fill="#440550"></path>
            <path d="M247.078,115.508 L246.005,122.7455" id="Shape" stroke="#385BBD" stroke-width="2" fill="#385BBD"></path>
            <path d="M246.005,122.745 L243.354,127.8675" id="Shape" stroke="#385BBD" stroke-width="2" fill="#385BBD"></path>
            <path d="M256.473,111.399 L259.139,117.6075" id="Shape" stroke="#B40E74" stroke-width="2" fill="#B40E74"></path>
            <path d="M259.139,117.607 L260.699,125.3805" id="Shape" stroke="#B40E74" stroke-width="2" fill="#B40E74"></path>
            <path d="M268.407,110.861 L272.061,117.9565" id="Shape" stroke="#25623A" stroke-width="2" fill="#25623A"></path>
        </g>
    </g>
</svg>