<?xml version="1.0" encoding="UTF-8"?>
<svg width="120px" height="120px" viewBox="0 0 120 120" version="1.1" xmlns="http://www.w3.org/2000/svg" xmlns:xlink="http://www.w3.org/1999/xlink" style="background: #FFFFFF;">
    <!-- Generator: Sketch 49.3 (51167) - http://www.bohemiancoding.com/sketch -->
    <title>05</title>
    <desc>Created with Sketch.</desc>
    <defs></defs>
    <g id="Page-1" stroke="none" stroke-width="1" fill="none" fill-rule="evenodd">
        <g id="68747470733a2f2f63646e2e7261776769742e636f6d2f686172646d6172752f736b657463682d726e6e2f6d61737465722f6578616d706c652f6f75747075742e737667" transform="translate(-665.000000, -21.000000)" fill-rule="nonzero">
            <rect id="Rectangle-path" fill="#FFFFFF" x="0" y="0" width="800" height="640"></rect>
            <path d="M674.259,44.403 L677.715,44.862" id="Shape" stroke="#993117" stroke-width="2" fill="#993117"></path>
            <path d="M677.715,44.862 L682.286,44.545" id="Shape" stroke="#993117" stroke-width="2" fill="#993117"></path>
            <path d="M682.286,44.545 L686.792,43.866" id="Shape" stroke="#993117" stroke-width="2" fill="#993117"></path>
            <path d="M686.792,43.866 L689.98,43.852" id="Shape" stroke="#993117" stroke-width="2" fill="#993117"></path>
            <path d="M689.98,43.852 L694.996,43.218" id="Shape" stroke="#993117" stroke-width="2" fill="#993117"></path>
            <path d="M694.996,43.218 L699.276,42.807" id="Shape" stroke="#993117" stroke-width="2" fill="#993117"></path>
            <path d="M699.276,42.807 L703.888,42.657" id="Shape" stroke="#993117" stroke-width="2" fill="#993117"></path>
            <path d="M687.843,50.274 L687.371,53.329" id="Shape" stroke="#481434" stroke-width="2" fill="#481434"></path>
            <path d="M687.371,53.329 L684.655,59.575" id="Shape" stroke="#481434" stroke-width="2" fill="#481434"></path>
            <path d="M684.655,59.575 L680.914,65.25" id="Shape" stroke="#481434" stroke-width="2" fill="#481434"></path>
            <path d="M689.121,55.018 L693.893,54.524" id="Shape" stroke="#590DCA" stroke-width="2" fill="#590DCA"></path>
            <path d="M693.893,54.524 L700.493,53.336" id="Shape" stroke="#590DCA" stroke-width="2" fill="#590DCA"></path>
            <path d="M700.493,53.336 L702.533,55.479" id="Shape" stroke="#590DCA" stroke-width="2" fill="#590DCA"></path>
            <path d="M694.648,61.931 L697.164,66.69" id="Shape" stroke="#6D3E42" stroke-width="2" fill="#6D3E42"></path>
            <path d="M709.293,53.678 L709.038,55.893" id="Shape" stroke="#9D5272" stroke-width="2" fill="#9D5272"></path>
            <path d="M709.038,55.893 L706.401,60.396" id="Shape" stroke="#9D5272" stroke-width="2" fill="#9D5272"></path>
            <path d="M706.401,60.396 L702.639,65.655" id="Shape" stroke="#9D5272" stroke-width="2" fill="#9D5272"></path>
            <path d="M709.774,58.884 L713.689,58.597" id="Shape" stroke="#45CBC4" stroke-width="2" fill="#45CBC4"></path>
            <path d="M713.689,58.597 L719.492,57.643" id="Shape" stroke="#45CBC4" stroke-width="2" fill="#45CBC4"></path>
            <path d="M719.492,57.643 L725.781,56.829" id="Shape" stroke="#45CBC4" stroke-width="2" fill="#45CBC4"></path>
            <path d="M711.605,61.264 L715.193,65.574" id="Shape" stroke="#872A2C" stroke-width="2" fill="#872A2C"></path>
            <path d="M715.193,65.574 L717.643,70.404" id="Shape" stroke="#872A2C" stroke-width="2" fill="#872A2C"></path>
            <path d="M731.775,50.268 L732.075,52.58" id="Shape" stroke="#13D310" stroke-width="2" fill="#13D310"></path>
            <path d="M732.075,52.58 L728.931,58.768" id="Shape" stroke="#13D310" stroke-width="2" fill="#13D310"></path>
            <path d="M728.931,58.768 L723.862,65.429" id="Shape" stroke="#13D310" stroke-width="2" fill="#13D310"></path>
            <path d="M732.772,55.529 L738.987,54.883" id="Shape" stroke="#D19DBF" stroke-width="2" fill="#D19DBF"></path>
            <path d="M738.987,54.883 L748.924,53.193" id="Shape" stroke="#D19DBF" stroke-width="2" fill="#D19DBF"></path>
            <path d="M748.924,53.193 L755.726,52.109" id="Shape" stroke="#D19DBF" stroke-width="2" fill="#D19DBF"></path>
            <path d="M745.097,53.878 L745.079,55.476" id="Shape" stroke="#3B70DC" stroke-width="2" fill="#3B70DC"></path>
            <path d="M745.079,55.476 L742.983,59.38" id="Shape" stroke="#3B70DC" stroke-width="2" fill="#3B70DC"></path>
            <path d="M732.171,59.735 L735.58,63.746" id="Shape" stroke="#018B72" stroke-width="2" fill="#018B72"></path>
            <path d="M697.959,69.743 L703.524,70.071" id="Shape" stroke="#CE3C6A" stroke-width="2" fill="#CE3C6A"></path>
            <path d="M703.524,70.071 L722.882,68.617" id="Shape" stroke="#CE3C6A" stroke-width="2" fill="#CE3C6A"></path>
            <path d="M722.882,68.617 L744.46,67.103" id="Shape" stroke="#CE3C6A" stroke-width="2" fill="#CE3C6A"></path>
            <path d="M744.46,67.103 L761.306,66.463" id="Shape" stroke="#CE3C6A" stroke-width="2" fill="#CE3C6A"></path>
            <path d="M761.306,66.463 L765.741,66.746" id="Shape" stroke="#CE3C6A" stroke-width="2" fill="#CE3C6A"></path>
            <path d="M712.757,76.728 L713.348,77.26" id="Shape" stroke="#09CD3B" stroke-width="2" fill="#09CD3B"></path>
            <path d="M713.348,77.26 L714.954,82.459" id="Shape" stroke="#09CD3B" stroke-width="2" fill="#09CD3B"></path>
            <path d="M714.954,82.459 L716.311,89.615" id="Shape" stroke="#09CD3B" stroke-width="2" fill="#09CD3B"></path>
            <path d="M716.311,89.615 L717.491,97.669" id="Shape" stroke="#09CD3B" stroke-width="2" fill="#09CD3B"></path>
            <path d="M714.12,77.382 L726.114,75.992" id="Shape" stroke="#8FB7B1" stroke-width="2" fill="#8FB7B1"></path>
            <path d="M726.114,75.992 L739.765,74.652" id="Shape" stroke="#8FB7B1" stroke-width="2" fill="#8FB7B1"></path>
            <path d="M739.765,74.652 L750.527,73.856" id="Shape" stroke="#8FB7B1" stroke-width="2" fill="#8FB7B1"></path>
            <path d="M750.527,73.856 L753.548,75.864" id="Shape" stroke="#8FB7B1" stroke-width="2" fill="#8FB7B1"></path>
            <path d="M753.548,75.864 L752.489,81.488" id="Shape" stroke="#8FB7B1" stroke-width="2" fill="#8FB7B1"></path>
            <path d="M752.489,81.488 L750.866,88.793" id="Shape" stroke="#8FB7B1" stroke-width="2" fill="#8FB7B1"></path>
            <path d="M750.866,88.793 L749.096,95.846" id="Shape" stroke="#8FB7B1" stroke-width="2" fill="#8FB7B1"></path>
            <path d="M715.983,85.02 L723.836,84.342" id="Shape" stroke="#C572D7" stroke-width="2" fill="#C572D7"></path>
            <path d="M723.836,84.342 L730.458,83.692" id="Shape" stroke="#C572D7" stroke-width="2" fill="#C572D7"></path>
            <path d="M730.458,83.692 L737.237,82.979" id="Shape" stroke="#C572D7" stroke-width="2" fill="#C572D7"></path>
            <path d="M737.237,82.979 L740.412,82.743" id="Shape" stroke="#C572D7" stroke-width="2" fill="#C572D7"></path>
            <path d="M717.888,95.334 L727.238,94.272" id="Shape" stroke="#DF5B2C" stroke-width="2" fill="#DF5B2C"></path>
            <path d="M727.238,94.272 L739.163,93.188" id="Shape" stroke="#DF5B2C" stroke-width="2" fill="#DF5B2C"></path>
            <path d="M739.163,93.188 L749.066,92.497" id="Shape" stroke="#DF5B2C" stroke-width="2" fill="#DF5B2C"></path>
            <path d="M711.168,104.421 L716.377,104.71" id="Shape" stroke="#CB0954" stroke-width="2" fill="#CB0954"></path>
            <path d="M716.377,104.71 L727.352,103.835" id="Shape" stroke="#CB0954" stroke-width="2" fill="#CB0954"></path>
            <path d="M727.352,103.835 L741.149,102.695" id="Shape" stroke="#CB0954" stroke-width="2" fill="#CB0954"></path>
            <path d="M741.149,102.695 L755.257,101.865" id="Shape" stroke="#CB0954" stroke-width="2" fill="#CB0954"></path>
            <path d="M755.257,101.865 L760.26,102.343" id="Shape" stroke="#CB0954" stroke-width="2" fill="#CB0954"></path>
            <path d="M736.577,70.588 L737.574,73.545" id="Shape" stroke="#7FAD01" stroke-width="2" fill="#7FAD01"></path>
            <path d="M737.574,73.545 L737.614,88.458" id="Shape" stroke="#7FAD01" stroke-width="2" fill="#7FAD01"></path>
            <path d="M737.614,88.458 L737.605,117.343" id="Shape" stroke="#7FAD01" stroke-width="2" fill="#7FAD01"></path>
        </g>
    </g>
</svg>