<?xml version="1.0" encoding="UTF-8"?>
<svg width="120px" height="120px" viewBox="0 0 120 120" version="1.1" xmlns="http://www.w3.org/2000/svg" xmlns:xlink="http://www.w3.org/1999/xlink" style="background: #FFFFFF;">
    <!-- Generator: Sketch 49.3 (51167) - http://www.bohemiancoding.com/sketch -->
    <title>06</title>
    <desc>Created with Sketch.</desc>
    <defs></defs>
    <g id="Page-1" stroke="none" stroke-width="1" fill="none" fill-rule="evenodd">
        <g id="68747470733a2f2f63646e2e7261776769742e636f6d2f686172646d6172752f736b657463682d726e6e2f6d61737465722f6578616d706c652f6f75747075742e737667" transform="translate(-20.000000, -181.000000)" fill-rule="nonzero">
            <rect id="Rectangle-path" fill="#FFFFFF" x="0" y="0" width="800" height="640"></rect>
            <path d="M71.822,180.355 L73.197,185.17" id="Shape" stroke="#7FAD01" stroke-width="2" fill="#7FAD01"></path>
            <path d="M73.197,185.17 L73.386,191.306" id="Shape" stroke="#7FAD01" stroke-width="2" fill="#7FAD01"></path>
            <path d="M73.386,191.306 L74.089,199.339" id="Shape" stroke="#7FAD01" stroke-width="2" fill="#7FAD01"></path>
            <path d="M74.089,199.339 L74.651,207.338" id="Shape" stroke="#7FAD01" stroke-width="2" fill="#7FAD01"></path>
            <path d="M72.71,183.731 L79.383,182.698" id="Shape" stroke="#315879" stroke-width="2" fill="#315879"></path>
            <path d="M79.383,182.698 L88.038,181.573" id="Shape" stroke="#315879" stroke-width="2" fill="#315879"></path>
            <path d="M88.038,181.573 L94.818,180.782" id="Shape" stroke="#315879" stroke-width="2" fill="#315879"></path>
            <path d="M94.818,180.782 L97.006,183.381" id="Shape" stroke="#315879" stroke-width="2" fill="#315879"></path>
            <path d="M97.006,183.381 L96.226,188.567" id="Shape" stroke="#315879" stroke-width="2" fill="#315879"></path>
            <path d="M96.226,188.567 L95.184,195.418" id="Shape" stroke="#315879" stroke-width="2" fill="#315879"></path>
            <path d="M95.184,195.418 L94.094,202.579" id="Shape" stroke="#315879" stroke-width="2" fill="#315879"></path>
            <path d="M73.652,194.009 L78.208,193.423" id="Shape" stroke="#BF545E" stroke-width="2" fill="#BF545E"></path>
            <path d="M78.208,193.423 L83.457,192.613" id="Shape" stroke="#BF545E" stroke-width="2" fill="#BF545E"></path>
            <path d="M83.457,192.613 L88.415,191.89" id="Shape" stroke="#BF545E" stroke-width="2" fill="#BF545E"></path>
            <path d="M74.311,204.077 L81.433,203.351" id="Shape" stroke="#9CCF14" stroke-width="2" fill="#9CCF14"></path>
            <path d="M81.433,203.351 L88.796,202.502" id="Shape" stroke="#9CCF14" stroke-width="2" fill="#9CCF14"></path>
            <path d="M88.796,202.502 L95.485,201.782" id="Shape" stroke="#9CCF14" stroke-width="2" fill="#9CCF14"></path>
            <path d="M75.245,212.182 L79.014,212.162" id="Shape" stroke="#A09440" stroke-width="2" fill="#A09440"></path>
            <path d="M79.014,212.162 L84.519,211.562" id="Shape" stroke="#A09440" stroke-width="2" fill="#A09440"></path>
            <path d="M84.519,211.562 L91.376,210.762" id="Shape" stroke="#A09440" stroke-width="2" fill="#A09440"></path>
            <path d="M91.376,210.762 L96.469,210.04" id="Shape" stroke="#A09440" stroke-width="2" fill="#A09440"></path>
            <path d="M74.292,224.552 L79.068,224.35" id="Shape" stroke="#B36F03" stroke-width="2" fill="#B36F03"></path>
            <path d="M79.068,224.35 L83.845,223.838" id="Shape" stroke="#B36F03" stroke-width="2" fill="#B36F03"></path>
            <path d="M83.845,223.838 L88.842,223.365" id="Shape" stroke="#B36F03" stroke-width="2" fill="#B36F03"></path>
            <path d="M88.842,223.365 L95.082,222.934" id="Shape" stroke="#B36F03" stroke-width="2" fill="#B36F03"></path>
            <path d="M95.082,222.934 L101.23,222.986" id="Shape" stroke="#B36F03" stroke-width="2" fill="#B36F03"></path>
            <path d="M101.23,222.986 L105.068,223.422" id="Shape" stroke="#B36F03" stroke-width="2" fill="#B36F03"></path>
            <path d="M54.212,228.036 L54.588,234.935" id="Shape" stroke="#2C9827" stroke-width="2" fill="#2C9827"></path>
            <path d="M54.588,234.935 L54.372,247.548" id="Shape" stroke="#2C9827" stroke-width="2" fill="#2C9827"></path>
            <path d="M56.348,231.694 L77.37,229.963" id="Shape" stroke="#B05AD5" stroke-width="2" fill="#B05AD5"></path>
            <path d="M77.37,229.963 L98.413,228.001" id="Shape" stroke="#B05AD5" stroke-width="2" fill="#B05AD5"></path>
            <path d="M98.413,228.001 L117.074,226.958" id="Shape" stroke="#B05AD5" stroke-width="2" fill="#B05AD5"></path>
            <path d="M117.074,226.958 L116.676,232.709" id="Shape" stroke="#B05AD5" stroke-width="2" fill="#B05AD5"></path>
            <path d="M78.247,221.74 L79.668,224.671" id="Shape" stroke="#2A7686" stroke-width="2" fill="#2A7686"></path>
            <path d="M79.668,224.671 L79.621,232.483" id="Shape" stroke="#2A7686" stroke-width="2" fill="#2A7686"></path>
            <path d="M79.621,232.483 L79.514,240.235" id="Shape" stroke="#2A7686" stroke-width="2" fill="#2A7686"></path>
            <path d="M64.187,232.105 L72.699,236.824" id="Shape" stroke="#4ACB92" stroke-width="2" fill="#4ACB92"></path>
            <path d="M54.673,239.885 L60.081,243.754" id="Shape" stroke="#082A85" stroke-width="2" fill="#082A85"></path>
            <path d="M83.935,232.611 L83.935,233.468" id="Shape" stroke="#75697D" stroke-width="2" fill="#75697D"></path>
            <path d="M83.935,233.468 L76.882,239.907" id="Shape" stroke="#75697D" stroke-width="2" fill="#75697D"></path>
            <path d="M76.882,239.907 L68.24,245.479" id="Shape" stroke="#75697D" stroke-width="2" fill="#75697D"></path>
            <path d="M95.943,239.839 L105.093,243.285" id="Shape" stroke="#3F25DB" stroke-width="2" fill="#3F25DB"></path>
            <path d="M105.093,243.285 L110.82,247.221" id="Shape" stroke="#3F25DB" stroke-width="2" fill="#3F25DB"></path>
            <path d="M61.347,251.126 L61.598,252.698" id="Shape" stroke="#CBAC89" stroke-width="2" fill="#CBAC89"></path>
            <path d="M61.598,252.698 L58.566,255.481" id="Shape" stroke="#CBAC89" stroke-width="2" fill="#CBAC89"></path>
            <path d="M58.566,255.481 L53.516,258.279" id="Shape" stroke="#CBAC89" stroke-width="2" fill="#CBAC89"></path>
            <path d="M53.516,258.279 L45.64,261.173" id="Shape" stroke="#CBAC89" stroke-width="2" fill="#CBAC89"></path>
            <path d="M42.926,256.973 L44.24,259.179" id="Shape" stroke="#528CB1" stroke-width="2" fill="#528CB1"></path>
            <path d="M44.24,259.179 L44.168,266.471" id="Shape" stroke="#528CB1" stroke-width="2" fill="#528CB1"></path>
            <path d="M44.168,266.471 L44.109,275.195" id="Shape" stroke="#528CB1" stroke-width="2" fill="#528CB1"></path>
            <path d="M44.109,275.195 L46.468,284.453" id="Shape" stroke="#528CB1" stroke-width="2" fill="#528CB1"></path>
            <path d="M46.468,284.453 L51.584,285.504" id="Shape" stroke="#528CB1" stroke-width="2" fill="#528CB1"></path>
            <path d="M51.584,285.504 L57.846,281.893" id="Shape" stroke="#528CB1" stroke-width="2" fill="#528CB1"></path>
            <path d="M57.846,281.893 L63.924,278.414" id="Shape" stroke="#528CB1" stroke-width="2" fill="#528CB1"></path>
            <path d="M62.81,262.276 L66.007,261.528" id="Shape" stroke="#A0D183" stroke-width="2" fill="#A0D183"></path>
            <path d="M66.007,261.528 L72.663,260.065" id="Shape" stroke="#A0D183" stroke-width="2" fill="#A0D183"></path>
            <path d="M72.663,260.065 L81.401,258.547" id="Shape" stroke="#A0D183" stroke-width="2" fill="#A0D183"></path>
            <path d="M81.401,258.547 L90.639,257.496" id="Shape" stroke="#A0D183" stroke-width="2" fill="#A0D183"></path>
            <path d="M90.639,257.496 L95.519,257.3" id="Shape" stroke="#A0D183" stroke-width="2" fill="#A0D183"></path>
            <path d="M77.806,247.119 L78.898,250.136" id="Shape" stroke="#8FDA60" stroke-width="2" fill="#8FDA60"></path>
            <path d="M78.898,250.136 L80.409,268.089" id="Shape" stroke="#8FDA60" stroke-width="2" fill="#8FDA60"></path>
            <path d="M80.409,268.089 L85.776,284.753" id="Shape" stroke="#8FDA60" stroke-width="2" fill="#8FDA60"></path>
            <path d="M85.776,284.753 L94.967,299.645" id="Shape" stroke="#8FDA60" stroke-width="2" fill="#8FDA60"></path>
            <path d="M94.967,299.645 L98.005,292.98" id="Shape" stroke="#8FDA60" stroke-width="2" fill="#8FDA60"></path>
            <path d="M90.017,263.825 L88.85,266.197" id="Shape" stroke="#994215" stroke-width="2" fill="#994215"></path>
            <path d="M88.85,266.197 L82.707,273.55" id="Shape" stroke="#994215" stroke-width="2" fill="#994215"></path>
            <path d="M82.707,273.55 L70.401,282.783" id="Shape" stroke="#994215" stroke-width="2" fill="#994215"></path>
            <path d="M70.401,282.783 L50.693,290.894" id="Shape" stroke="#994215" stroke-width="2" fill="#994215"></path>
        </g>
    </g>
</svg>