<?xml version="1.0" encoding="UTF-8"?>
<svg width="120px" height="120px" viewBox="0 0 120 120" version="1.1" xmlns="http://www.w3.org/2000/svg" xmlns:xlink="http://www.w3.org/1999/xlink" style="background: #FFFFFF;">
    <!-- Generator: Sketch 49.3 (51167) - http://www.bohemiancoding.com/sketch -->
    <title>07</title>
    <desc>Created with Sketch.</desc>
    <defs></defs>
    <g id="Page-1" stroke="none" stroke-width="1" fill="none" fill-rule="evenodd">
        <g id="68747470733a2f2f63646e2e7261776769742e636f6d2f686172646d6172752f736b657463682d726e6e2f6d61737465722f6578616d706c652f6f75747075742e737667" transform="translate(-180.000000, -181.000000)" fill-rule="nonzero">
            <rect id="Rectangle-path" fill="#FFFFFF" x="0" y="0" width="800" height="640"></rect>
            <path d="M192.773,219.739 L196.5225,219.6445" id="Shape" stroke="#532A62" stroke-width="2" fill="#532A62"></path>
            <path d="M196.522,219.644 L206.5995,218.1605" id="Shape" stroke="#532A62" stroke-width="2" fill="#532A62"></path>
            <path d="M206.599,218.16 L214.3225,217.4205" id="Shape" stroke="#532A62" stroke-width="2" fill="#532A62"></path>
            <path d="M214.322,217.42 L218.3675,217.1785" id="Shape" stroke="#532A62" stroke-width="2" fill="#532A62"></path>
            <path d="M205.026,222.1 L206.3375,226.5715" id="Shape" stroke="#6AA950" stroke-width="2" fill="#6AA950"></path>
            <path d="M206.337,226.571 L206.3445,240.9465" id="Shape" stroke="#6AA950" stroke-width="2" fill="#6AA950"></path>
            <path d="M206.344,240.946 L206.3165,255.1535" id="Shape" stroke="#6AA950" stroke-width="2" fill="#6AA950"></path>
            <path d="M206.316,255.153 L206.2475,265.6085" id="Shape" stroke="#6AA950" stroke-width="2" fill="#6AA950"></path>
            <path d="M191.597,240.688 L196.5445,240.9475" id="Shape" stroke="#273653" stroke-width="2" fill="#273653"></path>
            <path d="M196.544,240.947 L202.4235,240.0815" id="Shape" stroke="#273653" stroke-width="2" fill="#273653"></path>
            <path d="M202.423,240.081 L209.8435,238.8935" id="Shape" stroke="#273653" stroke-width="2" fill="#273653"></path>
            <path d="M209.843,238.893 L215.7165,238.3435" id="Shape" stroke="#273653" stroke-width="2" fill="#273653"></path>
            <path d="M215.716,238.343 L220.7095,238.4985" id="Shape" stroke="#273653" stroke-width="2" fill="#273653"></path>
            <path d="M188.82,275.901 L193.3085,276.4635" id="Shape" stroke="#C15E45" stroke-width="2" fill="#C15E45"></path>
            <path d="M193.308,276.464 L198.0245,273.2815" id="Shape" stroke="#C15E45" stroke-width="2" fill="#C15E45"></path>
            <path d="M198.024,273.281 L206.7085,267.7275" id="Shape" stroke="#C15E45" stroke-width="2" fill="#C15E45"></path>
            <path d="M206.708,267.728 L216.0085,261.4665" id="Shape" stroke="#C15E45" stroke-width="2" fill="#C15E45"></path>
            <path d="M235.108,202.35 L235.2475,205.3175" id="Shape" stroke="#9F5BBB" stroke-width="2" fill="#9F5BBB"></path>
            <path d="M235.247,205.317 L233.4455,212.9665" id="Shape" stroke="#9F5BBB" stroke-width="2" fill="#9F5BBB"></path>
            <path d="M233.445,212.966 L230.3875,220.4915" id="Shape" stroke="#9F5BBB" stroke-width="2" fill="#9F5BBB"></path>
            <path d="M230.387,220.492 L225.9695,227.2885" id="Shape" stroke="#9F5BBB" stroke-width="2" fill="#9F5BBB"></path>
            <path d="M236.725,213.555 L239.1275,213.8605" id="Shape" stroke="#CA6CDD" stroke-width="2" fill="#CA6CDD"></path>
            <path d="M239.127,213.861 L248.5355,212.7595" id="Shape" stroke="#CA6CDD" stroke-width="2" fill="#CA6CDD"></path>
            <path d="M248.535,212.76 L258.6265,211.4845" id="Shape" stroke="#CA6CDD" stroke-width="2" fill="#CA6CDD"></path>
            <path d="M258.626,211.484 L267.1195,210.4345" id="Shape" stroke="#CA6CDD" stroke-width="2" fill="#CA6CDD"></path>
            <path d="M267.119,210.434 L270.7895,210.5845" id="Shape" stroke="#CA6CDD" stroke-width="2" fill="#CA6CDD"></path>
            <path d="M237.719,229.558 L241.0385,229.7565" id="Shape" stroke="#C30ED8" stroke-width="2" fill="#C30ED8"></path>
            <path d="M241.038,229.757 L249.1185,228.9305" id="Shape" stroke="#C30ED8" stroke-width="2" fill="#C30ED8"></path>
            <path d="M249.118,228.931 L259.2585,227.4915" id="Shape" stroke="#C30ED8" stroke-width="2" fill="#C30ED8"></path>
            <path d="M259.258,227.492 L265.0095,226.7145" id="Shape" stroke="#C30ED8" stroke-width="2" fill="#C30ED8"></path>
            <path d="M265.009,226.715 L267.0025,229.0045" id="Shape" stroke="#C30ED8" stroke-width="2" fill="#C30ED8"></path>
            <path d="M267.002,229.005 L266.4385,234.9125" id="Shape" stroke="#C30ED8" stroke-width="2" fill="#C30ED8"></path>
            <path d="M239.804,240.358 L245.4115,240.3455" id="Shape" stroke="#77B471" stroke-width="2" fill="#77B471"></path>
            <path d="M245.411,240.346 L259.4855,238.6075" id="Shape" stroke="#77B471" stroke-width="2" fill="#77B471"></path>
            <path d="M259.485,238.608 L272.9365,237.0655" id="Shape" stroke="#77B471" stroke-width="2" fill="#77B471"></path>
            <path d="M272.936,237.066 L286.1905,236.4735" id="Shape" stroke="#77B471" stroke-width="2" fill="#77B471"></path>
            <path d="M286.19,236.474 L291.1795,236.8055" id="Shape" stroke="#77B471" stroke-width="2" fill="#77B471"></path>
            <path d="M250.079,242.965 L254.9245,250.0435" id="Shape" stroke="#57D09E" stroke-width="2" fill="#57D09E"></path>
            <path d="M254.924,250.043 L257.4375,255.6415" id="Shape" stroke="#57D09E" stroke-width="2" fill="#57D09E"></path>
            <path d="M279.382,240.536 L279.8685,242.4475" id="Shape" stroke="#B08AA8" stroke-width="2" fill="#B08AA8"></path>
            <path d="M279.868,242.448 L277.2315,248.4545" id="Shape" stroke="#B08AA8" stroke-width="2" fill="#B08AA8"></path>
            <path d="M277.231,248.455 L272.8485,255.6605" id="Shape" stroke="#B08AA8" stroke-width="2" fill="#B08AA8"></path>
            <path d="M236.31,260.329 L241.3015,260.7555" id="Shape" stroke="#AB5713" stroke-width="2" fill="#AB5713"></path>
            <path d="M241.301,260.755 L254.8885,259.6745" id="Shape" stroke="#AB5713" stroke-width="2" fill="#AB5713"></path>
            <path d="M254.888,259.674 L270.9415,258.0995" id="Shape" stroke="#AB5713" stroke-width="2" fill="#AB5713"></path>
            <path d="M270.941,258.099 L285.9785,257.0485" id="Shape" stroke="#AB5713" stroke-width="2" fill="#AB5713"></path>
            <path d="M285.978,257.048 L290.7625,257.3445" id="Shape" stroke="#AB5713" stroke-width="2" fill="#AB5713"></path>
            <path d="M238.708,274.05 L243.5455,274.1695" id="Shape" stroke="#5B2664" stroke-width="2" fill="#5B2664"></path>
            <path d="M243.545,274.17 L256.7885,273.2235" id="Shape" stroke="#5B2664" stroke-width="2" fill="#5B2664"></path>
            <path d="M256.788,273.224 L270.6305,272.0525" id="Shape" stroke="#5B2664" stroke-width="2" fill="#5B2664"></path>
            <path d="M270.63,272.053 L284.5005,271.3385" id="Shape" stroke="#5B2664" stroke-width="2" fill="#5B2664"></path>
            <path d="M284.5,271.339 L288.9945,271.7805" id="Shape" stroke="#5B2664" stroke-width="2" fill="#5B2664"></path>
            <path d="M266.134,242.312 L267.6345,245.4985" id="Shape" stroke="#2F4B1E" stroke-width="2" fill="#2F4B1E"></path>
            <path d="M267.634,245.499 L267.5745,256.6855" id="Shape" stroke="#2F4B1E" stroke-width="2" fill="#2F4B1E"></path>
            <path d="M267.574,256.686 L267.3435,277.6505" id="Shape" stroke="#2F4B1E" stroke-width="2" fill="#2F4B1E"></path>
        </g>
    </g>
</svg>