<?xml version="1.0" encoding="UTF-8"?>
<svg width="120px" height="120px" viewBox="0 0 120 120" version="1.1" xmlns="http://www.w3.org/2000/svg" xmlns:xlink="http://www.w3.org/1999/xlink" style="background: #FFFFFF;">
    <!-- Generator: Sketch 49.3 (51167) - http://www.bohemiancoding.com/sketch -->
    <title>08</title>
    <desc>Created with Sketch.</desc>
    <defs></defs>
    <g id="Page-1" stroke="none" stroke-width="1" fill="none" fill-rule="evenodd">
        <g id="68747470733a2f2f63646e2e7261776769742e636f6d2f686172646d6172752f736b657463682d726e6e2f6d61737465722f6578616d706c652f6f75747075742e737667" transform="translate(-340.000000, -181.000000)" fill-rule="nonzero">
            <rect id="Rectangle-path" fill="#FFFFFF" x="0" y="0" width="800" height="640"></rect>
            <path d="M370.445,216.27 L374.2535,219.7935" id="Shape" stroke="#2F4B1E" stroke-width="2" fill="#2F4B1E"></path>
            <path d="M374.254,219.794 L377.8785,223.7415" id="Shape" stroke="#2F4B1E" stroke-width="2" fill="#2F4B1E"></path>
            <path d="M361.547,231.848 L364.6005,231.9205" id="Shape" stroke="#D0D499" stroke-width="2" fill="#D0D499"></path>
            <path d="M364.601,231.921 L371.0875,231.0135" id="Shape" stroke="#D0D499" stroke-width="2" fill="#D0D499"></path>
            <path d="M371.088,231.014 L378.0715,229.7385" id="Shape" stroke="#D0D499" stroke-width="2" fill="#D0D499"></path>
            <path d="M378.072,229.739 L383.5055,229.1235" id="Shape" stroke="#D0D499" stroke-width="2" fill="#D0D499"></path>
            <path d="M383.506,229.124 L386.3145,229.3835" id="Shape" stroke="#D0D499" stroke-width="2" fill="#D0D499"></path>
            <path d="M364.504,239.417 L367.4075,239.5095" id="Shape" stroke="#98DC5F" stroke-width="2" fill="#98DC5F"></path>
            <path d="M367.408,239.51 L373.7665,238.7065" id="Shape" stroke="#98DC5F" stroke-width="2" fill="#98DC5F"></path>
            <path d="M373.767,238.707 L379.6145,237.6785" id="Shape" stroke="#98DC5F" stroke-width="2" fill="#98DC5F"></path>
            <path d="M379.615,237.679 L382.5355,237.5575" id="Shape" stroke="#98DC5F" stroke-width="2" fill="#98DC5F"></path>
            <path d="M364.317,248.923 L366.4185,249.1445" id="Shape" stroke="#58AECA" stroke-width="2" fill="#58AECA"></path>
            <path d="M366.419,249.144 L372.9315,248.3245" id="Shape" stroke="#58AECA" stroke-width="2" fill="#58AECA"></path>
            <path d="M372.932,248.325 L380.1165,247.4935" id="Shape" stroke="#58AECA" stroke-width="2" fill="#58AECA"></path>
            <path d="M380.117,247.494 L382.2805,247.6295" id="Shape" stroke="#58AECA" stroke-width="2" fill="#58AECA"></path>
            <path d="M364.153,258.651 L364.8535,259.8435" id="Shape" stroke="#B40C98" stroke-width="2" fill="#B40C98"></path>
            <path d="M364.854,259.844 L365.8525,267.1585" id="Shape" stroke="#B40C98" stroke-width="2" fill="#B40C98"></path>
            <path d="M365.853,267.159 L366.4905,275.1275" id="Shape" stroke="#B40C98" stroke-width="2" fill="#B40C98"></path>
            <path d="M365.248,260.656 L372.5285,259.7505" id="Shape" stroke="#67491A" stroke-width="2" fill="#67491A"></path>
            <path d="M372.529,259.751 L379.9855,258.6115" id="Shape" stroke="#67491A" stroke-width="2" fill="#67491A"></path>
            <path d="M379.986,258.612 L381.5715,259.8225" id="Shape" stroke="#67491A" stroke-width="2" fill="#67491A"></path>
            <path d="M381.572,259.823 L380.7595,265.0005" id="Shape" stroke="#67491A" stroke-width="2" fill="#67491A"></path>
            <path d="M380.76,265.001 L379.5145,272.3945" id="Shape" stroke="#67491A" stroke-width="2" fill="#67491A"></path>
            <path d="M365.893,274.703 L372.0825,274.1275" id="Shape" stroke="#1C249E" stroke-width="2" fill="#1C249E"></path>
            <path d="M372.083,274.128 L379.6025,273.4145" id="Shape" stroke="#1C249E" stroke-width="2" fill="#1C249E"></path>
            <path d="M415.507,204.873 L419.0605,208.8295" id="Shape" stroke="#AD5C2F" stroke-width="2" fill="#AD5C2F"></path>
            <path d="M398.233,214.057 L400.9695,214.5235" id="Shape" stroke="#A313A1" stroke-width="2" fill="#A313A1"></path>
            <path d="M400.969,214.524 L409.9445,213.7375" id="Shape" stroke="#A313A1" stroke-width="2" fill="#A313A1"></path>
            <path d="M409.945,213.738 L422.0265,212.4065" id="Shape" stroke="#A313A1" stroke-width="2" fill="#A313A1"></path>
            <path d="M422.026,212.407 L432.5265,211.4975" id="Shape" stroke="#A313A1" stroke-width="2" fill="#A313A1"></path>
            <path d="M432.526,211.498 L435.5925,211.7945" id="Shape" stroke="#A313A1" stroke-width="2" fill="#A313A1"></path>
            <path d="M402.797,215.451 L407.3585,222.0395" id="Shape" stroke="#372C8D" stroke-width="2" fill="#372C8D"></path>
            <path d="M425.629,213.798 L425.9025,214.7055" id="Shape" stroke="#D9BC67" stroke-width="2" fill="#D9BC67"></path>
            <path d="M425.902,214.706 L422.9285,221.0605" id="Shape" stroke="#D9BC67" stroke-width="2" fill="#D9BC67"></path>
            <path d="M422.928,221.061 L418.9275,226.7375" id="Shape" stroke="#D9BC67" stroke-width="2" fill="#D9BC67"></path>
            <path d="M395.329,227.522 L399.5365,227.7625" id="Shape" stroke="#617971" stroke-width="2" fill="#617971"></path>
            <path d="M399.537,227.763 L410.4185,226.7315" id="Shape" stroke="#617971" stroke-width="2" fill="#617971"></path>
            <path d="M410.419,226.732 L423.5605,225.5555" id="Shape" stroke="#617971" stroke-width="2" fill="#617971"></path>
            <path d="M423.561,225.556 L434.0305,224.9185" id="Shape" stroke="#617971" stroke-width="2" fill="#617971"></path>
            <path d="M434.031,224.919 L438.4535,225.3385" id="Shape" stroke="#617971" stroke-width="2" fill="#617971"></path>
            <path d="M400.276,234.568 L401.2285,237.2395" id="Shape" stroke="#C80FAE" stroke-width="2" fill="#C80FAE"></path>
            <path d="M401.229,237.24 L401.9305,242.8165" id="Shape" stroke="#C80FAE" stroke-width="2" fill="#C80FAE"></path>
            <path d="M401.931,242.817 L402.4495,248.4335" id="Shape" stroke="#C80FAE" stroke-width="2" fill="#C80FAE"></path>
            <path d="M402.45,248.434 L402.9305,254.3075" id="Shape" stroke="#C80FAE" stroke-width="2" fill="#C80FAE"></path>
            <path d="M401.853,236.12 L410.7985,235.0485" id="Shape" stroke="#A8B35D" stroke-width="2" fill="#A8B35D"></path>
            <path d="M410.799,235.049 L422.1325,233.5975" id="Shape" stroke="#A8B35D" stroke-width="2" fill="#A8B35D"></path>
            <path d="M422.133,233.598 L429.6545,232.7255" id="Shape" stroke="#A8B35D" stroke-width="2" fill="#A8B35D"></path>
            <path d="M429.655,232.726 L432.7505,235.9885" id="Shape" stroke="#A8B35D" stroke-width="2" fill="#A8B35D"></path>
            <path d="M432.751,235.989 L432.3665,240.4395" id="Shape" stroke="#A8B35D" stroke-width="2" fill="#A8B35D"></path>
            <path d="M432.367,240.44 L431.1875,248.1705" id="Shape" stroke="#A8B35D" stroke-width="2" fill="#A8B35D"></path>
            <path d="M431.188,248.171 L429.8975,255.8885" id="Shape" stroke="#A8B35D" stroke-width="2" fill="#A8B35D"></path>
            <path d="M401.893,245.005 L408.6425,244.3815" id="Shape" stroke="#40CA87" stroke-width="2" fill="#40CA87"></path>
            <path d="M408.643,244.382 L415.2095,243.8425" id="Shape" stroke="#40CA87" stroke-width="2" fill="#40CA87"></path>
            <path d="M415.21,243.843 L421.0955,243.3545" id="Shape" stroke="#40CA87" stroke-width="2" fill="#40CA87"></path>
            <path d="M421.096,243.355 L424.0885,243.0985" id="Shape" stroke="#40CA87" stroke-width="2" fill="#40CA87"></path>
            <path d="M403.444,253.898 L411.2405,253.3485" id="Shape" stroke="#7E6309" stroke-width="2" fill="#7E6309"></path>
            <path d="M411.241,253.349 L420.2945,252.7435" id="Shape" stroke="#7E6309" stroke-width="2" fill="#7E6309"></path>
            <path d="M420.295,252.744 L428.7725,252.2815" id="Shape" stroke="#7E6309" stroke-width="2" fill="#7E6309"></path>
            <path d="M413.842,233.71 L414.4845,236.2295" id="Shape" stroke="#0E74CA" stroke-width="2" fill="#0E74CA"></path>
            <path d="M414.485,236.23 L414.5225,246.4625" id="Shape" stroke="#0E74CA" stroke-width="2" fill="#0E74CA"></path>
            <path d="M414.523,246.463 L414.4715,258.2705" id="Shape" stroke="#0E74CA" stroke-width="2" fill="#0E74CA"></path>
            <path d="M414.472,258.271 L414.4595,266.1835" id="Shape" stroke="#0E74CA" stroke-width="2" fill="#0E74CA"></path>
            <path d="M392.235,269.649 L395.2305,270.2155" id="Shape" stroke="#2E18C1" stroke-width="2" fill="#2E18C1"></path>
            <path d="M395.231,270.216 L406.3765,269.3415" id="Shape" stroke="#2E18C1" stroke-width="2" fill="#2E18C1"></path>
            <path d="M406.377,269.342 L419.5305,268.1985" id="Shape" stroke="#2E18C1" stroke-width="2" fill="#2E18C1"></path>
            <path d="M419.531,268.199 L430.5285,267.3805" id="Shape" stroke="#2E18C1" stroke-width="2" fill="#2E18C1"></path>
        </g>
    </g>
</svg>