<?xml version="1.0" encoding="UTF-8"?>
<svg width="120px" height="120px" viewBox="0 0 120 120" version="1.1" xmlns="http://www.w3.org/2000/svg" xmlns:xlink="http://www.w3.org/1999/xlink" style="background: #FFFFFF;">
    <!-- Generator: Sketch 49.3 (51167) - http://www.bohemiancoding.com/sketch -->
    <title>10</title>
    <desc>Created with Sketch.</desc>
    <defs></defs>
    <g id="Page-1" stroke="none" stroke-width="1" fill="none" fill-rule="evenodd">
        <g id="68747470733a2f2f63646e2e7261776769742e636f6d2f686172646d6172752f736b657463682d726e6e2f6d61737465722f6578616d706c652f6f75747075742e737667" transform="translate(-665.000000, -181.000000)" fill-rule="nonzero">
            <rect id="Rectangle-path" fill="#FFFFFF" x="0" y="0" width="800" height="640"></rect>
            <path d="M691.167,230.921 L693.8125,235.5165" id="Shape" stroke="#6B5EC3" stroke-width="2" fill="#6B5EC3"></path>
            <path d="M693.813,235.517 L695.3405,243.1935" id="Shape" stroke="#6B5EC3" stroke-width="2" fill="#6B5EC3"></path>
            <path d="M712.572,222.883 L712.4885,224.3835" id="Shape" stroke="#5B7BB6" stroke-width="2" fill="#5B7BB6"></path>
            <path d="M712.489,224.383 L709.1925,230.0855" id="Shape" stroke="#5B7BB6" stroke-width="2" fill="#5B7BB6"></path>
            <path d="M709.192,230.085 L703.9285,236.2965" id="Shape" stroke="#5B7BB6" stroke-width="2" fill="#5B7BB6"></path>
            <path d="M685.928,246.63 L688.8155,247.1655" id="Shape" stroke="#502D98" stroke-width="2" fill="#502D98"></path>
            <path d="M688.816,247.166 L696.0125,246.1265" id="Shape" stroke="#502D98" stroke-width="2" fill="#502D98"></path>
            <path d="M696.013,246.127 L704.2815,244.8715" id="Shape" stroke="#502D98" stroke-width="2" fill="#502D98"></path>
            <path d="M704.282,244.872 L709.8485,243.9585" id="Shape" stroke="#502D98" stroke-width="2" fill="#502D98"></path>
            <path d="M709.849,243.959 L711.9705,244.1935" id="Shape" stroke="#502D98" stroke-width="2" fill="#502D98"></path>
            <path d="M698.423,218.182 L700.0245,220.6095" id="Shape" stroke="#3CA01E" stroke-width="2" fill="#3CA01E"></path>
            <path d="M700.024,220.61 L700.0395,235.3015" id="Shape" stroke="#3CA01E" stroke-width="2" fill="#3CA01E"></path>
            <path d="M700.039,235.302 L699.9975,260.0035" id="Shape" stroke="#3CA01E" stroke-width="2" fill="#3CA01E"></path>
            <path d="M699.997,260.004 L700.0225,276.9605" id="Shape" stroke="#3CA01E" stroke-width="2" fill="#3CA01E"></path>
            <path d="M700.437,242.77 L696.2365,252.1545" id="Shape" stroke="#425F82" stroke-width="2" fill="#425F82"></path>
            <path d="M696.236,252.155 L688.8515,262.3825" id="Shape" stroke="#425F82" stroke-width="2" fill="#425F82"></path>
            <path d="M688.851,262.382 L680.8065,270.5655" id="Shape" stroke="#425F82" stroke-width="2" fill="#425F82"></path>
            <path d="M702.347,250.53 L707.3435,255.0905" id="Shape" stroke="#12595A" stroke-width="2" fill="#12595A"></path>
            <path d="M707.343,255.09 L710.7125,260.4875" id="Shape" stroke="#12595A" stroke-width="2" fill="#12595A"></path>
            <path d="M732.61,203.04 L732.7415,206.6575" id="Shape" stroke="#B20988" stroke-width="2" fill="#B20988"></path>
            <path d="M732.741,206.657 L730.5745,216.1085" id="Shape" stroke="#B20988" stroke-width="2" fill="#B20988"></path>
            <path d="M730.574,216.108 L725.8735,227.3025" id="Shape" stroke="#B20988" stroke-width="2" fill="#B20988"></path>
            <path d="M725.873,227.302 L717.8335,238.2075" id="Shape" stroke="#B20988" stroke-width="2" fill="#B20988"></path>
            <path d="M733.804,205.301 L739.9905,212.9205" id="Shape" stroke="#C670C9" stroke-width="2" fill="#C670C9"></path>
            <path d="M739.99,212.92 L748.8755,222.9875" id="Shape" stroke="#C670C9" stroke-width="2" fill="#C670C9"></path>
            <path d="M748.875,222.987 L755.5055,229.9905" id="Shape" stroke="#C670C9" stroke-width="2" fill="#C670C9"></path>
            <path d="M755.505,229.99 L759.1935,232.5805" id="Shape" stroke="#C670C9" stroke-width="2" fill="#C670C9"></path>
            <path d="M715.603,234.772 L718.9665,235.4025" id="Shape" stroke="#6A0FAE" stroke-width="2" fill="#6A0FAE"></path>
            <path d="M718.966,235.403 L728.4065,234.3875" id="Shape" stroke="#6A0FAE" stroke-width="2" fill="#6A0FAE"></path>
            <path d="M728.407,234.388 L738.5355,233.4045" id="Shape" stroke="#6A0FAE" stroke-width="2" fill="#6A0FAE"></path>
            <path d="M738.536,233.405 L750.3325,233.1485" id="Shape" stroke="#6A0FAE" stroke-width="2" fill="#6A0FAE"></path>
            <path d="M750.333,233.149 L752.4615,233.5855" id="Shape" stroke="#6A0FAE" stroke-width="2" fill="#6A0FAE"></path>
            <path d="M715.612,245.804 L716.3405,247.9655" id="Shape" stroke="#D9B216" stroke-width="2" fill="#D9B216"></path>
            <path d="M716.341,247.966 L717.1565,254.6795" id="Shape" stroke="#D9B216" stroke-width="2" fill="#D9B216"></path>
            <path d="M717.157,254.68 L718.1855,261.9255" id="Shape" stroke="#D9B216" stroke-width="2" fill="#D9B216"></path>
            <path d="M718.186,261.925 L718.9955,269.3185" id="Shape" stroke="#D9B216" stroke-width="2" fill="#D9B216"></path>
            <path d="M716.73,247.406 L728.8725,246.0215" id="Shape" stroke="#9619AF" stroke-width="2" fill="#9619AF"></path>
            <path d="M728.873,246.021 L740.2925,244.9275" id="Shape" stroke="#9619AF" stroke-width="2" fill="#9619AF"></path>
            <path d="M740.293,244.927 L748.3945,244.3395" id="Shape" stroke="#9619AF" stroke-width="2" fill="#9619AF"></path>
            <path d="M748.395,244.339 L751.8075,246.7985" id="Shape" stroke="#9619AF" stroke-width="2" fill="#9619AF"></path>
            <path d="M751.808,246.798 L750.5665,252.2085" id="Shape" stroke="#9619AF" stroke-width="2" fill="#9619AF"></path>
            <path d="M750.567,252.208 L748.8065,259.0725" id="Shape" stroke="#9619AF" stroke-width="2" fill="#9619AF"></path>
            <path d="M748.807,259.072 L747.2685,266.2405" id="Shape" stroke="#9619AF" stroke-width="2" fill="#9619AF"></path>
            <path d="M720.137,267.844 L728.4835,267.2955" id="Shape" stroke="#71056F" stroke-width="2" fill="#71056F"></path>
            <path d="M728.484,267.296 L740.3335,266.5325" id="Shape" stroke="#71056F" stroke-width="2" fill="#71056F"></path>
        </g>
    </g>
</svg>