<?xml version="1.0" encoding="UTF-8"?>
<svg width="120px" height="120px" viewBox="0 0 120 120" version="1.1" xmlns="http://www.w3.org/2000/svg" xmlns:xlink="http://www.w3.org/1999/xlink" style="background: #FFFFFF;">
    <!-- Generator: Sketch 49.3 (51167) - http://www.bohemiancoding.com/sketch -->
    <title>13</title>
    <desc>Created with Sketch.</desc>
    <defs></defs>
    <g id="Page-1" stroke="none" stroke-width="1" fill="none" fill-rule="evenodd">
        <g id="68747470733a2f2f63646e2e7261776769742e636f6d2f686172646d6172752f736b657463682d726e6e2f6d61737465722f6578616d706c652f6f75747075742e737667" transform="translate(-340.000000, -341.000000)" fill-rule="nonzero">
            <rect id="Rectangle-path" fill="#FFFFFF" x="0" y="0" width="800" height="640"></rect>
            <path d="M374.135,389.219 L378.1,387.4225" id="Shape" stroke="#B4C572" stroke-width="2" fill="#B4C572"></path>
            <path d="M378.1,387.423 L383.723,386.1585" id="Shape" stroke="#B4C572" stroke-width="2" fill="#B4C572"></path>
            <path d="M383.723,386.159 L391.32,384.8255" id="Shape" stroke="#B4C572" stroke-width="2" fill="#B4C572"></path>
            <path d="M379.231,367.001 L380.548,371.1725" id="Shape" stroke="#B9111A" stroke-width="2" fill="#B9111A"></path>
            <path d="M380.548,371.172 L380.638,387.8245" id="Shape" stroke="#B9111A" stroke-width="2" fill="#B9111A"></path>
            <path d="M380.638,387.824 L380.806,413.1345" id="Shape" stroke="#B9111A" stroke-width="2" fill="#B9111A"></path>
            <path d="M380.806,413.134 L380.797,430.7105" id="Shape" stroke="#B9111A" stroke-width="2" fill="#B9111A"></path>
            <path d="M380.797,430.71 L374.257,432.4205" id="Shape" stroke="#B9111A" stroke-width="2" fill="#B9111A"></path>
            <path d="M365.776,412.46 L370.643,412.5185" id="Shape" stroke="#B2142A" stroke-width="2" fill="#B2142A"></path>
            <path d="M370.643,412.518 L373.659,410.2845" id="Shape" stroke="#B2142A" stroke-width="2" fill="#B2142A"></path>
            <path d="M373.659,410.284 L379.479,405.6825" id="Shape" stroke="#B2142A" stroke-width="2" fill="#B2142A"></path>
            <path d="M379.479,405.683 L386.053,400.6565" id="Shape" stroke="#B2142A" stroke-width="2" fill="#B2142A"></path>
            <path d="M408.228,361.133 L412.273,367.6255" id="Shape" stroke="#9952A5" stroke-width="2" fill="#9952A5"></path>
            <path d="M394.851,371.731 L398.695,372.0655" id="Shape" stroke="#73444D" stroke-width="2" fill="#73444D"></path>
            <path d="M398.695,372.065 L408.165,370.8995" id="Shape" stroke="#73444D" stroke-width="2" fill="#73444D"></path>
            <path d="M408.165,370.899 L419.713,369.5035" id="Shape" stroke="#73444D" stroke-width="2" fill="#73444D"></path>
            <path d="M419.713,369.503 L430.871,368.6235" id="Shape" stroke="#73444D" stroke-width="2" fill="#73444D"></path>
            <path d="M430.871,368.623 L434.224,368.8675" id="Shape" stroke="#73444D" stroke-width="2" fill="#73444D"></path>
            <path d="M400.441,378.391 L401.195,379.1975" id="Shape" stroke="#504F24" stroke-width="2" fill="#504F24"></path>
            <path d="M401.195,379.198 L402.496,385.8155" id="Shape" stroke="#504F24" stroke-width="2" fill="#504F24"></path>
            <path d="M402.496,385.816 L403.771,393.5815" id="Shape" stroke="#504F24" stroke-width="2" fill="#504F24"></path>
            <path d="M402.019,379.729 L410.302,378.3875" id="Shape" stroke="#C0AEB5" stroke-width="2" fill="#C0AEB5"></path>
            <path d="M410.302,378.388 L418.419,377.2785" id="Shape" stroke="#C0AEB5" stroke-width="2" fill="#C0AEB5"></path>
            <path d="M418.419,377.279 L424.192,376.5725" id="Shape" stroke="#C0AEB5" stroke-width="2" fill="#C0AEB5"></path>
            <path d="M424.192,376.573 L425.987,379.1485" id="Shape" stroke="#C0AEB5" stroke-width="2" fill="#C0AEB5"></path>
            <path d="M425.987,379.149 L424.567,383.8505" id="Shape" stroke="#C0AEB5" stroke-width="2" fill="#C0AEB5"></path>
            <path d="M424.567,383.851 L422.594,389.7335" id="Shape" stroke="#C0AEB5" stroke-width="2" fill="#C0AEB5"></path>
            <path d="M403.976,392.065 L410.089,391.5595" id="Shape" stroke="#8DAAE0" stroke-width="2" fill="#8DAAE0"></path>
            <path d="M410.089,391.56 L417.847,391.0155" id="Shape" stroke="#8DAAE0" stroke-width="2" fill="#8DAAE0"></path>
            <path d="M417.847,391.016 L424.962,390.7055" id="Shape" stroke="#8DAAE0" stroke-width="2" fill="#8DAAE0"></path>
            <path d="M398.626,398.484 L399.942,400.9325" id="Shape" stroke="#2E7D95" stroke-width="2" fill="#2E7D95"></path>
            <path d="M399.942,400.933 L399.961,410.0325" id="Shape" stroke="#2E7D95" stroke-width="2" fill="#2E7D95"></path>
            <path d="M399.961,410.033 L399.906,427.2885" id="Shape" stroke="#2E7D95" stroke-width="2" fill="#2E7D95"></path>
            <path d="M399.906,427.289 L399.836,438.8665" id="Shape" stroke="#2E7D95" stroke-width="2" fill="#2E7D95"></path>
            <path d="M400.584,396.858 L408.309,396.0055" id="Shape" stroke="#020658" stroke-width="2" fill="#020658"></path>
            <path d="M408.309,396.006 L419.207,394.9745" id="Shape" stroke="#020658" stroke-width="2" fill="#020658"></path>
            <path d="M419.207,394.975 L425.199,394.3225" id="Shape" stroke="#020658" stroke-width="2" fill="#020658"></path>
            <path d="M425.199,394.323 L427.773,396.9365" id="Shape" stroke="#020658" stroke-width="2" fill="#020658"></path>
            <path d="M427.773,396.937 L427.498,404.0215" id="Shape" stroke="#020658" stroke-width="2" fill="#020658"></path>
            <path d="M427.498,404.022 L427.387,417.4655" id="Shape" stroke="#020658" stroke-width="2" fill="#020658"></path>
            <path d="M427.387,417.466 L427.417,430.6515" id="Shape" stroke="#020658" stroke-width="2" fill="#020658"></path>
            <path d="M427.417,430.652 L422.049,431.3025" id="Shape" stroke="#020658" stroke-width="2" fill="#020658"></path>
            <path d="M401.302,408.953 L406.397,408.6045" id="Shape" stroke="#9C1DD7" stroke-width="2" fill="#9C1DD7"></path>
            <path d="M406.397,408.605 L412.654,408.0615" id="Shape" stroke="#9C1DD7" stroke-width="2" fill="#9C1DD7"></path>
            <path d="M412.654,408.062 L418.007,407.6435" id="Shape" stroke="#9C1DD7" stroke-width="2" fill="#9C1DD7"></path>
            <path d="M400.942,419.839 L407.085,419.3235" id="Shape" stroke="#392057" stroke-width="2" fill="#392057"></path>
            <path d="M407.085,419.324 L413.198,418.7835" id="Shape" stroke="#392057" stroke-width="2" fill="#392057"></path>
        </g>
    </g>
</svg>