<?xml version="1.0" encoding="UTF-8"?>
<svg width="120px" height="120px" viewBox="0 0 120 120" version="1.1" xmlns="http://www.w3.org/2000/svg" xmlns:xlink="http://www.w3.org/1999/xlink" style="background: #FFFFFF;">
    <!-- Generator: Sketch 49.3 (51167) - http://www.bohemiancoding.com/sketch -->
    <title>16</title>
    <desc>Created with Sketch.</desc>
    <defs></defs>
    <g id="Page-1" stroke="none" stroke-width="1" fill="none" fill-rule="evenodd">
        <g id="68747470733a2f2f63646e2e7261776769742e636f6d2f686172646d6172752f736b657463682d726e6e2f6d61737465722f6578616d706c652f6f75747075742e737667" transform="translate(-20.000000, -501.000000)" fill-rule="nonzero">
            <rect id="Rectangle-path" fill="#FFFFFF" x="0" y="0" width="800" height="640"></rect>
            <path d="M38.386,544.085 L50.405,542.5925" id="Shape" stroke="#C4B47E" stroke-width="2" fill="#C4B47E"></path>
            <path d="M50.405,542.593 L63.101,541.7945" id="Shape" stroke="#C4B47E" stroke-width="2" fill="#C4B47E"></path>
            <path d="M63.101,541.795 L72.915,541.3835" id="Shape" stroke="#C4B47E" stroke-width="2" fill="#C4B47E"></path>
            <path d="M54.193,521.395 L56.838,525.6585" id="Shape" stroke="#D637A4" stroke-width="2" fill="#D637A4"></path>
            <path d="M56.838,525.659 L56.766,537.9925" id="Shape" stroke="#D637A4" stroke-width="2" fill="#D637A4"></path>
            <path d="M56.766,537.993 L56.701,561.9785" id="Shape" stroke="#D637A4" stroke-width="2" fill="#D637A4"></path>
            <path d="M56.701,561.979 L56.675,584.1855" id="Shape" stroke="#D637A4" stroke-width="2" fill="#D637A4"></path>
            <path d="M35.047,589.659 L40.306,590.2775" id="Shape" stroke="#933CC8" stroke-width="2" fill="#933CC8"></path>
            <path d="M40.306,590.278 L49.993,586.2245" id="Shape" stroke="#933CC8" stroke-width="2" fill="#933CC8"></path>
            <path d="M49.993,586.225 L60.84,581.9975" id="Shape" stroke="#933CC8" stroke-width="2" fill="#933CC8"></path>
            <path d="M60.84,581.998 L71.888,577.1215" id="Shape" stroke="#933CC8" stroke-width="2" fill="#933CC8"></path>
            <path d="M82.37,531.053 L88.777,531.9765" id="Shape" stroke="#73AF1A" stroke-width="2" fill="#73AF1A"></path>
            <path d="M88.777,531.977 L96.365,531.1995" id="Shape" stroke="#73AF1A" stroke-width="2" fill="#73AF1A"></path>
            <path d="M96.365,531.2 L106.265,529.9545" id="Shape" stroke="#73AF1A" stroke-width="2" fill="#73AF1A"></path>
            <path d="M106.265,529.955 L116.845,528.6205" id="Shape" stroke="#73AF1A" stroke-width="2" fill="#73AF1A"></path>
            <path d="M116.845,528.621 L123.234,528.5805" id="Shape" stroke="#73AF1A" stroke-width="2" fill="#73AF1A"></path>
            <path d="M83.349,544.595 L84.457,547.0815" id="Shape" stroke="#BB5742" stroke-width="2" fill="#BB5742"></path>
            <path d="M84.457,547.082 L85.461,554.6235" id="Shape" stroke="#BB5742" stroke-width="2" fill="#BB5742"></path>
            <path d="M85.461,554.624 L86.907,565.2085" id="Shape" stroke="#BB5742" stroke-width="2" fill="#BB5742"></path>
            <path d="M86.907,565.209 L87.794,573.5905" id="Shape" stroke="#BB5742" stroke-width="2" fill="#BB5742"></path>
            <path d="M84.285,544.211 L95.366,542.5865" id="Shape" stroke="#83975F" stroke-width="2" fill="#83975F"></path>
            <path d="M95.366,542.587 L108.836,540.6835" id="Shape" stroke="#83975F" stroke-width="2" fill="#83975F"></path>
            <path d="M108.836,540.684 L118.293,539.5525" id="Shape" stroke="#83975F" stroke-width="2" fill="#83975F"></path>
            <path d="M118.293,539.553 L120.821,544.2075" id="Shape" stroke="#83975F" stroke-width="2" fill="#83975F"></path>
            <path d="M120.821,544.208 L119.623,553.0305" id="Shape" stroke="#83975F" stroke-width="2" fill="#83975F"></path>
            <path d="M119.623,553.031 L117.625,564.2605" id="Shape" stroke="#83975F" stroke-width="2" fill="#83975F"></path>
            <path d="M117.625,564.261 L116.245,571.7035" id="Shape" stroke="#83975F" stroke-width="2" fill="#83975F"></path>
            <path d="M86.384,557.303 L94.7,556.1415" id="Shape" stroke="#A786DD" stroke-width="2" fill="#A786DD"></path>
            <path d="M94.7,556.142 L101.724,555.6115" id="Shape" stroke="#A786DD" stroke-width="2" fill="#A786DD"></path>
            <path d="M101.724,555.612 L108.361,554.9305" id="Shape" stroke="#A786DD" stroke-width="2" fill="#A786DD"></path>
            <path d="M108.361,554.931 L112.498,554.4385" id="Shape" stroke="#A786DD" stroke-width="2" fill="#A786DD"></path>
            <path d="M88.354,572.39 L96.94,571.5925" id="Shape" stroke="#DDC9C7" stroke-width="2" fill="#DDC9C7"></path>
            <path d="M96.94,571.593 L107.125,570.7765" id="Shape" stroke="#DDC9C7" stroke-width="2" fill="#DDC9C7"></path>
            <path d="M107.125,570.777 L115.868,570.1565" id="Shape" stroke="#DDC9C7" stroke-width="2" fill="#DDC9C7"></path>
            <path d="M100.106,541.812 L100.819,546.1755" id="Shape" stroke="#31C62E" stroke-width="2" fill="#31C62E"></path>
            <path d="M100.819,546.176 L100.792,560.5225" id="Shape" stroke="#31C62E" stroke-width="2" fill="#31C62E"></path>
            <path d="M100.792,560.523 L100.898,582.2175" id="Shape" stroke="#31C62E" stroke-width="2" fill="#31C62E"></path>
            <path d="M100.898,582.218 L100.81,598.6055" id="Shape" stroke="#31C62E" stroke-width="2" fill="#31C62E"></path>
            <path d="M85.338,578.749 L88.029,579.1995" id="Shape" stroke="#92D5CB" stroke-width="2" fill="#92D5CB"></path>
            <path d="M88.029,579.2 L98.549,577.7165" id="Shape" stroke="#92D5CB" stroke-width="2" fill="#92D5CB"></path>
            <path d="M98.549,577.717 L109.006,576.4235" id="Shape" stroke="#92D5CB" stroke-width="2" fill="#92D5CB"></path>
            <path d="M109.006,576.424 L116.996,575.5825" id="Shape" stroke="#92D5CB" stroke-width="2" fill="#92D5CB"></path>
            <path d="M116.996,575.583 L120.271,575.9705" id="Shape" stroke="#92D5CB" stroke-width="2" fill="#92D5CB"></path>
            <path d="M82.33,590.028 L87.095,590.6105" id="Shape" stroke="#93BD89" stroke-width="2" fill="#93BD89"></path>
            <path d="M87.095,590.611 L97.86,589.0485" id="Shape" stroke="#93BD89" stroke-width="2" fill="#93BD89"></path>
            <path d="M97.86,589.049 L110.513,587.1495" id="Shape" stroke="#93BD89" stroke-width="2" fill="#93BD89"></path>
            <path d="M110.513,587.15 L124.953,585.9785" id="Shape" stroke="#93BD89" stroke-width="2" fill="#93BD89"></path>
        </g>
    </g>
</svg>