<?xml version="1.0" encoding="UTF-8"?>
<svg width="120px" height="120px" viewBox="0 0 120 120" version="1.1" xmlns="http://www.w3.org/2000/svg" xmlns:xlink="http://www.w3.org/1999/xlink" style="background: #FFFFFF;">
    <!-- Generator: Sketch 49.3 (51167) - http://www.bohemiancoding.com/sketch -->
    <title>19</title>
    <desc>Created with Sketch.</desc>
    <defs></defs>
    <g id="Page-1" stroke="none" stroke-width="1" fill="none" fill-rule="evenodd">
        <g id="68747470733a2f2f63646e2e7261776769742e636f6d2f686172646d6172752f736b657463682d726e6e2f6d61737465722f6578616d706c652f6f75747075742e737667" transform="translate(-495.000000, -501.000000)" fill-rule="nonzero">
            <rect id="Rectangle-path" fill="#FFFFFF" x="0" y="0" width="800" height="640"></rect>
            <path d="M521.399,532.475 L518.9585,535.2155" id="Shape" stroke="#CE033E" stroke-width="2" fill="#CE033E"></path>
            <path d="M518.958,535.216 L513.4355,538.2945" id="Shape" stroke="#CE033E" stroke-width="2" fill="#CE033E"></path>
            <path d="M508.913,540.173 L509.7105,542.3125" id="Shape" stroke="#B1BF1F" stroke-width="2" fill="#B1BF1F"></path>
            <path d="M509.71,542.313 L509.7715,548.4495" id="Shape" stroke="#B1BF1F" stroke-width="2" fill="#B1BF1F"></path>
            <path d="M509.771,548.449 L509.6965,559.3955" id="Shape" stroke="#B1BF1F" stroke-width="2" fill="#B1BF1F"></path>
            <path d="M509.696,559.395 L509.6835,566.3155" id="Shape" stroke="#B1BF1F" stroke-width="2" fill="#B1BF1F"></path>
            <path d="M510.514,542.948 L518.5475,541.5025" id="Shape" stroke="#3C3567" stroke-width="2" fill="#3C3567"></path>
            <path d="M518.548,541.502 L526.5865,540.0755" id="Shape" stroke="#3C3567" stroke-width="2" fill="#3C3567"></path>
            <path d="M513.274,547.718 L519.1265,546.9185" id="Shape" stroke="#D78B04" stroke-width="2" fill="#D78B04"></path>
            <path d="M519.126,546.918 L527.0175,546.2155" id="Shape" stroke="#D78B04" stroke-width="2" fill="#D78B04"></path>
            <path d="M544.898,528.108 L550.8555,527.2695" id="Shape" stroke="#883B24" stroke-width="2" fill="#883B24"></path>
            <path d="M550.855,527.27 L558.4315,525.9555" id="Shape" stroke="#883B24" stroke-width="2" fill="#883B24"></path>
            <path d="M558.431,525.956 L562.6615,525.5445" id="Shape" stroke="#883B24" stroke-width="2" fill="#883B24"></path>
            <path d="M551.034,506.375 L550.7735,510.1145" id="Shape" stroke="#CA3892" stroke-width="2" fill="#CA3892"></path>
            <path d="M550.774,510.115 L545.7625,530.0005" id="Shape" stroke="#CA3892" stroke-width="2" fill="#CA3892"></path>
            <path d="M545.763,530.001 L538.6385,545.7185" id="Shape" stroke="#CA3892" stroke-width="2" fill="#CA3892"></path>
            <path d="M538.639,545.719 L526.5055,559.1295" id="Shape" stroke="#CA3892" stroke-width="2" fill="#CA3892"></path>
            <path d="M549.882,537.077 L555.5785,542.1065" id="Shape" stroke="#386AAF" stroke-width="2" fill="#386AAF"></path>
            <path d="M555.578,542.107 L561.2325,548.1065" id="Shape" stroke="#386AAF" stroke-width="2" fill="#386AAF"></path>
            <path d="M532.611,559.694 L537.1455,559.9395" id="Shape" stroke="#78A2A4" stroke-width="2" fill="#78A2A4"></path>
            <path d="M537.145,559.94 L543.3955,559.0075" id="Shape" stroke="#78A2A4" stroke-width="2" fill="#78A2A4"></path>
            <path d="M543.395,559.008 L549.7155,557.8825" id="Shape" stroke="#78A2A4" stroke-width="2" fill="#78A2A4"></path>
            <path d="M549.716,557.883 L556.2305,557.3165" id="Shape" stroke="#78A2A4" stroke-width="2" fill="#78A2A4"></path>
            <path d="M556.231,557.317 L561.2435,557.3615" id="Shape" stroke="#78A2A4" stroke-width="2" fill="#78A2A4"></path>
            <path d="M534.66,567.063 L538.9115,571.7935" id="Shape" stroke="#248B61" stroke-width="2" fill="#248B61"></path>
            <path d="M538.912,571.793 L541.0825,576.4415" id="Shape" stroke="#248B61" stroke-width="2" fill="#248B61"></path>
            <path d="M560.976,559.149 L561.0735,560.2395" id="Shape" stroke="#5136A8" stroke-width="2" fill="#5136A8"></path>
            <path d="M561.074,560.24 L559.2935,567.2275" id="Shape" stroke="#5136A8" stroke-width="2" fill="#5136A8"></path>
            <path d="M559.294,567.228 L555.5375,575.9065" id="Shape" stroke="#5136A8" stroke-width="2" fill="#5136A8"></path>
            <path d="M531.033,583.004 L534.6975,583.3995" id="Shape" stroke="#419621" stroke-width="2" fill="#419621"></path>
            <path d="M534.698,583.399 L544.2515,581.6835" id="Shape" stroke="#419621" stroke-width="2" fill="#419621"></path>
            <path d="M544.252,581.683 L553.3935,579.8685" id="Shape" stroke="#419621" stroke-width="2" fill="#419621"></path>
            <path d="M553.394,579.868 L563.0355,578.9255" id="Shape" stroke="#419621" stroke-width="2" fill="#419621"></path>
            <path d="M563.036,578.925 L565.6715,579.0895" id="Shape" stroke="#419621" stroke-width="2" fill="#419621"></path>
            <path d="M525.939,606.905 L530.0045,607.2885" id="Shape" stroke="#814A43" stroke-width="2" fill="#814A43"></path>
            <path d="M530.005,607.288 L538.2935,603.1435" id="Shape" stroke="#814A43" stroke-width="2" fill="#814A43"></path>
            <path d="M538.294,603.144 L548.7815,597.8705" id="Shape" stroke="#814A43" stroke-width="2" fill="#814A43"></path>
            <path d="M548.782,597.87 L560.8185,592.2595" id="Shape" stroke="#814A43" stroke-width="2" fill="#814A43"></path>
            <path d="M561.452,555.934 L568.3595,556.3465" id="Shape" stroke="#AB789F" stroke-width="2" fill="#AB789F"></path>
            <path d="M568.36,556.346 L576.2045,555.0835" id="Shape" stroke="#AB789F" stroke-width="2" fill="#AB789F"></path>
            <path d="M576.205,555.083 L582.0305,554.1375" id="Shape" stroke="#AB789F" stroke-width="2" fill="#AB789F"></path>
            <path d="M582.031,554.137 L586.3485,558.2805" id="Shape" stroke="#AB789F" stroke-width="2" fill="#AB789F"></path>
            <path d="M586.349,558.28 L585.5725,574.4145" id="Shape" stroke="#AB789F" stroke-width="2" fill="#AB789F"></path>
            <path d="M585.573,574.414 L584.8095,596.6305" id="Shape" stroke="#AB789F" stroke-width="2" fill="#AB789F"></path>
            <path d="M584.81,596.63 L584.5155,612.1145" id="Shape" stroke="#AB789F" stroke-width="2" fill="#AB789F"></path>
            <path d="M584.516,612.115 L579.4465,613.6255" id="Shape" stroke="#AB789F" stroke-width="2" fill="#AB789F"></path>
            <path d="M573.324,562.209 L573.4695,566.1115" id="Shape" stroke="#768AB4" stroke-width="2" fill="#768AB4"></path>
            <path d="M573.47,566.111 L571.7565,575.2735" id="Shape" stroke="#768AB4" stroke-width="2" fill="#768AB4"></path>
            <path d="M571.757,575.274 L568.6145,586.3505" id="Shape" stroke="#768AB4" stroke-width="2" fill="#768AB4"></path>
            <path d="M568.615,586.351 L565.4295,595.9085" id="Shape" stroke="#768AB4" stroke-width="2" fill="#768AB4"></path>
            <path d="M581.135,565.514 L581.7395,568.6725" id="Shape" stroke="#0FCD7B" stroke-width="2" fill="#0FCD7B"></path>
            <path d="M581.74,568.673 L582.3845,575.6845" id="Shape" stroke="#0FCD7B" stroke-width="2" fill="#0FCD7B"></path>
            <path d="M582.385,575.684 L582.9645,586.1455" id="Shape" stroke="#0FCD7B" stroke-width="2" fill="#0FCD7B"></path>
            <path d="M582.965,586.145 L583.6665,598.0605" id="Shape" stroke="#0FCD7B" stroke-width="2" fill="#0FCD7B"></path>
            <path d="M593.199,555.366 L596.2735,555.9085" id="Shape" stroke="#5D3B9D" stroke-width="2" fill="#5D3B9D"></path>
            <path d="M596.274,555.909 L602.7595,554.8145" id="Shape" stroke="#5D3B9D" stroke-width="2" fill="#5D3B9D"></path>
            <path d="M602.76,554.814 L608.7145,553.5715" id="Shape" stroke="#5D3B9D" stroke-width="2" fill="#5D3B9D"></path>
            <path d="M608.715,553.571 L611.0865,556.3235" id="Shape" stroke="#5D3B9D" stroke-width="2" fill="#5D3B9D"></path>
            <path d="M611.087,556.323 L607.0835,562.3935" id="Shape" stroke="#5D3B9D" stroke-width="2" fill="#5D3B9D"></path>
            <path d="M607.084,562.393 L604.3645,568.3795" id="Shape" stroke="#5D3B9D" stroke-width="2" fill="#5D3B9D"></path>
            <path d="M601.133,569.084 L607.5635,578.1055" id="Shape" stroke="#5BAA1F" stroke-width="2" fill="#5BAA1F"></path>
            <path d="M607.564,578.105 L606.2515,588.0385" id="Shape" stroke="#5BAA1F" stroke-width="2" fill="#5BAA1F"></path>
            <path d="M606.252,588.038 L598.5665,592.2115" id="Shape" stroke="#5BAA1F" stroke-width="2" fill="#5BAA1F"></path>
            <path d="M594.365,552.867 L595.2365,556.2015" id="Shape" stroke="#408692" stroke-width="2" fill="#408692"></path>
            <path d="M595.237,556.201 L595.3725,566.7035" id="Shape" stroke="#408692" stroke-width="2" fill="#408692"></path>
            <path d="M595.373,566.703 L595.3975,587.9215" id="Shape" stroke="#408692" stroke-width="2" fill="#408692"></path>
            <path d="M595.398,587.921 L595.3735,611.3905" id="Shape" stroke="#408692" stroke-width="2" fill="#408692"></path>
        </g>
    </g>
</svg>