<?xml version="1.0" encoding="UTF-8"?>
<svg width="120px" height="120px" viewBox="0 0 120 120" version="1.1" xmlns="http://www.w3.org/2000/svg" xmlns:xlink="http://www.w3.org/1999/xlink" style="background: #FFFFFF;">
    <!-- Generator: Sketch 49.3 (51167) - http://www.bohemiancoding.com/sketch -->
    <title>20</title>
    <desc>Created with Sketch.</desc>
    <defs></defs>
    <g id="Page-1" stroke="none" stroke-width="1" fill="none" fill-rule="evenodd">
        <g id="68747470733a2f2f63646e2e7261776769742e636f6d2f686172646d6172752f736b657463682d726e6e2f6d61737465722f6578616d706c652f6f75747075742e737667" transform="translate(-665.000000, -501.000000)" fill-rule="nonzero">
            <rect id="Rectangle-path" fill="#FFFFFF" x="0" y="0" width="800" height="640"></rect>
            <path d="M702.513,516.696 L701.201,516.0955" id="Shape" stroke="#408692" stroke-width="2" fill="#408692"></path>
            <path d="M701.201,516.096 L697.138,515.4255" id="Shape" stroke="#408692" stroke-width="2" fill="#408692"></path>
            <path d="M697.138,515.426 L689.006,517.1375" id="Shape" stroke="#408692" stroke-width="2" fill="#408692"></path>
            <path d="M680.597,528.577 L682.046,528.7235" id="Shape" stroke="#C19D39" stroke-width="2" fill="#C19D39"></path>
            <path d="M682.046,528.724 L688.932,528.0655" id="Shape" stroke="#C19D39" stroke-width="2" fill="#C19D39"></path>
            <path d="M688.932,528.066 L698.856,527.1605" id="Shape" stroke="#C19D39" stroke-width="2" fill="#C19D39"></path>
            <path d="M698.856,527.161 L707.734,526.4015" id="Shape" stroke="#C19D39" stroke-width="2" fill="#C19D39"></path>
            <path d="M707.734,526.402 L708.844,526.7705" id="Shape" stroke="#C19D39" stroke-width="2" fill="#C19D39"></path>
            <path d="M692.506,523.857 L692.811,525.7155" id="Shape" stroke="#C95B7E" stroke-width="2" fill="#C95B7E"></path>
            <path d="M692.811,525.716 L692.795,531.6075" id="Shape" stroke="#C95B7E" stroke-width="2" fill="#C95B7E"></path>
            <path d="M692.795,531.608 L692.726,536.6855" id="Shape" stroke="#C95B7E" stroke-width="2" fill="#C95B7E"></path>
            <path d="M692.726,536.686 L690.541,538.0445" id="Shape" stroke="#C95B7E" stroke-width="2" fill="#C95B7E"></path>
            <path d="M689.892,529.09 L686.833,534.4205" id="Shape" stroke="#372900" stroke-width="2" fill="#372900"></path>
            <path d="M686.833,534.421 L681.154,540.5725" id="Shape" stroke="#372900" stroke-width="2" fill="#372900"></path>
            <path d="M692.878,528.234 L694.892,531.6505" id="Shape" stroke="#A3137D" stroke-width="2" fill="#A3137D"></path>
            <path d="M694.892,531.651 L700.714,538.1425" id="Shape" stroke="#A3137D" stroke-width="2" fill="#A3137D"></path>
            <path d="M678.534,546.14 L684.067,546.1175" id="Shape" stroke="#732C04" stroke-width="2" fill="#732C04"></path>
            <path d="M684.067,546.118 L693.013,545.1445" id="Shape" stroke="#732C04" stroke-width="2" fill="#732C04"></path>
            <path d="M693.013,545.145 L701.406,543.9585" id="Shape" stroke="#732C04" stroke-width="2" fill="#732C04"></path>
            <path d="M701.406,543.959 L708.855,542.9845" id="Shape" stroke="#732C04" stroke-width="2" fill="#732C04"></path>
            <path d="M708.855,542.985 L713.372,543.0185" id="Shape" stroke="#732C04" stroke-width="2" fill="#732C04"></path>
            <path d="M688.836,550.472 L689.104,551.5695" id="Shape" stroke="#448DA0" stroke-width="2" fill="#448DA0"></path>
            <path d="M689.104,551.569 L685.579,556.8515" id="Shape" stroke="#448DA0" stroke-width="2" fill="#448DA0"></path>
            <path d="M685.579,556.851 L677.839,563.6115" id="Shape" stroke="#448DA0" stroke-width="2" fill="#448DA0"></path>
            <path d="M707.107,548.097 L711.126,551.4845" id="Shape" stroke="#22AE73" stroke-width="2" fill="#22AE73"></path>
            <path d="M711.126,551.484 L714.482,555.2705" id="Shape" stroke="#22AE73" stroke-width="2" fill="#22AE73"></path>
            <path d="M734.571,525.783 L735.082,528.5175" id="Shape" stroke="#DEB1B2" stroke-width="2" fill="#DEB1B2"></path>
            <path d="M735.082,528.517 L733.655,533.0865" id="Shape" stroke="#DEB1B2" stroke-width="2" fill="#DEB1B2"></path>
            <path d="M733.655,533.086 L731.6,537.7405" id="Shape" stroke="#DEB1B2" stroke-width="2" fill="#DEB1B2"></path>
            <path d="M731.6,537.74 L727.348,542.9575" id="Shape" stroke="#DEB1B2" stroke-width="2" fill="#DEB1B2"></path>
            <path d="M718.438,545.267 L718.325,547.7825" id="Shape" stroke="#CDD191" stroke-width="2" fill="#CDD191"></path>
            <path d="M718.325,547.782 L715.541,554.7685" id="Shape" stroke="#CDD191" stroke-width="2" fill="#CDD191"></path>
            <path d="M715.541,554.768 L710.776,562.2445" id="Shape" stroke="#CDD191" stroke-width="2" fill="#CDD191"></path>
            <path d="M710.776,562.244 L703.779,570.6445" id="Shape" stroke="#CDD191" stroke-width="2" fill="#CDD191"></path>
            <path d="M716.238,555.415 L717.169,558.4565" id="Shape" stroke="#1A90A2" stroke-width="2" fill="#1A90A2"></path>
            <path d="M717.169,558.456 L717.236,569.8735" id="Shape" stroke="#1A90A2" stroke-width="2" fill="#1A90A2"></path>
            <path d="M717.236,569.873 L717.106,581.3875" id="Shape" stroke="#1A90A2" stroke-width="2" fill="#1A90A2"></path>
            <path d="M717.106,581.387 L717.062,589.0465" id="Shape" stroke="#1A90A2" stroke-width="2" fill="#1A90A2"></path>
            <path d="M717.062,589.046 L717.05,592.9775" id="Shape" stroke="#1A90A2" stroke-width="2" fill="#1A90A2"></path>
            <path d="M743.792,542.039 L743.188,545.1815" id="Shape" stroke="#658256" stroke-width="2" fill="#658256"></path>
            <path d="M743.188,545.181 L739.641,551.1575" id="Shape" stroke="#658256" stroke-width="2" fill="#658256"></path>
            <path d="M739.641,551.157 L733.697,558.6425" id="Shape" stroke="#658256" stroke-width="2" fill="#658256"></path>
            <path d="M719.431,559.403 L724.604,559.3415" id="Shape" stroke="#34D03F" stroke-width="2" fill="#34D03F"></path>
            <path d="M724.604,559.341 L732.006,558.9335" id="Shape" stroke="#34D03F" stroke-width="2" fill="#34D03F"></path>
            <path d="M732.006,558.933 L741.484,558.1055" id="Shape" stroke="#34D03F" stroke-width="2" fill="#34D03F"></path>
            <path d="M741.484,558.105 L749.645,557.3305" id="Shape" stroke="#34D03F" stroke-width="2" fill="#34D03F"></path>
            <path d="M749.645,557.33 L753.309,557.4515" id="Shape" stroke="#34D03F" stroke-width="2" fill="#34D03F"></path>
            <path d="M734.586,557.836 L735.796,560.4115" id="Shape" stroke="#C29EDB" stroke-width="2" fill="#C29EDB"></path>
            <path d="M735.796,560.411 L735.814,566.7705" id="Shape" stroke="#C29EDB" stroke-width="2" fill="#C29EDB"></path>
            <path d="M721.693,569.26 L728.527,568.7495" id="Shape" stroke="#7246E0" stroke-width="2" fill="#7246E0"></path>
            <path d="M728.527,568.75 L737.344,567.8345" id="Shape" stroke="#7246E0" stroke-width="2" fill="#7246E0"></path>
            <path d="M737.344,567.835 L744.666,567.0925" id="Shape" stroke="#7246E0" stroke-width="2" fill="#7246E0"></path>
            <path d="M744.666,567.093 L749.912,566.5575" id="Shape" stroke="#7246E0" stroke-width="2" fill="#7246E0"></path>
            <path d="M749.912,566.558 L753.061,566.4875" id="Shape" stroke="#7246E0" stroke-width="2" fill="#7246E0"></path>
            <path d="M721.886,576.134 L726.137,576.6335" id="Shape" stroke="#0E6DA5" stroke-width="2" fill="#0E6DA5"></path>
            <path d="M726.137,576.634 L734.284,575.9475" id="Shape" stroke="#0E6DA5" stroke-width="2" fill="#0E6DA5"></path>
            <path d="M734.284,575.947 L743.852,574.9195" id="Shape" stroke="#0E6DA5" stroke-width="2" fill="#0E6DA5"></path>
            <path d="M743.852,574.919 L750.539,574.1025" id="Shape" stroke="#0E6DA5" stroke-width="2" fill="#0E6DA5"></path>
            <path d="M712.492,588.198 L718.495,588.7505" id="Shape" stroke="#03376B" stroke-width="2" fill="#03376B"></path>
            <path d="M718.495,588.75 L731.106,587.2395" id="Shape" stroke="#03376B" stroke-width="2" fill="#03376B"></path>
            <path d="M731.106,587.24 L743.405,585.6625" id="Shape" stroke="#03376B" stroke-width="2" fill="#03376B"></path>
            <path d="M743.405,585.663 L755.957,584.4095" id="Shape" stroke="#03376B" stroke-width="2" fill="#03376B"></path>
            <path d="M755.957,584.409 L762.161,584.6865" id="Shape" stroke="#03376B" stroke-width="2" fill="#03376B"></path>
            <path d="M735.304,565.605 L736.686,568.1755" id="Shape" stroke="#BB96BA" stroke-width="2" fill="#BB96BA"></path>
            <path d="M736.686,568.176 L736.706,574.5525" id="Shape" stroke="#BB96BA" stroke-width="2" fill="#BB96BA"></path>
            <path d="M736.706,574.553 L736.67,586.7595" id="Shape" stroke="#BB96BA" stroke-width="2" fill="#BB96BA"></path>
            <path d="M712.607,590.188 L710.153,598.0925" id="Shape" stroke="#048ECE" stroke-width="2" fill="#048ECE"></path>
            <path d="M710.153,598.092 L704.992,604.5745" id="Shape" stroke="#048ECE" stroke-width="2" fill="#048ECE"></path>
            <path d="M719.228,592.217 L723.759,598.8615" id="Shape" stroke="#510DB0" stroke-width="2" fill="#510DB0"></path>
            <path d="M723.759,598.861 L729.656,603.9595" id="Shape" stroke="#510DB0" stroke-width="2" fill="#510DB0"></path>
            <path d="M738.11,592.283 L743.301,597.5725" id="Shape" stroke="#2AB844" stroke-width="2" fill="#2AB844"></path>
            <path d="M743.301,597.572 L746.63,603.3515" id="Shape" stroke="#2AB844" stroke-width="2" fill="#2AB844"></path>
            <path d="M757.979,589.322 L761.627,592.4355" id="Shape" stroke="#4A8866" stroke-width="2" fill="#4A8866"></path>
        </g>
    </g>
</svg>