<?xml version="1.0" encoding="UTF-8"?>
<svg width="120px" height="120px" viewBox="0 0 120 120" version="1.1" xmlns="http://www.w3.org/2000/svg" xmlns:xlink="http://www.w3.org/1999/xlink" style="background: #FFFFFF;">
    <!-- Generator: Sketch 49.3 (51167) - http://www.bohemiancoding.com/sketch -->
    <title>05</title>
    <desc>Created with Sketch.</desc>
    <defs></defs>
    <g id="Page-1" stroke="none" stroke-width="1" fill="none" fill-rule="evenodd">
        <g id="68747470733a2f2f63646e2e7261776769742e636f6d2f686172646d6172752f736b657463682d726e6e2f6d61737465722f6578616d706c652f747261696e696e672e737667" transform="translate(-667.000000, -20.000000)" fill-rule="nonzero">
            <rect id="Rectangle-path" fill="#FFFFFF" x="0" y="0" width="800" height="640"></rect>
            <path d="M695.246,45.26 L695.106,47.6105" id="Shape" stroke="#824C96" stroke-width="2" fill="#824C96"></path>
            <path d="M695.106,47.61 L691.985,54.9535" id="Shape" stroke="#824C96" stroke-width="2" fill="#824C96"></path>
            <path d="M691.985,54.953 L685.446,65.3145" id="Shape" stroke="#824C96" stroke-width="2" fill="#824C96"></path>
            <path d="M685.446,65.314 L676.725,75.8905" id="Shape" stroke="#824C96" stroke-width="2" fill="#824C96"></path>
            <path d="M696.865,52.02 L702.63,56.0975" id="Shape" stroke="#3725A1" stroke-width="2" fill="#3725A1"></path>
            <path d="M702.63,56.097 L706.985,62.0205" id="Shape" stroke="#3725A1" stroke-width="2" fill="#3725A1"></path>
            <path d="M684.995,71.52 L688.755,71.4705" id="Shape" stroke="#056B1B" stroke-width="2" fill="#056B1B"></path>
            <path d="M688.755,71.471 L694.405,70.5955" id="Shape" stroke="#056B1B" stroke-width="2" fill="#056B1B"></path>
            <path d="M694.405,70.596 L700.625,69.4205" id="Shape" stroke="#056B1B" stroke-width="2" fill="#056B1B"></path>
            <path d="M700.625,69.421 L704.245,69.2605" id="Shape" stroke="#056B1B" stroke-width="2" fill="#056B1B"></path>
            <path d="M678.835,86.081 L685.105,86.4305" id="Shape" stroke="#D38F9F" stroke-width="2" fill="#D38F9F"></path>
            <path d="M685.105,86.43 L693.529,85.0955" id="Shape" stroke="#D38F9F" stroke-width="2" fill="#D38F9F"></path>
            <path d="M693.529,85.096 L702.275,83.3405" id="Shape" stroke="#D38F9F" stroke-width="2" fill="#D38F9F"></path>
            <path d="M702.275,83.341 L705.765,83.2405" id="Shape" stroke="#D38F9F" stroke-width="2" fill="#D38F9F"></path>
            <path d="M692.945,74.211 L694.185,77.8505" id="Shape" stroke="#52165A" stroke-width="2" fill="#52165A"></path>
            <path d="M694.185,77.851 L694.201,85.4035" id="Shape" stroke="#52165A" stroke-width="2" fill="#52165A"></path>
            <path d="M694.201,85.404 L694.23,97.3845" id="Shape" stroke="#52165A" stroke-width="2" fill="#52165A"></path>
            <path d="M694.23,97.385 L694.246,110.8305" id="Shape" stroke="#52165A" stroke-width="2" fill="#52165A"></path>
            <path d="M680.386,97.031 L683.868,102.5815" id="Shape" stroke="#6FC5BC" stroke-width="2" fill="#6FC5BC"></path>
            <path d="M683.868,102.582 L685.536,106.9705" id="Shape" stroke="#6FC5BC" stroke-width="2" fill="#6FC5BC"></path>
            <path d="M706.036,90.571 L706.046,92.9205" id="Shape" stroke="#9136C9" stroke-width="2" fill="#9136C9"></path>
            <path d="M706.046,92.921 L703.943,96.8285" id="Shape" stroke="#9136C9" stroke-width="2" fill="#9136C9"></path>
            <path d="M703.943,96.829 L700.415,101.8005" id="Shape" stroke="#9136C9" stroke-width="2" fill="#9136C9"></path>
            <path d="M679.245,117.77 L682.745,118.0205" id="Shape" stroke="#4F98A0" stroke-width="2" fill="#4F98A0"></path>
            <path d="M682.745,118.02 L691.217,113.5575" id="Shape" stroke="#4F98A0" stroke-width="2" fill="#4F98A0"></path>
            <path d="M691.217,113.558 L697.523,110.1505" id="Shape" stroke="#4F98A0" stroke-width="2" fill="#4F98A0"></path>
            <path d="M697.523,110.151 L705.995,105.5205" id="Shape" stroke="#4F98A0" stroke-width="2" fill="#4F98A0"></path>
            <path d="M744.025,41.521 L742.265,44.0605" id="Shape" stroke="#B5A691" stroke-width="2" fill="#B5A691"></path>
            <path d="M742.265,44.061 L736.435,47.3595" id="Shape" stroke="#B5A691" stroke-width="2" fill="#B5A691"></path>
            <path d="M736.435,47.36 L729.489,50.2955" id="Shape" stroke="#B5A691" stroke-width="2" fill="#B5A691"></path>
            <path d="M729.489,50.296 L719.545,53.5605" id="Shape" stroke="#B5A691" stroke-width="2" fill="#B5A691"></path>
            <path d="M713.675,63.671 L720.265,63.8405" id="Shape" stroke="#CE8FB2" stroke-width="2" fill="#CE8FB2"></path>
            <path d="M720.265,63.841 L729.809,62.7685" id="Shape" stroke="#CE8FB2" stroke-width="2" fill="#CE8FB2"></path>
            <path d="M729.809,62.769 L740.722,61.4925" id="Shape" stroke="#CE8FB2" stroke-width="2" fill="#CE8FB2"></path>
            <path d="M740.722,61.493 L750.006,60.5205" id="Shape" stroke="#CE8FB2" stroke-width="2" fill="#CE8FB2"></path>
            <path d="M750.006,60.521 L756.446,60.7605" id="Shape" stroke="#CE8FB2" stroke-width="2" fill="#CE8FB2"></path>
            <path d="M710.986,83.291 L718.636,83.3305" id="Shape" stroke="#059F0E" stroke-width="2" fill="#059F0E"></path>
            <path d="M718.636,83.331 L730.835,81.8475" id="Shape" stroke="#059F0E" stroke-width="2" fill="#059F0E"></path>
            <path d="M730.835,81.848 L744.183,80.5165" id="Shape" stroke="#059F0E" stroke-width="2" fill="#059F0E"></path>
            <path d="M744.183,80.517 L755.876,79.5405" id="Shape" stroke="#059F0E" stroke-width="2" fill="#059F0E"></path>
            <path d="M755.876,79.541 L762.836,79.8005" id="Shape" stroke="#059F0E" stroke-width="2" fill="#059F0E"></path>
            <path d="M717.916,71.771 L719.486,75.1105" id="Shape" stroke="#4A3319" stroke-width="2" fill="#4A3319"></path>
            <path d="M719.486,75.111 L720.133,86.1255" id="Shape" stroke="#4A3319" stroke-width="2" fill="#4A3319"></path>
            <path d="M720.133,86.126 L720.855,94.7705" id="Shape" stroke="#4A3319" stroke-width="2" fill="#4A3319"></path>
            <path d="M751.565,68.021 L752.045,71.7005" id="Shape" stroke="#78765F" stroke-width="2" fill="#78765F"></path>
            <path d="M752.045,71.701 L750.808,79.8575" id="Shape" stroke="#78765F" stroke-width="2" fill="#78765F"></path>
            <path d="M750.808,79.858 L749.849,85.9205" id="Shape" stroke="#78765F" stroke-width="2" fill="#78765F"></path>
            <path d="M749.849,85.921 L748.825,91.7705" id="Shape" stroke="#78765F" stroke-width="2" fill="#78765F"></path>
            <path d="M713.965,101.671 L720.635,101.8405" id="Shape" stroke="#C2BC32" stroke-width="2" fill="#C2BC32"></path>
            <path d="M720.635,101.841 L730.183,100.8695" id="Shape" stroke="#C2BC32" stroke-width="2" fill="#C2BC32"></path>
            <path d="M730.183,100.87 L741.044,99.7555" id="Shape" stroke="#C2BC32" stroke-width="2" fill="#C2BC32"></path>
            <path d="M741.044,99.756 L750.125,98.9505" id="Shape" stroke="#C2BC32" stroke-width="2" fill="#C2BC32"></path>
            <path d="M750.125,98.951 L755.955,99.2605" id="Shape" stroke="#C2BC32" stroke-width="2" fill="#C2BC32"></path>
            <path d="M732.585,52.771 L733.765,56.0205" id="Shape" stroke="#686742" stroke-width="2" fill="#686742"></path>
            <path d="M733.765,56.021 L733.76,72.1045" id="Shape" stroke="#686742" stroke-width="2" fill="#686742"></path>
            <path d="M733.76,72.105 L733.75,97.4685" id="Shape" stroke="#686742" stroke-width="2" fill="#686742"></path>
            <path d="M733.75,97.469 L733.745,116.1395" id="Shape" stroke="#686742" stroke-width="2" fill="#686742"></path>
            <path d="M709.265,117.919 L716.245,118.4795" id="Shape" stroke="#D66119" stroke-width="2" fill="#D66119"></path>
            <path d="M716.245,118.48 L728.541,117.3655" id="Shape" stroke="#D66119" stroke-width="2" fill="#D66119"></path>
            <path d="M728.541,117.365 L743.582,116.1565" id="Shape" stroke="#D66119" stroke-width="2" fill="#D66119"></path>
            <path d="M743.582,116.156 L755.625,115.8295" id="Shape" stroke="#D66119" stroke-width="2" fill="#D66119"></path>
            <path d="M755.625,115.829 L763.275,116.7595" id="Shape" stroke="#D66119" stroke-width="2" fill="#D66119"></path>
        </g>
    </g>
</svg>