<?xml version="1.0" encoding="UTF-8"?>
<svg width="120px" height="120px" viewBox="0 0 120 120" version="1.1" xmlns="http://www.w3.org/2000/svg" xmlns:xlink="http://www.w3.org/1999/xlink" style="background: #FFFFFF;">
    <!-- Generator: Sketch 49.3 (51167) - http://www.bohemiancoding.com/sketch -->
    <title>07</title>
    <desc>Created with Sketch.</desc>
    <defs></defs>
    <g id="Page-1" stroke="none" stroke-width="1" fill="none" fill-rule="evenodd">
        <g id="68747470733a2f2f63646e2e7261776769742e636f6d2f686172646d6172752f736b657463682d726e6e2f6d61737465722f6578616d706c652f747261696e696e672e737667" transform="translate(-182.000000, -180.000000)" fill-rule="nonzero">
            <rect id="Rectangle-path" fill="#FFFFFF" x="0" y="0" width="800" height="640"></rect>
            <path d="M215.179,198.485 L215.0795,202.595" id="Shape" stroke="#2A4910" stroke-width="2" fill="#2A4910"></path>
            <path d="M215.079,202.595 L212.0305,207.374" id="Shape" stroke="#2A4910" stroke-width="2" fill="#2A4910"></path>
            <path d="M212.03,207.374 L207.6695,212.985" id="Shape" stroke="#2A4910" stroke-width="2" fill="#2A4910"></path>
            <path d="M204.919,214.815 L206.0895,218.815" id="Shape" stroke="#51DD00" stroke-width="2" fill="#51DD00"></path>
            <path d="M206.089,218.815 L206.2435,225.536" id="Shape" stroke="#51DD00" stroke-width="2" fill="#51DD00"></path>
            <path d="M206.243,225.536 L206.5485,236.897" id="Shape" stroke="#51DD00" stroke-width="2" fill="#51DD00"></path>
            <path d="M206.548,236.897 L206.7695,244.465" id="Shape" stroke="#51DD00" stroke-width="2" fill="#51DD00"></path>
            <path d="M206.769,244.465 L205.7175,257.812" id="Shape" stroke="#51DD00" stroke-width="2" fill="#51DD00"></path>
            <path d="M205.718,257.812 L201.8785,270.484" id="Shape" stroke="#51DD00" stroke-width="2" fill="#51DD00"></path>
            <path d="M201.879,270.484 L195.5795,278.985" id="Shape" stroke="#51DD00" stroke-width="2" fill="#51DD00"></path>
            <path d="M205.999,216.375 L214.1025,214.625" id="Shape" stroke="#386E82" stroke-width="2" fill="#386E82"></path>
            <path d="M214.102,214.625 L221.9495,212.875" id="Shape" stroke="#386E82" stroke-width="2" fill="#386E82"></path>
            <path d="M221.95,212.875 L225.0395,216.375" id="Shape" stroke="#386E82" stroke-width="2" fill="#386E82"></path>
            <path d="M225.04,216.375 L224.9515,232.052" id="Shape" stroke="#386E82" stroke-width="2" fill="#386E82"></path>
            <path d="M224.952,232.052 L224.7875,259.447" id="Shape" stroke="#386E82" stroke-width="2" fill="#386E82"></path>
            <path d="M224.788,259.447 L224.6995,275.764" id="Shape" stroke="#386E82" stroke-width="2" fill="#386E82"></path>
            <path d="M224.7,275.764 L217.7595,277.484" id="Shape" stroke="#386E82" stroke-width="2" fill="#386E82"></path>
            <path d="M212.2,221.924 L215.2745,226.7" id="Shape" stroke="#188685" stroke-width="2" fill="#188685"></path>
            <path d="M215.275,226.7 L217.5395,231.724" id="Shape" stroke="#188685" stroke-width="2" fill="#188685"></path>
            <path d="M213.75,242.654 L215.0795,246.484" id="Shape" stroke="#1DB1CA" stroke-width="2" fill="#1DB1CA"></path>
            <path d="M215.08,246.484 L215.1505,252.287" id="Shape" stroke="#1DB1CA" stroke-width="2" fill="#1DB1CA"></path>
            <path d="M215.151,252.287 L215.2215,261.252" id="Shape" stroke="#1DB1CA" stroke-width="2" fill="#1DB1CA"></path>
            <path d="M215.222,261.252 L215.0795,267.315" id="Shape" stroke="#1DB1CA" stroke-width="2" fill="#1DB1CA"></path>
            <path d="M198.08,242.315 L202.1595,242.805" id="Shape" stroke="#75B71F" stroke-width="2" fill="#75B71F"></path>
            <path d="M202.16,242.805 L210.0955,240.133" id="Shape" stroke="#75B71F" stroke-width="2" fill="#75B71F"></path>
            <path d="M210.096,240.133 L223.8535,235.517" id="Shape" stroke="#75B71F" stroke-width="2" fill="#75B71F"></path>
            <path d="M223.854,235.517 L231.9895,233.065" id="Shape" stroke="#75B71F" stroke-width="2" fill="#75B71F"></path>
            <path d="M251.67,199.155 L256.7495,206.155" id="Shape" stroke="#2695C9" stroke-width="2" fill="#2695C9"></path>
            <path d="M235.75,210.925 L242.2495,211.615" id="Shape" stroke="#57B917" stroke-width="2" fill="#57B917"></path>
            <path d="M242.25,211.615 L252.0455,210.829" id="Shape" stroke="#57B917" stroke-width="2" fill="#57B917"></path>
            <path d="M252.046,210.829 L263.2865,209.794" id="Shape" stroke="#57B917" stroke-width="2" fill="#57B917"></path>
            <path d="M263.287,209.794 L272.7495,208.935" id="Shape" stroke="#57B917" stroke-width="2" fill="#57B917"></path>
            <path d="M272.75,208.935 L278.0795,209.505" id="Shape" stroke="#57B917" stroke-width="2" fill="#57B917"></path>
            <path d="M243.35,214.105 L246.8255,219.181" id="Shape" stroke="#6D2667" stroke-width="2" fill="#6D2667"></path>
            <path d="M246.826,219.181 L248.1795,223.335" id="Shape" stroke="#6D2667" stroke-width="2" fill="#6D2667"></path>
            <path d="M268.08,210.985 L268.8095,212.815" id="Shape" stroke="#5085E1" stroke-width="2" fill="#5085E1"></path>
            <path d="M268.81,212.815 L265.2295,221.765" id="Shape" stroke="#5085E1" stroke-width="2" fill="#5085E1"></path>
            <path d="M232.25,226.815 L238.4195,227.145" id="Shape" stroke="#019E7F" stroke-width="2" fill="#019E7F"></path>
            <path d="M238.42,227.145 L251.1615,225.742" id="Shape" stroke="#019E7F" stroke-width="2" fill="#019E7F"></path>
            <path d="M251.162,225.742 L264.4815,224.539" id="Shape" stroke="#019E7F" stroke-width="2" fill="#019E7F"></path>
            <path d="M264.482,224.539 L278.2505,223.816" id="Shape" stroke="#019E7F" stroke-width="2" fill="#019E7F"></path>
            <path d="M278.251,223.816 L284.4205,224.146" id="Shape" stroke="#019E7F" stroke-width="2" fill="#019E7F"></path>
            <path d="M238.581,235.316 L239.7505,237.646" id="Shape" stroke="#671A27" stroke-width="2" fill="#671A27"></path>
            <path d="M239.751,237.646 L240.8925,243.454" id="Shape" stroke="#671A27" stroke-width="2" fill="#671A27"></path>
            <path d="M240.893,243.454 L241.9085,251.838" id="Shape" stroke="#671A27" stroke-width="2" fill="#671A27"></path>
            <path d="M241.909,251.838 L242.7505,259.646" id="Shape" stroke="#671A27" stroke-width="2" fill="#671A27"></path>
            <path d="M240.931,236.896 L251.8795,235.823" id="Shape" stroke="#C8C956" stroke-width="2" fill="#C8C956"></path>
            <path d="M251.88,235.823 L263.8845,234.648" id="Shape" stroke="#C8C956" stroke-width="2" fill="#C8C956"></path>
            <path d="M263.885,234.648 L273.2805,233.675" id="Shape" stroke="#C8C956" stroke-width="2" fill="#C8C956"></path>
            <path d="M273.281,233.675 L277.3705,236.835" id="Shape" stroke="#C8C956" stroke-width="2" fill="#C8C956"></path>
            <path d="M277.371,236.835 L276.6605,242.218" id="Shape" stroke="#C8C956" stroke-width="2" fill="#C8C956"></path>
            <path d="M276.661,242.218 L275.4975,249.855" id="Shape" stroke="#C8C956" stroke-width="2" fill="#C8C956"></path>
            <path d="M275.498,249.855 L273.9205,257.985" id="Shape" stroke="#C8C956" stroke-width="2" fill="#C8C956"></path>
            <path d="M242.081,246.985 L249.3725,246.285" id="Shape" stroke="#C3138E" stroke-width="2" fill="#C3138E"></path>
            <path d="M249.373,246.285 L256.6885,245.752" id="Shape" stroke="#C3138E" stroke-width="2" fill="#C3138E"></path>
            <path d="M256.689,245.752 L264.0005,245.245" id="Shape" stroke="#C3138E" stroke-width="2" fill="#C3138E"></path>
            <path d="M264.001,245.245 L266.5505,245.055" id="Shape" stroke="#C3138E" stroke-width="2" fill="#C3138E"></path>
            <path d="M243.251,258.155 L251.9415,257.52" id="Shape" stroke="#7380B8" stroke-width="2" fill="#7380B8"></path>
            <path d="M251.942,257.52 L262.8795,256.614" id="Shape" stroke="#7380B8" stroke-width="2" fill="#7380B8"></path>
            <path d="M262.88,256.614 L273.2505,255.825" id="Shape" stroke="#7380B8" stroke-width="2" fill="#7380B8"></path>
            <path d="M239.081,267.515 L244.0805,268.325" id="Shape" stroke="#8C8EB4" stroke-width="2" fill="#8C8EB4"></path>
            <path d="M244.081,268.325 L252.4495,267.755" id="Shape" stroke="#8C8EB4" stroke-width="2" fill="#8C8EB4"></path>
            <path d="M252.45,267.755 L262.4695,266.981" id="Shape" stroke="#8C8EB4" stroke-width="2" fill="#8C8EB4"></path>
            <path d="M262.47,266.981 L271.9115,266.565" id="Shape" stroke="#8C8EB4" stroke-width="2" fill="#8C8EB4"></path>
            <path d="M271.912,266.565 L276.9115,266.975" id="Shape" stroke="#8C8EB4" stroke-width="2" fill="#8C8EB4"></path>
            <path d="M233.752,280.705 L239.3715,281.515" id="Shape" stroke="#46A85A" stroke-width="2" fill="#46A85A"></path>
            <path d="M239.372,281.515 L248.0385,280.868" id="Shape" stroke="#46A85A" stroke-width="2" fill="#46A85A"></path>
            <path d="M248.039,280.868 L261.5775,279.969" id="Shape" stroke="#46A85A" stroke-width="2" fill="#46A85A"></path>
            <path d="M261.578,279.969 L277.2515,279.515" id="Shape" stroke="#46A85A" stroke-width="2" fill="#46A85A"></path>
            <path d="M277.252,279.515 L283.5815,279.965" id="Shape" stroke="#46A85A" stroke-width="2" fill="#46A85A"></path>
            <path d="M256.632,237.775 L257.4315,240.595" id="Shape" stroke="#BEB601" stroke-width="2" fill="#BEB601"></path>
            <path d="M257.432,240.595 L257.5155,254.296" id="Shape" stroke="#BEB601" stroke-width="2" fill="#BEB601"></path>
            <path d="M257.516,254.296 L257.5045,270.313" id="Shape" stroke="#BEB601" stroke-width="2" fill="#BEB601"></path>
            <path d="M257.505,270.313 L257.4815,279.454" id="Shape" stroke="#BEB601" stroke-width="2" fill="#BEB601"></path>
        </g>
    </g>
</svg>