<?xml version="1.0" encoding="UTF-8"?>
<svg width="120px" height="120px" viewBox="0 0 120 120" version="1.1" xmlns="http://www.w3.org/2000/svg" xmlns:xlink="http://www.w3.org/1999/xlink" style="background: #FFFFFF;">
    <!-- Generator: Sketch 49.3 (51167) - http://www.bohemiancoding.com/sketch -->
    <title>08</title>
    <desc>Created with Sketch.</desc>
    <defs></defs>
    <g id="Page-1" stroke="none" stroke-width="1" fill="none" fill-rule="evenodd">
        <g id="68747470733a2f2f63646e2e7261776769742e636f6d2f686172646d6172752f736b657463682d726e6e2f6d61737465722f6578616d706c652f747261696e696e672e737667" transform="translate(-342.000000, -180.000000)" fill-rule="nonzero">
            <rect id="Rectangle-path" fill="#FFFFFF" x="0" y="0" width="800" height="640"></rect>
            <path d="M363.29,206.044 L368.564,206.3885" id="Shape" stroke="#BEB601" stroke-width="2" fill="#BEB601"></path>
            <path d="M368.564,206.388 L373.56,206.0645" id="Shape" stroke="#BEB601" stroke-width="2" fill="#BEB601"></path>
            <path d="M373.56,206.064 L390.601,204.4415" id="Shape" stroke="#BEB601" stroke-width="2" fill="#BEB601"></path>
            <path d="M390.601,204.441 L409.042,202.9745" id="Shape" stroke="#BEB601" stroke-width="2" fill="#BEB601"></path>
            <path d="M409.042,202.974 L425.55,201.9645" id="Shape" stroke="#BEB601" stroke-width="2" fill="#BEB601"></path>
            <path d="M425.55,201.964 L431.153,202.0095" id="Shape" stroke="#BEB601" stroke-width="2" fill="#BEB601"></path>
            <path d="M431.153,202.009 L436.71,202.7445" id="Shape" stroke="#BEB601" stroke-width="2" fill="#BEB601"></path>
            <path d="M382.48,196.674 L384.22,199.7845" id="Shape" stroke="#76B504" stroke-width="2" fill="#76B504"></path>
            <path d="M384.22,199.785 L385.364,206.8255" id="Shape" stroke="#76B504" stroke-width="2" fill="#76B504"></path>
            <path d="M385.364,206.826 L386.2,212.2245" id="Shape" stroke="#76B504" stroke-width="2" fill="#76B504"></path>
            <path d="M414.54,195.894 L414.79,199.1445" id="Shape" stroke="#8D246D" stroke-width="2" fill="#8D246D"></path>
            <path d="M414.79,199.144 L413.106,205.0545" id="Shape" stroke="#8D246D" stroke-width="2" fill="#8D246D"></path>
            <path d="M413.106,205.054 L411.07,210.6945" id="Shape" stroke="#8D246D" stroke-width="2" fill="#8D246D"></path>
            <path d="M368.2,219.244 L369.44,222.6845" id="Shape" stroke="#600FAF" stroke-width="2" fill="#600FAF"></path>
            <path d="M369.44,222.684 L369.449,232.5215" id="Shape" stroke="#600FAF" stroke-width="2" fill="#600FAF"></path>
            <path d="M369.449,232.521 L369.469,253.3075" id="Shape" stroke="#600FAF" stroke-width="2" fill="#600FAF"></path>
            <path d="M369.469,253.307 L369.491,273.7245" id="Shape" stroke="#600FAF" stroke-width="2" fill="#600FAF"></path>
            <path d="M369.491,273.724 L369.501,281.6645" id="Shape" stroke="#600FAF" stroke-width="2" fill="#600FAF"></path>
            <path d="M370.361,220.894 L378.191,219.7535" id="Shape" stroke="#81395F" stroke-width="2" fill="#81395F"></path>
            <path d="M378.191,219.753 L385.931,218.7245" id="Shape" stroke="#81395F" stroke-width="2" fill="#81395F"></path>
            <path d="M385.931,218.724 L389.271,222.1045" id="Shape" stroke="#81395F" stroke-width="2" fill="#81395F"></path>
            <path d="M389.271,222.104 L388.795,227.2955" id="Shape" stroke="#81395F" stroke-width="2" fill="#81395F"></path>
            <path d="M388.795,227.295 L388.161,233.7245" id="Shape" stroke="#81395F" stroke-width="2" fill="#81395F"></path>
            <path d="M388.161,233.724 L387.841,237.1145" id="Shape" stroke="#81395F" stroke-width="2" fill="#81395F"></path>
            <path d="M370.961,228.974 L379.721,227.6825" id="Shape" stroke="#4CBECD" stroke-width="2" fill="#4CBECD"></path>
            <path d="M379.721,227.682 L388.061,226.8555" id="Shape" stroke="#4CBECD" stroke-width="2" fill="#4CBECD"></path>
            <path d="M370.361,238.415 L378.864,237.2505" id="Shape" stroke="#A78C43" stroke-width="2" fill="#A78C43"></path>
            <path d="M378.864,237.25 L386.782,236.4455" id="Shape" stroke="#A78C43" stroke-width="2" fill="#A78C43"></path>
            <path d="M412.422,216.485 L413.372,219.3855" id="Shape" stroke="#2B689A" stroke-width="2" fill="#2B689A"></path>
            <path d="M413.372,219.385 L413.372,224.3845" id="Shape" stroke="#2B689A" stroke-width="2" fill="#2B689A"></path>
            <path d="M413.372,224.384 L413.372,231.4755" id="Shape" stroke="#2B689A" stroke-width="2" fill="#2B689A"></path>
            <path d="M413.372,231.475 L413.372,235.8855" id="Shape" stroke="#2B689A" stroke-width="2" fill="#2B689A"></path>
            <path d="M413.702,217.645 L422.187,216.6595" id="Shape" stroke="#5C46C4" stroke-width="2" fill="#5C46C4"></path>
            <path d="M422.187,216.659 L430.792,215.6355" id="Shape" stroke="#5C46C4" stroke-width="2" fill="#5C46C4"></path>
            <path d="M430.792,215.635 L434.492,219.1055" id="Shape" stroke="#5C46C4" stroke-width="2" fill="#5C46C4"></path>
            <path d="M434.492,219.105 L434.471,236.1855" id="Shape" stroke="#5C46C4" stroke-width="2" fill="#5C46C4"></path>
            <path d="M434.471,236.185 L434.432,262.9025" id="Shape" stroke="#5C46C4" stroke-width="2" fill="#5C46C4"></path>
            <path d="M434.432,262.902 L434.411,280.4755" id="Shape" stroke="#5C46C4" stroke-width="2" fill="#5C46C4"></path>
            <path d="M434.411,280.475 L427.911,280.9255" id="Shape" stroke="#5C46C4" stroke-width="2" fill="#5C46C4"></path>
            <path d="M414.051,225.735 L423.654,225.0655" id="Shape" stroke="#C071D0" stroke-width="2" fill="#C071D0"></path>
            <path d="M423.654,225.065 L433.511,224.3955" id="Shape" stroke="#C071D0" stroke-width="2" fill="#C071D0"></path>
            <path d="M413.701,234.605 L423.056,234.0055" id="Shape" stroke="#9807D1" stroke-width="2" fill="#9807D1"></path>
            <path d="M423.056,234.005 L433.281,233.4055" id="Shape" stroke="#9807D1" stroke-width="2" fill="#9807D1"></path>
            <path d="M389.201,242.105 L393.551,242.4455" id="Shape" stroke="#33BA69" stroke-width="2" fill="#33BA69"></path>
            <path d="M393.551,242.445 L401.424,241.4405" id="Shape" stroke="#33BA69" stroke-width="2" fill="#33BA69"></path>
            <path d="M401.424,241.44 L409.312,240.2555" id="Shape" stroke="#33BA69" stroke-width="2" fill="#33BA69"></path>
            <path d="M409.312,240.255 L413.122,239.9955" id="Shape" stroke="#33BA69" stroke-width="2" fill="#33BA69"></path>
            <path d="M384.542,248.595 L385.712,251.4855" id="Shape" stroke="#A21C79" stroke-width="2" fill="#A21C79"></path>
            <path d="M385.712,251.485 L387.073,259.4565" id="Shape" stroke="#A21C79" stroke-width="2" fill="#A21C79"></path>
            <path d="M387.073,259.456 L387.992,264.8555" id="Shape" stroke="#A21C79" stroke-width="2" fill="#A21C79"></path>
            <path d="M386.402,250.165 L394.362,248.9875" id="Shape" stroke="#D1675D" stroke-width="2" fill="#D1675D"></path>
            <path d="M394.362,248.987 L406.115,247.3205" id="Shape" stroke="#D1675D" stroke-width="2" fill="#D1675D"></path>
            <path d="M406.115,247.32 L415.142,246.1355" id="Shape" stroke="#D1675D" stroke-width="2" fill="#D1675D"></path>
            <path d="M415.142,246.135 L418.352,249.4855" id="Shape" stroke="#D1675D" stroke-width="2" fill="#D1675D"></path>
            <path d="M418.352,249.485 L416.971,255.0945" id="Shape" stroke="#D1675D" stroke-width="2" fill="#D1675D"></path>
            <path d="M416.971,255.094 L415.102,262.0455" id="Shape" stroke="#D1675D" stroke-width="2" fill="#D1675D"></path>
            <path d="M387.592,256.055 L396.579,255.1635" id="Shape" stroke="#C06859" stroke-width="2" fill="#C06859"></path>
            <path d="M396.579,255.163 L408.724,253.9775" id="Shape" stroke="#C06859" stroke-width="2" fill="#C06859"></path>
            <path d="M408.724,253.977 L416.411,253.3855" id="Shape" stroke="#C06859" stroke-width="2" fill="#C06859"></path>
            <path d="M388.771,263.085 L396.854,262.1845" id="Shape" stroke="#C69D31" stroke-width="2" fill="#C69D31"></path>
            <path d="M396.854,262.184 L406.145,261.2395" id="Shape" stroke="#C69D31" stroke-width="2" fill="#C69D31"></path>
            <path d="M406.145,261.239 L414.161,260.6655" id="Shape" stroke="#C69D31" stroke-width="2" fill="#C69D31"></path>
            <path d="M400.221,233.225 L401.331,236.4055" id="Shape" stroke="#1A9F65" stroke-width="2" fill="#1A9F65"></path>
            <path d="M401.331,236.405 L401.323,244.4315" id="Shape" stroke="#1A9F65" stroke-width="2" fill="#1A9F65"></path>
            <path d="M401.323,244.431 L401.306,261.3125" id="Shape" stroke="#1A9F65" stroke-width="2" fill="#1A9F65"></path>
            <path d="M401.306,261.312 L401.291,277.7255" id="Shape" stroke="#1A9F65" stroke-width="2" fill="#1A9F65"></path>
            <path d="M401.291,277.725 L401.291,284.1055" id="Shape" stroke="#1A9F65" stroke-width="2" fill="#1A9F65"></path>
            <path d="M397.931,263.035 L396.871,266.0255" id="Shape" stroke="#7D5EBC" stroke-width="2" fill="#7D5EBC"></path>
            <path d="M396.871,266.025 L392.864,271.2075" id="Shape" stroke="#7D5EBC" stroke-width="2" fill="#7D5EBC"></path>
            <path d="M392.864,271.207 L387.351,276.2435" id="Shape" stroke="#7D5EBC" stroke-width="2" fill="#7D5EBC"></path>
            <path d="M387.351,276.243 L380.131,280.6055" id="Shape" stroke="#7D5EBC" stroke-width="2" fill="#7D5EBC"></path>
            <path d="M404.421,267.355 L411.596,271.2905" id="Shape" stroke="#892D5E" stroke-width="2" fill="#892D5E"></path>
            <path d="M411.596,271.29 L417.541,277.2355" id="Shape" stroke="#892D5E" stroke-width="2" fill="#892D5E"></path>
        </g>
    </g>
</svg>