<?xml version="1.0" encoding="UTF-8"?>
<svg width="120px" height="120px" viewBox="0 0 120 120" version="1.1" xmlns="http://www.w3.org/2000/svg" xmlns:xlink="http://www.w3.org/1999/xlink" style="background: #FFFFFF;">
    <!-- Generator: Sketch 49.3 (51167) - http://www.bohemiancoding.com/sketch -->
    <title>10</title>
    <desc>Created with Sketch.</desc>
    <defs></defs>
    <g id="Page-1" stroke="none" stroke-width="1" fill="none" fill-rule="evenodd">
        <g id="68747470733a2f2f63646e2e7261776769742e636f6d2f686172646d6172752f736b657463682d726e6e2f6d61737465722f6578616d706c652f747261696e696e672e737667" transform="translate(-667.000000, -180.000000)" fill-rule="nonzero">
            <rect id="Rectangle-path" fill="#FFFFFF" x="0" y="0" width="800" height="640"></rect>
            <path d="M708.432,199.385 L707.4215,201.455" id="Shape" stroke="#D62ADD" stroke-width="2" fill="#D62ADD"></path>
            <path d="M707.422,201.455 L701.2145,205.557" id="Shape" stroke="#D62ADD" stroke-width="2" fill="#D62ADD"></path>
            <path d="M701.215,205.557 L692.6585,209.143" id="Shape" stroke="#D62ADD" stroke-width="2" fill="#D62ADD"></path>
            <path d="M692.659,209.143 L681.9115,212.005" id="Shape" stroke="#D62ADD" stroke-width="2" fill="#D62ADD"></path>
            <path d="M683.352,218.685 L686.8385,223.469" id="Shape" stroke="#2233A8" stroke-width="2" fill="#2233A8"></path>
            <path d="M686.839,223.469 L689.1405,229.055" id="Shape" stroke="#2233A8" stroke-width="2" fill="#2233A8"></path>
            <path d="M713.631,214.295 L713.3405,216.175" id="Shape" stroke="#9E0449" stroke-width="2" fill="#9E0449"></path>
            <path d="M713.341,216.175 L711.4415,220.369" id="Shape" stroke="#9E0449" stroke-width="2" fill="#9E0449"></path>
            <path d="M711.442,220.369 L708.3505,225.125" id="Shape" stroke="#9E0449" stroke-width="2" fill="#9E0449"></path>
            <path d="M679.431,235.095 L685.6605,235.365" id="Shape" stroke="#8D4BBB" stroke-width="2" fill="#8D4BBB"></path>
            <path d="M685.661,235.365 L693.2555,234.346" id="Shape" stroke="#8D4BBB" stroke-width="2" fill="#8D4BBB"></path>
            <path d="M693.256,234.346 L702.1255,233.205" id="Shape" stroke="#8D4BBB" stroke-width="2" fill="#8D4BBB"></path>
            <path d="M702.126,233.205 L710.1805,232.386" id="Shape" stroke="#8D4BBB" stroke-width="2" fill="#8D4BBB"></path>
            <path d="M710.181,232.386 L716.1805,232.476" id="Shape" stroke="#8D4BBB" stroke-width="2" fill="#8D4BBB"></path>
            <path d="M699.091,209.536 L700.0905,212.706" id="Shape" stroke="#633C16" stroke-width="2" fill="#633C16"></path>
            <path d="M700.091,212.706 L700.0895,227.923" id="Shape" stroke="#633C16" stroke-width="2" fill="#633C16"></path>
            <path d="M700.09,227.923 L700.0815,251.238" id="Shape" stroke="#633C16" stroke-width="2" fill="#633C16"></path>
            <path d="M700.082,251.238 L700.0605,273.235" id="Shape" stroke="#633C16" stroke-width="2" fill="#633C16"></path>
            <path d="M700.061,273.235 L700.0505,280.615" id="Shape" stroke="#633C16" stroke-width="2" fill="#633C16"></path>
            <path d="M699.091,234.895 L697.9705,238.895" id="Shape" stroke="#35CE43" stroke-width="2" fill="#35CE43"></path>
            <path d="M697.971,238.895 L691.8815,249.532" id="Shape" stroke="#35CE43" stroke-width="2" fill="#35CE43"></path>
            <path d="M691.882,249.532 L685.2055,258.758" id="Shape" stroke="#35CE43" stroke-width="2" fill="#35CE43"></path>
            <path d="M685.206,258.758 L677.5695,266.235" id="Shape" stroke="#35CE43" stroke-width="2" fill="#35CE43"></path>
            <path d="M702.31,241.245 L707.8315,246.014" id="Shape" stroke="#A8C0B9" stroke-width="2" fill="#A8C0B9"></path>
            <path d="M707.832,246.014 L712.1095,251.855" id="Shape" stroke="#A8C0B9" stroke-width="2" fill="#A8C0B9"></path>
            <path d="M721.32,210.415 L725.3095,211.155" id="Shape" stroke="#49C070" stroke-width="2" fill="#49C070"></path>
            <path d="M725.31,211.155 L731.8535,210.183" id="Shape" stroke="#49C070" stroke-width="2" fill="#49C070"></path>
            <path d="M731.854,210.183 L739.7915,208.964" id="Shape" stroke="#49C070" stroke-width="2" fill="#49C070"></path>
            <path d="M739.792,208.964 L746.1895,207.945" id="Shape" stroke="#49C070" stroke-width="2" fill="#49C070"></path>
            <path d="M746.19,207.945 L751.2195,211.645" id="Shape" stroke="#49C070" stroke-width="2" fill="#49C070"></path>
            <path d="M751.22,211.645 L750.1245,218.561" id="Shape" stroke="#49C070" stroke-width="2" fill="#49C070"></path>
            <path d="M750.125,218.561 L748.1595,227.495" id="Shape" stroke="#49C070" stroke-width="2" fill="#49C070"></path>
            <path d="M724.43,231.365 L729.8275,230.805" id="Shape" stroke="#07CD6E" stroke-width="2" fill="#07CD6E"></path>
            <path d="M729.828,230.805 L737.6455,229.841" id="Shape" stroke="#07CD6E" stroke-width="2" fill="#07CD6E"></path>
            <path d="M737.646,229.841 L745.4895,228.915" id="Shape" stroke="#07CD6E" stroke-width="2" fill="#07CD6E"></path>
            <path d="M745.49,228.915 L750.0495,228.485" id="Shape" stroke="#07CD6E" stroke-width="2" fill="#07CD6E"></path>
            <path d="M722.52,211.365 L723.5895,215.245" id="Shape" stroke="#317B26" stroke-width="2" fill="#317B26"></path>
            <path d="M723.59,215.245 L722.8195,239.856" id="Shape" stroke="#317B26" stroke-width="2" fill="#317B26"></path>
            <path d="M722.82,239.856 L718.1765,260.8" id="Shape" stroke="#317B26" stroke-width="2" fill="#317B26"></path>
            <path d="M718.177,260.8 L707.1795,278.244" id="Shape" stroke="#317B26" stroke-width="2" fill="#317B26"></path>
            <path d="M729.43,231.494 L736.3825,240.476" id="Shape" stroke="#365E8B" stroke-width="2" fill="#365E8B"></path>
            <path d="M736.383,240.476 L745.0175,252.976" id="Shape" stroke="#365E8B" stroke-width="2" fill="#365E8B"></path>
            <path d="M745.018,252.976 L753.1705,264.845" id="Shape" stroke="#365E8B" stroke-width="2" fill="#365E8B"></path>
            <path d="M753.171,264.845 L757.4215,270.022" id="Shape" stroke="#365E8B" stroke-width="2" fill="#365E8B"></path>
            <path d="M757.422,270.022 L762.4305,274.495" id="Shape" stroke="#365E8B" stroke-width="2" fill="#365E8B"></path>
        </g>
    </g>
</svg>