<?xml version="1.0" encoding="UTF-8"?>
<svg width="120px" height="120px" viewBox="0 0 120 120" version="1.1" xmlns="http://www.w3.org/2000/svg" xmlns:xlink="http://www.w3.org/1999/xlink" style="background: #FFFFFF;">
    <!-- Generator: Sketch 49.3 (51167) - http://www.bohemiancoding.com/sketch -->
    <title>11</title>
    <desc>Created with Sketch.</desc>
    <defs></defs>
    <g id="Page-1" stroke="none" stroke-width="1" fill="none" fill-rule="evenodd">
        <g id="68747470733a2f2f63646e2e7261776769742e636f6d2f686172646d6172752f736b657463682d726e6e2f6d61737465722f6578616d706c652f747261696e696e672e737667" transform="translate(-22.000000, -340.000000)" fill-rule="nonzero">
            <rect id="Rectangle-path" fill="#FFFFFF" x="0" y="0" width="800" height="640"></rect>
            <path d="M37.499,381.546 L40.9995,381.7955" id="Shape" stroke="#365E8B" stroke-width="2" fill="#365E8B"></path>
            <path d="M40.999,381.796 L47.8025,380.9005" id="Shape" stroke="#365E8B" stroke-width="2" fill="#365E8B"></path>
            <path d="M47.802,380.901 L56.4205,379.8005" id="Shape" stroke="#365E8B" stroke-width="2" fill="#365E8B"></path>
            <path d="M56.42,379.8 L65.6695,378.6255" id="Shape" stroke="#365E8B" stroke-width="2" fill="#365E8B"></path>
            <path d="M53.27,358.125 L55.0295,363.6455" id="Shape" stroke="#1A1DC3" stroke-width="2" fill="#1A1DC3"></path>
            <path d="M55.029,363.645 L55.0915,387.9895" id="Shape" stroke="#1A1DC3" stroke-width="2" fill="#1A1DC3"></path>
            <path d="M55.091,387.989 L55.2075,416.8805" id="Shape" stroke="#1A1DC3" stroke-width="2" fill="#1A1DC3"></path>
            <path d="M55.207,416.88 L55.2695,433.5445" id="Shape" stroke="#1A1DC3" stroke-width="2" fill="#1A1DC3"></path>
            <path d="M55.269,433.544 L47.4995,435.5445" id="Shape" stroke="#1A1DC3" stroke-width="2" fill="#1A1DC3"></path>
            <path d="M38.499,410.264 L43.7995,409.8245" id="Shape" stroke="#B35278" stroke-width="2" fill="#B35278"></path>
            <path d="M43.799,409.825 L49.8255,406.5605" id="Shape" stroke="#B35278" stroke-width="2" fill="#B35278"></path>
            <path d="M49.825,406.56 L60.6845,400.5895" id="Shape" stroke="#B35278" stroke-width="2" fill="#B35278"></path>
            <path d="M60.684,400.589 L69.7505,395.5455" id="Shape" stroke="#B35278" stroke-width="2" fill="#B35278"></path>
            <path d="M92.65,357.315 L95.1505,360.2955" id="Shape" stroke="#A60746" stroke-width="2" fill="#A60746"></path>
            <path d="M95.15,360.296 L95.0805,368.0655" id="Shape" stroke="#A60746" stroke-width="2" fill="#A60746"></path>
            <path d="M95.081,368.065 L95.0705,375.6255" id="Shape" stroke="#A60746" stroke-width="2" fill="#A60746"></path>
            <path d="M73.5,377.905 L77.9405,378.4955" id="Shape" stroke="#2732AF" stroke-width="2" fill="#2732AF"></path>
            <path d="M77.94,378.495 L90.2175,376.7745" id="Shape" stroke="#2732AF" stroke-width="2" fill="#2732AF"></path>
            <path d="M90.217,376.774 L104.3005,374.6155" id="Shape" stroke="#2732AF" stroke-width="2" fill="#2732AF"></path>
            <path d="M104.3,374.615 L118.3505,373.5545" id="Shape" stroke="#2732AF" stroke-width="2" fill="#2732AF"></path>
            <path d="M118.35,373.554 L122.5005,374.5445" id="Shape" stroke="#2732AF" stroke-width="2" fill="#2732AF"></path>
            <path d="M94,379.704 L95.0005,384.2345" id="Shape" stroke="#B6B039" stroke-width="2" fill="#B6B039"></path>
            <path d="M95,384.234 L94.9275,401.0235" id="Shape" stroke="#B6B039" stroke-width="2" fill="#B6B039"></path>
            <path d="M94.927,401.023 L94.7925,424.1815" id="Shape" stroke="#B6B039" stroke-width="2" fill="#B6B039"></path>
            <path d="M94.792,424.181 L94.7195,442.6845" id="Shape" stroke="#B6B039" stroke-width="2" fill="#B6B039"></path>
            <path d="M97.779,394.644 L104.3825,398.7035" id="Shape" stroke="#0C4E08" stroke-width="2" fill="#0C4E08"></path>
            <path d="M104.382,398.703 L112.4995,404.6715" id="Shape" stroke="#0C4E08" stroke-width="2" fill="#0C4E08"></path>
            <path d="M112.499,404.671 L117.4895,409.8045" id="Shape" stroke="#0C4E08" stroke-width="2" fill="#0C4E08"></path>
        </g>
    </g>
</svg>