<?xml version="1.0" encoding="UTF-8"?>
<svg width="120px" height="120px" viewBox="0 0 120 120" version="1.1" xmlns="http://www.w3.org/2000/svg" xmlns:xlink="http://www.w3.org/1999/xlink" style="background: #FFFFFF;">
    <!-- Generator: Sketch 49.3 (51167) - http://www.bohemiancoding.com/sketch -->
    <title>12</title>
    <desc>Created with Sketch.</desc>
    <defs></defs>
    <g id="Page-1" stroke="none" stroke-width="1" fill="none" fill-rule="evenodd">
        <g id="68747470733a2f2f63646e2e7261776769742e636f6d2f686172646d6172752f736b657463682d726e6e2f6d61737465722f6578616d706c652f747261696e696e672e737667" transform="translate(-182.000000, -340.000000)" fill-rule="nonzero">
            <rect id="Rectangle-path" fill="#FFFFFF" x="0" y="0" width="800" height="640"></rect>
            <path d="M202.043,359.791 L207.653,360.351" id="Shape" stroke="#0C4E08" stroke-width="2" fill="#0C4E08"></path>
            <path d="M207.653,360.351 L218.284,358.862" id="Shape" stroke="#0C4E08" stroke-width="2" fill="#0C4E08"></path>
            <path d="M218.284,358.862 L226.283,357.861" id="Shape" stroke="#0C4E08" stroke-width="2" fill="#0C4E08"></path>
            <path d="M226.283,357.861 L229.863,361.001" id="Shape" stroke="#0C4E08" stroke-width="2" fill="#0C4E08"></path>
            <path d="M229.863,361.001 L229.908,369.972" id="Shape" stroke="#0C4E08" stroke-width="2" fill="#0C4E08"></path>
            <path d="M229.908,369.972 L229.953,379.311" id="Shape" stroke="#0C4E08" stroke-width="2" fill="#0C4E08"></path>
            <path d="M229.953,379.311 L223.393,380.621" id="Shape" stroke="#0C4E08" stroke-width="2" fill="#0C4E08"></path>
            <path d="M205.003,366.381 L211.839,368.131" id="Shape" stroke="#D6CF0C" stroke-width="2" fill="#D6CF0C"></path>
            <path d="M211.839,368.131 L216.403,370.151" id="Shape" stroke="#D6CF0C" stroke-width="2" fill="#D6CF0C"></path>
            <path d="M200.623,381.471 L205.193,381.991" id="Shape" stroke="#56C298" stroke-width="2" fill="#56C298"></path>
            <path d="M205.193,381.991 L210.348,379.272" id="Shape" stroke="#56C298" stroke-width="2" fill="#56C298"></path>
            <path d="M210.348,379.272 L217.813,375.241" id="Shape" stroke="#56C298" stroke-width="2" fill="#56C298"></path>
            <path d="M239.703,356.891 L245.813,357.451" id="Shape" stroke="#A9D515" stroke-width="2" fill="#A9D515"></path>
            <path d="M245.813,357.451 L256.382,355.539" id="Shape" stroke="#A9D515" stroke-width="2" fill="#A9D515"></path>
            <path d="M256.382,355.539 L264.303,354.001" id="Shape" stroke="#A9D515" stroke-width="2" fill="#A9D515"></path>
            <path d="M264.303,354.001 L268.623,356.951" id="Shape" stroke="#A9D515" stroke-width="2" fill="#A9D515"></path>
            <path d="M268.623,356.951 L268.649,361.788" id="Shape" stroke="#A9D515" stroke-width="2" fill="#A9D515"></path>
            <path d="M268.649,361.788 L268.697,369.643" id="Shape" stroke="#A9D515" stroke-width="2" fill="#A9D515"></path>
            <path d="M268.697,369.643 L268.723,377.82" id="Shape" stroke="#A9D515" stroke-width="2" fill="#A9D515"></path>
            <path d="M268.723,377.82 L262.413,378.63" id="Shape" stroke="#A9D515" stroke-width="2" fill="#A9D515"></path>
            <path d="M244.373,363.62 L250.333,365.082" id="Shape" stroke="#428A64" stroke-width="2" fill="#428A64"></path>
            <path d="M250.333,365.082 L254.313,366.77" id="Shape" stroke="#428A64" stroke-width="2" fill="#428A64"></path>
            <path d="M241.463,376.11 L245.563,376.57" id="Shape" stroke="#C33399" stroke-width="2" fill="#C33399"></path>
            <path d="M245.563,376.57 L250.464,374.094" id="Shape" stroke="#C33399" stroke-width="2" fill="#C33399"></path>
            <path d="M250.464,374.094 L256.903,370.53" id="Shape" stroke="#C33399" stroke-width="2" fill="#C33399"></path>
            <path d="M237.343,381.25 L238.623,384.94" id="Shape" stroke="#3C38D7" stroke-width="2" fill="#3C38D7"></path>
            <path d="M238.623,384.94 L238.513,391.51" id="Shape" stroke="#3C38D7" stroke-width="2" fill="#3C38D7"></path>
            <path d="M209.323,393.06 L219.243,393.02" id="Shape" stroke="#446C74" stroke-width="2" fill="#446C74"></path>
            <path d="M219.243,393.02 L231.735,391.992" id="Shape" stroke="#446C74" stroke-width="2" fill="#446C74"></path>
            <path d="M231.735,391.992 L245.945,390.958" id="Shape" stroke="#446C74" stroke-width="2" fill="#446C74"></path>
            <path d="M245.945,390.958 L258.744,390.23" id="Shape" stroke="#446C74" stroke-width="2" fill="#446C74"></path>
            <path d="M258.744,390.23 L268.414,390.89" id="Shape" stroke="#446C74" stroke-width="2" fill="#446C74"></path>
            <path d="M223.294,399.24 L222.664,401.71" id="Shape" stroke="#9048BB" stroke-width="2" fill="#9048BB"></path>
            <path d="M222.664,401.71 L219.187,406.536" id="Shape" stroke="#9048BB" stroke-width="2" fill="#9048BB"></path>
            <path d="M219.187,406.536 L213.692,412.373" id="Shape" stroke="#9048BB" stroke-width="2" fill="#9048BB"></path>
            <path d="M213.692,412.373 L207.495,417.239" id="Shape" stroke="#9048BB" stroke-width="2" fill="#9048BB"></path>
            <path d="M222.625,406.749 L227.327,410.118" id="Shape" stroke="#8C9B43" stroke-width="2" fill="#8C9B43"></path>
            <path d="M227.327,410.118 L230.875,415.009" id="Shape" stroke="#8C9B43" stroke-width="2" fill="#8C9B43"></path>
            <path d="M256.745,397.239 L256.125,399.999" id="Shape" stroke="#1F24A0" stroke-width="2" fill="#1F24A0"></path>
            <path d="M256.125,399.999 L251.956,407.028" id="Shape" stroke="#1F24A0" stroke-width="2" fill="#1F24A0"></path>
            <path d="M251.956,407.028 L245.995,413.869" id="Shape" stroke="#1F24A0" stroke-width="2" fill="#1F24A0"></path>
            <path d="M257.125,404.249 L263.452,407.92" id="Shape" stroke="#110E58" stroke-width="2" fill="#110E58"></path>
            <path d="M263.452,407.92 L268.235,413.249" id="Shape" stroke="#110E58" stroke-width="2" fill="#110E58"></path>
            <path d="M199.505,424.339 L205.224,425.078" id="Shape" stroke="#A2D126" stroke-width="2" fill="#A2D126"></path>
            <path d="M205.224,425.078 L210.995,424.639" id="Shape" stroke="#A2D126" stroke-width="2" fill="#A2D126"></path>
            <path d="M210.995,424.639 L230.918,423.221" id="Shape" stroke="#A2D126" stroke-width="2" fill="#A2D126"></path>
            <path d="M230.918,423.221 L252.096,422.014" id="Shape" stroke="#A2D126" stroke-width="2" fill="#A2D126"></path>
            <path d="M252.096,422.014 L269.865,421.269" id="Shape" stroke="#A2D126" stroke-width="2" fill="#A2D126"></path>
            <path d="M269.865,421.269 L275.21,421.264" id="Shape" stroke="#A2D126" stroke-width="2" fill="#A2D126"></path>
            <path d="M275.21,421.264 L280.495,421.919" id="Shape" stroke="#A2D126" stroke-width="2" fill="#A2D126"></path>
            <path d="M237.715,411.499 L238.945,416.229" id="Shape" stroke="#739A19" stroke-width="2" fill="#739A19"></path>
            <path d="M238.945,416.229 L238.934,420.628" id="Shape" stroke="#739A19" stroke-width="2" fill="#739A19"></path>
            <path d="M238.934,420.628 L238.912,429.536" id="Shape" stroke="#739A19" stroke-width="2" fill="#739A19"></path>
            <path d="M238.912,429.536 L238.895,439.249" id="Shape" stroke="#739A19" stroke-width="2" fill="#739A19"></path>
            <path d="M238.895,439.249 L238.885,445.999" id="Shape" stroke="#739A19" stroke-width="2" fill="#739A19"></path>
        </g>
    </g>
</svg>