<?xml version="1.0" encoding="UTF-8"?>
<svg width="120px" height="120px" viewBox="0 0 120 120" version="1.1" xmlns="http://www.w3.org/2000/svg" xmlns:xlink="http://www.w3.org/1999/xlink" style="background: #FFFFFF;">
    <!-- Generator: Sketch 49.3 (51167) - http://www.bohemiancoding.com/sketch -->
    <title>14</title>
    <desc>Created with Sketch.</desc>
    <defs></defs>
    <g id="Page-1" stroke="none" stroke-width="1" fill="none" fill-rule="evenodd">
        <g id="68747470733a2f2f63646e2e7261776769742e636f6d2f686172646d6172752f736b657463682d726e6e2f6d61737465722f6578616d706c652f747261696e696e672e737667" transform="translate(-497.000000, -340.000000)" fill-rule="nonzero">
            <rect id="Rectangle-path" fill="#FFFFFF" x="0" y="0" width="800" height="640"></rect>
            <path d="M543.301,359.125 L542.551,362.595" id="Shape" stroke="#234863" stroke-width="2" fill="#234863"></path>
            <path d="M542.551,362.595 L540.657,366.576" id="Shape" stroke="#234863" stroke-width="2" fill="#234863"></path>
            <path d="M540.657,366.576 L536.851,372.875" id="Shape" stroke="#234863" stroke-width="2" fill="#234863"></path>
            <path d="M529.001,374.595 L530.251,378.935" id="Shape" stroke="#31DC21" stroke-width="2" fill="#31DC21"></path>
            <path d="M530.251,378.935 L530.266,407.245" id="Shape" stroke="#31DC21" stroke-width="2" fill="#31DC21"></path>
            <path d="M530.266,407.245 L527.903,427.692" id="Shape" stroke="#31DC21" stroke-width="2" fill="#31DC21"></path>
            <path d="M527.903,427.692 L522.851,440.875" id="Shape" stroke="#31DC21" stroke-width="2" fill="#31DC21"></path>
            <path d="M531.101,376.685 L541.393,374.483" id="Shape" stroke="#7046CD" stroke-width="2" fill="#7046CD"></path>
            <path d="M541.393,374.483 L550.2,372.685" id="Shape" stroke="#7046CD" stroke-width="2" fill="#7046CD"></path>
            <path d="M550.2,372.685 L553.8,376.435" id="Shape" stroke="#7046CD" stroke-width="2" fill="#7046CD"></path>
            <path d="M553.8,376.435 L553.813,391.965" id="Shape" stroke="#7046CD" stroke-width="2" fill="#7046CD"></path>
            <path d="M553.813,391.965 L553.837,419.086" id="Shape" stroke="#7046CD" stroke-width="2" fill="#7046CD"></path>
            <path d="M553.837,419.086 L553.85,435.256" id="Shape" stroke="#7046CD" stroke-width="2" fill="#7046CD"></path>
            <path d="M553.85,435.256 L547.7,436.596" id="Shape" stroke="#7046CD" stroke-width="2" fill="#7046CD"></path>
            <path d="M538.85,381.996 L541.894,385.894" id="Shape" stroke="#2872C2" stroke-width="2" fill="#2872C2"></path>
            <path d="M541.894,385.894 L544.6,390.616" id="Shape" stroke="#2872C2" stroke-width="2" fill="#2872C2"></path>
            <path d="M541.4,400.016 L542.6,403.576" id="Shape" stroke="#8FE0B8" stroke-width="2" fill="#8FE0B8"></path>
            <path d="M542.6,403.576 L542.65,410.273" id="Shape" stroke="#8FE0B8" stroke-width="2" fill="#8FE0B8"></path>
            <path d="M542.65,410.273 L542.7,418.876" id="Shape" stroke="#8FE0B8" stroke-width="2" fill="#8FE0B8"></path>
            <path d="M542.7,418.876 L542.7,423.786" id="Shape" stroke="#8FE0B8" stroke-width="2" fill="#8FE0B8"></path>
            <path d="M519.85,403.876 L523.35,404.876" id="Shape" stroke="#876ABB" stroke-width="2" fill="#876ABB"></path>
            <path d="M523.35,404.876 L533.489,401.477" id="Shape" stroke="#876ABB" stroke-width="2" fill="#876ABB"></path>
            <path d="M533.489,401.477 L547.628,396.856" id="Shape" stroke="#876ABB" stroke-width="2" fill="#876ABB"></path>
            <path d="M547.628,396.856 L558.6,393.377" id="Shape" stroke="#876ABB" stroke-width="2" fill="#876ABB"></path>
            <path d="M582.1,360.377 L581.73,362.967" id="Shape" stroke="#A57A75" stroke-width="2" fill="#A57A75"></path>
            <path d="M581.73,362.967 L579.443,368.7" id="Shape" stroke="#A57A75" stroke-width="2" fill="#A57A75"></path>
            <path d="M579.443,368.7 L576.534,375.075" id="Shape" stroke="#A57A75" stroke-width="2" fill="#A57A75"></path>
            <path d="M576.534,375.075 L572.54,382.088" id="Shape" stroke="#A57A75" stroke-width="2" fill="#A57A75"></path>
            <path d="M565.79,383.808 L567.14,388.008" id="Shape" stroke="#12D15B" stroke-width="2" fill="#12D15B"></path>
            <path d="M567.14,388.008 L567.275,396.623" id="Shape" stroke="#12D15B" stroke-width="2" fill="#12D15B"></path>
            <path d="M567.275,396.623 L567.595,413.16" id="Shape" stroke="#12D15B" stroke-width="2" fill="#12D15B"></path>
            <path d="M567.595,413.16 L567.97,429.628" id="Shape" stroke="#12D15B" stroke-width="2" fill="#12D15B"></path>
            <path d="M567.97,429.628 L568.07,435.628" id="Shape" stroke="#12D15B" stroke-width="2" fill="#12D15B"></path>
            <path d="M567.97,385.368 L575.34,384.221" id="Shape" stroke="#310236" stroke-width="2" fill="#310236"></path>
            <path d="M575.34,384.221 L586.007,382.589" id="Shape" stroke="#310236" stroke-width="2" fill="#310236"></path>
            <path d="M586.007,382.589 L594.87,381.268" id="Shape" stroke="#310236" stroke-width="2" fill="#310236"></path>
            <path d="M594.87,381.268 L600.15,385.138" id="Shape" stroke="#310236" stroke-width="2" fill="#310236"></path>
            <path d="M600.15,385.138 L600.099,394.65" id="Shape" stroke="#310236" stroke-width="2" fill="#310236"></path>
            <path d="M600.099,394.65 L599.912,410.933" id="Shape" stroke="#310236" stroke-width="2" fill="#310236"></path>
            <path d="M599.912,410.933 L599.541,427.878" id="Shape" stroke="#310236" stroke-width="2" fill="#310236"></path>
            <path d="M599.541,427.878 L599.331,433.818" id="Shape" stroke="#310236" stroke-width="2" fill="#310236"></path>
            <path d="M568.191,406.888 L578.6,405.646" id="Shape" stroke="#26159A" stroke-width="2" fill="#26159A"></path>
            <path d="M578.6,405.646 L590.549,404.397" id="Shape" stroke="#26159A" stroke-width="2" fill="#26159A"></path>
            <path d="M590.549,404.397 L598.851,403.828" id="Shape" stroke="#26159A" stroke-width="2" fill="#26159A"></path>
            <path d="M569.061,432.058 L578.281,431.253" id="Shape" stroke="#02B98E" stroke-width="2" fill="#02B98E"></path>
            <path d="M578.281,431.253 L588.832,430.43" id="Shape" stroke="#02B98E" stroke-width="2" fill="#02B98E"></path>
            <path d="M588.832,430.43 L598.392,429.878" id="Shape" stroke="#02B98E" stroke-width="2" fill="#02B98E"></path>
        </g>
    </g>
</svg>