<?xml version="1.0" encoding="UTF-8"?>
<svg width="120px" height="120px" viewBox="0 0 120 120" version="1.1" xmlns="http://www.w3.org/2000/svg" xmlns:xlink="http://www.w3.org/1999/xlink" style="background: #FFFFFF;">
    <!-- Generator: Sketch 49.3 (51167) - http://www.bohemiancoding.com/sketch -->
    <title>15</title>
    <desc>Created with Sketch.</desc>
    <defs></defs>
    <g id="Page-1" stroke="none" stroke-width="1" fill="none" fill-rule="evenodd">
        <g id="68747470733a2f2f63646e2e7261776769742e636f6d2f686172646d6172752f736b657463682d726e6e2f6d61737465722f6578616d706c652f747261696e696e672e737667" transform="translate(-667.000000, -340.000000)" fill-rule="nonzero">
            <rect id="Rectangle-path" fill="#FFFFFF" x="0" y="0" width="800" height="640"></rect>
            <path d="M721.201,355.19 L726.0005,360.9395" id="Shape" stroke="#02B98E" stroke-width="2" fill="#02B98E"></path>
            <path d="M692.481,367.54 L698.3005,368.0795" id="Shape" stroke="#554D9D" stroke-width="2" fill="#554D9D"></path>
            <path d="M698.301,368.08 L715.1525,366.6065" id="Shape" stroke="#554D9D" stroke-width="2" fill="#554D9D"></path>
            <path d="M715.153,366.607 L733.0515,364.6895" id="Shape" stroke="#554D9D" stroke-width="2" fill="#554D9D"></path>
            <path d="M733.052,364.69 L750.4105,363.3495" id="Shape" stroke="#554D9D" stroke-width="2" fill="#554D9D"></path>
            <path d="M750.411,363.35 L755.7205,363.8795" id="Shape" stroke="#554D9D" stroke-width="2" fill="#554D9D"></path>
            <path d="M696.841,368.81 L696.7505,375.1895" id="Shape" stroke="#28D66A" stroke-width="2" fill="#28D66A"></path>
            <path d="M696.75,375.19 L694.9335,393.6585" id="Shape" stroke="#28D66A" stroke-width="2" fill="#28D66A"></path>
            <path d="M694.933,393.659 L690.4805,416.6185" id="Shape" stroke="#28D66A" stroke-width="2" fill="#28D66A"></path>
            <path d="M690.481,416.619 L681.6505,435.7805" id="Shape" stroke="#28D66A" stroke-width="2" fill="#28D66A"></path>
            <path d="M705.601,377.041 L710.5805,377.6105" id="Shape" stroke="#7B6A60" stroke-width="2" fill="#7B6A60"></path>
            <path d="M710.581,377.611 L724.7065,375.8765" id="Shape" stroke="#7B6A60" stroke-width="2" fill="#7B6A60"></path>
            <path d="M724.707,375.877 L738.6635,373.9285" id="Shape" stroke="#7B6A60" stroke-width="2" fill="#7B6A60"></path>
            <path d="M738.663,373.929 L746.8695,372.9005" id="Shape" stroke="#7B6A60" stroke-width="2" fill="#7B6A60"></path>
            <path d="M746.87,372.901 L749.9095,375.7205" id="Shape" stroke="#7B6A60" stroke-width="2" fill="#7B6A60"></path>
            <path d="M749.909,375.721 L747.1895,383.2105" id="Shape" stroke="#7B6A60" stroke-width="2" fill="#7B6A60"></path>
            <path d="M716.949,371.691 L718.3095,373.6205" id="Shape" stroke="#AB3F5B" stroke-width="2" fill="#AB3F5B"></path>
            <path d="M718.309,373.621 L718.7095,378.8455" id="Shape" stroke="#AB3F5B" stroke-width="2" fill="#AB3F5B"></path>
            <path d="M718.709,378.846 L719.3195,386.7105" id="Shape" stroke="#AB3F5B" stroke-width="2" fill="#AB3F5B"></path>
            <path d="M732.329,369.401 L733.6995,371.2605" id="Shape" stroke="#1DD53C" stroke-width="2" fill="#1DD53C"></path>
            <path d="M733.699,371.261 L733.3035,377.4515" id="Shape" stroke="#1DD53C" stroke-width="2" fill="#1DD53C"></path>
            <path d="M733.303,377.452 L732.5695,384.7005" id="Shape" stroke="#1DD53C" stroke-width="2" fill="#1DD53C"></path>
            <path d="M704.819,388.071 L707.9295,388.3405" id="Shape" stroke="#15919D" stroke-width="2" fill="#15919D"></path>
            <path d="M707.929,388.341 L719.0965,386.9065" id="Shape" stroke="#15919D" stroke-width="2" fill="#15919D"></path>
            <path d="M719.096,386.907 L735.5325,384.7525" id="Shape" stroke="#15919D" stroke-width="2" fill="#15919D"></path>
            <path d="M735.533,384.753 L747.1195,383.6915" id="Shape" stroke="#15919D" stroke-width="2" fill="#15919D"></path>
            <path d="M747.12,383.692 L749.9495,383.9615" id="Shape" stroke="#15919D" stroke-width="2" fill="#15919D"></path>
            <path d="M701.34,395.992 L706.6095,396.4815" id="Shape" stroke="#8D2E38" stroke-width="2" fill="#8D2E38"></path>
            <path d="M706.61,396.482 L723.3525,394.1155" id="Shape" stroke="#8D2E38" stroke-width="2" fill="#8D2E38"></path>
            <path d="M723.353,394.116 L740.5995,392.0145" id="Shape" stroke="#8D2E38" stroke-width="2" fill="#8D2E38"></path>
            <path d="M740.6,392.015 L752.3495,391.1615" id="Shape" stroke="#8D2E38" stroke-width="2" fill="#8D2E38"></path>
            <path d="M752.35,391.162 L751.9995,398.4015" id="Shape" stroke="#8D2E38" stroke-width="2" fill="#8D2E38"></path>
            <path d="M704.38,404.282 L702.7095,409.2275" id="Shape" stroke="#A828C6" stroke-width="2" fill="#A828C6"></path>
            <path d="M702.71,409.228 L699.0295,414.9315" id="Shape" stroke="#A828C6" stroke-width="2" fill="#A828C6"></path>
            <path d="M711.85,402.182 L720.5345,408.5505" id="Shape" stroke="#DF0F62" stroke-width="2" fill="#DF0F62"></path>
            <path d="M720.535,408.551 L730.8285,411.3615" id="Shape" stroke="#DF0F62" stroke-width="2" fill="#DF0F62"></path>
            <path d="M730.829,411.362 L742.3395,411.3105" id="Shape" stroke="#DF0F62" stroke-width="2" fill="#DF0F62"></path>
            <path d="M742.34,411.311 L744.5995,405.8205" id="Shape" stroke="#DF0F62" stroke-width="2" fill="#DF0F62"></path>
            <path d="M723.7,398.751 L728.0995,401.5905" id="Shape" stroke="#CC4F25" stroke-width="2" fill="#CC4F25"></path>
            <path d="M738.44,396.461 L745.3395,400.1005" id="Shape" stroke="#A1379A" stroke-width="2" fill="#A1379A"></path>
            <path d="M715.769,412.31 L715.6695,414.4605" id="Shape" stroke="#680A05" stroke-width="2" fill="#680A05"></path>
            <path d="M715.669,414.46 L712.6805,420.4475" id="Shape" stroke="#680A05" stroke-width="2" fill="#680A05"></path>
            <path d="M712.68,420.447 L706.5875,427.9795" id="Shape" stroke="#680A05" stroke-width="2" fill="#680A05"></path>
            <path d="M706.587,427.979 L698.0985,435.0005" id="Shape" stroke="#680A05" stroke-width="2" fill="#680A05"></path>
            <path d="M717.638,419.59 L719.9985,419.5305" id="Shape" stroke="#CFD93F" stroke-width="2" fill="#CFD93F"></path>
            <path d="M719.998,419.53 L727.7485,418.2015" id="Shape" stroke="#CFD93F" stroke-width="2" fill="#CFD93F"></path>
            <path d="M727.748,418.201 L736.3685,416.5805" id="Shape" stroke="#CFD93F" stroke-width="2" fill="#CFD93F"></path>
            <path d="M736.368,416.58 L738.6185,419.6005" id="Shape" stroke="#CFD93F" stroke-width="2" fill="#CFD93F"></path>
            <path d="M738.618,419.6 L731.0515,428.1055" id="Shape" stroke="#CFD93F" stroke-width="2" fill="#CFD93F"></path>
            <path d="M731.051,428.105 L717.6155,438.2525" id="Shape" stroke="#CFD93F" stroke-width="2" fill="#CFD93F"></path>
            <path d="M717.615,438.252 L701.3485,444.8105" id="Shape" stroke="#CFD93F" stroke-width="2" fill="#CFD93F"></path>
            <path d="M712.598,424.09 L724.8845,428.5115" id="Shape" stroke="#48344F" stroke-width="2" fill="#48344F"></path>
            <path d="M724.884,428.511 L740.7435,435.7485" id="Shape" stroke="#48344F" stroke-width="2" fill="#48344F"></path>
            <path d="M740.743,435.748 L752.4695,441.1695" id="Shape" stroke="#48344F" stroke-width="2" fill="#48344F"></path>
            <path d="M752.469,441.169 L758.3495,442.7495" id="Shape" stroke="#48344F" stroke-width="2" fill="#48344F"></path>
        </g>
    </g>
</svg>