<?xml version="1.0" encoding="UTF-8"?>
<svg width="120px" height="120px" viewBox="0 0 120 120" version="1.1" xmlns="http://www.w3.org/2000/svg" xmlns:xlink="http://www.w3.org/1999/xlink" style="background: #FFFFFF;">
    <!-- Generator: Sketch 49.3 (51167) - http://www.bohemiancoding.com/sketch -->
    <title>16</title>
    <desc>Created with Sketch.</desc>
    <defs></defs>
    <g id="Page-1" stroke="none" stroke-width="1" fill="none" fill-rule="evenodd">
        <g id="68747470733a2f2f63646e2e7261776769742e636f6d2f686172646d6172752f736b657463682d726e6e2f6d61737465722f6578616d706c652f747261696e696e672e737667" transform="translate(-22.000000, -500.000000)" fill-rule="nonzero">
            <rect id="Rectangle-path" fill="#FFFFFF" x="0" y="0" width="800" height="640"></rect>
            <path d="M45.226,527.645 L51.026,528.2455" id="Shape" stroke="#48344F" stroke-width="2" fill="#48344F"></path>
            <path d="M51.026,528.245 L66.652,526.6295" id="Shape" stroke="#48344F" stroke-width="2" fill="#48344F"></path>
            <path d="M66.652,526.63 L87.827,524.4355" id="Shape" stroke="#48344F" stroke-width="2" fill="#48344F"></path>
            <path d="M87.827,524.436 L106.986,522.7055" id="Shape" stroke="#48344F" stroke-width="2" fill="#48344F"></path>
            <path d="M106.986,522.706 L112.276,523.2255" id="Shape" stroke="#48344F" stroke-width="2" fill="#48344F"></path>
            <path d="M58.346,532.296 L58.226,533.7655" id="Shape" stroke="#A6D535" stroke-width="2" fill="#A6D535"></path>
            <path d="M58.226,533.766 L55.346,539.4355" id="Shape" stroke="#A6D535" stroke-width="2" fill="#A6D535"></path>
            <path d="M55.346,539.436 L50.375,545.5215" id="Shape" stroke="#A6D535" stroke-width="2" fill="#A6D535"></path>
            <path d="M50.375,545.522 L43.535,551.5655" id="Shape" stroke="#A6D535" stroke-width="2" fill="#A6D535"></path>
            <path d="M58.445,540.826 L63.313,543.8475" id="Shape" stroke="#054FB1" stroke-width="2" fill="#054FB1"></path>
            <path d="M63.313,543.848 L66.995,548.2355" id="Shape" stroke="#054FB1" stroke-width="2" fill="#054FB1"></path>
            <path d="M97.725,529.476 L97.645,530.5655" id="Shape" stroke="#22650E" stroke-width="2" fill="#22650E"></path>
            <path d="M97.645,530.566 L93.796,537.3145" id="Shape" stroke="#22650E" stroke-width="2" fill="#22650E"></path>
            <path d="M93.796,537.315 L87.405,544.0855" id="Shape" stroke="#22650E" stroke-width="2" fill="#22650E"></path>
            <path d="M95.495,538.006 L101.629,542.3735" id="Shape" stroke="#9A5876" stroke-width="2" fill="#9A5876"></path>
            <path d="M101.629,542.374 L106.375,547.7455" id="Shape" stroke="#9A5876" stroke-width="2" fill="#9A5876"></path>
            <path d="M76.795,516.376 L78.285,518.5355" id="Shape" stroke="#7DB15D" stroke-width="2" fill="#7DB15D"></path>
            <path d="M78.285,518.536 L78.279,530.0675" id="Shape" stroke="#7DB15D" stroke-width="2" fill="#7DB15D"></path>
            <path d="M78.279,530.068 L78.235,544.9735" id="Shape" stroke="#7DB15D" stroke-width="2" fill="#7DB15D"></path>
            <path d="M78.235,544.974 L78.115,554.6255" id="Shape" stroke="#7DB15D" stroke-width="2" fill="#7DB15D"></path>
            <path d="M78.125,541.426 L68.931,551.6485" id="Shape" stroke="#858D0B" stroke-width="2" fill="#858D0B"></path>
            <path d="M68.931,551.649 L55.915,562.0655" id="Shape" stroke="#858D0B" stroke-width="2" fill="#858D0B"></path>
            <path d="M55.915,562.066 L42.235,569.6555" id="Shape" stroke="#858D0B" stroke-width="2" fill="#858D0B"></path>
            <path d="M78.285,542.256 L88.166,548.8815" id="Shape" stroke="#8429B7" stroke-width="2" fill="#8429B7"></path>
            <path d="M88.166,548.882 L102.29,558.3895" id="Shape" stroke="#8429B7" stroke-width="2" fill="#8429B7"></path>
            <path d="M102.29,558.39 L112.465,564.9755" id="Shape" stroke="#8429B7" stroke-width="2" fill="#8429B7"></path>
            <path d="M112.465,564.976 L117.765,566.8255" id="Shape" stroke="#8429B7" stroke-width="2" fill="#8429B7"></path>
            <path d="M74.765,557.876 L74.625,560.5355" id="Shape" stroke="#54C3C1" stroke-width="2" fill="#54C3C1"></path>
            <path d="M74.625,560.536 L70.253,567.9635" id="Shape" stroke="#54C3C1" stroke-width="2" fill="#54C3C1"></path>
            <path d="M70.253,567.964 L61.343,577.3075" id="Shape" stroke="#54C3C1" stroke-width="2" fill="#54C3C1"></path>
            <path d="M61.343,577.308 L48.924,586.0155" id="Shape" stroke="#54C3C1" stroke-width="2" fill="#54C3C1"></path>
            <path d="M73.324,568.006 L75.444,568.1855" id="Shape" stroke="#C3AF42" stroke-width="2" fill="#C3AF42"></path>
            <path d="M75.444,568.186 L84.248,565.9655" id="Shape" stroke="#C3AF42" stroke-width="2" fill="#C3AF42"></path>
            <path d="M84.248,565.966 L93.164,563.3855" id="Shape" stroke="#C3AF42" stroke-width="2" fill="#C3AF42"></path>
            <path d="M93.164,563.385 L95.334,565.5155" id="Shape" stroke="#C3AF42" stroke-width="2" fill="#C3AF42"></path>
            <path d="M95.334,565.515 L87.511,578.6665" id="Shape" stroke="#C3AF42" stroke-width="2" fill="#C3AF42"></path>
            <path d="M87.511,578.666 L74.394,592.2135" id="Shape" stroke="#C3AF42" stroke-width="2" fill="#C3AF42"></path>
            <path d="M74.394,592.213 L55.884,603.6245" id="Shape" stroke="#C3AF42" stroke-width="2" fill="#C3AF42"></path>
            <path d="M67.044,579.514 L76.968,583.8245" id="Shape" stroke="#7E4824" stroke-width="2" fill="#7E4824"></path>
            <path d="M76.968,583.824 L86.17,590.0315" id="Shape" stroke="#7E4824" stroke-width="2" fill="#7E4824"></path>
            <path d="M86.17,590.031 L93.494,597.1145" id="Shape" stroke="#7E4824" stroke-width="2" fill="#7E4824"></path>
        </g>
    </g>
</svg>