<?xml version="1.0" encoding="utf-8" ?>
<svg baseProfile="full" height="109" version="1.1" width="109" xmlns="http://www.w3.org/2000/svg" xmlns:ev="http://www.w3.org/2001/xml-events" xmlns:xlink="http://www.w3.org/1999/xlink"><defs /><rect fill="white" height="109" width="109" x="0" y="0" /><path d="M9.21935483871,34.7698924731 m3,0 l32,-2 m-17,-25 l2,5 0,86 l-7,1 m7,-63 l-14,31 -10,15 m28,-37 l10,11 m32,-52 l3,6 2,8 m-30,8 l5,0 49,-3 l4,0 m-36,16 l22,6 4,4 l-10,31 -6,12 l-9,-1 m0,-65 l0,6 -6,18 l-10,22 -15,18 " fill="none" stroke="black" stroke-width="2" /></svg>