<?xml version="1.0" encoding="utf-8" ?>
<svg baseProfile="full" height="109" version="1.1" width="109" xmlns="http://www.w3.org/2000/svg" xmlns:ev="http://www.w3.org/2001/xml-events" xmlns:xlink="http://www.w3.org/1999/xlink"><defs /><rect fill="white" height="109" width="109" x="0" y="0" /><path d="M57.6287553648,5.0 m7,8 m-42,9 l7,0 65,-4 l6,0 m-72,4 l-1,38 -5,24 l-11,18 m0,-67 l5,4 3,5 m-14,23 l3,0 14,-9 m42,-33 l1,4 0,11 m0,-8 l24,-1 m-49,10 l1,4 -1,25 l-4,21 -10,16 m17,-64 l51,-4 0,8 m-46,9 l38,-3 m-22,-7 l1,2 0,9 l2,5 9,0 l14,0 m-40,10 l45,-1 m-41,2 l1,2 0,22 l3,3 22,-3 l16,0 m-59,-11 l6,0 35,-3 l25,0 " fill="none" stroke="black" stroke-width="2" /></svg>