<?xml version="1.0" encoding="utf-8" ?>
<svg baseProfile="full" height="109" version="1.1" width="109" xmlns="http://www.w3.org/2000/svg" xmlns:ev="http://www.w3.org/2001/xml-events" xmlns:xlink="http://www.w3.org/1999/xlink"><defs /><rect fill="white" height="109" width="109" x="0" y="0" /><path d="M10.4381778742,32.6637744035 m-1,11 l-3,10 m24,-24 l4,7 3,8 m-18,-38 l2,4 0,101 m48,-106 l0,1 -3,7 l-6,8 m-11,0 l1,3 4,30 m-4,-31 l43,-4 2,4 l-5,28 m-38,-14 l41,-3 m-39,18 l36,-2 m-45,16 l54,-1 m-30,4 l1,6 0,28 m-23,-18 l47,-2 m-56,23 l6,0 55,-3 l7,1 " fill="none" stroke="black" stroke-width="2" /></svg>