<?xml version="1.0" encoding="utf-8" ?>
<svg baseProfile="full" height="109" version="1.1" width="109" xmlns="http://www.w3.org/2000/svg" xmlns:ev="http://www.w3.org/2001/xml-events" xmlns:xlink="http://www.w3.org/1999/xlink"><defs /><rect fill="white" height="109" width="109" x="0" y="0" /><path d="M11.3118040089,11.3118040089 m1,3 l0,50 m1,-52 l25,-4 6,0 m-17,3 l0,4 0,44 m-15,-31 l30,-2 m-29,18 l29,-2 m-30,21 l30,-4 4,4 l-1,13 -3,13 l-5,10 -7,0 m-21,-23 l-2,16 m9,-18 l3,13 m5,-17 l4,12 m4,-16 l5,11 m37,-75 l0,3 -5,7 l-10,13 1,3 l40,-10 m-8,-9 l8,9 5,10 m-38,3 l0,3 -5,8 l-9,8 m31,-25 l1,13 2,5 l10,1 12,-2 m-36,4 l0,3 -4,8 l-16,21 m23,-24 l6,0 14,-3 l3,4 -10,16 l-17,16 -20,12 m16,-38 l8,6 25,25 l10,7 " fill="none" stroke="black" stroke-width="2" /></svg>