<?xml version="1.0" encoding="utf-8" ?>
<svg baseProfile="full" height="109" version="1.1" width="109" xmlns="http://www.w3.org/2000/svg" xmlns:ev="http://www.w3.org/2001/xml-events" xmlns:xlink="http://www.w3.org/1999/xlink"><defs /><rect fill="white" height="109" width="109" x="0" y="0" /><path d="M53.6819172113,5.0 m2,3 l0,7 m-40,2 l75,-3 5,0 m-72,10 l4,14 m-1,-12 l21,-2 2,1 l-3,8 m-18,2 l19,-2 m12,-11 l4,13 m-1,-12 l23,-2 2,1 l-4,9 m-20,2 l23,-1 m-66,17 l68,-3 m-50,-5 l2,4 1,25 m25,-30 l1,4 -1,24 m-48,-8 l6,0 61,-4 m-80,17 l91,-4 m-56,4 l0,2 -7,6 l-13,8 -18,9 m31,-14 l1,2 0,19 l3,0 19,-14 m20,-23 l0,1 -3,4 l-7,6 m-15,-6 l40,27 5,2 " fill="none" stroke="black" stroke-width="2" /></svg>