<?xml version="1.0" encoding="utf-8" ?>
<svg baseProfile="full" height="109" version="1.1" width="109" xmlns="http://www.w3.org/2000/svg" xmlns:ev="http://www.w3.org/2001/xml-events" xmlns:xlink="http://www.w3.org/1999/xlink"><defs /><rect fill="white" height="109" width="109" x="0" y="0" /><path d="M31.5912087912,6.67692307692 m0,2 l-6,13 m-13,1 l1,3 3,31 m-2,-33 l32,-4 6,6 l-4,27 m-17,-30 l1,3 0,25 m-16,-11 l33,-4 m-32,19 l29,-3 m-22,12 l0,3 -3,12 l-6,12 -10,10 m30,-47 l1,5 0,22 l1,10 9,4 l23,0 23,-1 l9,-3 1,-6 m-54,-29 l-3,11 -4,7 l1,2 11,-4 m-1,-4 l4,8 m3,-57 l38,-2 m-44,23 l52,-4 m-28,-36 l1,4 0,81 m-1,-46 l-6,14 -14,15 m23,-29 l18,21 8,6 " fill="none" stroke="black" stroke-width="2" /></svg>