<?xml version="1.0" encoding="utf-8" ?>
<svg baseProfile="full" height="109" version="1.1" width="109" xmlns="http://www.w3.org/2000/svg" xmlns:ev="http://www.w3.org/2001/xml-events" xmlns:xlink="http://www.w3.org/1999/xlink"><defs /><rect fill="white" height="109" width="109" x="0" y="0" /><path d="M5.0,33.2681318681 m4,0 l33,-3 m-18,-25 l3,5 0,92 l-7,2 m7,-69 l-11,28 -8,14 m22,-33 l10,13 m4,-43 l61,-3 m-43,5 l1,5 0,21 m-15,2 l20,-3 m-21,0 l1,4 -1,20 l1,1 14,-2 l1,2 0,31 m15,-86 l0,4 -1,19 l1,1 19,-2 l1,2 -3,23 m-17,1 l21,-2 m-23,0 l1,5 0,30 m-42,1 l71,-1 " fill="none" stroke="black" stroke-width="2" /></svg>