<?xml version="1.0" encoding="utf-8" ?>
<svg baseProfile="full" height="109" version="1.1" width="109" xmlns="http://www.w3.org/2000/svg" xmlns:ev="http://www.w3.org/2001/xml-events" xmlns:xlink="http://www.w3.org/1999/xlink"><defs /><rect fill="white" height="109" width="109" x="0" y="0" /><path d="M16.275862069,19.3297413793 m0,3 l-5,21 -5,11 m10,-16 l27,-2 m-15,-30 l2,3 0,96 l-8,1 m-14,-33 l5,0 28,-17 m9,-40 l51,-3 m-31,5 l1,3 -8,37 m-10,-23 l4,0 32,-3 l3,3 -3,21 m-45,3 l65,-3 m-59,16 l3,11 3,24 m-5,-32 l40,-4 3,2 l-4,28 m-34,2 l37,-2 " fill="none" stroke="black" stroke-width="2" /></svg>