<?xml version="1.0" encoding="utf-8" ?>
<svg baseProfile="full" height="109" version="1.1" width="109" xmlns="http://www.w3.org/2000/svg" xmlns:ev="http://www.w3.org/2001/xml-events" xmlns:xlink="http://www.w3.org/1999/xlink"><defs /><rect fill="white" height="109" width="109" x="0" y="0" /><path d="M29.7831578947,6.14736842105 m0,2 l-4,10 -9,14 l-11,12 m25,-33 l12,10 4,6 m-30,8 l26,-1 m-35,19 l39,-1 m-19,-13 l1,3 0,48 m-18,-23 l5,9 2,7 m26,-22 l0,2 -8,11 m-28,20 l5,0 31,-14 m3,-48 l61,-1 m-50,-28 l2,3 0,93 m30,-99 l2,3 0,94 m-31,-35 l22,-1 m-22,35 l31,-1 " fill="none" stroke="black" stroke-width="2" /></svg>