<?xml version="1.0" encoding="utf-8" ?>
<svg baseProfile="full" height="109" version="1.1" width="109" xmlns="http://www.w3.org/2000/svg" xmlns:ev="http://www.w3.org/2001/xml-events" xmlns:xlink="http://www.w3.org/1999/xlink"><defs /><rect fill="white" height="109" width="109" x="0" y="0" /><path d="M21.4622425629,7.4942791762 m5,4 l3,5 m-25,12 l38,-2 m-30,20 l26,-2 m-25,18 l24,-2 m-26,17 l5,26 m-2,-23 l23,-4 2,2 l-4,19 m-19,3 l21,-2 m32,-95 l5,5 2,7 m-28,8 l-3,17 m4,-15 l53,-6 -2,10 m-1,11 l0,2 -6,6 l-11,8 -13,6 m-4,-30 l1,3 0,52 l3,9 8,2 l22,0 7,-3 l3,-12 " fill="none" stroke="black" stroke-width="2" /></svg>