<?xml version="1.0" encoding="utf-8" ?>
<svg baseProfile="full" height="109" version="1.1" width="109" xmlns="http://www.w3.org/2000/svg" xmlns:ev="http://www.w3.org/2001/xml-events" xmlns:xlink="http://www.w3.org/1999/xlink"><defs /><rect fill="white" height="109" width="109" x="0" y="0" /><path d="M5.0,36.3900226757 m4,0 l29,-4 m-16,-25 l3,5 0,92 l-9,2 m9,-68 l-11,31 -7,15 m23,-39 l10,12 m27,-48 l4,1 31,-5 l2,4 -18,13 m-7,-4 l6,3 5,5 m-21,6 l0,2 0,54 m0,-55 l35,-4 3,3 l0,52 -6,0 m-31,-36 l28,-2 m-28,18 l28,-2 m-11,-28 l1,2 0,52 m-40,-82 l6,5 4,6 m-18,16 l12,7 m-14,21 l4,0 9,-4 l2,2 -4,9 l0,5 3,5 l0,4 -11,9 m-4,0 l11,0 39,7 l16,0 " fill="none" stroke="black" stroke-width="2" /></svg>