<?xml version="1.0" encoding="utf-8" ?>
<svg baseProfile="full" height="109" version="1.1" width="109" xmlns="http://www.w3.org/2000/svg" xmlns:ev="http://www.w3.org/2001/xml-events" xmlns:xlink="http://www.w3.org/1999/xlink"><defs /><rect fill="white" height="109" width="109" x="0" y="0" /><path d="M5.0,27.9600886918 m1,3 l0,57 m0,-58 l18,-3 5,3 l0,55 m-23,-29 l21,-2 m-22,31 l22,-2 m35,-78 l0,5 -4,9 l-13,20 m15,-15 l41,-5 m-42,19 l0,5 -12,34 l2,5 27,4 l13,4 12,6 m-43,-58 l4,0 25,-3 l6,4 -3,22 l-5,24 -5,16 l-8,-1 m-2,-56 l6,7 m-9,14 l6,7 m-36,-13 l61,-3 12,0 " fill="none" stroke="black" stroke-width="2" /></svg>