<?xml version="1.0" encoding="utf-8" ?>
<svg baseProfile="full" height="109" version="1.1" width="109" xmlns="http://www.w3.org/2000/svg" xmlns:ev="http://www.w3.org/2001/xml-events" xmlns:xlink="http://www.w3.org/1999/xlink"><defs /><rect fill="white" height="109" width="109" x="0" y="0" /><path d="M11.7345537757,7.24485125858 m10,5 l6,5 m-23,23 l10,4 6,5 m-13,44 l4,0 14,-25 m15,-60 l1,3 4,30 m-3,-32 l43,-5 4,5 l-4,26 m-38,4 l41,-3 m-32,10 l0,4 -4,14 l-9,16 -16,15 m47,-58 l1,5 0,36 l2,11 15,2 l13,-2 2,-12 " fill="none" stroke="black" stroke-width="2" /></svg>