<?xml version="1.0" encoding="utf-8" ?>
<svg baseProfile="full" height="109" version="1.1" width="109" xmlns="http://www.w3.org/2000/svg" xmlns:ev="http://www.w3.org/2001/xml-events" xmlns:xlink="http://www.w3.org/1999/xlink"><defs /><rect fill="white" height="109" width="109" x="0" y="0" /><path d="M14.3298538622,13.4196242171 m1,3 l-1,50 -2,13 l-6,14 m11,-81 l14,-3 4,3 l0,75 -8,3 m-9,-56 l10,-1 m-10,21 l11,-1 m39,-50 l9,11 m-29,7 l5,0 49,-5 l5,0 m-55,4 l-1,25 -3,22 l-6,19 m31,-61 l-4,13 -12,21 m8,-7 l1,3 0,38 m8,-50 l38,-2 m-18,-20 l2,4 0,62 l-7,0 m-12,-34 l5,6 3,8 " fill="none" stroke="black" stroke-width="2" /></svg>