<?xml version="1.0" encoding="utf-8" ?>
<svg baseProfile="full" height="109" version="1.1" width="109" xmlns="http://www.w3.org/2000/svg" xmlns:ev="http://www.w3.org/2001/xml-events" xmlns:xlink="http://www.w3.org/1999/xlink"><defs /><rect fill="white" height="109" width="109" x="0" y="0" /><path d="M14.0833333333,13.4020833333 m0,3 l-1,55 -2,13 l-5,12 m11,-84 l14,-2 3,3 l0,77 -7,2 m-9,-58 l11,-1 m-11,23 l10,-1 m15,-37 l3,0 52,-5 l4,0 m-44,-7 l1,2 2,17 m21,-21 l-3,16 m-32,15 l0,24 -2,19 l-5,17 m5,-62 l54,-3 m-42,16 l22,-2 m-23,2 l0,47 m11,-47 l1,1 0,11 m-12,2 l20,-3 2,2 l-1,9 m-21,4 l22,-3 m-10,3 l0,13 m-12,2 l24,-3 m0,-64 l1,4 3,26 l8,24 11,16 l3,-5 m-10,-46 l-3,20 -6,16 l-10,13 m18,-76 l6,9 " fill="none" stroke="black" stroke-width="2" /></svg>