<?xml version="1.0" encoding="utf-8" ?>
<svg baseProfile="full" height="109" version="1.1" width="109" xmlns="http://www.w3.org/2000/svg" xmlns:ev="http://www.w3.org/2001/xml-events" xmlns:xlink="http://www.w3.org/1999/xlink"><defs /><rect fill="white" height="109" width="109" x="0" y="0" /><path d="M41.4096638655,7.74789915966 m0,3 l0,26 m0,-28 l24,-2 2,1 l-2,27 m-19,-19 l13,0 m-17,8 l16,-1 1,0 l-2,6 m-16,1 l17,-1 m-28,-23 l-5,4 -9,3 m-2,-1 l2,2 2,22 m-1,-17 l16,-1 m-15,10 l16,-1 m41,-19 l17,-1 2,2 l-5,24 m-14,-16 l4,0 13,-1 m-17,10 l13,-1 m-81,12 l-4,16 m4,-14 l88,-5 0,8 m-74,2 l5,0 53,-3 m-61,10 l1,2 2,23 m0,-24 l58,-4 2,3 l-1,23 m-40,-31 l0,1 -5,10 l-10,6 m29,-18 l1,1 0,7 l2,3 8,0 l10,-1 m-56,12 l58,-3 m-58,11 l58,-3 m-46,7 l-7,7 -10,5 l-10,3 m54,-17 l9,3 18,10 l7,1 m-68,-2 l39,-2 4,3 l-2,7 -5,7 l-10,0 m-7,-17 l0,1 -5,7 l-8,6 -12,6 " fill="none" stroke="black" stroke-width="2" /></svg>