<?xml version="1.0" encoding="utf-8" ?>
<svg baseProfile="full" height="109" version="1.1" width="109" xmlns="http://www.w3.org/2000/svg" xmlns:ev="http://www.w3.org/2001/xml-events" xmlns:xlink="http://www.w3.org/1999/xlink"><defs /><rect fill="white" height="109" width="109" x="0" y="0" /><path d="M5.0,9.06359649123 m1,5 l0,97 m0,-99 l25,-3 3,1 l-1,27 m-26,-13 l26,-3 m-27,17 l25,-3 m29,-27 l0,3 0,27 m0,-28 l27,-3 3,2 l0,98 -10,1 m-19,-86 l28,-2 m-29,15 l30,-1 m-71,19 l48,-2 m-48,13 l3,17 m-2,-15 l17,-2 1,1 l-2,12 m-14,1 l15,-1 m-21,18 l3,0 20,-9 m3,-49 l2,4 3,22 l7,19 11,14 l3,-5 m-7,-31 l0,3 -4,10 l-9,12 -13,11 m28,-58 l7,5 " fill="none" stroke="black" stroke-width="2" /></svg>