<?xml version="1.0" encoding="utf-8" ?>
<svg baseProfile="full" height="109" version="1.1" width="109" xmlns="http://www.w3.org/2000/svg" xmlns:ev="http://www.w3.org/2001/xml-events" xmlns:xlink="http://www.w3.org/1999/xlink"><defs /><rect fill="white" height="109" width="109" x="0" y="0" /><path d="M44.7244444444,23.6511111111 m7,0 l49,-5 m-54,20 l5,21 m-3,-19 l43,-6 4,4 l-4,12 m-38,5 l41,-4 m-24,-48 l1,3 0,89 m-2,-41 l-1,3 -8,11 l-10,10 -11,7 m38,-24 l17,12 8,8 m-89,-71 l7,6 5,7 m-23,27 l5,0 13,-4 l2,3 -5,13 l6,9 0,5 l-12,10 m-5,1 l16,0 56,14 l19,2 " fill="none" stroke="black" stroke-width="2" /></svg>