<?xml version="1.0" encoding="utf-8" ?>
<svg baseProfile="full" height="109" version="1.1" width="109" xmlns="http://www.w3.org/2000/svg" xmlns:ev="http://www.w3.org/2001/xml-events" xmlns:xlink="http://www.w3.org/1999/xlink"><defs /><rect fill="white" height="109" width="109" x="0" y="0" /><path d="M24.7753779698,7.35421166307 m1,1 l4,31 m-3,-31 l53,-4 6,4 l-4,27 m-54,-14 l37,-2 m-33,16 l48,-2 m-75,16 l7,0 58,-4 l32,0 m-81,6 l1,3 0,42 m21,-47 l1,2 0,60 m-21,-47 l13,-1 m-13,16 l12,-1 m-26,24 l2,2 33,-16 m13,-25 l4,0 21,-4 l2,3 -8,17 l-11,14 -14,12 m3,-36 l25,22 17,12 l6,2 " fill="none" stroke="black" stroke-width="2" /></svg>