<?xml version="1.0" encoding="utf-8" ?>
<svg baseProfile="full" height="109" version="1.1" width="109" xmlns="http://www.w3.org/2000/svg" xmlns:ev="http://www.w3.org/2001/xml-events" xmlns:xlink="http://www.w3.org/1999/xlink"><defs /><rect fill="white" height="109" width="109" x="0" y="0" /><path d="M11.1698113208,12.4551886792 m4,0 l34,-3 16,0 m-56,18 l5,23 m-3,-22 l50,-6 3,5 l-4,19 m-34,-31 l1,4 1,26 m17,-35 l1,6 -2,28 m-30,2 l47,-4 m-44,18 l40,-2 m-53,16 l4,0 56,-5 l4,0 m-32,6 l1,6 0,25 l-9,0 m-10,-22 l-5,11 -11,10 m52,-21 l7,8 5,10 m14,-83 l2,6 0,48 m21,-73 l2,6 0,92 l-11,0 " fill="none" stroke="black" stroke-width="2" /></svg>