<?xml version="1.0" encoding="utf-8" ?>
<svg baseProfile="full" height="109" version="1.1" width="109" xmlns="http://www.w3.org/2000/svg" xmlns:ev="http://www.w3.org/2001/xml-events" xmlns:xlink="http://www.w3.org/1999/xlink"><defs /><rect fill="white" height="109" width="109" x="0" y="0" /><path d="M5.0,31.7484662577 m0,1 l5,30 m-3,-29 l22,-4 2,2 l-4,23 m-17,3 l20,-2 m35,-51 l8,8 m-37,9 l6,0 36,-3 l26,0 m-63,4 l-1,28 -4,26 l-8,22 m17,-51 l25,-2 m-14,-17 l2,3 0,64 l-6,1 m-2,-37 l0,11 -2,10 l-5,10 m25,-34 l1,2 0,25 m8,-43 l31,-2 m-20,-16 l2,3 0,69 l-6,2 m-3,-43 l0,11 -4,19 m23,-36 l1,3 0,31 l4,1 6,-8 " fill="none" stroke="black" stroke-width="2" /></svg>