<?xml version="1.0" encoding="utf-8" ?>
<svg baseProfile="full" height="109" version="1.1" width="109" xmlns="http://www.w3.org/2000/svg" xmlns:ev="http://www.w3.org/2001/xml-events" xmlns:xlink="http://www.w3.org/1999/xlink"><defs /><rect fill="white" height="109" width="109" x="0" y="0" /><path d="M50.9956043956,5.0 m5,4 l3,5 m-42,7 l-3,21 m5,-17 l74,-7 0,10 m-49,3 l-3,7 -6,6 l-10,5 m42,-25 l1,12 4,5 l22,0 m-88,35 l4,0 38,-6 m-26,-10 l1,2 0,33 l9,6 16,0 m7,-39 l6,0 35,-5 l7,4 -9,31 l-6,14 -11,0 m0,-40 l0,4 -5,13 l-8,12 -13,12 " fill="none" stroke="black" stroke-width="2" /></svg>