<?xml version="1.0" encoding="utf-8" ?>
<svg baseProfile="full" height="109" version="1.1" width="109" xmlns="http://www.w3.org/2000/svg" xmlns:ev="http://www.w3.org/2001/xml-events" xmlns:xlink="http://www.w3.org/1999/xlink"><defs /><rect fill="white" height="109" width="109" x="0" y="0" /><path d="M29.004494382,19.4516853933 m4,0 l44,-4 m-26,-9 l2,4 0,34 m-28,-10 l55,-5 m-75,21 l7,0 84,-8 l9,0 m-58,5 l-13,14 0,2 l11,5 m22,-23 l0,4 -32,29 l0,1 40,-7 m-6,-5 l8,5 5,6 m-30,0 l1,2 0,25 l-8,0 m-16,-16 l0,4 -17,14 m64,-21 l9,8 7,8 " fill="none" stroke="black" stroke-width="2" /></svg>