<?xml version="1.0" encoding="utf-8" ?>
<svg baseProfile="full" height="109" version="1.1" width="109" xmlns="http://www.w3.org/2000/svg" xmlns:ev="http://www.w3.org/2001/xml-events" xmlns:xlink="http://www.w3.org/1999/xlink"><defs /><rect fill="white" height="109" width="109" x="0" y="0" /><path d="M24.1934782609,12.8195652174 m0,5 l-1,15 -5,31 l0,3 8,3 l7,5 6,6 m0,-52 l0,6 -4,21 l-9,21 -16,17 m-4,-50 l5,1 40,-9 m6,-9 l36,-3 m-46,24 l5,0 51,-4 m-32,-42 l2,3 0,94 l-7,0 m5,-51 l-8,16 -12,16 l-14,11 m41,-43 l7,13 10,13 l10,10 4,3 " fill="none" stroke="black" stroke-width="2" /></svg>