<?xml version="1.0" encoding="utf-8" ?>
<svg baseProfile="full" height="109" version="1.1" width="109" xmlns="http://www.w3.org/2000/svg" xmlns:ev="http://www.w3.org/2001/xml-events" xmlns:xlink="http://www.w3.org/1999/xlink"><defs /><rect fill="white" height="109" width="109" x="0" y="0" /><path d="M30.7010526316,5.0 m0,1 l-4,5 -8,6 l-12,6 m23,-13 l30,-4 1,2 l-10,10 m-35,1 l1,3 2,17 m0,-18 l60,-5 3,4 l-2,13 m-32,-12 l-5,6 -10,5 m18,-9 l11,3 7,3 m-42,8 l1,3 0,26 m0,-28 l39,-4 3,2 l-1,27 m-40,-17 l27,-2 m-27,11 l27,-2 m-27,11 l40,-2 m-32,4 l0,1 -4,5 l-8,6 -11,6 m22,-13 l28,-3 1,3 l-10,10 -18,12 l-23,8 m18,-28 l33,17 14,7 l7,2 " fill="none" stroke="black" stroke-width="2" /></svg>