<?xml version="1.0" encoding="utf-8" ?>
<svg baseProfile="full" height="109" version="1.1" width="109" xmlns="http://www.w3.org/2000/svg" xmlns:ev="http://www.w3.org/2001/xml-events" xmlns:xlink="http://www.w3.org/1999/xlink"><defs /><rect fill="white" height="109" width="109" x="0" y="0" /><path d="M26.1042553191,14.5085106383 m0,4 l-6,31 -4,13 l0,2 9,3 l7,4 6,6 m0,-48 l0,7 -4,19 l-10,20 -16,16 m-4,-51 l4,1 36,-8 m26,-33 l6,5 5,7 m-32,9 l5,0 49,-5 l4,0 m-36,19 l22,4 4,4 l-10,31 -6,12 l-10,-1 m3,-65 l0,5 -6,17 l-11,20 -15,16 " fill="none" stroke="black" stroke-width="2" /></svg>