<?xml version="1.0" encoding="utf-8" ?>
<svg baseProfile="full" height="109" version="1.1" width="109" xmlns="http://www.w3.org/2000/svg" xmlns:ev="http://www.w3.org/2001/xml-events" xmlns:xlink="http://www.w3.org/1999/xlink"><defs /><rect fill="white" height="109" width="109" x="0" y="0" /><path d="M5.0,16.5496688742 m0,3 l0,74 m0,-76 l18,-3 3,2 l0,75 m-21,-40 l21,-2 m-21,41 l21,-1 m43,-84 l2,4 0,12 m-32,0 l-4,20 m5,-16 l62,-4 0,10 m-55,10 l49,-2 m-44,16 l1,4 1,33 m-1,-36 l35,-3 3,3 l-2,33 m-35,-17 l36,-2 m-34,20 l33,-1 m-55,20 l76,0 " fill="none" stroke="black" stroke-width="2" /></svg>