<?xml version="1.0" encoding="utf-8" ?>
<svg baseProfile="full" height="109" version="1.1" width="109" xmlns="http://www.w3.org/2000/svg" xmlns:ev="http://www.w3.org/2001/xml-events" xmlns:xlink="http://www.w3.org/1999/xlink"><defs /><rect fill="white" height="109" width="109" x="0" y="0" /><path d="M40.7617977528,19.206741573 m7,0 l62,-1 m-38,-12 l1,3 0,27 m-27,0 l1,6 0,51 m0,-56 l53,-2 4,5 l0,44 -9,1 m-33,-43 l5,9 m17,-10 l-1,6 -3,6 m-21,2 l36,-1 m-38,16 l41,-2 m-23,-9 l1,4 0,26 m-60,-82 l8,5 5,6 m-19,12 l10,4 6,5 m-20,19 l5,0 12,-3 l3,2 -5,8 l1,5 4,5 l0,3 -13,8 m-7,3 l17,0 59,15 l12,1 11,0 " fill="none" stroke="black" stroke-width="2" /></svg>