<?xml version="1.0" encoding="utf-8" ?>
<svg baseProfile="full" height="109" version="1.1" width="109" xmlns="http://www.w3.org/2000/svg" xmlns:ev="http://www.w3.org/2001/xml-events" xmlns:xlink="http://www.w3.org/1999/xlink"><defs /><rect fill="white" height="109" width="109" x="0" y="0" /><path d="M5.0,33.5041841004 m0,1 l3,30 m-2,-30 l22,-4 2,3 l-4,23 m-17,3 l20,-2 m29,-51 l-6,5 -12,5 m23,-2 l-4,4 -7,4 l-10,3 m25,-2 l0,1 -4,3 l-9,5 -12,4 m9,-33 l2,3 4,29 m21,-29 l24,-4 2,2 l-5,19 -3,7 l-4,0 m-5,-22 l-3,12 -7,10 m0,12 l25,-2 m-28,-7 l1,2 0,15 m-21,-12 l1,2 0,11 m-17,0 l5,0 61,-3 l7,0 m-45,4 l-4,9 -7,7 m10,-8 l9,7 m15,-15 l-3,8 -6,6 m8,-7 l9,7 m-49,6 l55,-2 m-37,6 l-4,9 -7,7 m10,-8 l8,6 m15,-15 l-4,9 -6,7 m9,-8 l5,3 4,4 m-51,-35 l1,3 0,36 l2,1 54,-2 m0,-44 l1,3 0,43 " fill="none" stroke="black" stroke-width="2" /></svg>