<?xml version="1.0" encoding="utf-8" ?>
<svg baseProfile="full" height="109" version="1.1" width="109" xmlns="http://www.w3.org/2000/svg" xmlns:ev="http://www.w3.org/2001/xml-events" xmlns:xlink="http://www.w3.org/1999/xlink"><defs /><rect fill="white" height="109" width="109" x="0" y="0" /><path d="M21.4934210526,8.34649122807 m5,5 l4,6 m-23,15 l9,0 18,-5 l4,4 -10,15 l-24,27 m21,-17 l1,4 0,49 m16,-63 l0,2 -8,9 m-4,0 l13,13 m29,-68 l-1,3 -10,11 m-7,2 l1,4 0,43 m1,-46 l37,-4 5,5 l0,44 m-36,-35 l5,6 m19,-8 l-6,10 m-20,2 l31,-2 m-16,-13 l1,2 0,31 m-2,-18 l-5,10 -7,5 m19,-11 l5,3 5,5 m-47,20 l10,0 44,-2 l11,0 m-35,-8 l0,4 -5,14 l-10,12 -16,9 m33,-29 l22,20 10,6 " fill="none" stroke="black" stroke-width="2" /></svg>