<?xml version="1.0" encoding="utf-8" ?>
<svg baseProfile="full" height="109" version="1.1" width="109" xmlns="http://www.w3.org/2000/svg" xmlns:ev="http://www.w3.org/2001/xml-events" xmlns:xlink="http://www.w3.org/1999/xlink"><defs /><rect fill="white" height="109" width="109" x="0" y="0" /><path d="M11.7476190476,5.0 m9,7 l5,8 m-21,17 l9,6 6,7 m-16,51 l6,0 12,-21 m15,-71 l2,5 0,93 m0,-96 l23,-2 2,2 l-2,24 m-23,-11 l15,-1 m-15,14 l22,-3 m17,-27 l3,28 m-1,-26 l25,-3 2,2 l0,99 -8,0 m-17,-86 l17,-1 m-16,14 l23,-1 m-56,17 l42,-2 m-41,12 l3,19 m-2,-17 l37,-4 2,2 l-3,17 m-29,-12 l5,7 m17,-9 l-5,8 m-22,6 l33,-3 m-18,-36 l2,3 0,62 l-5,2 m3,-29 l-5,8 -8,8 l-8,6 m24,-25 l21,22 3,1 " fill="none" stroke="black" stroke-width="2" /></svg>