<?xml version="1.0" encoding="utf-8" ?>
<svg baseProfile="full" height="109" version="1.1" width="109" xmlns="http://www.w3.org/2000/svg" xmlns:ev="http://www.w3.org/2001/xml-events" xmlns:xlink="http://www.w3.org/1999/xlink"><defs /><rect fill="white" height="109" width="109" x="0" y="0" /><path d="M24.7532751092,12.8537117904 m0,4 l-6,34 -5,15 l0,3 10,3 l9,5 7,7 m0,-51 l0,7 -5,20 l-10,20 -18,17 m-2,-53 l4,1 37,-9 m20,-35 l5,4 4,5 m-19,9 l34,-4 3,2 l-4,31 m-33,-14 l23,-2 m-23,18 l33,-3 m-36,-30 l2,4 0,71 l2,5 14,-14 m28,-32 l0,4 -11,12 m-22,-14 l32,36 10,6 " fill="none" stroke="black" stroke-width="2" /></svg>