<?xml version="1.0" encoding="utf-8" ?>
<svg baseProfile="full" height="109" version="1.1" width="109" xmlns="http://www.w3.org/2000/svg" xmlns:ev="http://www.w3.org/2001/xml-events" xmlns:xlink="http://www.w3.org/1999/xlink"><defs /><rect fill="white" height="109" width="109" x="0" y="0" /><path d="M11.5493562232,7.80686695279 m1,3 l0,49 m0,-52 l30,-3 m-30,21 l30,-4 m-30,19 l30,-3 m-31,21 l28,-5 4,7 l-3,24 -3,9 l-7,0 m-3,-88 l0,1 0,46 m-22,17 l0,16 m8,-18 l3,12 m3,-14 l5,10 m3,-13 l4,8 m14,-68 l31,-2 m-23,3 l0,3 0,29 m15,-33 l0,39 m-16,-27 l10,-1 m-10,12 l9,-1 m-17,14 l3,0 20,-7 m8,-23 l4,0 16,-3 l2,2 -6,12 l-8,9 -8,6 m1,-20 l10,6 9,8 l7,9 m-18,-1 l0,1 -7,5 l-10,5 -14,4 m20,-2 l1,3 0,46 m-14,-43 l-5,7 -11,7 m21,0 l-3,7 -7,6 l-10,6 m55,-39 l-5,7 -7,6 m-7,-3 l23,21 3,1 " fill="none" stroke="black" stroke-width="2" /></svg>