<?xml version="1.0" encoding="utf-8" ?>
<svg baseProfile="full" height="109" version="1.1" width="109" xmlns="http://www.w3.org/2000/svg" xmlns:ev="http://www.w3.org/2001/xml-events" xmlns:xlink="http://www.w3.org/1999/xlink"><defs /><rect fill="white" height="109" width="109" x="0" y="0" /><path d="M8.80786026201,14.7576419214 m1,1 l4,21 m-4,-21 l26,-4 3,3 l-3,17 m-21,2 l23,-2 m-34,16 l4,0 21,-3 l16,0 m-26,3 l0,3 -8,12 l1,3 19,-6 l4,4 -2,14 l-7,24 -7,3 l-5,-4 m60,-88 l26,-2 m-28,-9 l1,7 0,18 m-19,3 l49,-5 0,8 m-51,-5 l1,5 0,26 l-4,24 -9,21 m21,-61 l38,-3 m-25,-10 l1,2 0,13 l2,6 10,0 l15,0 m-34,10 l0,15 -5,14 l-11,12 m34,-45 l0,32 2,10 l9,2 8,-1 l1,-8 " fill="none" stroke="black" stroke-width="2" /></svg>