<?xml version="1.0" encoding="utf-8" ?>
<svg baseProfile="full" height="109" version="1.1" width="109" xmlns="http://www.w3.org/2000/svg" xmlns:ev="http://www.w3.org/2001/xml-events" xmlns:xlink="http://www.w3.org/1999/xlink"><defs /><rect fill="white" height="109" width="109" x="0" y="0" /><path d="M7.17516629712,35.2106430155 m4,0 l28,-3 m-14,-26 l2,7 0,86 l-9,2 m-13,-29 l7,0 28,-18 m6,-41 l1,5 0,95 m0,-97 l56,-5 4,5 l0,96 m-51,-79 l40,-2 m-21,4 l0,55 m-18,-30 l36,-2 m-38,35 l43,-2 m-12,-21 l5,5 2,6 m-47,30 l60,-3 " fill="none" stroke="black" stroke-width="2" /></svg>