<?xml version="1.0" encoding="utf-8" ?>
<svg baseProfile="full" height="109" version="1.1" width="109" xmlns="http://www.w3.org/2000/svg" xmlns:ev="http://www.w3.org/2001/xml-events" xmlns:xlink="http://www.w3.org/1999/xlink"><defs /><rect fill="white" height="109" width="109" x="0" y="0" /><path d="M9.39099526066,21.7890995261 m5,7 l3,9 m33,-22 l-3,9 -6,8 m-37,14 l4,0 43,-7 m-21,-36 l2,3 0,96 l-10,2 m10,-62 l-6,15 -9,17 l-10,14 m31,-35 l8,6 5,9 m33,-64 l0,4 -3,10 l-13,23 m-7,0 l1,5 2,56 m-1,-60 l42,-4 5,4 l-3,58 m-44,-31 l30,-2 m-29,32 l43,-3 " fill="none" stroke="black" stroke-width="2" /></svg>