<?xml version="1.0" encoding="utf-8" ?>
<svg baseProfile="full" height="109" version="1.1" width="109" xmlns="http://www.w3.org/2000/svg" xmlns:ev="http://www.w3.org/2001/xml-events" xmlns:xlink="http://www.w3.org/1999/xlink"><defs /><rect fill="white" height="109" width="109" x="0" y="0" /><path d="M5.0,29.3008658009 m1,4 l0,54 m1,-57 l18,-1 5,4 l-1,53 m-22,-29 l21,-2 m-21,30 l20,-2 m39,-77 l1,4 0,11 m-25,3 l46,-4 7,0 m-44,12 l4,8 1,7 m24,-23 l0,4 -5,16 m-40,6 l8,0 52,-4 l10,0 m-57,16 l1,3 0,42 m0,-44 l31,-4 4,4 l0,41 m-35,-23 l34,-3 m-34,25 l33,-2 " fill="none" stroke="black" stroke-width="2" /></svg>