<?xml version="1.0" encoding="utf-8" ?>
<svg baseProfile="full" height="109" version="1.1" width="109" xmlns="http://www.w3.org/2000/svg" xmlns:ev="http://www.w3.org/2001/xml-events" xmlns:xlink="http://www.w3.org/1999/xlink"><defs /><rect fill="white" height="109" width="109" x="0" y="0" /><path d="M29.4969072165,5.0 m0,4 l-6,19 -4,9 l0,2 15,4 l6,4 m0,-32 l0,4 -4,11 l-8,11 -14,8 m-10,-27 l5,1 39,-8 m11,-6 l3,0 22,-4 l3,2 -6,12 l-10,12 -13,8 m0,-25 l35,25 5,2 m-77,17 l2,2 3,31 m-3,-33 l56,-5 4,4 l-3,18 -2,8 l-7,0 m-20,-43 l2,2 0,62 " fill="none" stroke="black" stroke-width="2" /></svg>