<?xml version="1.0" encoding="utf-8" ?>
<svg baseProfile="full" height="109" version="1.1" width="109" xmlns="http://www.w3.org/2000/svg" xmlns:ev="http://www.w3.org/2001/xml-events" xmlns:xlink="http://www.w3.org/1999/xlink"><defs /><rect fill="white" height="109" width="109" x="0" y="0" /><path d="M5.0,12.6997792494 m4,1 l22,-4 3,4 l-4,17 m-20,2 l24,-3 m-25,1 l0,4 -4,17 l3,3 22,-5 l4,4 -6,30 l-6,12 -10,-3 m33,-87 l6,0 48,-5 l5,0 m-49,8 l1,4 0,60 m0,-46 l30,-4 m-30,23 l30,-4 m-42,37 l5,0 46,-22 m-9,-52 l1,3 0,98 " fill="none" stroke="black" stroke-width="2" /></svg>