<?xml version="1.0" encoding="utf-8" ?>
<svg baseProfile="full" height="109" version="1.1" width="109" xmlns="http://www.w3.org/2000/svg" xmlns:ev="http://www.w3.org/2001/xml-events" xmlns:xlink="http://www.w3.org/1999/xlink"><defs /><rect fill="white" height="109" width="109" x="0" y="0" /><path d="M6.43107221007,26.704595186 m6,0 l32,-3 m-21,-16 l1,3 0,30 m-16,2 l5,25 m-3,-24 l27,-3 5,4 l-3,21 m-26,-10 l28,-3 m-26,14 l24,-2 m-34,22 l40,-3 m-20,-14 l1,3 0,40 m50,-106 l-1,5 -5,10 l-8,12 -11,12 m27,-34 l21,20 12,8 m-59,9 l5,0 11,-2 l5,3 0,51 l-6,0 m-12,-42 l5,4 3,5 m-13,21 l4,0 10,-9 m14,-32 l6,0 12,-2 l4,3 0,52 l-6,0 m-11,-43 l5,4 3,5 m-12,20 l4,0 9,-9 " fill="none" stroke="black" stroke-width="2" /></svg>