<?xml version="1.0" encoding="utf-8" ?>
<svg baseProfile="full" height="109" version="1.1" width="109" xmlns="http://www.w3.org/2000/svg" xmlns:ev="http://www.w3.org/2001/xml-events" xmlns:xlink="http://www.w3.org/1999/xlink"><defs /><rect fill="white" height="109" width="109" x="0" y="0" /><path d="M6.84745762712,38.4851694915 m7,0 l25,-4 m-14,-24 l1,4 0,97 m0,-74 l-7,21 -13,23 m25,-31 l9,12 m30,-57 l0,4 -6,9 l-8,10 -12,9 m30,-29 l25,18 12,5 m-37,-10 l0,11 m-20,2 l42,-2 m-10,3 l-1,3 -7,6 l-15,9 m1,-14 l8,2 14,8 m-33,-11 l1,3 0,12 l4,4 36,-3 m2,-18 l0,3 -2,17 m-47,10 l1,4 0,30 m1,-32 l49,-5 5,3 l-5,29 -7,0 m-18,-38 l-1,17 -1,7 m-6,1 l23,-5 m-3,-7 l4,6 3,6 " fill="none" stroke="black" stroke-width="2" /></svg>