<?xml version="1.0" encoding="utf-8" ?>
<svg baseProfile="full" height="109" version="1.1" width="109" xmlns="http://www.w3.org/2000/svg" xmlns:ev="http://www.w3.org/2001/xml-events" xmlns:xlink="http://www.w3.org/1999/xlink"><defs /><rect fill="white" height="109" width="109" x="0" y="0" /><path d="M11.4798301486,23.7452229299 m4,0 l38,-2 m-23,-12 l0,3 -4,17 l-8,15 -13,12 m26,-34 l15,18 9,8 m-46,-18 l6,9 m35,-12 l-8,8 m-28,15 l3,23 m-3,-22 l24,-3 3,1 l-4,21 m-22,-9 l16,-1 m-14,12 l20,-2 m-10,5 l0,5 0,20 l-6,0 m-7,-21 l-2,10 -5,9 m34,-18 l5,5 3,6 m30,-90 l-1,6 -4,6 m-9,2 l0,55 m0,-53 l27,-3 3,4 l-2,23 m-28,-11 l18,-2 m-19,14 l28,-3 m-28,17 l45,-4 m-45,19 l39,-4 5,5 l-5,20 -3,7 l-8,0 m-31,-17 l-2,15 m12,-17 l4,13 m6,-16 l4,11 m5,-14 l5,10 " fill="none" stroke="black" stroke-width="2" /></svg>