<?xml version="1.0" encoding="utf-8" ?>
<svg baseProfile="full" height="109" version="1.1" width="109" xmlns="http://www.w3.org/2000/svg" xmlns:ev="http://www.w3.org/2001/xml-events" xmlns:xlink="http://www.w3.org/1999/xlink"><defs /><rect fill="white" height="109" width="109" x="0" y="0" /><path d="M9.37843551797,36.1099365751 m-1,10 l-2,10 m22,-24 l6,16 m-17,-39 l2,3 0,98 m20,-85 l4,1 50,-6 l3,4 -3,14 m-50,7 l54,-6 m-55,4 l0,5 -5,13 l2,2 59,-7 l3,3 -4,16 l-3,7 -7,-2 m-31,-76 l1,7 0,31 l-1,24 -6,20 l-12,14 m37,-102 l2,4 0,100 " fill="none" stroke="black" stroke-width="2" /></svg>