<?xml version="1.0" encoding="utf-8" ?>
<svg baseProfile="full" height="109" version="1.1" width="109" xmlns="http://www.w3.org/2000/svg" xmlns:ev="http://www.w3.org/2001/xml-events" xmlns:xlink="http://www.w3.org/1999/xlink"><defs /><rect fill="white" height="109" width="109" x="0" y="0" /><path d="M43.5117773019,5.0 m6,6 m-38,7 l75,-3 m-59,10 l-4,7 -7,5 m-3,0 l1,3 0,35 m0,-26 l16,-2 m-17,21 l17,-2 m15,-39 l4,16 m-2,-14 l31,-3 2,1 l-3,11 m-25,2 l28,-2 m-40,13 l54,-3 m-29,-5 l1,3 0,23 l-5,0 m-3,-12 l-4,5 -8,5 m27,-11 l8,5 5,6 m-42,4 l0,2 -7,7 l-13,9 -16,8 m25,-9 l0,2 0,16 l3,0 21,-13 m23,-22 l0,1 -4,4 l-9,6 m-15,-9 l39,29 5,2 " fill="none" stroke="black" stroke-width="2" /></svg>