<?xml version="1.0" encoding="utf-8" ?>
<svg baseProfile="full" height="109" version="1.1" width="109" xmlns="http://www.w3.org/2000/svg" xmlns:ev="http://www.w3.org/2001/xml-events" xmlns:xlink="http://www.w3.org/1999/xlink"><defs /><rect fill="white" height="109" width="109" x="0" y="0" /><path d="M18.5310344828,5.0 m6,6 l6,8 m-25,15 l5,0 26,-5 l4,3 -23,30 l-14,13 m22,-21 l2,4 0,50 m17,-65 l0,2 -7,12 m-6,0 l13,12 m32,-65 l0,4 -2,9 l-4,11 -6,10 m-8,0 l1,5 0,59 m-1,-62 l44,-4 3,5 l-2,59 m-44,-34 l46,-4 m-44,36 l43,-3 " fill="none" stroke="black" stroke-width="2" /></svg>