<?xml version="1.0" encoding="utf-8" ?>
<svg baseProfile="full" height="109" version="1.1" width="109" xmlns="http://www.w3.org/2000/svg" xmlns:ev="http://www.w3.org/2001/xml-events" xmlns:xlink="http://www.w3.org/1999/xlink"><defs /><rect fill="white" height="109" width="109" x="0" y="0" /><path d="M30.9852320675,5.0 m0,3 l-14,20 -11,11 m29,-28 l9,5 6,6 m-28,5 l19,-1 m-23,11 l0,3 0,68 m0,-70 l24,-2 3,2 l-2,27 m-24,-14 l16,-1 m-16,16 l24,-2 m-24,18 l26,-2 m-26,19 l27,-2 m27,-89 l-3,14 -7,13 l-10,12 m22,-28 l24,-3 3,3 l-5,16 -4,9 l-6,-1 m-8,6 l-7,7 -10,5 m-1,0 l5,43 m24,-45 l2,0 16,-2 l2,2 -5,43 m-43,-21 l18,-2 m7,0 l19,0 m-43,25 l40,-2 " fill="none" stroke="black" stroke-width="2" /></svg>