<?xml version="1.0" encoding="utf-8" ?>
<svg baseProfile="full" height="109" version="1.1" width="109" xmlns="http://www.w3.org/2000/svg" xmlns:ev="http://www.w3.org/2001/xml-events" xmlns:xlink="http://www.w3.org/1999/xlink"><defs /><rect fill="white" height="109" width="109" x="0" y="0" /><path d="M21.3013392857,7.91964285714 m1,5 l0,21 -5,21 l-11,17 m33,-65 l31,0 m-33,0 l2,4 0,60 m14,-61 l1,2 0,14 m-14,1 l25,-2 2,2 l-3,15 m-25,3 l27,-2 m-14,2 l1,2 0,15 m-15,2 l33,-1 m4,-59 l4,0 20,-1 l3,3 -3,23 m-20,1 l24,-1 m-25,-24 l0,44 2,11 l13,2 13,-2 l2,-8 m-93,29 l-4,13 -6,9 m31,-24 l4,10 1,12 m21,-23 l7,15 1,8 m16,-26 l6,7 6,10 l3,9 " fill="none" stroke="black" stroke-width="2" /></svg>