<?xml version="1.0" encoding="utf-8" ?>
<svg baseProfile="full" height="109" version="1.1" width="109" xmlns="http://www.w3.org/2000/svg" xmlns:ev="http://www.w3.org/2001/xml-events" xmlns:xlink="http://www.w3.org/1999/xlink"><defs /><rect fill="white" height="109" width="109" x="0" y="0" /><path d="M21.1565762004,6.59290187891 m0,2 l-7,13 -6,7 m14,-10 l25,-3 m-18,3 l6,9 m24,-23 l-3,10 -6,9 m12,-10 l32,-3 m-21,7 l-7,9 m-48,19 l71,-4 m-54,-7 l2,3 0,46 m28,-52 l2,3 0,46 m-30,-22 l30,-2 m-30,14 l30,-2 m-60,16 l6,1 77,-4 l6,0 m-59,11 l0,1 -4,5 l-7,5 -11,5 m52,-20 l8,5 7,7 l4,6 " fill="none" stroke="black" stroke-width="2" /></svg>