<?xml version="1.0" encoding="utf-8" ?>
<svg baseProfile="full" height="109" version="1.1" width="109" xmlns="http://www.w3.org/2000/svg" xmlns:ev="http://www.w3.org/2001/xml-events" xmlns:xlink="http://www.w3.org/1999/xlink"><defs /><rect fill="white" height="109" width="109" x="0" y="0" /><path d="M5.0,8.85840707965 m0,4 l0,98 m0,-100 l27,-2 3,1 l-1,28 m-28,-14 l18,-2 m-19,16 l27,-3 m27,-28 l0,3 0,27 m0,-29 l27,-3 3,2 l0,99 -9,0 m-20,-85 l18,-1 m-19,15 l29,-1 m-69,29 l3,0 46,-5 m-26,-14 l1,2 0,53 l-8,1 m5,-39 l-7,12 -10,12 l-10,8 m32,-33 l28,27 4,2 " fill="none" stroke="black" stroke-width="2" /></svg>