<?xml version="1.0" encoding="utf-8" ?>
<svg baseProfile="full" height="109" version="1.1" width="109" xmlns="http://www.w3.org/2000/svg" xmlns:ev="http://www.w3.org/2001/xml-events" xmlns:xlink="http://www.w3.org/1999/xlink"><defs /><rect fill="white" height="109" width="109" x="0" y="0" /><path d="M20.3717948718,10.5897435897 m5,4 l3,5 m-24,12 l7,0 29,-4 m-27,19 l22,-2 m-23,18 l23,-2 m-23,19 l1,3 4,20 m-3,-22 l20,-4 4,3 l-3,14 m-16,3 l20,-2 m9,-73 l51,-5 m-39,-8 l2,3 2,30 m17,-40 l1,4 -1,34 m-28,-7 l39,-3 m-50,17 l9,0 46,-5 l8,0 m-53,15 l1,4 0,48 m0,-52 l32,-4 5,4 l0,48 -8,0 m-12,-57 l1,4 0,29 m-17,-11 l36,-4 m-48,19 l63,-4 " fill="none" stroke="black" stroke-width="2" /></svg>