<?xml version="1.0" encoding="utf-8" ?>
<svg baseProfile="full" height="109" version="1.1" width="109" xmlns="http://www.w3.org/2000/svg" xmlns:ev="http://www.w3.org/2001/xml-events" xmlns:xlink="http://www.w3.org/1999/xlink"><defs /><rect fill="white" height="109" width="109" x="0" y="0" /><path d="M37.6305732484,10.0912951168 m0,1 l-4,3 -9,5 l-13,4 m-3,18 l40,-2 m-17,-20 l0,82 -8,3 m7,-62 l-5,14 -8,15 l-9,13 m28,-34 l6,6 5,7 m2,-39 l57,-2 m-45,-15 l1,3 0,63 m26,-71 l1,3 0,67 m-27,-33 l18,0 m-18,17 l18,-1 m-36,20 l67,-3 m-44,9 l0,2 -4,6 l-9,7 -12,7 m44,-21 l7,5 7,7 l4,6 " fill="none" stroke="black" stroke-width="2" /></svg>