<?xml version="1.0" encoding="utf-8" ?>
<svg baseProfile="full" height="109" version="1.1" width="109" xmlns="http://www.w3.org/2000/svg" xmlns:ev="http://www.w3.org/2001/xml-events" xmlns:xlink="http://www.w3.org/1999/xlink"><defs /><rect fill="white" height="109" width="109" x="0" y="0" /><path d="M24.8181818182,10.4049586777 m0,2 l-3,6 -6,8 l-9,7 m16,-14 l17,-3 1,3 l-12,17 m-18,2 l3,32 m-2,-30 l31,-6 3,2 l-3,30 m-16,-29 l1,4 0,22 m-14,-12 l23,-2 m-23,17 l29,-2 m-35,18 l-2,17 m13,-20 l2,14 m9,-16 l3,13 m8,-16 l5,12 m29,-86 l0,5 -4,16 l-6,17 -9,15 m-9,-33 l65,-3 m-45,20 l1,2 0,57 m0,-59 l24,-4 3,4 l0,52 -7,1 m-20,-37 l17,-1 m-17,17 l18,-1 " fill="none" stroke="black" stroke-width="2" /></svg>