<?xml version="1.0" encoding="utf-8" ?>
<svg baseProfile="full" height="109" version="1.1" width="109" xmlns="http://www.w3.org/2000/svg" xmlns:ev="http://www.w3.org/2001/xml-events" xmlns:xlink="http://www.w3.org/1999/xlink"><defs /><rect fill="white" height="109" width="109" x="0" y="0" /><path d="M10.6418219462,10.6418219462 m0,0 l2,13 m-1,-12 l23,-3 2,1 l-2,10 m-21,2 l23,-2 m-13,2 l1,3 0,20 m0,-13 l14,-1 m-30,0 l2,2 2,17 m-7,0 l3,0 27,-9 m25,-36 l-5,9 -9,8 m15,-10 l17,-2 2,2 l-7,7 -13,8 l-18,6 m13,-17 l37,14 6,1 m-45,3 l3,11 m-2,-11 l24,-2 1,1 l-2,9 m-20,2 l22,-1 m-36,0 l-6,10 m-13,1 l0,2 0,31 m1,-31 l46,-2 4,2 l-2,14 m-48,-6 l32,-1 m-32,9 l47,-2 m-47,9 l66,-2 m-68,12 l65,-2 3,5 l-8,16 -8,0 m-62,-9 l-2,6 -4,5 m21,-15 l4,14 m11,-14 l4,11 m11,-13 l6,10 " fill="none" stroke="black" stroke-width="2" /></svg>