<?xml version="1.0" encoding="utf-8" ?>
<svg baseProfile="full" height="109" version="1.1" width="109" xmlns="http://www.w3.org/2000/svg" xmlns:ev="http://www.w3.org/2001/xml-events" xmlns:xlink="http://www.w3.org/1999/xlink"><defs /><rect fill="white" height="109" width="109" x="0" y="0" /><path d="M5.47702407002,14.5404814004 m0,1 l3,24 m-3,-25 l25,-3 2,2 l-4,21 m-20,2 l23,-2 m-12,2 l2,4 0,54 m0,-31 l15,-1 m-31,-4 l2,4 0,40 m-5,0 l6,0 29,-16 m34,-82 l2,4 0,9 m-31,2 l5,0 51,-5 l5,0 m-58,6 l0,31 -3,29 l-9,23 m23,-79 l3,20 m-2,-19 l35,-3 4,3 l-3,16 m-34,-8 l36,-2 m-35,11 l33,-2 m-19,-15 l0,2 0,31 m-19,-7 l40,-2 m-46,11 l57,-2 m-41,5 l-4,7 -8,6 m31,-17 l0,9 10,3 l9,-1 m-48,14 l43,-1 m-24,-12 l1,4 0,26 m-29,0 l63,-1 " fill="none" stroke="black" stroke-width="2" /></svg>