<?xml version="1.0" encoding="utf-8" ?>
<svg baseProfile="full" height="109" version="1.1" width="109" xmlns="http://www.w3.org/2000/svg" xmlns:ev="http://www.w3.org/2001/xml-events" xmlns:xlink="http://www.w3.org/1999/xlink"><defs /><rect fill="white" height="109" width="109" x="0" y="0" /><path d="M8.26766595289,38.1434689507 m1,10 l0,10 m25,-29 l0,3 -12,16 m-2,-39 l1,3 -1,46 l-5,26 -10,15 m15,-30 l7,8 5,9 m15,-76 l5,4 3,5 m35,-15 l-3,8 -6,7 m-38,7 l3,0 52,-5 m-30,-20 l1,2 0,49 m-2,-27 l-6,9 -9,9 l-10,7 m27,-25 l32,21 5,1 m-56,3 l0,2 -2,5 l-5,7 -7,6 m16,-13 l13,-2 2,2 l-7,13 -12,16 l-14,10 m10,-29 l7,9 m21,-14 l32,-2 m-27,7 l-2,9 3,3 l13,-2 12,0 m-16,-33 l1,2 0,55 " fill="none" stroke="black" stroke-width="2" /></svg>