<?xml version="1.0" encoding="utf-8" ?>
<svg baseProfile="full" height="109" version="1.1" width="109" xmlns="http://www.w3.org/2000/svg" xmlns:ev="http://www.w3.org/2001/xml-events" xmlns:xlink="http://www.w3.org/1999/xlink"><defs /><rect fill="white" height="109" width="109" x="0" y="0" /><path d="M11.8125,13.2219827586 m7,4 l4,5 m-16,20 l8,5 5,6 m-16,44 l5,0 12,-23 m36,-71 l6,7 m-35,7 l61,-4 5,0 m-58,4 l1,7 2,1 l23,0 22,-1 m-49,9 l1,1 2,11 m-2,-11 l41,-3 2,2 l-2,9 m-37,2 l39,-2 m-23,8 l0,3 -5,30 l9,3 6,5 m0,-36 l0,4 -3,12 l-5,13 -8,12 m-3,-33 l27,-1 m-46,-11 l1,2 0,9 l-2,22 -8,12 m12,-45 l9,-1 3,1 l0,40 -7,1 m-7,-29 l8,0 m-9,13 l8,0 m39,-26 l1,3 0,15 l-2,15 -6,11 m8,-44 l10,-2 3,2 l0,38 6,7 l7,-6 m-23,-24 l5,8 " fill="none" stroke="black" stroke-width="2" /></svg>