<?xml version="1.0" encoding="utf-8" ?>
<svg baseProfile="full" height="109" version="1.1" width="109" xmlns="http://www.w3.org/2000/svg" xmlns:ev="http://www.w3.org/2001/xml-events" xmlns:xlink="http://www.w3.org/1999/xlink"><defs /><rect fill="white" height="109" width="109" x="0" y="0" /><path d="M8.97266514806,19.15261959 m0,4 l0,60 m0,-62 l23,-3 2,3 l0,61 m-25,-41 l15,-1 m-15,19 l14,0 m-14,22 l24,-1 m-18,12 l0,3 -11,16 m24,-20 l10,15 m13,-96 l5,5 3,6 m29,-17 l-2,9 -4,9 m-36,5 l3,10 3,21 m-3,-30 l54,-6 2,4 l-8,29 m-23,-29 l0,3 0,24 m-23,-11 l37,-4 m-35,18 l44,-4 m-42,15 l1,3 1,36 m0,-38 l37,-4 3,3 l-2,35 m-36,-19 l24,-1 m-22,20 l33,-2 " fill="none" stroke="black" stroke-width="2" /></svg>