<?xml version="1.0" encoding="utf-8" ?>
<svg baseProfile="full" height="109" version="1.1" width="109" xmlns="http://www.w3.org/2000/svg" xmlns:ev="http://www.w3.org/2001/xml-events" xmlns:xlink="http://www.w3.org/1999/xlink"><defs /><rect fill="white" height="109" width="109" x="0" y="0" /><path d="M29.8169642857,5.0 m1,4 l0,10 m-21,3 l42,-4 m-32,11 l4,12 m19,-20 l0,3 -6,16 m-31,7 l49,-5 m-41,15 l1,2 3,33 m-2,-35 l26,-3 4,3 l-1,32 m-27,-17 l27,-3 m-25,20 l24,-2 m18,-81 l3,22 m-1,-20 l33,-4 4,3 l-2,13 m-32,5 l34,-4 m-37,14 l0,3 0,44 m0,-46 l31,-4 4,3 l0,45 m-36,-30 l35,-3 m-34,16 l34,-2 m-34,18 l34,-2 m-26,9 l-1,3 -18,15 m38,-18 l7,6 10,12 " fill="none" stroke="black" stroke-width="2" /></svg>