<?xml version="1.0" encoding="utf-8" ?>
<svg baseProfile="full" height="109" version="1.1" width="109" xmlns="http://www.w3.org/2000/svg" xmlns:ev="http://www.w3.org/2001/xml-events" xmlns:xlink="http://www.w3.org/1999/xlink"><defs /><rect fill="white" height="109" width="109" x="0" y="0" /><path d="M5.0,14.1840354767 m5,0 l34,-2 m-38,37 l6,0 29,-3 m-36,47 l5,0 30,-19 m-18,-58 l1,4 0,64 m32,-78 l0,3 0,58 m0,-60 l43,-3 5,0 m-48,23 l43,-4 m-43,22 l45,-4 m-45,25 l45,-5 6,5 l-2,14 -7,19 l-12,0 m-10,-97 l1,3 0,54 m-30,16 l-2,11 -4,9 m17,-22 l5,19 m10,-22 l6,16 m7,-20 l7,15 " fill="none" stroke="black" stroke-width="2" /></svg>