<?xml version="1.0" encoding="utf-8" ?>
<svg baseProfile="full" height="109" version="1.1" width="109" xmlns="http://www.w3.org/2000/svg" xmlns:ev="http://www.w3.org/2001/xml-events" xmlns:xlink="http://www.w3.org/1999/xlink"><defs /><rect fill="white" height="109" width="109" x="0" y="0" /><path d="M9.71861471861,7.59523809524 m0,0 l2,16 m-1,-16 l19,-2 2,1 l-2,12 m-16,2 l18,-1 m9,-15 l3,17 m-2,-16 l19,-2 1,2 l-3,12 m-16,1 l18,-1 m-50,13 l2,9 2,21 m-2,-29 l41,-4 4,3 l-4,28 m-41,-13 l32,-2 m-30,16 l39,-3 m-53,17 l6,0 51,-3 l5,0 m-32,-37 l1,3 0,69 m38,-101 l4,0 24,-4 l4,5 -15,25 m0,0 l15,22 -1,24 l-12,0 m-14,-75 l0,103 " fill="none" stroke="black" stroke-width="2" /></svg>