<?xml version="1.0" encoding="utf-8" ?>
<svg baseProfile="full" height="109" version="1.1" width="109" xmlns="http://www.w3.org/2000/svg" xmlns:ev="http://www.w3.org/2001/xml-events" xmlns:xlink="http://www.w3.org/1999/xlink"><defs /><rect fill="white" height="109" width="109" x="0" y="0" /><path d="M28.7164835165,10.0307692308 m0,2 l-4,9 -8,13 l-10,11 m25,-31 l9,5 7,8 m-29,12 l24,-2 m-33,21 l3,0 34,-4 m-19,-12 l1,3 0,50 m-18,-23 l7,16 m26,-22 l0,3 -7,12 m-28,20 l5,0 31,-12 m10,-71 l45,-4 m-27,-11 l2,2 0,38 m-21,-11 l43,-4 m-50,18 l5,0 48,-5 l7,0 m-51,13 l1,4 0,46 m1,-49 l29,-3 4,3 l0,41 -7,1 m-27,-30 l21,-2 m-21,15 l21,-1 " fill="none" stroke="black" stroke-width="2" /></svg>