<?xml version="1.0" encoding="utf-8" ?>
<svg baseProfile="full" height="109" version="1.1" width="109" xmlns="http://www.w3.org/2000/svg" xmlns:ev="http://www.w3.org/2001/xml-events" xmlns:xlink="http://www.w3.org/1999/xlink"><defs /><rect fill="white" height="109" width="109" x="0" y="0" /><path d="M52.9419087137,5.0 m2,3 l0,14 m-33,-10 l1,2 -2,9 l2,2 19,-2 l46,-3 m0,-12 l1,3 -1,13 m-80,22 l40,-3 m-39,13 l1,2 3,20 m-1,-21 l32,-3 2,2 l-3,19 m-30,-8 l32,-3 m-30,13 l28,-3 m-38,15 l4,0 41,-4 m-24,-52 l2,4 0,69 m58,-80 l0,1 -5,4 l-15,8 m-2,0 l0,5 -1,18 l-4,17 -9,14 m16,-45 l39,-4 m-22,4 l2,4 0,52 " fill="none" stroke="black" stroke-width="2" /></svg>