<?xml version="1.0" encoding="utf-8" ?>
<svg baseProfile="full" height="109" version="1.1" width="109" xmlns="http://www.w3.org/2000/svg" xmlns:ev="http://www.w3.org/2001/xml-events" xmlns:xlink="http://www.w3.org/1999/xlink"><defs /><rect fill="white" height="109" width="109" x="0" y="0" /><path d="M21.9958419958,6.81288981289 m0,2 l-8,14 -7,7 m14,-9 l25,-2 m-19,5 l5,10 m29,-28 l-3,10 -6,9 m10,-7 l31,-3 m-17,6 l-2,5 -4,5 m-21,-2 l1,3 0,6 m-36,2 l-5,19 m7,-16 l74,-7 0,9 m-56,6 l1,4 0,55 m0,-57 l31,-4 4,3 l-3,13 m-31,5 l33,-3 m-33,19 l31,-3 5,3 l-4,14 m-32,4 l34,-3 " fill="none" stroke="black" stroke-width="2" /></svg>