<?xml version="1.0" encoding="utf-8" ?>
<svg baseProfile="full" height="109" version="1.1" width="109" xmlns="http://www.w3.org/2000/svg" xmlns:ev="http://www.w3.org/2001/xml-events" xmlns:xlink="http://www.w3.org/1999/xlink"><defs /><rect fill="white" height="109" width="109" x="0" y="0" /><path d="M52.5066371681,5.0 m1,4 l0,26 -8,2 m-18,-16 l-5,7 -17,12 m74,-25 l16,8 5,5 m-30,-7 l0,4 -13,15 l-23,16 -27,12 m29,-17 l1,5 0,52 m0,-54 l39,-4 6,5 l0,52 m-46,-37 l44,-2 m-44,19 l44,-2 m-44,20 l44,-1 " fill="none" stroke="black" stroke-width="2" /></svg>