<?xml version="1.0" encoding="utf-8" ?>
<svg baseProfile="full" height="109" version="1.1" width="109" xmlns="http://www.w3.org/2000/svg" xmlns:ev="http://www.w3.org/2001/xml-events" xmlns:xlink="http://www.w3.org/1999/xlink"><defs /><rect fill="white" height="109" width="109" x="0" y="0" /><path d="M48.0263157895,5.0 m7,8 m-43,4 l-4,20 m4,-15 l82,-5 -1,10 m-70,9 l6,0 48,-5 l5,0 m-55,5 l-2,28 -6,23 l-12,20 m32,-60 l41,-2 m-50,19 l67,-4 m-58,6 l1,5 0,33 l4,1 19,-12 m20,-29 l-3,8 -8,7 m-22,-12 l12,7 17,15 l16,12 7,3 " fill="none" stroke="black" stroke-width="2" /></svg>