<?xml version="1.0" encoding="utf-8" ?>
<svg baseProfile="full" height="109" version="1.1" width="109" xmlns="http://www.w3.org/2000/svg" xmlns:ev="http://www.w3.org/2001/xml-events" xmlns:xlink="http://www.w3.org/1999/xlink"><defs /><rect fill="white" height="109" width="109" x="0" y="0" /><path d="M24.6932773109,5.91596638655 m0,2 l-3,7 -6,9 l-9,8 m17,-14 l27,-2 m-20,4 l5,5 3,6 m25,-29 l-3,9 -11,16 m16,-15 l32,-3 m-19,6 l-3,6 -8,6 m21,-1 l0,1 -9,5 l-13,5 -18,4 m23,-1 l1,4 0,38 m1,-25 l21,0 m-45,-3 l1,2 0,22 l6,5 42,0 m-89,-42 l4,0 13,-4 l2,2 -13,25 m0,0 l15,-4 4,2 l-5,15 -9,14 l-14,13 m2,-29 l42,17 36,10 l13,1 " fill="none" stroke="black" stroke-width="2" /></svg>