<?xml version="1.0" encoding="utf-8" ?>
<svg baseProfile="full" height="109" version="1.1" width="109" xmlns="http://www.w3.org/2000/svg" xmlns:ev="http://www.w3.org/2001/xml-events" xmlns:xlink="http://www.w3.org/1999/xlink"><defs /><rect fill="white" height="109" width="109" x="0" y="0" /><path d="M17.8372591006,10.6017130621 m7,6 l5,7 m-25,11 l39,-3 m-32,18 l28,-2 m-28,16 l28,-2 m-29,19 l2,9 0,19 m-1,-27 l24,-4 2,2 l-4,21 m-21,3 l25,-2 m56,-99 l0,1 -7,4 l-14,5 -19,3 m2,5 l-3,10 -8,9 m25,-22 l4,5 3,6 m11,-16 l13,11 3,6 m-48,4 l1,5 0,20 l-3,20 -9,17 m14,-61 l32,-4 3,2 l-3,12 m-32,3 l36,-3 3,2 l-3,12 m-38,3 l45,-3 3,5 l-6,30 -9,0 m-32,-17 l0,8 -3,9 m11,-21 l4,17 m6,-20 l6,15 m5,-15 l5,12 " fill="none" stroke="black" stroke-width="2" /></svg>