<?xml version="1.0" encoding="utf-8" ?>
<svg baseProfile="full" height="109" version="1.1" width="109" xmlns="http://www.w3.org/2000/svg" xmlns:ev="http://www.w3.org/2001/xml-events" xmlns:xlink="http://www.w3.org/1999/xlink"><defs /><rect fill="white" height="109" width="109" x="0" y="0" /><path d="M27.0270833333,10.2229166667 m0,2 l-4,9 -8,12 l-9,11 m23,-30 l7,5 5,7 m-25,10 l22,-3 m-29,21 l3,0 28,-3 m-14,-11 l1,3 0,46 m-17,-22 l7,16 m23,-23 l0,2 -7,11 m-25,21 l4,0 27,-12 m35,-81 l-1,6 -3,5 m-4,1 l1,3 1,29 m-1,-31 l13,-2 1,1 l0,31 m-14,-17 l8,0 m-7,17 l12,0 m-25,-37 l0,2 -8,14 l0,2 8,3 m5,-12 l0,2 -15,24 l0,1 15,-4 m-2,-5 l3,10 m35,-42 l0,2 -7,13 l0,1 8,3 m7,-14 l0,2 -4,7 l-11,18 0,1 l15,-4 m-2,-4 l5,11 m-62,19 l5,0 54,-4 m-33,-9 l1,2 0,44 l-6,2 m4,-36 l-7,11 -11,10 l-14,8 m35,-31 l18,19 14,10 " fill="none" stroke="black" stroke-width="2" /></svg>