<?xml version="1.0" encoding="utf-8" ?>
<svg baseProfile="full" height="109" version="1.1" width="109" xmlns="http://www.w3.org/2000/svg" xmlns:ev="http://www.w3.org/2001/xml-events" xmlns:xlink="http://www.w3.org/1999/xlink"><defs /><rect fill="white" height="109" width="109" x="0" y="0" /><path d="M12.1437632135,10.5306553911 m1,3 l0,48 m1,-50 l27,-2 6,0 m-19,2 l0,3 0,42 m-16,-28 l31,-3 m-31,18 l31,-3 m-32,20 l29,-4 6,5 l-3,24 -3,11 l-7,0 m-28,-18 l-1,16 m11,-17 l2,10 m7,-14 l3,9 m5,-12 l4,8 m31,-72 l7,6 5,7 m-26,16 l46,-3 m-24,5 l1,4 0,53 m-20,-30 l40,-2 m-47,35 l58,-1 " fill="none" stroke="black" stroke-width="2" /></svg>