<?xml version="1.0" encoding="utf-8" ?>
<svg baseProfile="full" height="109" version="1.1" width="109" xmlns="http://www.w3.org/2000/svg" xmlns:ev="http://www.w3.org/2001/xml-events" xmlns:xlink="http://www.w3.org/1999/xlink"><defs /><rect fill="white" height="109" width="109" x="0" y="0" /><path d="M27.8511530398,5.0 m0,4 l-4,7 -12,14 l0,3 15,5 m13,-20 l0,3 -7,11 l-19,22 1,2 l25,-5 m-5,-10 l5,8 3,9 m-17,-1 l1,4 0,38 m-11,-31 l0,3 -10,17 m31,-23 l5,18 m7,-79 l5,21 m-3,-19 l50,-4 3,2 l-3,16 m-47,0 l16,0 m14,0 l15,-1 m-16,-15 l0,83 m-13,-82 l0,75 1,10 l5,5 13,1 l13,-1 5,-4 l1,-8 m-50,-49 l-8,7 m-2,0 l0,3 0,39 m1,-25 l16,-1 m-17,22 l18,-1 m13,-40 l17,-2 2,2 l-1,41 m-18,-23 l19,-1 m-19,22 l18,-1 " fill="none" stroke="black" stroke-width="2" /></svg>