<?xml version="1.0" encoding="utf-8" ?>
<svg baseProfile="full" height="109" version="1.1" width="109" xmlns="http://www.w3.org/2000/svg" xmlns:ev="http://www.w3.org/2001/xml-events" xmlns:xlink="http://www.w3.org/1999/xlink"><defs /><rect fill="white" height="109" width="109" x="0" y="0" /><path d="M46.9977728285,5.0 m0,1 l-4,7 -6,8 m-2,-1 l3,38 m-1,-37 l26,-2 1,2 l-2,35 m-23,-19 l24,-2 m-24,20 l23,-1 m-36,-41 l0,2 -6,5 l-9,6 m-2,0 l1,4 0,21 l2,4 20,-3 m41,-36 l21,-2 4,2 l-4,32 m-23,3 l25,-1 m-54,15 l0,4 -6,12 l-10,13 -16,12 m50,-46 l1,5 0,25 l1,9 6,3 l15,0 17,-2 l3,-8 " fill="none" stroke="black" stroke-width="2" /></svg>