<?xml version="1.0" encoding="utf-8" ?>
<svg baseProfile="full" height="109" version="1.1" width="109" xmlns="http://www.w3.org/2000/svg" xmlns:ev="http://www.w3.org/2001/xml-events" xmlns:xlink="http://www.w3.org/1999/xlink"><defs /><rect fill="white" height="109" width="109" x="0" y="0" /><path d="M8.23991507431,23.7452229299 m5,0 l46,-4 29,0 m-60,-8 l3,3 3,18 m32,-26 l0,4 -4,17 m-7,1 l0,1 -5,3 l-26,8 m-1,6 l7,10 m14,-15 l6,9 m24,-17 l-4,9 -9,8 m-49,17 l5,0 71,-6 m-40,-8 l2,3 0,46 l-7,3 m5,-40 l-11,12 -15,12 l-16,9 m47,-33 l40,28 6,2 " fill="none" stroke="black" stroke-width="2" /></svg>