<?xml version="1.0" encoding="utf-8" ?>
<svg baseProfile="full" height="109" version="1.1" width="109" xmlns="http://www.w3.org/2000/svg" xmlns:ev="http://www.w3.org/2001/xml-events" xmlns:xlink="http://www.w3.org/1999/xlink"><defs /><rect fill="white" height="109" width="109" x="0" y="0" /><path d="M6.67692307692,36.1428571429 m4,0 l27,-5 m-14,-23 l2,6 0,82 l-8,3 m-13,-28 l8,0 23,-17 m25,-45 l1,3 0,61 l-4,20 -12,16 m35,-106 l1,3 0,102 m-40,-72 l19,-3 m-19,23 l19,-4 m-19,28 l5,0 13,-9 m23,-40 l21,-3 m-20,26 l21,-3 m-21,25 l22,-3 " fill="none" stroke="black" stroke-width="2" /></svg>