<?xml version="1.0" encoding="utf-8" ?>
<svg baseProfile="full" height="109" version="1.1" width="109" xmlns="http://www.w3.org/2000/svg" xmlns:ev="http://www.w3.org/2001/xml-events" xmlns:xlink="http://www.w3.org/1999/xlink"><defs /><rect fill="white" height="109" width="109" x="0" y="0" /><path d="M25.5176470588,8.33411764706 m11,0 l51,-3 m-78,18 l-5,21 m5,-18 l63,-5 28,0 l-1,10 m-46,-20 l1,4 0,35 m-28,-17 l12,7 m-14,4 l13,8 m31,-25 l12,7 m-14,6 l14,8 m-55,12 l47,-3 10,0 m-62,18 l67,-4 m-44,5 l1,5 0,25 m15,-32 l1,5 0,25 m-42,-19 l6,6 4,7 m54,-17 l-5,8 -7,6 m-64,11 l6,0 79,-4 l12,1 " fill="none" stroke="black" stroke-width="2" /></svg>