<?xml version="1.0" encoding="utf-8" ?>
<svg baseProfile="full" height="109" version="1.1" width="109" xmlns="http://www.w3.org/2000/svg" xmlns:ev="http://www.w3.org/2001/xml-events" xmlns:xlink="http://www.w3.org/1999/xlink"><defs /><rect fill="white" height="109" width="109" x="0" y="0" /><path d="M60.447826087,5.0 m2,4 l0,10 m-38,1 l7,0 68,-4 l6,0 m-77,4 l-1,40 -5,25 l-11,20 m-2,-71 l6,6 4,7 m-13,23 l4,0 13,-8 m37,-35 l-5,6 -8,5 m-3,0 l1,2 0,21 l2,1 18,-12 m-6,-9 l5,6 3,8 m5,-24 l27,-2 3,4 l-5,19 -4,8 l-6,0 m-1,-26 l-3,12 -5,8 l-10,9 m-22,10 l4,33 m-3,-31 l49,-4 5,3 l-4,29 m-25,-28 l1,2 0,24 m-22,-13 l49,-3 m-47,18 l45,-2 " fill="none" stroke="black" stroke-width="2" /></svg>