<?xml version="1.0" encoding="utf-8" ?>
<svg baseProfile="full" height="109" version="1.1" width="109" xmlns="http://www.w3.org/2000/svg" xmlns:ev="http://www.w3.org/2001/xml-events" xmlns:xlink="http://www.w3.org/1999/xlink"><defs /><rect fill="white" height="109" width="109" x="0" y="0" /><path d="M45.0182555781,5.0 m6,5 m-42,4 l-3,16 m4,-12 l78,-5 0,10 m-53,-3 l-4,6 -14,9 m43,-19 l0,8 10,4 l9,0 m-40,6 l-9,4 -11,3 m-2,-1 l4,24 m0,-13 l20,-1 m16,-11 l21,-2 2,0 l-3,23 m-18,-11 l20,-1 m-58,15 l55,-3 m-60,12 l1,2 0,34 l2,1 20,-11 m-14,-26 l9,7 m-9,5 l8,7 m12,-24 l1,2 0,34 l2,1 19,-10 m-15,-26 l9,7 m-10,6 l5,3 3,4 m5,-26 l1,3 2,14 l6,13 11,10 l5,-8 " fill="none" stroke="black" stroke-width="2" /></svg>