<?xml version="1.0" encoding="utf-8" ?>
<svg baseProfile="full" height="109" version="1.1" width="109" xmlns="http://www.w3.org/2000/svg" xmlns:ev="http://www.w3.org/2001/xml-events" xmlns:xlink="http://www.w3.org/1999/xlink"><defs /><rect fill="white" height="109" width="109" x="0" y="0" /><path d="M13.418699187,22.7235772358 m4,0 l43,-3 21,0 m-38,-13 l1,3 -3,24 m-22,1 l1,3 3,40 m-2,-43 l42,-3 5,4 l-2,40 m-44,-27 l30,-2 m-28,15 l28,-1 m-27,15 l41,-3 m-64,15 l6,0 50,-3 l32,0 m-60,6 l-3,7 -7,6 l-10,6 m51,-19 l8,4 7,6 l4,6 " fill="none" stroke="black" stroke-width="2" /></svg>