<?xml version="1.0" encoding="utf-8" ?>
<svg baseProfile="full" height="109" version="1.1" width="109" xmlns="http://www.w3.org/2000/svg" xmlns:ev="http://www.w3.org/2001/xml-events" xmlns:xlink="http://www.w3.org/1999/xlink"><defs /><rect fill="white" height="109" width="109" x="0" y="0" /><path d="M26.4063205418,10.9051918736 m0,6 l-11,29 -9,16 m15,-23 l1,4 0,66 m19,-96 l1,4 0,57 m0,-60 l22,-2 5,4 l0,59 m-26,-41 l25,-2 m-25,21 l24,-2 m-24,22 l24,-2 m-19,13 l0,3 -13,15 m28,-20 l7,8 4,8 m12,-83 l2,5 0,45 m17,-62 l2,5 0,90 l-11,0 " fill="none" stroke="black" stroke-width="2" /></svg>