<?xml version="1.0" encoding="utf-8" ?>
<svg baseProfile="full" height="109" version="1.1" width="109" xmlns="http://www.w3.org/2000/svg" xmlns:ev="http://www.w3.org/2001/xml-events" xmlns:xlink="http://www.w3.org/1999/xlink"><defs /><rect fill="white" height="109" width="109" x="0" y="0" /><path d="M6.23303167421,17.3303167421 m4,0 l46,-4 m-36,-8 l1,2 2,16 m19,-18 l-2,18 m-31,5 l3,14 m-1,-12 l15,-2 1,1 l-2,9 m-13,1 l15,-1 m7,-11 l3,12 m-1,-11 l15,-2 1,1 l-2,9 m-12,1 l13,-1 m-32,8 l0,4 -3,6 l-11,15 m11,-9 l0,3 0,43 m20,-64 l-4,11 m-16,4 l36,-4 m-19,4 l0,42 m-15,-29 l31,-3 m-31,17 l32,-4 m-33,21 l34,-3 m13,-92 l1,3 0,58 m0,-60 l27,-3 4,2 l0,59 m-31,-42 l31,-3 m-31,20 l30,-2 m-31,22 l30,-1 m-24,11 l-3,13 -7,12 l-11,10 m34,-44 l0,5 0,25 l1,11 11,3 l11,-2 1,-7 " fill="none" stroke="black" stroke-width="2" /></svg>