<?xml version="1.0" encoding="utf-8" ?>
<svg baseProfile="full" height="109" version="1.1" width="109" xmlns="http://www.w3.org/2000/svg" xmlns:ev="http://www.w3.org/2001/xml-events" xmlns:xlink="http://www.w3.org/1999/xlink"><defs /><rect fill="white" height="109" width="109" x="0" y="0" /><path d="M15.2735632184,13.2689655172 m8,4 l5,4 m-22,19 l8,4 6,6 m-15,48 l5,-1 11,-21 m28,-57 l-3,13 -9,17 m13,-17 l36,-5 5,0 m-25,-25 l1,5 0,46 m-34,3 l11,0 49,-4 l10,0 m-49,7 l0,4 -5,15 l-10,15 -14,13 m47,-51 l1,5 0,26 l2,13 14,2 l13,-2 2,-9 " fill="none" stroke="black" stroke-width="2" /></svg>