<?xml version="1.0" encoding="utf-8" ?>
<svg baseProfile="full" height="109" version="1.1" width="109" xmlns="http://www.w3.org/2000/svg" xmlns:ev="http://www.w3.org/2001/xml-events" xmlns:xlink="http://www.w3.org/1999/xlink"><defs /><rect fill="white" height="109" width="109" x="0" y="0" /><path d="M13.7673913043,7.36956521739 m6,4 l4,4 m-18,10 l6,4 4,4 m-10,32 l5,0 12,-20 m18,-39 l5,1 33,-4 l1,4 -17,13 m-12,-6 l8,4 6,5 m-26,2 l1,2 0,39 m0,-40 l43,-3 4,2 l0,34 -8,0 m-39,-23 l36,-2 m-36,13 l35,-2 m-13,-18 l1,1 0,35 m-54,16 l-2,9 -4,10 m20,-22 l10,14 17,10 l27,4 3,-11 m-32,-18 l8,2 m23,-5 l8,4 7,9 " fill="none" stroke="black" stroke-width="2" /></svg>