<?xml version="1.0" encoding="utf-8" ?>
<svg baseProfile="full" height="109" version="1.1" width="109" xmlns="http://www.w3.org/2000/svg" xmlns:ev="http://www.w3.org/2001/xml-events" xmlns:xlink="http://www.w3.org/1999/xlink"><defs /><rect fill="white" height="109" width="109" x="0" y="0" /><path d="M5.0,16.6615720524 m4,0 l34,-2 m-36,20 l0,66 m0,-64 l29,-2 4,4 l0,60 m-22,-79 l0,5 -1,15 l-2,12 -3,9 m16,-43 l0,31 4,9 l5,0 m-25,19 l19,-1 m-26,20 l32,-2 m8,-59 l4,1 20,-1 m-14,-27 l2,4 0,89 l-6,0 m7,-63 l-4,17 -6,15 l-7,12 m21,-31 l5,4 4,6 m3,-27 l3,0 28,-2 m-22,-28 l2,4 0,92 l-6,0 m6,-63 l-4,17 -7,17 l-7,12 m20,-49 l12,36 7,14 " fill="none" stroke="black" stroke-width="2" /></svg>