<?xml version="1.0" encoding="utf-8" ?>
<svg baseProfile="full" height="109" version="1.1" width="109" xmlns="http://www.w3.org/2000/svg" xmlns:ev="http://www.w3.org/2001/xml-events" xmlns:xlink="http://www.w3.org/1999/xlink"><defs /><rect fill="white" height="109" width="109" x="0" y="0" /><path d="M10.2358078603,14.2816593886 m6,4 l4,5 m-16,19 l8,5 5,6 m-15,45 l4,-1 11,-20 m9,-56 l6,0 31,-3 m-37,16 l1,4 2,21 m-2,-24 l27,-3 5,4 l-3,16 m-25,3 l27,-2 m-16,-51 l1,4 0,101 m0,-51 l-8,16 -16,20 m30,-26 l6,6 5,7 m20,-78 l-4,17 -12,29 m12,-18 l21,-3 2,4 l-5,9 m-17,0 l0,4 -2,18 l-7,22 -14,18 m23,-41 l19,32 6,7 " fill="none" stroke="black" stroke-width="2" /></svg>