<?xml version="1.0" encoding="utf-8" ?>
<svg baseProfile="full" height="109" version="1.1" width="109" xmlns="http://www.w3.org/2000/svg" xmlns:ev="http://www.w3.org/2001/xml-events" xmlns:xlink="http://www.w3.org/1999/xlink"><defs /><rect fill="white" height="109" width="109" x="0" y="0" /><path d="M12.5886075949,20.6371308017 m4,0 l50,-3 28,0 m-64,-9 l2,3 3,18 m33,-24 l1,4 -3,18 m-53,14 l76,-4 m-65,12 l6,9 m45,-14 l-3,7 -7,7 m-62,7 l6,0 60,-4 l30,0 m-52,-39 l2,3 0,80 l-7,2 m5,-44 l-11,14 -15,14 l-17,10 m45,-37 l27,23 12,8 l6,2 " fill="none" stroke="black" stroke-width="2" /></svg>