<?xml version="1.0" encoding="utf-8" ?>
<svg baseProfile="full" height="109" version="1.1" width="109" xmlns="http://www.w3.org/2000/svg" xmlns:ev="http://www.w3.org/2001/xml-events" xmlns:xlink="http://www.w3.org/1999/xlink"><defs /><rect fill="white" height="109" width="109" x="0" y="0" /><path d="M5.0,10.4030172414 m2,3 l0,97 m7,-100 l30,-2 m-16,1 l0,3 0,19 m-14,-10 l27,-1 m-29,14 l33,-2 m8,-24 l32,-2 m-16,1 l1,3 0,19 m-14,-10 l28,-1 m-31,14 l34,-2 m5,-26 l2,6 0,93 l-10,0 m-39,-65 l6,7 m-32,6 l64,-3 m-55,16 l1,3 0,29 m0,-29 l38,-5 4,4 l-1,26 -6,0 m-17,-38 l1,3 0,53 " fill="none" stroke="black" stroke-width="2" /></svg>