<?xml version="1.0" encoding="utf-8" ?>
<svg baseProfile="full" height="109" version="1.1" width="109" xmlns="http://www.w3.org/2000/svg" xmlns:ev="http://www.w3.org/2001/xml-events" xmlns:xlink="http://www.w3.org/1999/xlink"><defs /><rect fill="white" height="109" width="109" x="0" y="0" /><path d="M45.9056179775,21.9011235955 m7,7 l4,8 m40,-19 l-3,9 -7,8 m-47,14 l6,0 59,-5 m-34,-40 l1,3 0,84 l-8,2 m4,-46 l-7,13 -10,13 l-12,10 m40,-29 l17,15 7,10 m-93,-66 l7,5 5,6 m-19,32 l5,0 12,-4 l3,3 -5,10 l1,6 4,6 l0,4 -13,10 m-5,1 l17,0 58,13 l12,0 11,-1 " fill="none" stroke="black" stroke-width="2" /></svg>