<?xml version="1.0" encoding="utf-8" ?>
<svg baseProfile="full" height="109" version="1.1" width="109" xmlns="http://www.w3.org/2000/svg" xmlns:ev="http://www.w3.org/2001/xml-events" xmlns:xlink="http://www.w3.org/1999/xlink"><defs /><rect fill="white" height="109" width="109" x="0" y="0" /><path d="M29.1961206897,12.2823275862 m0,4 l-4,13 -8,16 l-11,15 m18,-23 l0,4 0,64 m24,-99 l7,7 5,7 m29,-18 l-3,9 -7,8 m-34,9 l5,0 45,-5 l4,0 m-55,23 l5,0 49,-3 m-62,25 l6,0 66,-4 m-40,-39 l1,3 0,75 " fill="none" stroke="black" stroke-width="2" /></svg>