<?xml version="1.0" encoding="utf-8" ?>
<svg baseProfile="full" height="109" version="1.1" width="109" xmlns="http://www.w3.org/2000/svg" xmlns:ev="http://www.w3.org/2001/xml-events" xmlns:xlink="http://www.w3.org/1999/xlink"><defs /><rect fill="white" height="109" width="109" x="0" y="0" /><path d="M5.0,39.4936708861 m3,0 l29,-3 m-17,-30 l2,3 0,63 m-17,7 l5,0 27,-16 m4,-56 l5,0 32,-2 l22,0 m-56,3 l0,33 -3,30 l-12,25 m25,-79 l4,21 m-2,-20 l35,-3 3,2 l-3,18 m-30,-14 l6,10 m20,-14 l-2,7 -5,6 m-20,4 l33,-2 m-18,-15 l0,37 m-18,-8 l36,-2 m-42,12 l52,-2 m-49,9 l-4,12 m13,-13 l4,8 m11,-8 l7,8 m7,-9 l6,5 4,5 m-51,14 l45,-2 m-24,-9 l1,2 0,21 m-31,1 l66,-2 " fill="none" stroke="black" stroke-width="2" /></svg>