<?xml version="1.0" encoding="utf-8" ?>
<svg baseProfile="full" height="109" version="1.1" width="109" xmlns="http://www.w3.org/2000/svg" xmlns:ev="http://www.w3.org/2001/xml-events" xmlns:xlink="http://www.w3.org/1999/xlink"><defs /><rect fill="white" height="109" width="109" x="0" y="0" /><path d="M5.0,33.9868131868 m4,0 l29,-3 m-17,-23 l2,6 0,85 l-9,1 m-9,-29 l7,0 27,-18 m14,-45 l0,4 -2,44 l-6,30 -13,19 m4,-66 l5,0 23,-6 l2,4 -4,42 l0,18 8,6 l15,0 14,0 l6,-3 1,-8 m-34,-61 l5,0 21,-4 l3,4 -4,36 l-4,18 -9,0 m2,-81 l0,6 -2,24 l-5,27 -12,25 " fill="none" stroke="black" stroke-width="2" /></svg>