<?xml version="1.0" encoding="utf-8" ?>
<svg baseProfile="full" height="109" version="1.1" width="109" xmlns="http://www.w3.org/2000/svg" xmlns:ev="http://www.w3.org/2001/xml-events" xmlns:xlink="http://www.w3.org/1999/xlink"><defs /><rect fill="white" height="109" width="109" x="0" y="0" /><path d="M9.27450980392,24.2352941176 m4,0 l44,-4 4,0 m-28,-15 l2,4 0,29 m-22,2 l6,26 m-4,-24 l40,-5 2,4 l-4,18 m-34,4 l36,-4 m-25,7 l0,4 -4,11 l-8,14 -12,12 m39,-46 l1,5 0,25 l1,9 9,4 l21,0 21,-1 l9,-4 2,-8 m-36,-75 l2,6 0,46 m21,-68 l2,6 0,76 l-10,0 " fill="none" stroke="black" stroke-width="2" /></svg>