<?xml version="1.0" encoding="utf-8" ?>
<svg baseProfile="full" height="109" version="1.1" width="109" xmlns="http://www.w3.org/2000/svg" xmlns:ev="http://www.w3.org/2001/xml-events" xmlns:xlink="http://www.w3.org/1999/xlink"><defs /><rect fill="white" height="109" width="109" x="0" y="0" /><path d="M18.2695652174,18.9804347826 m0,3 l-6,21 -6,11 m10,-17 l35,-3 m-21,-27 l2,5 0,75 m-20,-26 l39,-3 m-41,39 l4,0 40,-21 m4,-67 l1,3 4,33 m-3,-35 l45,-4 4,3 l-6,33 m-21,-31 l0,29 m-22,-13 l33,-3 m-30,19 l40,-3 m-49,24 l4,0 45,-5 l3,4 -8,31 l-5,12 -7,0 m-5,-59 l-4,22 -8,19 l-17,18 " fill="none" stroke="black" stroke-width="2" /></svg>