<?xml version="1.0" encoding="utf-8" ?>
<svg baseProfile="full" height="109" version="1.1" width="109" xmlns="http://www.w3.org/2000/svg" xmlns:ev="http://www.w3.org/2001/xml-events" xmlns:xlink="http://www.w3.org/1999/xlink"><defs /><rect fill="white" height="109" width="109" x="0" y="0" /><path d="M20.2647702407,9.05470459519 m4,4 l3,5 m-23,12 l38,-3 m-30,19 l24,-2 m-24,18 l24,-2 m-25,17 l4,24 m-2,-22 l22,-3 2,2 l-3,17 m-17,3 l19,-2 m14,-78 l44,-4 m-25,-9 l2,2 0,35 m-20,-11 l41,-3 m-49,18 l56,-4 7,0 m-52,13 l1,3 0,53 m0,-55 l30,-4 3,5 l0,46 -7,1 m-25,-35 l20,-1 m-19,16 l19,-1 " fill="none" stroke="black" stroke-width="2" /></svg>